<svg width="520" height="514" viewBox="0 0 520 514" fill="none" xmlns="http://www.w3.org/2000/svg">
<path d="M65.9474 368.744C59.3285 364.588 51.7455 361.978 43.9709 361.181C40.3811 360.812 36.4569 360.916 33.5766 363.092C32.9648 363.554 32.3697 364.236 32.5053 364.99C32.6065 365.544 33.0743 365.946 33.5218 366.289C42.464 373.11 55.9887 373.971 65.9474 368.744Z" fill="#E0E0E0"/>
<path d="M65.3836 368.123C60.4084 364.24 55.4046 360.331 51.19 355.635C46.9754 350.938 43.5499 345.361 42.2906 339.177C41.9086 337.3 41.7907 335.158 42.994 333.67C54.3084 342.506 63.1959 353.934 65.3836 368.123Z" fill="#E0E0E0"/>
<path d="M65.8297 368.66C64.9775 362.47 64.6716 356.107 66.0927 350.024C67.5139 343.938 70.8239 338.116 76.0193 334.646C77.9749 339.216 77.1346 344.481 75.7563 349.256C73.6281 356.636 70.2895 363.667 65.9142 369.978" fill="#E0E0E0"/>
<path d="M76.9217 388.533C70.1885 389.351 64.3254 392.9 59.2978 397.453C54.2703 402.004 50.6972 408.14 49.2166 414.758C55.8212 414.35 61.4236 409.693 65.4871 404.472C69.5505 399.249 72.3654 393.519 76.83 388.636" fill="#E0E0E0"/>
<path d="M79.3303 391.712C73.9076 378.353 75.8727 362.258 84.3495 350.596C88.1845 364.241 86.7764 379.652 79.3303 391.712Z" fill="#E0E0E0"/>
<path d="M93.9852 409.161C87.8757 408.783 81.6627 410.237 76.3566 413.293C71.0505 416.346 66.6728 420.988 63.9317 426.461C63.5592 427.205 63.2307 428.152 63.7294 428.819C64.1626 429.398 65.0006 429.451 65.7218 429.405C71.6444 429.022 76.8946 425.457 81.2258 421.399C85.5571 417.342 89.3313 412.653 94.1173 409.143" fill="#E0E0E0"/>
<path d="M93.5174 408.212C90.3657 398.126 90.1693 387.136 92.9592 376.944C94.0614 372.92 95.9098 368.683 99.6317 366.795C99.9495 366.633 100.318 366.49 100.653 366.617C100.968 366.734 101.152 367.059 101.298 367.364C102.622 370.13 103.007 373.271 102.87 376.334C102.735 379.397 102.099 382.413 101.465 385.415C100.293 390.965 99.6698 396.93 96.6251 401.715C95.9027 402.852 95.2671 404.078 94.6898 405.297C94.1137 406.512 94.1102 406.942 93.5817 407.908" fill="#E0E0E0"/>
<path d="M132.309 413.991C129.435 403.059 132.485 389.805 139.376 380.843C139.883 380.184 140.555 379.477 141.384 379.553C142.652 379.671 142.981 381.361 142.924 382.634C142.426 393.806 138.7 404.814 132.309 413.991Z" fill="#E0E0E0"/>
<path d="M135.807 416.382C149.088 419.837 164.326 416.478 175.372 408.335C168.826 405.016 161.109 404.069 153.954 405.705C146.798 407.342 140.261 410.548 135.807 416.382Z" fill="#E0E0E0"/>
<path d="M138.756 409.103C146.195 396.976 160.457 389.06 174.666 388.34C173.028 394.118 168.279 398.61 162.921 401.324C157.562 404.038 151.58 405.22 145.684 406.365C143.39 406.811 140.244 407.3 138.756 409.103Z" fill="#E0E0E0"/>
<path d="M133.049 373.782C135.063 366.881 137.088 359.919 137.641 352.752C138.194 345.584 137.173 338.101 133.453 331.95C126.505 345.395 125.801 361.105 132.84 374.502" fill="#E0E0E0"/>
<path d="M156.442 361.958C164.568 347.19 181.145 335.394 197.921 333.74C191.449 349.852 173.802 362.304 156.442 361.958Z" fill="#E0E0E0"/>
<path d="M151.33 364.852C163.448 366.698 173.773 374.438 185.098 379.13C187.519 380.133 190.133 380.933 192.731 380.591C195.331 380.251 197.896 378.507 198.479 375.951C198.962 373.829 197.997 371.575 196.474 370.02C194.95 368.464 192.939 367.493 190.928 366.657C178.594 361.522 165.366 361.393 152.373 364.508" fill="#E0E0E0"/>
<path d="M144.318 373.351C147.061 374.136 147.998 375.558 150.17 377.407C157.541 383.686 166.381 388.226 175.777 390.562C176.755 390.804 178.04 390.902 178.524 390.018C178.947 389.245 178.411 388.311 177.861 387.623C173.925 382.698 168.309 379.328 162.4 377.127C156.492 374.927 151.371 372.275 144.318 372.844" fill="#E0E0E0"/>
<path d="M136.404 322.017C146.258 331.215 160.137 335.937 173.557 334.658C174.168 334.599 174.833 334.502 175.249 334.051C176.183 333.034 175.062 331.463 173.971 330.614C163.049 322.097 149.818 318.567 136.404 322.017Z" fill="#E0E0E0"/>
<path d="M145.787 318.584C158.813 308.818 176.674 305.87 192.147 310.933C186.308 316.688 178.209 319.783 170.056 320.633C161.902 321.482 153.737 320.577 145.787 318.584Z" fill="#E0E0E0"/>
<path d="M142.057 294.994C140.985 284.092 141.681 275.485 140.924 264.531C140.863 263.656 140.675 262.603 139.856 262.288C138.716 261.848 137.766 263.249 137.393 264.413C134.147 274.51 135.92 286.092 142.042 294.755" fill="#E0E0E0"/>
<path d="M141.273 296.199C148.662 291.629 154.206 285.661 159.333 278.646C162.9 273.765 165.907 267.917 165.097 261.927C160.088 261.827 155.327 264.589 152.07 268.397C148.811 272.203 146.874 276.96 145.428 281.757C143.982 286.555 142.969 291.485 141.273 296.199Z" fill="#E0E0E0"/>
<path d="M159.017 291.269C175.235 285.272 190.365 276.35 203.464 265.061C198.154 262.923 192.076 264.203 186.767 266.345C174.64 271.241 164.733 279.503 158.785 291.15" fill="#E0E0E0"/>
<path d="M146.262 302.163C154.467 303.061 162.801 303.644 170.941 302.285C178.943 300.947 186.505 297.775 193.982 294.628C194.601 294.367 195.276 294.056 195.547 293.44C195.842 292.771 195.528 291.958 194.987 291.469C194.445 290.979 193.724 290.744 193.022 290.547C184.893 288.273 176.12 289.339 168.123 292.035C160.125 294.733 153.568 297.936 146.262 302.163Z" fill="#E0E0E0"/>
<path d="M99.4123 322.389C93.8146 311.09 94.1788 297.905 99.0136 286.26C102.418 291.445 102.834 298.051 102.212 304.223C101.589 310.396 99.7099 316.749 99.5873 322.952" fill="#E0E0E0"/>
<path d="M77.0498 311.111C63.074 310.843 49.0935 316.799 39.6038 327.063C46.5785 328.159 53.7628 326.36 60.1079 323.262C66.4531 320.163 72.0912 315.816 77.6794 311.5" fill="#E0E0E0"/>
<path d="M62.015 306.083C55.1771 305.528 48.5999 304.682 42.025 306.697C35.4514 308.711 29.468 313.284 26.7888 319.616C33.184 320.337 39.6684 318.733 45.5291 316.076C51.391 313.421 56.7209 309.742 62.015 306.083Z" fill="#E0E0E0"/>
<path d="M84.2757 306.313C78.1257 302.282 71.8092 298.179 64.6475 296.51C57.4859 294.839 49.1864 296.073 44.1921 301.472C49.9886 304.874 57.0241 305.275 63.7453 305.27C70.4666 305.264 78.7078 305.189 85.0446 307.431" fill="#E0E0E0"/>
<path d="M84.3123 306.637C73.7966 296.312 69.8105 277.763 74.0418 263.646C82.3068 276.205 86.0084 291.699 84.3123 306.637Z" fill="#E0E0E0"/>
<path d="M113.227 277.381C115.21 272.771 116.605 267.933 118.384 263.239C120.163 258.547 122.375 253.929 125.736 250.202C129.098 246.476 133.748 243.701 138.76 243.452C135.621 257.661 126.185 270.356 113.484 277.455" fill="#E0E0E0"/>
<path d="M107.994 283.478C104.713 278.961 100.921 272.829 96.4703 269.458C92.02 266.086 86.2247 264.045 80.7937 265.34C86.3176 275.215 96.7548 282.174 107.994 283.478Z" fill="#E0E0E0"/>
<path d="M109.041 277.758C106.89 272.291 104.724 266.768 103.854 260.959C102.984 255.149 103.512 248.943 106.483 243.877C112.256 254.787 114.115 266.499 109.336 277.882" fill="#E0E0E0"/>
<path d="M113.28 243.876C116.55 233.059 126.454 225.095 137.147 221.441C138.495 220.981 139.924 220.596 141.331 220.814C142.739 221.032 144.12 221.995 144.416 223.389C144.806 225.229 143.285 226.877 141.855 228.1C133.53 235.22 123.742 240.623 113.28 243.876Z" fill="#E0E0E0"/>
<path d="M113.398 235.03C113.813 228.057 114.249 220.982 116.518 214.374C118.785 207.765 123.157 201.567 129.517 198.674C130.599 205.718 127.492 212.726 123.743 218.787C119.995 224.849 115.478 230.569 113.227 237.331" fill="#E0E0E0"/>
<path d="M113.227 239.831C110.524 231.948 110.246 221.935 105.525 215.067C102.226 210.267 96.9411 206.997 94.0989 201.913C92.21 206.662 92.7872 212.133 94.763 216.847C96.7376 221.56 100.002 225.617 103.496 229.348C106.988 233.079 109.979 235.884 113.227 239.831Z" fill="#E0E0E0"/>
<path d="M113.28 471.976C113.069 471.976 112.887 419.389 112.873 354.536C112.859 289.66 113.017 237.083 113.228 237.083C113.437 237.083 113.619 289.659 113.634 354.536C113.648 419.389 113.49 471.976 113.28 471.976Z" fill="#E0E0E0"/>
<path d="M159.234 314.455C159.248 314.505 158.544 314.767 157.257 315.197C155.837 315.676 154.009 316.293 151.815 317.033C147.228 318.596 140.926 320.859 134.084 323.662C127.312 326.568 120.924 328.926 117.287 332.079C115.469 333.633 114.426 335.316 113.911 336.545C113.389 337.779 113.296 338.534 113.227 338.521C113.201 338.517 113.209 338.329 113.249 337.969C113.31 337.615 113.4 337.086 113.635 336.438C114.079 335.14 115.093 333.339 116.93 331.677C118.758 330.009 121.302 328.512 124.219 327.149C127.133 325.787 130.366 324.369 133.796 322.959C140.658 320.147 147.009 317.957 151.649 316.521C153.967 315.799 155.86 315.266 157.171 314.913C158.487 314.571 159.22 314.404 159.234 314.455Z" fill="#E0E0E0"/>
<path d="M174.297 277.456C174.315 277.476 174.123 277.678 173.744 278.047C173.295 278.467 172.737 278.991 172.056 279.631C170.488 281.055 168.355 282.993 165.756 285.355C160.317 290.197 152.941 296.766 144.789 304.023C136.605 311.308 129.531 318.27 124.63 323.511C122.174 326.129 120.243 328.298 118.924 329.81C118.307 330.514 117.805 331.09 117.4 331.551C117.047 331.945 116.852 332.145 116.831 332.129C116.81 332.112 116.966 331.881 117.281 331.454C117.599 331.032 118.063 330.402 118.696 329.621C119.949 328.047 121.824 325.818 124.235 323.148C129.048 317.8 136.082 310.757 144.283 303.457C152.496 296.188 159.969 289.659 165.4 284.952C168.066 282.665 170.253 280.789 171.859 279.41C172.58 278.814 173.169 278.323 173.641 277.932C174.054 277.601 174.279 277.435 174.297 277.456Z" fill="#E0E0E0"/>
<path d="M135.954 311.432C135.74 311.336 137.449 307.389 139.153 302.396C140.872 297.404 141.681 293.19 141.899 293.226C142.098 293.246 141.613 297.582 139.872 302.638C139.016 305.163 138.07 307.384 137.326 308.959C136.581 310.535 136.047 311.472 135.954 311.432Z" fill="#E0E0E0"/>
<path d="M113.328 343.26C113.285 343.291 112.838 342.769 112.066 341.797C111.21 340.699 110.128 339.31 108.836 337.653C106.121 334.145 102.369 329.302 98.164 324.002C93.9565 318.703 90.0918 313.95 87.2912 310.51C85.97 308.876 84.8631 307.506 83.9895 306.424C83.2182 305.45 82.8099 304.898 82.8504 304.862C82.8897 304.829 83.3729 305.318 84.2144 306.232C85.0559 307.144 86.2485 308.486 87.7018 310.165C90.6107 313.519 94.5457 318.224 98.7591 323.531C102.97 328.837 106.659 333.737 109.265 337.332C110.569 339.127 111.606 340.594 112.305 341.621C113.004 342.647 113.37 343.229 113.328 343.26Z" fill="#E0E0E0"/>
<path d="M103.252 330.325C103.128 330.458 100.439 327.269 99.0302 322.421C97.9911 319.007 97.9459 315.882 98.0732 314.455L98.4089 314.481C98.2589 315.091 98.1482 315.412 98.0887 315.403C98.0292 315.392 98.0256 315.054 98.0756 314.428L98.4113 314.455C98.5339 315.871 98.7493 318.889 99.7586 322.206C101.119 326.901 103.455 330.196 103.252 330.325Z" fill="#E0E0E0"/>
<path d="M90.2438 313.961C90.145 314.067 89.2809 312.977 87.2956 312.25C85.3281 311.488 82.3644 311.32 79.1139 311.599C75.8598 311.838 72.9532 312.417 70.8739 312.928C68.7933 313.443 67.5222 313.848 67.4829 313.741C67.4484 313.652 68.6588 313.066 70.7287 312.41C72.7961 311.759 75.7431 311.084 79.0567 310.84C82.3442 310.557 85.4626 310.811 87.4979 311.752C89.5606 312.665 90.3116 313.942 90.2438 313.961Z" fill="#E0E0E0"/>
<path d="M87.16 309.995C87.1017 310.114 85.4437 309.307 82.6442 308.351C79.8507 307.391 75.8718 306.383 71.3786 306.033C66.8831 305.697 62.7971 306.091 59.8905 306.616C56.9792 307.139 55.2176 307.684 55.1772 307.558C55.1617 307.508 55.5878 307.329 56.3745 307.047C57.1589 306.754 58.3241 306.42 59.7846 306.09C62.7006 305.42 66.8593 304.933 71.437 305.275C76.011 305.631 80.0471 306.743 82.8287 307.846C84.2213 308.394 85.3234 308.901 86.0543 309.31C86.7898 309.708 87.1838 309.949 87.16 309.995Z" fill="#E0E0E0"/>
<path d="M113.227 293.226C113.024 293.277 111.549 288.156 109.934 281.788C108.319 275.418 107.175 270.213 107.377 270.162C107.581 270.109 109.055 275.231 110.671 281.6C112.286 287.969 113.431 293.174 113.227 293.226Z" fill="#E0E0E0"/>
<path d="M113.436 293.226C113.21 293.3 112.262 289.878 109.787 286.378C107.378 282.805 104.302 281.011 104.414 280.834C104.455 280.754 105.303 281.066 106.489 281.902C107.676 282.73 109.143 284.129 110.408 285.941C112.978 289.582 113.621 293.212 113.436 293.226Z" fill="#E0E0E0"/>
<path d="M113.28 443.944C113.198 443.956 113.043 442.68 112.451 440.448C111.865 438.215 110.762 435.046 108.937 431.342C105.303 423.918 98.6926 414.504 90.292 405.075C86.1297 400.32 82.09 395.833 78.6634 391.537C75.2295 387.248 72.4087 383.159 70.3472 379.544C68.2809 375.93 66.9348 372.83 66.1492 370.644C65.7636 369.546 65.4803 368.691 65.3256 368.098C65.1589 367.51 65.084 367.198 65.109 367.191C65.1768 367.168 65.56 368.393 66.4265 370.537C67.2918 372.679 68.7011 375.721 70.8114 379.272C72.9157 382.826 75.7627 386.852 79.2085 391.098C82.6495 395.348 86.6939 399.811 90.8645 404.575C99.2878 414.029 105.883 423.562 109.42 431.109C111.2 434.875 112.236 438.103 112.737 440.375C112.981 441.514 113.146 442.402 113.204 443.014C113.279 443.621 113.305 443.94 113.28 443.944Z" fill="#E0E0E0"/>
<path d="M154.806 397.039C154.831 397.097 154.036 397.499 152.63 398.262C151.234 399.046 149.253 400.254 146.985 401.993C144.715 403.731 142.177 406.011 139.571 408.755C136.969 411.503 134.289 414.697 131.552 418.116C126.083 424.98 120.967 431.052 117.905 435.898C116.349 438.304 115.219 440.331 114.478 441.752C113.731 443.172 113.336 443.969 113.28 443.944C113.256 443.932 113.326 443.722 113.482 443.326C113.644 442.936 113.864 442.347 114.213 441.622C114.876 440.153 115.942 438.072 117.45 435.613C120.425 430.648 125.5 424.492 130.959 417.641C133.702 414.214 136.414 411.015 139.065 408.27C141.722 405.531 144.326 403.263 146.662 401.563C148.999 399.859 151.043 398.708 152.492 398C153.213 397.638 153.802 397.416 154.19 397.248C154.584 397.088 154.795 397.016 154.806 397.039Z" fill="#E0E0E0"/>
<path d="M155.619 412.257C155.628 412.367 153.862 412.58 151.019 412.924C148.185 413.291 144.24 413.765 140.109 415.073C135.992 416.414 132.57 418.457 130.341 420.199C128.089 421.939 127.027 423.379 126.922 423.294C126.886 423.269 127.107 422.876 127.604 422.237C128.096 421.592 128.902 420.73 130.001 419.782C132.194 417.892 135.649 415.726 139.876 414.35C144.108 413.01 148.106 412.622 150.965 412.389C153.833 412.183 155.61 412.158 155.619 412.257Z" fill="#E0E0E0"/>
<path d="M128.265 421.623C128.025 421.487 130.098 418.321 131.706 414.061C133.216 409.763 133.569 405.995 133.839 406.038C133.938 406.051 133.933 406.992 133.763 408.506C133.582 410.014 133.22 412.113 132.421 414.321C131.617 416.526 130.563 418.37 129.753 419.654C128.933 420.935 128.35 421.675 128.265 421.623Z" fill="#E0E0E0"/>
<path d="M168.255 356.19C168.264 356.215 168.009 356.348 167.519 356.581C166.948 356.84 166.232 357.165 165.356 357.564C164.41 357.97 163.26 358.485 161.965 359.167C160.666 359.837 159.149 360.529 157.57 361.476C156.769 361.932 155.931 362.409 155.061 362.904C154.191 363.404 153.329 363.998 152.414 364.572C150.564 365.693 148.711 367.076 146.733 368.486C142.862 371.425 138.792 374.902 134.873 378.918C130.992 382.972 127.656 387.16 124.852 391.128C123.509 393.155 122.19 395.054 121.132 396.941C120.591 397.876 120.025 398.758 119.555 399.644C119.091 400.531 118.643 401.385 118.215 402.201C117.322 403.811 116.683 405.352 116.058 406.673C115.419 407.99 114.944 409.156 114.57 410.116C114.203 411.005 113.903 411.731 113.662 412.31C113.447 412.808 113.322 413.068 113.297 413.058C113.273 413.05 113.349 412.775 113.518 412.259C113.724 411.665 113.98 410.921 114.295 410.01C114.627 409.031 115.064 407.842 115.668 406.503C116.259 405.159 116.867 403.595 117.735 401.959C118.152 401.131 118.587 400.265 119.04 399.364C119.5 398.465 120.055 397.571 120.589 396.624C121.631 394.709 122.938 392.783 124.274 390.732C127.068 386.711 130.415 382.475 134.327 378.389C138.276 374.342 142.393 370.851 146.315 367.923C148.319 366.518 150.2 365.145 152.077 364.04C153.007 363.473 153.88 362.888 154.763 362.398C155.648 361.915 156.499 361.45 157.313 361.005C158.917 360.082 160.459 359.42 161.782 358.784C163.101 358.135 164.272 357.657 165.241 357.291C166.141 356.946 166.875 356.663 167.462 356.439C167.973 356.252 168.245 356.165 168.255 356.19Z" fill="#E0E0E0"/>
<path d="M135.389 378.21C135.323 378.199 135.688 376.922 137.196 375.518C138.667 374.117 141.353 372.819 144.478 372.725C147.593 372.642 150.295 373.514 152.141 374.221C153.995 374.951 155.074 375.541 155.037 375.629C154.994 375.735 153.838 375.318 151.964 374.729C150.095 374.158 147.455 373.405 144.502 373.484C141.561 373.574 139.02 374.709 137.547 375.925C136.042 377.138 135.511 378.283 135.389 378.21Z" fill="#E0E0E0"/>
<path d="M130.477 383.277C130.269 383.161 132.122 380.443 132.545 376.551C133.031 372.664 131.851 369.594 132.082 369.529C132.164 369.494 132.578 370.21 132.935 371.488C133.295 372.76 133.532 374.615 133.299 376.639C133.06 378.662 132.402 380.411 131.759 381.567C131.118 382.73 130.551 383.33 130.477 383.277Z" fill="#E0E0E0"/>
<path d="M76.9604 451.479C78.0936 471.576 84.1495 492.013 93.4643 512.677H133.97C142.853 492.219 148.491 471.811 149.493 451.479H76.9604Z" fill="#E0E0E0"/>
<path d="M142.929 483.999C142.929 484.208 129.591 484.378 113.144 484.378C96.6895 484.378 83.3564 484.208 83.3564 483.999C83.3564 483.788 96.6895 483.619 113.144 483.619C129.591 483.619 142.929 483.788 142.929 483.999Z" fill="#FAFAFA"/>
<path d="M142.024 491.278C142.024 491.489 129.52 491.658 114.102 491.658C98.6764 491.658 86.1765 491.489 86.1765 491.278C86.1765 491.069 98.6764 490.899 114.102 490.899C129.52 490.899 142.024 491.069 142.024 491.278Z" fill="#FAFAFA"/>
<path d="M94.1177 464.674C94.3272 464.674 94.4974 468.851 94.4974 474.004C94.4974 479.158 94.3272 483.334 94.1177 483.334C93.9082 483.334 93.738 479.158 93.738 474.004C93.738 468.851 93.9082 464.674 94.1177 464.674Z" fill="#FAFAFA"/>
<path d="M115.821 464.674C116.03 464.674 116.201 469 116.201 474.335C116.201 479.673 116.03 483.998 115.821 483.998C115.61 483.998 115.441 479.673 115.441 474.335C115.441 469 115.61 464.674 115.821 464.674Z" fill="#FAFAFA"/>
<path d="M136.195 464.51C136.404 464.51 136.575 468.922 136.575 474.364C136.575 479.809 136.404 484.22 136.195 484.22C135.985 484.22 135.815 479.809 135.815 474.364C135.815 468.922 135.985 464.51 136.195 464.51Z" fill="#FAFAFA"/>
<path d="M148.207 464.674C148.207 464.884 132.565 465.053 113.274 465.053C93.9754 465.053 78.3357 464.884 78.3357 464.674C78.3357 464.463 93.9754 464.294 113.274 464.294C132.565 464.294 148.207 464.463 148.207 464.674Z" fill="#FAFAFA"/>
<path d="M397.87 403.773C397.757 403.914 396.811 403.347 395.76 402.504C394.706 401.661 393.945 400.863 394.058 400.722C394.172 400.579 395.117 401.148 396.169 401.991C397.221 402.834 397.983 403.631 397.87 403.773Z" fill="#263238"/>
<path d="M426.588 360.849C426.762 356.838 426.875 352.725 425.608 348.917C424.342 345.105 421.406 341.603 417.476 340.789C412.988 339.859 408.392 342.692 405.878 346.522C403.363 350.352 402.5 355.002 401.757 359.524C396.641 390.676 394.752 422.358 396.129 453.898L414.487 456.472C422.55 423.528 425.123 394.734 426.588 360.849Z" fill="#455A64"/>
<path d="M414.926 340.647C414.937 340.652 414.907 340.751 414.844 340.94C414.761 341.165 414.662 341.438 414.54 341.772C414.241 342.549 413.832 343.606 413.316 344.943C413.061 345.634 412.719 346.382 412.447 347.238C412.172 348.096 411.874 349.024 411.555 350.018C411.233 351.018 410.89 352.082 410.527 353.211C410.227 354.361 409.91 355.576 409.58 356.851C408.194 361.939 407.046 368.123 406.033 375.019C405.039 381.924 404.388 389.571 403.876 397.605C402.937 413.689 402.79 428.29 402.376 438.848C402.18 444.126 402 448.398 401.798 451.348C401.7 452.778 401.623 453.911 401.567 454.741C401.536 455.096 401.511 455.386 401.491 455.624C401.469 455.823 401.454 455.924 401.442 455.923C401.431 455.923 401.424 455.819 401.424 455.621C401.426 455.381 401.43 455.09 401.435 454.735C401.461 453.902 401.498 452.768 401.542 451.334C401.666 448.385 401.775 444.113 401.912 438.833C402.207 428.277 402.281 413.675 403.221 397.564C403.734 389.517 404.406 381.853 405.434 374.934C406.483 368.022 407.682 361.824 409.131 356.732C409.48 355.457 409.812 354.243 410.127 353.092C410.508 351.965 410.87 350.901 411.208 349.903C411.545 348.911 411.861 347.986 412.153 347.131C412.444 346.28 412.804 345.536 413.079 344.85C413.644 343.531 414.091 342.486 414.418 341.72C414.564 341.396 414.684 341.129 414.782 340.913C414.867 340.732 414.915 340.643 414.926 340.647Z" fill="#263238"/>
<path d="M416.627 340.658C416.627 340.658 417.753 341.813 418.87 344.455C420.025 347.077 420.75 351.245 420.544 356.332C420.056 366.475 419.147 380.454 417.941 395.887C416.727 411.323 415.382 425.276 414.297 435.362C413.756 440.407 413.286 444.483 412.94 447.299C412.767 448.662 412.627 449.742 412.525 450.539C412.475 450.876 412.435 451.151 412.4 451.379C412.369 451.569 412.346 451.665 412.336 451.664C412.324 451.663 412.324 451.564 412.335 451.373C412.35 451.141 412.37 450.864 412.393 450.525C412.465 449.725 412.564 448.641 412.687 447.272C412.964 444.388 413.356 440.318 413.835 435.316C414.802 425.22 416.072 411.266 417.287 395.835C418.493 380.412 419.476 366.427 420.079 356.315C420.341 351.265 419.699 347.166 418.633 344.551C417.605 341.917 416.547 340.705 416.627 340.658Z" fill="#263238"/>
<path d="M429.354 388.171C429.294 388.342 427.737 387.939 425.875 387.271C424.015 386.604 422.556 385.925 422.618 385.754C422.68 385.583 424.236 385.987 426.098 386.654C427.957 387.321 429.416 387.999 429.354 388.171Z" fill="#263238"/>
<path d="M431.566 369.462C431.64 369.627 430.158 370.451 428.257 371.302C426.354 372.153 424.752 372.71 424.678 372.543C424.604 372.378 426.086 371.554 427.988 370.703C429.89 369.852 431.492 369.296 431.566 369.462Z" fill="#263238"/>
<path d="M430.42 354.191C430.407 354.371 429.182 354.434 427.683 354.33C426.183 354.227 424.98 353.997 424.992 353.816C425.003 353.635 426.229 353.572 427.728 353.675C429.228 353.779 430.433 354.01 430.42 354.191Z" fill="#263238"/>
<path d="M411.475 344.406C411.322 344.503 410.518 343.501 409.68 342.17C408.841 340.837 408.287 339.679 408.44 339.582C408.592 339.486 409.397 340.488 410.235 341.82C411.073 343.152 411.629 344.31 411.475 344.406Z" fill="#263238"/>
<path d="M405.216 353.639C405.211 353.82 404.045 353.942 402.608 353.911C401.172 353.88 400.011 353.71 400.015 353.528C400.018 353.347 401.185 353.225 402.621 353.257C404.058 353.286 405.22 353.459 405.216 353.639Z" fill="#263238"/>
<path d="M400.72 372.115C400.652 372.283 399.424 371.945 397.977 371.362C396.529 370.779 395.41 370.169 395.478 370.001C395.546 369.832 396.774 370.169 398.222 370.754C399.669 371.338 400.789 371.946 400.72 372.115Z" fill="#263238"/>
<path d="M400.24 387.652C400.277 387.83 399.231 388.199 397.905 388.477C396.578 388.757 395.471 388.838 395.434 388.662C395.397 388.483 396.443 388.114 397.77 387.836C399.096 387.557 400.203 387.476 400.24 387.652Z" fill="#263238"/>
<path d="M398.126 413.068C398.157 413.245 397.047 413.594 395.645 413.845C394.243 414.096 393.083 414.156 393.049 413.977C393.019 413.799 394.129 413.45 395.53 413.199C396.931 412.948 398.094 412.889 398.126 413.068Z" fill="#263238"/>
<path d="M396.72 427.097C396.805 427.257 395.879 427.913 394.653 428.561C393.426 429.21 392.363 429.606 392.278 429.447C392.193 429.286 393.12 428.63 394.346 427.982C395.573 427.333 396.636 426.937 396.72 427.097Z" fill="#263238"/>
<path d="M408.176 443.021C408.019 443.111 407.212 441.998 406.374 440.534C405.536 439.07 404.984 437.809 405.141 437.72C405.298 437.631 406.105 438.744 406.944 440.208C407.782 441.671 408.335 442.931 408.176 443.021Z" fill="#263238"/>
<path d="M411.482 416.559C411.608 416.688 410.711 417.775 409.476 418.985C408.239 420.197 407.137 421.074 407.008 420.946C406.882 420.815 407.781 419.729 409.016 418.518C410.252 417.306 411.356 416.43 411.482 416.559Z" fill="#263238"/>
<path d="M410.751 402.674C410.618 402.798 409.784 402.113 408.889 401.147C407.993 400.18 407.374 399.296 407.508 399.174C407.641 399.05 408.474 399.733 409.37 400.701C410.265 401.667 410.883 402.551 410.751 402.674Z" fill="#263238"/>
<path d="M413.023 384.934C413.158 385.055 412.408 386.111 411.351 387.291C410.291 388.475 409.324 389.334 409.188 389.214C409.054 389.092 409.803 388.037 410.862 386.855C411.92 385.673 412.889 384.812 413.023 384.934Z" fill="#263238"/>
<path d="M414.303 372.058C414.177 372.187 413.131 371.367 411.968 370.224C410.806 369.082 409.966 368.051 410.093 367.921C410.219 367.793 411.266 368.614 412.429 369.755C413.59 370.898 414.429 371.93 414.303 372.058Z" fill="#263238"/>
<path d="M416.816 354.655C416.972 354.746 416.446 355.914 415.645 357.259C414.841 358.606 414.063 359.623 413.908 359.53C413.753 359.437 414.277 358.271 415.081 356.923C415.884 355.577 416.66 354.562 416.816 354.655Z" fill="#263238"/>
<path d="M421.544 338.526C421.704 338.612 421.238 339.78 420.508 341.134C419.776 342.488 419.052 343.517 418.893 343.431C418.734 343.345 419.198 342.176 419.93 340.822C420.662 339.467 421.385 338.44 421.544 338.526Z" fill="#263238"/>
<path d="M426.908 345.851C426.986 346.015 426.253 346.528 425.268 347C424.284 347.47 423.422 347.72 423.345 347.557C423.266 347.394 424.002 346.878 424.985 346.408C425.969 345.937 426.831 345.688 426.908 345.851Z" fill="#263238"/>
<path d="M427.038 403.774C427.002 403.945 425.337 403.716 423.447 402.905C421.553 402.102 420.235 401.059 420.333 400.915C420.435 400.757 421.87 401.524 423.704 402.302C425.533 403.087 427.08 403.592 427.038 403.774Z" fill="#263238"/>
<path d="M424.845 416.042C424.879 416.221 423.774 416.584 422.376 416.854C420.977 417.123 419.816 417.198 419.781 417.02C419.748 416.842 420.853 416.479 422.251 416.21C423.649 415.94 424.811 415.866 424.845 416.042Z" fill="#263238"/>
<path d="M422.15 437.078C422.044 437.214 420.641 436.255 419.354 434.624C418.059 432.999 417.445 431.414 417.602 431.343C417.77 431.256 418.621 432.654 419.868 434.217C421.105 435.786 422.273 436.934 422.15 437.078Z" fill="#263238"/>
<path d="M392.642 446.698C392.523 446.561 393.269 445.73 394.307 444.842C395.345 443.954 396.282 443.347 396.399 443.485C396.517 443.622 395.771 444.453 394.733 445.34C393.696 446.228 392.76 446.836 392.642 446.698Z" fill="#263238"/>
<path d="M384.158 400.787C382.963 397.055 380.721 392.706 376.803 392.65C374.479 392.617 372.388 394.284 371.295 396.336C370.202 398.387 369.739 400.766 369.807 403.091C370.255 418.441 372.915 435.997 378.227 451.989H392.561C392.377 434.225 389.573 417.706 384.158 400.787Z" fill="#455A64"/>
<path d="M358.235 377.3C356.231 369.288 350.255 364.959 343.313 364.557C336.978 365.668 334.52 371.905 333.766 378.293C333.015 384.681 335 391.039 336.957 397.165L355.826 456.18C361.769 455.532 367.713 454.882 373.657 454.234C368.013 427.877 364.772 403.449 358.235 377.3Z" fill="#455A64"/>
<path d="M376.804 392.65C376.865 392.699 376.216 393.294 375.588 394.679C374.968 396.069 374.669 398.289 374.918 401.015C375.196 403.74 375.507 407.021 375.964 410.617C376.432 414.219 377.08 418.163 377.885 422.279C379.507 430.514 381.332 437.903 382.491 443.289C383.077 445.981 383.522 448.167 383.801 449.682C383.92 450.378 384.019 450.955 384.101 451.431C384.163 451.832 384.183 452.044 384.162 452.049C384.139 452.054 384.074 451.849 383.97 451.456C383.857 450.99 383.719 450.421 383.551 449.734C383.171 448.137 382.66 445.994 382.039 443.392C380.765 438.039 378.867 430.664 377.242 422.405C376.433 418.275 375.8 414.313 375.365 410.691C375.136 408.882 374.985 407.155 374.838 405.538C374.706 403.933 374.531 402.432 374.455 401.047C374.26 398.281 374.64 395.976 375.356 394.571C376.081 393.172 376.804 392.65 376.804 392.65Z" fill="#263238"/>
<path d="M343.571 364.049C343.633 364.102 342.621 364.954 341.416 366.944C340.214 368.913 338.938 372.124 338.702 376.275C338.431 380.425 339.354 385.349 340.909 390.631C342.474 395.939 344.191 401.762 345.996 407.875C349.552 420.098 352.771 431.159 355.124 439.248C356.246 443.22 357.162 446.456 357.818 448.777C358.109 449.855 358.341 450.719 358.518 451.375C358.672 451.971 358.741 452.289 358.721 452.295C358.698 452.301 358.585 451.998 358.391 451.412C358.185 450.766 357.914 449.913 357.573 448.847C356.869 446.544 355.885 443.324 354.678 439.379C352.278 431.304 348.995 420.262 345.367 408.061C343.581 401.94 341.877 396.11 340.327 390.797C338.798 385.484 337.901 380.472 338.24 376.245C338.538 372.018 339.911 368.768 341.2 366.809C342.493 364.827 343.571 364.049 343.571 364.049Z" fill="#263238"/>
<path d="M369.769 452.327C369.747 452.337 369.61 452.041 369.366 451.473C369.133 450.901 368.753 450.069 368.351 448.965C367.5 446.772 366.411 443.546 365.283 439.495C364.15 435.445 363.036 430.562 361.959 425.115C360.926 419.654 359.793 413.665 358.601 407.374C357.361 401.098 355.982 395.159 354.378 389.858C352.78 384.557 350.987 379.893 349.18 376.118C347.381 372.339 345.662 369.409 344.372 367.454C343.759 366.456 343.202 365.734 342.87 365.214C342.525 364.701 342.354 364.423 342.371 364.41C342.389 364.396 342.598 364.646 342.976 365.134C343.344 365.632 343.937 366.331 344.585 367.312C345.944 369.232 347.735 372.141 349.598 375.916C351.47 379.688 353.319 384.363 354.957 389.681C356.599 394.998 358.003 400.958 359.245 407.248C360.419 413.541 361.535 419.535 362.554 424.998C363.596 430.445 364.66 435.323 365.731 439.374C366.797 443.427 367.815 446.664 368.591 448.878C368.954 449.992 369.296 450.837 369.49 451.424C369.693 452.007 369.791 452.319 369.769 452.327Z" fill="#263238"/>
<path d="M337.276 394.222C337.319 394.397 336.349 394.785 335.11 395.086C333.871 395.386 332.832 395.486 332.788 395.311C332.745 395.136 333.716 394.748 334.955 394.447C336.194 394.148 337.233 394.047 337.276 394.222Z" fill="#263238"/>
<path d="M335.386 382.051C335.377 382.235 334.029 382.31 332.379 382.376C330.727 382.439 329.379 382.471 329.356 382.288C329.331 382.112 330.668 381.786 332.353 381.721C334.039 381.653 335.397 381.875 335.386 382.051Z" fill="#263238"/>
<path d="M337.396 370.937C337.278 371.074 336.31 370.445 335.233 369.531C334.154 368.617 333.376 367.763 333.493 367.625C333.61 367.487 334.58 368.117 335.657 369.03C336.734 369.945 337.514 370.799 337.396 370.937Z" fill="#263238"/>
<path d="M342.836 360.647C343.015 360.687 342.965 361.553 342.939 362.603C342.906 363.651 342.906 364.518 342.721 364.548C342.549 364.581 342.249 363.704 342.283 362.583C342.314 361.462 342.663 360.605 342.836 360.647Z" fill="#263238"/>
<path d="M353.952 365.495C354.1 365.598 353.665 366.477 352.98 367.456C352.292 368.437 351.617 369.145 351.468 369.041C351.319 368.939 351.755 368.06 352.441 367.08C353.127 366.1 353.803 365.391 353.952 365.495Z" fill="#263238"/>
<path d="M361.165 378.027C361.234 378.195 360.31 378.729 359.103 379.222C357.895 379.713 356.862 379.978 356.793 379.809C356.725 379.641 357.647 379.106 358.855 378.614C360.062 378.122 361.097 377.859 361.165 378.027Z" fill="#263238"/>
<path d="M365.542 390.921C365.615 391.079 364.392 391.778 362.715 392.154C361.038 392.537 359.633 392.435 359.631 392.261C359.624 392.073 360.962 391.884 362.57 391.515C364.178 391.154 365.468 390.747 365.542 390.921Z" fill="#263238"/>
<path d="M345.448 387.258C345.276 387.203 345.401 386.313 345.728 385.268C346.057 384.223 346.463 383.42 346.634 383.474C346.808 383.529 346.682 384.42 346.355 385.465C346.027 386.508 345.622 387.312 345.448 387.258Z" fill="#263238"/>
<path d="M348.252 403.445C348.085 403.372 348.447 402.174 349.059 400.766C349.67 399.357 350.302 398.273 350.466 398.346C350.632 398.419 350.272 399.618 349.661 401.026C349.048 402.434 348.419 403.518 348.252 403.445Z" fill="#263238"/>
<path d="M341.328 407.877C341.258 408.047 340.127 407.739 338.761 407.313C337.393 406.884 336.29 406.493 336.328 406.314C336.366 406.139 337.559 406.249 338.956 406.687C340.354 407.122 341.397 407.713 341.328 407.877Z" fill="#263238"/>
<path d="M345.319 421.075C345.425 421.223 344.66 421.948 343.612 422.695C342.566 423.444 341.631 423.93 341.525 423.782C341.421 423.634 342.184 422.909 343.232 422.162C344.28 421.415 345.215 420.929 345.319 421.075Z" fill="#263238"/>
<path d="M348.521 434.235C348.563 434.41 347.618 434.792 346.411 435.086C345.202 435.38 344.188 435.476 344.145 435.299C344.102 435.123 345.047 434.742 346.255 434.448C347.464 434.156 348.478 434.059 348.521 434.235Z" fill="#263238"/>
<path d="M365.894 401.914C365.986 402.065 365.177 402.71 364 403.151C362.824 403.596 361.794 403.645 361.76 403.472C361.726 403.289 362.652 402.962 363.769 402.537C364.888 402.119 365.801 401.754 365.894 401.914Z" fill="#263238"/>
<path d="M368.377 422.385C368.3 422.55 367.337 422.259 366.226 421.737C365.117 421.214 364.279 420.657 364.356 420.493C364.434 420.329 365.395 420.62 366.506 421.143C367.615 421.665 368.453 422.221 368.377 422.385Z" fill="#263238"/>
<path d="M372.759 437.035C372.692 437.204 371.421 436.863 369.919 436.274C368.418 435.686 367.254 435.073 367.32 434.904C367.385 434.735 368.657 435.076 370.158 435.664C371.66 436.252 372.824 436.866 372.759 437.035Z" fill="#263238"/>
<path d="M349.223 448.512C349.133 448.347 350.303 447.561 351.654 446.495C353.011 445.434 354.051 444.485 354.189 444.61C354.322 444.724 353.466 445.908 352.059 447.01C350.656 448.117 349.301 448.668 349.223 448.512Z" fill="#263238"/>
<path d="M360.806 441.063C360.621 441.084 360.368 440.1 359.922 438.956C359.484 437.809 359.008 436.911 359.16 436.802C359.298 436.695 360.059 437.482 360.534 438.719C361.015 439.955 360.98 441.049 360.806 441.063Z" fill="#263238"/>
<path d="M357.735 423.444C357.629 423.591 356.881 423.235 356.065 422.648C355.247 422.061 354.671 421.466 354.776 421.32C354.882 421.172 355.63 421.529 356.448 422.115C357.264 422.701 357.841 423.297 357.735 423.444Z" fill="#263238"/>
<path d="M384.737 395.833C384.845 395.978 384.117 396.699 383.11 397.442C382.103 398.184 381.199 398.668 381.091 398.522C380.985 398.376 381.714 397.655 382.72 396.912C383.726 396.171 384.63 395.686 384.737 395.833Z" fill="#263238"/>
<path d="M388.806 406.959C388.824 407.132 387.682 407.374 386.271 407.218C384.858 407.069 383.794 406.59 383.849 406.423C383.901 406.245 384.997 406.425 386.341 406.566C387.684 406.715 388.792 406.773 388.806 406.959Z" fill="#263238"/>
<path d="M371.314 409.453C371.353 409.626 370.298 410.004 368.932 410.092C367.567 410.186 366.47 409.951 366.484 409.776C366.499 409.59 367.575 409.528 368.888 409.438C370.199 409.354 371.276 409.272 371.314 409.453Z" fill="#263238"/>
<path d="M372.817 398.935C372.804 399.109 371.736 399.137 370.567 398.597C369.396 398.063 368.723 397.233 368.846 397.11C368.973 396.972 369.776 397.517 370.842 398.001C371.902 398.495 372.841 398.749 372.817 398.935Z" fill="#263238"/>
<path d="M390.308 418.901C390.211 419.054 389.117 418.539 387.865 417.751C386.613 416.963 385.677 416.199 385.773 416.046C385.869 415.894 386.962 416.407 388.215 417.196C389.467 417.984 390.404 418.747 390.308 418.901Z" fill="#263238"/>
<path d="M432.989 466.66H339.666V450.121H432.989V466.66Z" fill="#FF725E"/>
<path d="M346.635 463.379L357.983 512.807H413.604L426.019 463.379H346.635Z" fill="#FF725E"/>
<path d="M432.938 466.681C432.938 466.862 411.886 467.008 385.926 467.008C359.956 467.008 338.91 466.862 338.91 466.681C338.91 466.5 359.956 466.354 385.926 466.354C411.886 466.354 432.938 466.5 432.938 466.681Z" fill="#263238"/>
<path d="M381.038 409.813C380.883 409.91 380.246 409.166 379.613 408.153C378.98 407.14 378.591 406.242 378.744 406.146C378.898 406.05 379.536 406.793 380.17 407.806C380.802 408.818 381.192 409.718 381.038 409.813Z" fill="#263238"/>
<path d="M381.072 423.122C380.899 423.064 381.118 421.94 381.56 420.611C382.002 419.28 382.499 418.248 382.672 418.305C382.843 418.362 382.625 419.486 382.184 420.817C381.741 422.147 381.245 423.179 381.072 423.122Z" fill="#263238"/>
<path d="M385.627 437.092C385.463 437.171 384.765 436.054 384.069 434.598C383.372 433.143 382.939 431.899 383.104 431.821C383.268 431.742 383.965 432.859 384.661 434.315C385.357 435.771 385.79 437.015 385.627 437.092Z" fill="#263238"/>
<path d="M375.77 448.333C375.634 448.214 376.191 447.349 377.014 446.4C377.838 445.451 378.616 444.778 378.753 444.896C378.89 445.015 378.333 445.88 377.509 446.829C376.687 447.779 375.907 448.452 375.77 448.333Z" fill="#263238"/>
<path d="M373.701 427.925C373.67 428.102 372.772 428.094 371.696 427.904C370.62 427.713 369.772 427.414 369.805 427.237C369.836 427.059 370.734 427.068 371.81 427.257C372.885 427.448 373.732 427.746 373.701 427.925Z" fill="#263238"/>
<path d="M154.411 96.3554L143.769 77.5996C148.477 69.9571 151.197 60.9613 151.197 51.3264C151.197 23.6189 128.737 1.15795 101.029 1.15795C73.3227 1.15795 50.8606 23.6189 50.8606 51.3264C50.8606 79.0327 73.3227 101.495 101.029 101.495C112.599 101.495 123.245 97.5682 131.732 90.9886L131.714 91.0112L154.411 96.3554Z" fill="#FAFAFA"/>
<path d="M154.411 96.3554C153.333 96.109 146.148 94.4677 131.68 91.1612L131.446 91.1076L131.593 90.9172L131.61 90.8946L131.826 91.1112C128.965 93.3286 125.537 95.5127 121.506 97.3326C117.472 99.1215 112.849 100.583 107.745 101.263C105.197 101.588 102.536 101.797 99.7993 101.664C98.4329 101.586 97.0403 101.553 95.6382 101.436C94.2433 101.226 92.8293 101.012 91.3974 100.795C85.7152 99.6737 79.9045 97.517 74.4866 94.1534C69.0698 90.8029 64.0553 86.2538 60.0347 80.6621C56.0224 75.0823 52.9778 68.4646 51.5543 61.2744C50.1427 54.0937 50.2605 46.3976 52.1458 38.9491C54.0455 31.5268 57.5924 24.2747 62.9032 18.3093L64.9528 16.0538C65.6264 15.2956 66.4299 14.6707 67.1595 13.9744C67.9236 13.3162 68.6139 12.5711 69.4352 11.9903L71.843 10.1895C72.6238 9.55864 73.4832 9.05041 74.3378 8.5398C75.1876 8.02324 76.0374 7.50786 76.8837 6.99368C77.774 6.56162 78.6631 6.12957 79.5498 5.69871C80.4425 5.28689 81.303 4.80008 82.2398 4.50371C89.5299 1.60906 97.3046 0.508094 104.736 1.04608C112.169 1.58169 119.283 3.71459 125.385 7.14961C131.506 10.5573 136.667 15.1063 140.651 20.1874C144.646 25.2709 147.462 30.8793 149.205 36.4627C150.938 42.0723 151.406 47.6355 151.386 52.7856C151.237 57.9477 150.297 62.7038 148.929 66.878C147.556 71.0581 145.755 74.6526 143.895 77.677L143.898 77.5258C150.613 89.5532 153.895 95.4317 154.411 96.3554C153.882 95.4401 150.519 89.6067 143.639 77.6734L143.596 77.5973L143.642 77.5211C145.471 74.5026 147.24 70.92 148.58 66.7649C149.919 62.6146 150.829 57.8929 150.958 52.7737C150.957 47.6664 150.475 42.1556 148.743 36.6044C147 31.0805 144.199 25.5375 140.234 20.5159C136.281 15.4955 131.167 11.006 125.11 7.64712C119.072 4.25971 112.04 2.16252 104.694 1.6412C97.3474 1.1163 89.668 2.21132 82.4695 5.07264C81.5423 5.36544 80.6948 5.84868 79.8117 6.25574C78.9357 6.68065 78.0585 7.10794 77.1789 7.53524C76.3433 8.04347 75.5054 8.55171 74.6651 9.06351C73.8212 9.56817 72.9714 10.0693 72.2025 10.6929L69.8232 12.4723C69.0115 13.046 68.3318 13.784 67.5761 14.4327C66.8548 15.1218 66.0609 15.7383 65.3955 16.487L63.371 18.7151C58.1256 24.6068 54.6215 31.7696 52.7422 39.0991C50.8747 46.4547 50.7521 54.0604 52.1399 61.1577C53.5396 68.2634 56.539 74.8073 60.4989 80.33C64.4648 85.8646 69.4162 90.3744 74.7675 93.7011C80.1223 97.0386 85.8664 99.1881 91.4903 100.315C92.909 100.534 94.3075 100.75 95.6882 100.963C97.0784 101.083 98.4567 101.119 99.81 101.201C102.521 101.342 105.16 101.142 107.688 100.831C112.749 100.176 117.34 98.7454 121.353 96.9898C125.362 95.202 128.778 93.0525 131.637 90.8672L132.571 90.1519L131.855 91.0826L131.837 91.1041L131.75 90.8612C146.174 94.3582 153.337 96.0947 154.411 96.3554Z" fill="#263238"/>
<path d="M67.8137 56.5076L69.092 53.6712C70.4644 54.671 72.5092 55.3685 74.4624 55.3685C76.6941 55.3685 77.601 54.6246 77.601 53.6248C77.601 50.5802 68.1387 52.6714 68.1387 46.6274C68.1387 43.8613 70.3703 41.5594 74.9968 41.5594C77.0428 41.5594 79.1352 42.0486 80.6456 43.0008L79.484 45.8609C77.9724 45.0004 76.4156 44.5814 74.9742 44.5814C72.7425 44.5814 71.8819 45.4193 71.8819 46.4417C71.8819 49.4411 81.3431 47.3713 81.3431 53.3463C81.3431 56.066 79.0888 58.3905 74.4386 58.3905C71.8581 58.3905 69.2551 57.6228 67.8137 56.5076Z" fill="#263238"/>
<path d="M92.7985 51.8581C92.7985 49.6966 91.4273 48.3945 89.6134 48.3945C87.8007 48.3945 86.4057 49.6966 86.4057 51.8581C86.4057 54.0196 87.8007 55.3217 89.6134 55.3217C91.4273 55.3217 92.7985 54.0196 92.7985 51.8581ZM82.7327 51.8581C82.7327 48.0922 85.638 45.4189 89.6134 45.4189C93.5888 45.4189 96.4716 48.0922 96.4716 51.8581C96.4716 55.624 93.5888 58.2973 89.6134 58.2973C85.638 58.2973 82.7327 55.624 82.7327 51.8581Z" fill="#263238"/>
<path d="M106.648 45.4188V48.7669C106.346 48.7431 106.114 48.7193 105.834 48.7193C103.836 48.7193 102.51 49.812 102.51 52.2067V58.1115H98.8843V45.6045H102.348V47.2553C103.231 46.0461 104.719 45.4188 106.648 45.4188Z" fill="#263238"/>
<path d="M116.571 45.4188V48.7669C116.269 48.7431 116.037 48.7193 115.757 48.7193C113.759 48.7193 112.433 49.812 112.433 52.2067V58.1115H108.807V45.6045H112.271V47.2553C113.154 46.0461 114.642 45.4188 116.571 45.4188Z" fill="#263238"/>
<path d="M131.585 45.6047L125.936 58.8782C124.727 61.9002 123.007 62.8072 120.752 62.8072C119.473 62.8072 118.078 62.3894 117.265 61.6681L118.59 59.0877C119.148 59.5757 119.915 59.878 120.636 59.878C121.636 59.878 122.193 59.4364 122.682 58.3212L122.729 58.2046L117.312 45.6047H121.054L124.565 54.0899L128.098 45.6047H131.585Z" fill="#263238"/>
<path d="M132.603 41.8388H136.927L136.206 52.4628H133.323L132.603 41.8388ZM132.532 56.1823C132.532 54.9969 133.463 54.1137 134.764 54.1137C136.066 54.1137 136.996 54.9969 136.996 56.1823C136.996 57.344 136.066 58.2974 134.764 58.2974C133.463 58.2974 132.532 57.344 132.532 56.1823" fill="#263238"/>
<path d="M500 512.232C500 512.404 388.062 512.542 250.011 512.542C111.913 512.542 0 512.404 0 512.232C0 512.06 111.913 511.922 250.011 511.922C388.062 511.922 500 512.06 500 512.232Z" fill="#263238"/>
<path d="M518.59 239.272H351V10.9973H518.59V239.272Z" stroke="#E0E0E0" stroke-width="1.33333" stroke-miterlimit="10" stroke-linecap="round" stroke-linejoin="round"/>
<path d="M507.236 229.654H362.354V20.613H507.236V229.654Z" stroke="#E0E0E0" stroke-width="1.33333" stroke-miterlimit="10" stroke-linecap="round" stroke-linejoin="round"/>
<path d="M507.237 33.34C504.868 32.755 479.454 26.8406 473.715 40.6139C467.694 55.0648 507.433 92.3945 485.756 122.501C464.081 152.605 402.666 106.845 393.033 130.93C383.399 155.014 384.603 187.528 367.745 193.549C365.978 194.179 364.171 194.644 362.354 194.983V229.655H507.237V33.34Z" stroke="#E0E0E0" stroke-width="1.33333" stroke-miterlimit="10"/>
<path d="M398.225 20.6135C409.134 26.6144 417.198 35.2878 408.688 46.635C390.625 70.7184 364.131 85.1693 380.99 98.4156C397.85 111.662 442.405 100.825 436.384 63.4941C433.055 42.8516 433.046 29.581 436.141 20.6135H398.225Z" stroke="#E0E0E0" stroke-width="1.33333" stroke-miterlimit="10"/>
<path d="M450.835 174.883C450.835 187.186 440.86 197.162 428.557 197.162C416.254 197.162 406.279 187.186 406.279 174.883C406.279 162.579 416.254 152.605 428.557 152.605C440.86 152.605 450.835 162.579 450.835 174.883Z" stroke="#E0E0E0" stroke-width="1.33333" stroke-miterlimit="10"/>
<path d="M499.003 154.412C499.003 159.4 494.959 163.444 489.972 163.444C484.983 163.444 480.939 159.4 480.939 154.412C480.939 149.424 484.983 145.38 489.972 145.38C494.959 145.38 499.003 149.424 499.003 154.412Z" stroke="#E0E0E0" stroke-width="1.33333" stroke-miterlimit="10"/>
<path d="M411.096 80.3527C411.096 84.3437 407.862 87.5781 403.871 87.5781C399.88 87.5781 396.645 84.3437 396.645 80.3527C396.645 76.3626 399.88 73.1283 403.871 73.1283C407.862 73.1283 411.096 76.3626 411.096 80.3527Z" stroke="#E0E0E0" stroke-width="1.33333" stroke-miterlimit="10"/>
<path d="M319.942 113.427L275.842 114.593L274.97 130.063L317.287 137.343C317.287 137.343 317.397 122.859 321.295 113.764" fill="white"/>
<path d="M319.942 113.427L275.842 114.593L274.97 130.063L317.287 137.343C317.287 137.343 317.397 122.859 321.295 113.764" stroke="#1A2E35" stroke-width="1.33333" stroke-miterlimit="10"/>
<path d="M336.101 112.753C336.101 112.753 337.405 110.059 334.364 109.384C331.321 108.711 320.216 109.384 318.531 109.384C316.847 109.384 311.543 114.774 310.692 124.88C309.841 134.985 310.599 140.375 312.636 141.385C314.674 142.396 328.463 141.049 328.463 141.049C328.463 141.049 331.299 128.586 333.902 122.859C336.507 117.133 336.101 112.753 336.101 112.753Z" fill="white"/>
<path d="M336.101 112.753C336.101 112.753 337.405 110.059 334.364 109.384C331.321 108.711 320.216 109.384 318.531 109.384C316.847 109.384 311.543 114.774 310.692 124.88C309.841 134.985 310.599 140.375 312.636 141.385C314.674 142.396 328.463 141.049 328.463 141.049C328.463 141.049 331.299 128.586 333.902 122.859C336.507 117.133 336.101 112.753 336.101 112.753Z" stroke="#1A2E35" stroke-width="1.33333" stroke-miterlimit="10"/>
<path d="M200.304 292.202C200.304 292.202 178.575 337.996 178.792 359.071C178.928 372.304 197.511 513.587 197.511 513.587H237.096L240.316 381.998L243.029 378.369L244.717 382.513C244.717 382.513 238.751 510.331 240.146 513.587H284.401C284.401 513.587 298.473 412.239 300.335 396.886C302.196 381.532 304.386 374.176 303.456 351.844C302.526 329.511 286.842 292.202 286.842 292.202C286.842 292.202 226.823 301.973 200.304 292.202Z" fill="#263238"/>
<path d="M260.001 513.998C260.001 513.998 259.995 513.871 260.015 513.625C260.039 513.364 260.074 513.001 260.118 512.533C260.227 511.558 260.382 510.146 260.583 508.337C261.04 504.679 261.701 499.414 262.514 492.914C264.183 479.892 266.508 461.904 268.361 442.015C270.12 422.118 270.932 404.076 270.149 391.03C270.026 389.401 269.908 387.849 269.797 386.38C269.687 384.912 269.608 383.527 269.381 382.237C268.97 379.657 268.76 377.424 268.352 375.616C267.918 373.822 267.579 372.423 267.345 371.455C267.24 370.99 267.159 370.629 267.1 370.37C267.048 370.126 267.038 369.998 267.038 369.998C267.038 369.998 267.092 370.121 267.167 370.363C267.24 370.622 267.342 370.98 267.476 371.442C267.739 372.408 268.12 373.806 268.606 375.598C269.054 377.407 269.301 379.64 269.747 382.222C269.992 383.512 270.089 384.899 270.214 386.368C270.34 387.838 270.474 389.391 270.614 391.021C271.516 404.077 270.777 422.131 269.018 442.034C267.164 461.93 264.765 479.917 262.977 492.934C262.076 499.43 261.344 504.692 260.838 508.348C260.584 510.155 260.387 511.564 260.25 512.539C260.179 513.005 260.122 513.367 260.08 513.627C260.039 513.873 260.001 513.998 260.001 513.998Z" fill="#455A64"/>
<path d="M213.025 514C212.907 511.91 211.221 481.818 209.017 442.519C207.995 422.773 207.269 404.893 207.06 391.948C207.037 388.714 207.018 385.787 207 383.213C207.037 380.646 207.068 378.434 207.093 376.618C207.177 374.821 207.244 373.421 207.29 372.451C207.319 371.987 207.34 371.627 207.357 371.368C207.375 371.124 207.401 371 207.401 371C207.401 371 207.418 371.126 207.42 371.37C207.419 371.629 207.418 371.989 207.415 372.453C207.396 373.423 207.369 374.824 207.333 376.62C207.338 378.435 207.343 380.647 207.348 383.213C207.392 385.785 207.442 388.712 207.498 391.946C207.819 404.885 208.615 422.761 209.636 442.506C210.671 462.238 211.607 480.103 212.286 493.054C212.598 499.523 212.811 504.76 212.93 508.379C212.974 510.176 213.008 511.577 213.032 512.547C213.036 513.011 213.039 513.371 213.043 513.63C213.042 513.874 213.025 514 213.025 514Z" fill="#455A64"/>
<path d="M299 402.206C299.007 402.228 298.883 402.313 298.635 402.458C298.388 402.601 298.004 402.766 297.493 402.888C296.474 403.127 294.92 403.021 293.18 402.203C291.427 401.417 289.529 399.988 287.517 398.267C285.507 396.531 283.419 394.389 281.431 391.868C277.426 386.836 274.709 381.258 273.108 377.063C272.326 374.946 271.777 373.186 271.448 371.949C271.129 370.706 270.969 370.015 271.005 370C271.04 369.984 271.266 370.647 271.643 371.854C272.032 373.056 272.629 374.775 273.447 376.846C275.123 380.95 277.854 386.411 281.809 391.383C283.773 393.871 285.826 396.002 287.796 397.746C289.774 399.478 291.628 400.932 293.313 401.749C294.989 402.603 296.47 402.774 297.464 402.622C298.463 402.463 298.979 402.139 299 402.206Z" fill="#455A64"/>
<path d="M202.501 386.002C202.564 386.044 201.866 387.258 200.543 389.092C199.224 390.926 197.243 393.356 194.802 395.799C192.357 398.24 189.926 400.219 188.092 401.539C186.258 402.862 185.043 403.559 185.002 403.495C184.948 403.416 186.072 402.593 187.826 401.192C189.581 399.791 191.942 397.779 194.364 395.361C196.782 392.94 198.794 390.581 200.195 388.825C201.597 387.072 202.422 385.948 202.501 386.002Z" fill="#455A64"/>
<path d="M211.047 203.213H277.13L284.69 366.134C284.69 366.134 275.183 369.458 261.045 369.043C246.908 368.627 244.342 364.055 231.101 367.795C217.861 371.537 217.075 374.446 207.484 372.367L197.892 370.289L211.047 203.213Z" fill="white"/>
<path d="M211.047 203.213H277.13L284.69 366.134C284.69 366.134 275.183 369.458 261.045 369.043C246.908 368.627 244.342 364.055 231.101 367.795C217.861 371.537 217.075 374.446 207.484 372.367L197.892 370.289L211.047 203.213Z" stroke="#1A2E35" stroke-width="1.33333" stroke-miterlimit="10"/>
<path d="M244.64 323.013C243.992 324.933 243.482 326.529 243.169 327.657" stroke="#1A2E35" stroke-width="1.33333" stroke-miterlimit="10" stroke-linecap="round"/>
<path d="M258.931 284.296C258.931 284.296 251.248 304.294 246.491 317.686" stroke="#1A2E35" stroke-width="1.33333" stroke-miterlimit="10" stroke-linecap="round"/>
<path d="M241.076 303.861L239.365 307.721" stroke="#1A2E35" stroke-width="1.33333" stroke-miterlimit="10" stroke-linecap="round"/>
<path d="M252.84 277.317L244.201 296.807" stroke="#1A2E35" stroke-width="1.33333" stroke-miterlimit="10" stroke-linecap="round"/>
<path d="M258.921 216.841L259.743 290.274L259.693 393.689C259.693 393.689 276.871 393.689 287.271 390.993C297.671 388.299 310.585 374.152 310.585 374.152C310.585 374.152 296.514 293.643 296.001 282.526C295.489 271.411 299.611 212.461 299.611 212.461C299.611 212.461 358.656 142.917 362.427 137.343C368.351 128.585 369.925 121.512 368.519 117.806C367.112 114.101 336.079 111.406 332.727 112.416C329.374 113.426 324.357 137.007 324.357 137.007C324.357 137.007 303.059 153.512 295.381 157.892C287.702 162.27 283.018 164.291 273.313 168.333C263.608 172.376 255.972 179.45 255.972 179.45L258.921 216.841Z" stroke="#1A2E35" stroke-width="1.33333" stroke-miterlimit="10"/>
<path d="M258.921 216.841L259.743 290.274L259.693 393.689C259.693 393.689 276.871 393.689 287.271 390.993C297.671 388.299 310.585 374.152 310.585 374.152C310.585 374.152 296.514 293.643 296.001 282.526C295.489 271.411 299.611 212.461 299.611 212.461C299.611 212.461 358.656 142.917 362.427 137.343C368.351 128.585 369.925 121.512 368.519 117.806C367.112 114.101 336.079 111.406 332.727 112.416C329.374 113.426 324.357 137.007 324.357 137.007C324.357 137.007 303.059 153.512 295.381 157.892C287.702 162.27 283.018 164.291 273.313 168.333C263.608 172.376 255.972 179.45 255.972 179.45L258.921 216.841Z" fill="#E38B29"/>
<path d="M287.844 200.274C287.877 202.389 287.944 204.347 288.057 206.061" stroke="#1A2E35" stroke-width="1.33333" stroke-miterlimit="10"/>
<path d="M289.076 163.955C289.076 163.955 287.89 181.784 287.824 195.925" stroke="#1A2E35" stroke-width="1.33333" stroke-miterlimit="10"/>
<path d="M293.081 161.597C293.081 161.597 290.636 177.429 290.09 185.513" stroke="#1A2E35" stroke-width="1.33333" stroke-miterlimit="10"/>
<path d="M324.357 137.007C324.357 137.007 335.734 128.095 338.47 127.638" stroke="#1A2E35" stroke-width="1.33333" stroke-miterlimit="10"/>
<path d="M227.561 214.819L224.287 306.106L219.317 396.72C219.317 396.72 205.795 393.689 192.573 388.299C179.35 382.909 172.186 377.182 172.186 377.182C172.186 377.182 177.45 347.876 180.9 331.708C184.351 315.538 188.876 282.19 188.791 276.801C188.706 271.411 188.002 248.168 185.784 235.704C183.567 223.241 173.548 207.409 173.521 205.725C173.495 204.04 208.31 190.229 214.657 186.861C221.004 183.492 226.046 182.819 226.046 182.819L227.74 183.492L227.561 214.819Z" fill="#E38B29"/>
<path d="M227.561 214.819L224.287 306.106L219.317 396.72C219.317 396.72 205.795 393.689 192.573 388.299C179.35 382.909 172.186 377.182 172.186 377.182C172.186 377.182 177.45 347.876 180.9 331.708C184.351 315.538 188.876 282.19 188.791 276.801C188.706 271.411 188.002 248.168 185.784 235.704C183.567 223.241 173.548 207.409 173.521 205.725C173.495 204.04 208.31 190.229 214.657 186.861C221.004 183.492 226.046 182.819 226.046 182.819L227.74 183.492L227.561 214.819Z" stroke="#1A2E35" stroke-width="1.33333" stroke-miterlimit="10"/>
<path d="M226.993 178.776C226.993 178.776 220.64 181.807 219.388 187.872C218.136 193.935 213.788 217.177 213.504 220.546C213.22 223.915 214.546 222.567 217.194 219.535C219.84 216.504 222.792 211.451 224.161 212.799C225.53 214.146 230.662 219.198 230.662 219.198H255.589C255.589 219.198 257.6 218.525 258.921 216.841C260.242 215.156 262.536 211.114 263.904 212.462C265.273 213.808 268.78 222.567 269.759 220.546C270.738 218.525 265.965 193.598 264.495 185.85C263.026 178.102 249.814 173.387 226.993 178.776Z" fill="white"/>
<path d="M226.993 178.776C226.993 178.776 220.64 181.807 219.388 187.872C218.136 193.935 213.788 217.177 213.504 220.546C213.22 223.915 214.546 222.567 217.194 219.535C219.84 216.504 222.792 211.451 224.161 212.799C225.53 214.146 230.662 219.198 230.662 219.198H255.589C255.589 219.198 257.6 218.525 258.921 216.841C260.242 215.156 262.536 211.114 263.904 212.462C265.273 213.808 268.78 222.567 269.759 220.546C270.738 218.525 265.965 193.598 264.495 185.85C263.026 178.102 249.814 173.387 226.993 178.776Z" stroke="#1A2E35" stroke-width="1.33333" stroke-miterlimit="10"/>
<path d="M227.788 186.524C227.788 186.524 226.588 217.178 229.379 223.241C232.169 229.304 239.671 235.03 246.707 232.673C253.744 230.315 258.733 226.273 258.953 218.862C259.173 211.451 257.089 186.187 257.089 186.187L227.788 186.524Z" fill="white"/>
<path d="M227.788 186.524C227.788 186.524 226.588 217.178 229.379 223.241C232.169 229.304 239.671 235.03 246.707 232.673C253.744 230.315 258.733 226.273 258.953 218.862C259.173 211.451 257.089 186.187 257.089 186.187L227.788 186.524Z" stroke="#1A2E35" stroke-width="1.33333" stroke-miterlimit="10"/>
<path d="M258.953 218.862C259.172 211.451 257.089 186.187 257.089 186.187L227.788 186.524C227.788 186.524 227.357 197.576 227.615 207.721C230.551 207.416 236.165 206.403 241.162 203.036C248.317 198.215 251.847 192.792 251.847 192.792L258.503 222.069C258.757 221.073 258.918 220.013 258.953 218.862Z" fill="#1A2E35"/>
<path d="M258.953 218.862C259.172 211.451 257.089 186.187 257.089 186.187L227.788 186.524C227.788 186.524 227.357 197.576 227.615 207.721C230.551 207.416 236.165 206.403 241.162 203.036C248.317 198.215 251.847 192.792 251.847 192.792L258.503 222.069C258.757 221.073 258.918 220.013 258.953 218.862Z" stroke="#1A2E35" stroke-width="1.33333" stroke-miterlimit="10"/>
<path d="M207.938 137.195C207.938 137.195 205.388 133.457 202.984 139.063C200.581 144.671 205.377 152.457 207.586 154.326C209.796 156.195 215.753 158.686 215.709 155.884C215.665 153.081 213.293 140.933 211.355 136.572C209.417 132.211 207.938 137.195 207.938 137.195Z" fill="white"/>
<path d="M207.938 137.195C207.938 137.195 205.388 133.457 202.984 139.063C200.581 144.671 205.377 152.457 207.586 154.326C209.796 156.195 215.753 158.686 215.709 155.884C215.665 153.081 213.293 140.933 211.355 136.572C209.417 132.211 207.938 137.195 207.938 137.195Z" stroke="#1A2E35" stroke-width="1.33333" stroke-miterlimit="10"/>
<path d="M278.659 138.129C278.659 138.129 281.091 134.392 283.672 139.999C286.251 145.605 281.703 153.392 279.552 155.261C277.401 157.13 271.522 159.622 271.479 156.818C271.434 154.015 273.423 141.867 275.222 137.507C277.022 133.145 278.659 138.129 278.659 138.129Z" fill="white"/>
<path d="M278.659 138.129C278.659 138.129 281.091 134.392 283.672 139.999C286.251 145.605 281.703 153.392 279.552 155.261C277.401 157.13 271.522 159.622 271.479 156.818C271.434 154.015 273.423 141.867 275.222 137.507C277.022 133.145 278.659 138.129 278.659 138.129Z" stroke="#1A2E35" stroke-width="1.33333" stroke-miterlimit="10"/>
<path d="M212.194 150.277C212.194 150.277 214.947 166.785 216.934 174.261C218.92 181.736 236.011 198.868 242.246 199.179C248.48 199.49 264.831 189.523 268.718 179.244C272.604 168.965 273.589 152.457 273.576 151.522C273.561 150.589 275.698 128.162 269.652 120.064C263.606 111.965 238.396 113.212 226.04 119.752C213.684 126.293 206.99 136.261 212.194 150.277Z" fill="white"/>
<path d="M212.194 150.277C212.194 150.277 214.947 166.785 216.934 174.261C218.92 181.736 236.011 198.868 242.246 199.179C248.48 199.49 264.831 189.523 268.718 179.244C272.604 168.965 273.589 152.457 273.576 151.522C273.561 150.589 275.698 128.162 269.652 120.064C263.606 111.965 238.396 113.212 226.04 119.752C213.684 126.293 206.99 136.261 212.194 150.277Z" stroke="#1A2E35" stroke-width="1.33333" stroke-miterlimit="10"/>
<path d="M233.599 164.449C233.63 166.427 232.749 168.032 231.63 168.032C230.512 168.032 229.581 166.427 229.549 164.449C229.518 162.471 230.399 160.867 231.517 160.867C232.636 160.867 233.567 162.471 233.599 164.449Z" fill="#1A2E35"/>
<path d="M257.582 164.449C257.613 166.427 256.733 168.032 255.614 168.032C254.496 168.032 253.564 166.427 253.533 164.449C253.502 162.471 254.383 160.867 255.501 160.867C256.619 160.867 257.551 162.471 257.582 164.449Z" fill="#1A2E35"/>
<path d="M235.283 152.769L223.541 158.686" stroke="#1A2E35" stroke-width="4" stroke-miterlimit="10" stroke-linecap="round"/>
<path d="M253.354 153.08L264.987 159.933" stroke="#1A2E35" stroke-width="4" stroke-miterlimit="10" stroke-linecap="round"/>
<path d="M248.385 176.599C248.418 178.723 246.538 180.444 244.184 180.444C241.832 180.444 239.896 178.723 239.862 176.599" stroke="#1A2E35" stroke-width="1.33333" stroke-miterlimit="10" stroke-linecap="round"/>
<path d="M241.15 187.971C241.15 187.971 243.841 186.615 246.799 187.971" stroke="#1A2E35" stroke-width="1.33333" stroke-miterlimit="10" stroke-linecap="round"/>
<path d="M225.241 167.86L230.001 168.764" stroke="#1A2E35" stroke-width="1.33333" stroke-miterlimit="10" stroke-linecap="round"/>
<path d="M262.978 167.86L257.805 169.441" stroke="#1A2E35" stroke-width="1.33333" stroke-miterlimit="10" stroke-linecap="round"/>
<path d="M228.683 89.8504C228.683 89.8504 212.604 97.3263 207.545 112.276C202.486 127.227 209.273 142.801 210.271 146.851C211.27 150.9 211.927 153.08 211.927 153.08C211.927 153.08 216.516 147.785 219.903 145.293C223.29 142.801 230.122 141.556 234.157 140.621C238.192 139.687 252.153 136.261 255.833 132.522C259.511 128.785 260.733 127.227 260.733 127.227C260.733 127.227 263.786 143.113 267.91 147.785C272.032 152.457 273.046 157.44 273.046 157.44C273.046 157.44 275.751 151.211 277.842 145.605C279.935 139.998 281.395 114.146 275.616 103.244C269.838 92.3423 245.375 81.7516 228.683 89.8504Z" fill="#1A2E35"/>
<path d="M228.683 89.8504C228.683 89.8504 212.604 97.3263 207.545 112.276C202.486 127.227 209.273 142.801 210.271 146.851C211.27 150.9 211.927 153.08 211.927 153.08C211.927 153.08 216.516 147.785 219.903 145.293C223.29 142.801 230.122 141.556 234.157 140.621C238.192 139.687 252.153 136.261 255.833 132.522C259.511 128.785 260.733 127.227 260.733 127.227C260.733 127.227 263.786 143.113 267.91 147.785C272.032 152.457 273.046 157.44 273.046 157.44C273.046 157.44 275.751 151.211 277.842 145.605C279.935 139.998 281.395 114.146 275.616 103.244C269.838 92.3423 245.375 81.7516 228.683 89.8504Z" stroke="#1A2E35" stroke-width="1.33333" stroke-miterlimit="10"/>
<path d="M260.732 127.228C260.732 127.228 248.173 140.621 233.632 146.851C219.092 153.08 203.778 169.589 205.156 177.998C206.536 186.409 216.863 189.523 215.617 189.523C214.371 189.523 199.064 186.72 199.179 174.261C199.294 161.802 212.258 154.326 219.062 151.211C225.865 148.096 254.567 131.277 260.732 127.228Z" fill="#1A2E35"/>
<path d="M260.732 127.228C260.732 127.228 248.173 140.621 233.632 146.851C219.092 153.08 203.778 169.589 205.156 177.998C206.536 186.409 216.863 189.523 215.617 189.523C214.371 189.523 199.064 186.72 199.179 174.261C199.294 161.802 212.258 154.326 219.062 151.211C225.865 148.096 254.567 131.277 260.732 127.228Z" stroke="#1A2E35" stroke-width="1.33333" stroke-miterlimit="10"/>
<path d="M263.683 136.572C263.683 136.572 267.968 151.523 270.539 156.507C273.11 161.49 277.657 173.326 274.363 181.736C271.07 190.146 268.597 191.392 268.597 191.392C268.597 191.392 279.688 183.605 279.486 170.834C279.285 158.064 265.69 145.293 263.683 136.572Z" fill="#1A2E35"/>
<path d="M263.683 136.572C263.683 136.572 267.968 151.523 270.539 156.507C273.11 161.49 277.657 173.326 274.363 181.736C271.07 190.146 268.597 191.392 268.597 191.392C268.597 191.392 279.688 183.605 279.486 170.834C279.285 158.064 265.69 145.293 263.683 136.572Z" stroke="#1A2E35" stroke-width="1.33333" stroke-miterlimit="10"/>
<path d="M261.452 93.9546C261.587 102.469 253.399 109.373 243.163 109.373C232.928 109.373 224.522 102.469 224.387 93.9546C224.252 85.4392 232.441 78.5363 242.676 78.5363C252.912 78.5363 261.319 85.4392 261.452 93.9546Z" fill="#1A2E35"/>
<path d="M261.452 93.9546C261.587 102.469 253.399 109.373 243.163 109.373C232.928 109.373 224.522 102.469 224.387 93.9546C224.252 85.4392 232.441 78.5363 242.676 78.5363C252.912 78.5363 261.319 85.4392 261.452 93.9546Z" stroke="#1A2E35" stroke-width="1.33333" stroke-miterlimit="10"/>
<path d="M254.085 81.0287C254.163 86.0181 249.277 90.062 243.17 90.062C237.063 90.062 232.049 86.0181 231.97 81.0287C231.891 76.0402 236.778 71.9962 242.885 71.9962C248.992 71.9962 254.006 76.0402 254.085 81.0287Z" fill="#1A2E35"/>
<path d="M254.085 81.0287C254.163 86.0181 249.277 90.062 243.17 90.062C237.063 90.062 232.049 86.0181 231.97 81.0287C231.891 76.0402 236.778 71.9962 242.885 71.9962C248.992 71.9962 254.006 76.0402 254.085 81.0287Z" stroke="#1A2E35" stroke-width="1.33333" stroke-miterlimit="10"/>
<path d="M151.098 321.602L151.901 372.467C151.901 372.467 147.873 394.698 149.92 396.383C151.968 398.068 158.801 404.131 160.175 405.815C161.549 407.499 164.255 408.172 166.281 408.51C168.308 408.846 174.008 407.162 172.949 404.131C171.891 401.099 170.602 404.805 169.575 403.794C168.549 402.783 166.822 400.088 166.822 400.088L168.725 392.678C168.725 392.678 169.175 399.752 170.864 400.088C172.553 400.425 172.869 399.078 172.827 396.383C172.784 393.689 172.099 393.014 172.357 387.962C172.614 382.909 170.534 379.204 169.481 376.509C168.428 373.814 166.327 368.762 165.964 367.078C165.6 365.393 176.757 325.308 176.757 325.308C176.757 325.308 169.42 330.022 151.098 321.602" fill="white"/>
<path d="M151.098 321.602L151.901 372.467C151.901 372.467 147.873 394.698 149.92 396.383C151.968 398.068 158.801 404.131 160.175 405.815C161.549 407.499 164.255 408.172 166.281 408.51C168.308 408.846 174.008 407.162 172.949 404.131C171.891 401.099 170.602 404.805 169.575 403.794C168.549 402.783 166.822 400.088 166.822 400.088L168.725 392.678C168.725 392.678 169.175 399.752 170.864 400.088C172.553 400.425 172.869 399.078 172.827 396.383C172.784 393.689 172.099 393.014 172.357 387.962C172.614 382.909 170.534 379.204 169.481 376.509C168.428 373.814 166.327 368.762 165.964 367.078C165.6 365.393 176.757 325.308 176.757 325.308C176.757 325.308 169.42 330.022 151.098 321.602V321.602Z" stroke="#1A2E35" stroke-width="1.33333" stroke-miterlimit="10"/>
<path d="M173.521 205.725C173.521 205.725 163.875 213.472 162.376 225.262C160.879 237.052 160.471 253.894 159.209 259.284C157.946 264.674 152.89 307.117 152.89 307.117C152.89 307.117 157.681 311.833 161.754 313.854C165.828 315.875 174.897 314.191 176.239 313.854C177.581 313.517 180.255 312.171 180.255 312.171C180.255 312.171 185.797 279.158 186.043 273.431C186.289 267.705 188.467 256.252 188.467 256.252C188.467 256.252 188.219 219.199 173.521 205.725" fill="#E38B29"/>
<path d="M173.521 205.725C173.521 205.725 163.875 213.472 162.376 225.262C160.879 237.052 160.471 253.894 159.209 259.284C157.946 264.674 152.89 307.117 152.89 307.117C152.89 307.117 157.681 311.833 161.754 313.854C165.828 315.875 174.897 314.191 176.239 313.854C177.581 313.517 180.255 312.171 180.255 312.171C180.255 312.171 185.797 279.158 186.043 273.431C186.289 267.705 188.467 256.252 188.467 256.252C188.467 256.252 188.219 219.199 173.521 205.725V205.725Z" stroke="#1A2E35" stroke-width="1.33333" stroke-miterlimit="10"/>
<path d="M179.847 270.396C179.102 271.694 178.467 272.845 178.031 273.719" stroke="#1A2E35" stroke-width="1.33333" stroke-miterlimit="10"/>
<path d="M188.467 256.253C188.467 256.253 184.913 261.864 181.833 267.014" stroke="#1A2E35" stroke-width="1.33333" stroke-miterlimit="10"/>
<path d="M180.378 263.659L173.335 275.395" stroke="#1A2E35" stroke-width="1.33333" stroke-miterlimit="10"/>
<path d="M151.773 300.38C151.773 300.38 158.606 306.443 165.038 308.464C171.47 310.486 176.855 310.149 179.202 309.476C181.55 308.801 182.544 307.791 182.923 310.486C183.302 313.18 181.093 322.613 181.136 325.307C181.179 328.003 180.189 329.349 174.816 330.36C169.442 331.37 157.957 329.349 154.552 326.991C151.146 324.634 148.734 321.264 149.024 318.233C149.313 315.201 150.554 308.464 150.853 306.106C151.152 303.749 150.436 301.053 151.773 300.38Z" fill="white"/>
<path d="M151.773 300.38C151.773 300.38 158.606 306.443 165.038 308.464C171.47 310.486 176.855 310.149 179.202 309.476C181.55 308.801 182.544 307.791 182.923 310.486C183.302 313.18 181.093 322.613 181.136 325.307C181.179 328.003 180.189 329.349 174.816 330.36C169.442 331.37 157.957 329.349 154.552 326.991C151.146 324.634 148.734 321.264 149.024 318.233C149.313 315.201 150.554 308.464 150.853 306.106C151.152 303.749 150.436 301.053 151.773 300.38Z" stroke="#1A2E35" stroke-width="1.33333" stroke-miterlimit="10"/>
<path d="M223.523 251.002C223.442 250.923 223.354 250.855 223.263 250.798C220.87 249.306 208.644 252.471 205.547 252.471C195.488 252.471 191.329 249.727 190.929 253.385C190.531 257.043 189.673 260.702 190.617 262.531C191.56 264.36 194.732 262.531 197.482 262.988C200.234 263.446 205.771 266.646 208.058 266.646C210.344 266.646 216.231 262.988 217.603 262.988C218.975 262.988 222.197 264.36 223.096 262.979C224.513 260.749 225.508 252.904 223.523 251.002Z" fill="white"/>
<path d="M223.523 251.002C223.442 250.923 223.354 250.855 223.263 250.798C220.87 249.306 208.644 252.471 205.547 252.471C195.488 252.471 191.329 249.727 190.929 253.385C190.531 257.043 189.673 260.702 190.617 262.531C191.56 264.36 194.732 262.531 197.482 262.988C200.234 263.446 205.771 266.646 208.058 266.646C210.344 266.646 216.231 262.988 217.603 262.988C218.975 262.988 222.197 264.36 223.096 262.979C224.513 260.749 225.508 252.904 223.523 251.002Z" stroke="#1A2E35" stroke-width="1.33333" stroke-miterlimit="10"/>
<path d="M209.235 261.866C209.252 262.968 208.373 263.86 207.272 263.86C206.171 263.86 205.264 262.968 205.247 261.866C205.23 260.766 206.108 259.873 207.209 259.873C208.311 259.873 209.217 260.766 209.235 261.866Z" stroke="#1A2E35" stroke-width="1.33333" stroke-miterlimit="10" stroke-linecap="round"/>
<path d="M293.942 251.002C293.86 250.923 293.773 250.855 293.681 250.798C291.289 249.306 279.063 252.471 275.965 252.471C265.906 252.471 261.748 249.727 261.348 253.385C260.949 257.043 260.092 260.702 261.036 262.531C261.98 264.36 265.15 262.531 267.902 262.988C270.652 263.446 276.19 266.646 278.477 266.646C280.763 266.646 286.65 262.988 288.021 262.988C289.393 262.988 292.616 264.36 293.514 262.979C294.932 260.749 295.928 252.904 293.942 251.002Z" fill="white"/>
<path d="M293.942 251.002C293.86 250.923 293.773 250.855 293.681 250.798C291.289 249.306 279.063 252.471 275.965 252.471C265.906 252.471 261.748 249.727 261.348 253.385C260.949 257.043 260.092 260.702 261.036 262.531C261.98 264.36 265.15 262.531 267.902 262.988C270.652 263.446 276.19 266.646 278.477 266.646C280.763 266.646 286.65 262.988 288.021 262.988C289.393 262.988 292.616 264.36 293.514 262.979C294.932 260.749 295.928 252.904 293.942 251.002Z" stroke="#1A2E35" stroke-width="1.33333" stroke-miterlimit="10"/>
<path d="M280.017 262.365C280.035 263.466 279.156 264.358 278.055 264.358C276.954 264.358 276.047 263.466 276.03 262.365C276.012 261.263 276.891 260.371 277.993 260.371C279.094 260.371 279.999 261.263 280.017 262.365Z" stroke="#1A2E35" stroke-width="1.33333" stroke-miterlimit="10" stroke-linecap="round"/>
</svg>
