<svg width="351" height="77" viewBox="0 0 351 77" fill="none"
    xmlns="http://www.w3.org/2000/svg"
    xmlns:xlink="http://www.w3.org/1999/xlink">

    <g opacity="0.6">
        <path fill-rule="evenodd" clip-rule="evenodd" d="M327.603 43.5054V54.4147H339.302C339.302 48.3895 334.064 43.5054 327.603 43.5054Z" fill="#FE9C15"/>
        <path fill-rule="evenodd" clip-rule="evenodd" d="M333.452 59.8696C335.611 61.8826 334.082 65.3243 331.03 65.3243H327.603L333.452 59.8696Z" fill="#ADA194"/>
        <path fill-rule="evenodd" clip-rule="evenodd" d="M333.452 59.8695L327.603 54.4148H339.302L333.452 59.8695Z" fill="#FFECC7"/>
        <path fill-rule="evenodd" clip-rule="evenodd" d="M333.452 59.8695L339.302 54.4148V65.3241L333.452 59.8695Z" fill="#FE9C15"/>
        <path fill-rule="evenodd" clip-rule="evenodd" d="M333.452 59.8695L327.603 65.3242V62.1288C327.603 59.2823 331.294 57.8566 333.452 59.8695Z" fill="#BD8242"/>
        <path fill-rule="evenodd" clip-rule="evenodd" d="M310.049 70.7786L304.2 76.2333V65.324L310.049 70.7786Z" fill="#FFECC7"/>
        <path fill-rule="evenodd" clip-rule="evenodd" d="M310.049 70.7786L315.898 65.324V76.2333L310.049 70.7786Z" fill="#BD8242"/>
        <path fill-rule="evenodd" clip-rule="evenodd" d="M310.049 70.7788L315.898 76.2335H304.2L310.049 70.7788Z" fill="#ADA194"/>
        <path fill-rule="evenodd" clip-rule="evenodd" d="M310.049 70.7786L304.2 65.324H315.898L310.049 70.7786Z" fill="#F5C38D"/>
        <path fill-rule="evenodd" clip-rule="evenodd" d="M333.452 70.7788L339.302 76.2335H327.603L333.452 70.7788Z" fill="#FFECC7"/>
        <path fill-rule="evenodd" clip-rule="evenodd" d="M333.452 70.7786L327.603 65.324H331.03C334.082 65.324 335.611 68.7657 333.452 70.7786Z" fill="#BD8242"/>
        <path fill-rule="evenodd" clip-rule="evenodd" d="M333.452 70.7786L339.302 65.324V76.2333L333.452 70.7786Z" fill="#F5C38D"/>
        <path fill-rule="evenodd" clip-rule="evenodd" d="M333.452 70.7786C331.294 72.7916 327.603 71.3659 327.603 68.5191V65.324L333.452 70.7786Z" fill="#FE9C15"/>
        <path fill-rule="evenodd" clip-rule="evenodd" d="M345.145 59.9044L339.295 65.359V54.4497L345.145 59.9044Z" fill="#BD8242"/>
        <path fill-rule="evenodd" clip-rule="evenodd" d="M321.759 70.7786C319.601 68.7657 321.13 65.324 324.182 65.324H327.608L321.759 70.7786Z" fill="#ADA194"/>
        <path fill-rule="evenodd" clip-rule="evenodd" d="M321.759 70.7786L327.608 65.324V68.5191C327.608 71.3659 323.918 72.7916 321.759 70.7786Z" fill="#F5C38D"/>
        <path fill-rule="evenodd" clip-rule="evenodd" d="M345.145 59.9044L339.295 54.4497H350.994L345.145 59.9044Z" fill="#FFECC7"/>
        <path fill-rule="evenodd" clip-rule="evenodd" d="M310.049 49.0208L315.898 54.4754H304.2L310.049 49.0208Z" fill="#BD8242"/>
        <path fill-rule="evenodd" clip-rule="evenodd" d="M310.049 59.9044L315.898 54.4497V65.359L310.049 59.9044Z" fill="#BD8242"/>
        <path fill-rule="evenodd" clip-rule="evenodd" d="M345.145 48.9949L350.994 54.4495H339.295L345.145 48.9949Z" fill="#F5C38D"/>
        <path fill-rule="evenodd" clip-rule="evenodd" d="M310.049 59.9044L304.2 54.4497H315.898L310.049 59.9044Z" fill="#ADA194"/>
        <path fill-rule="evenodd" clip-rule="evenodd" d="M345.151 70.7786L339.302 65.324H351L345.151 70.7786Z" fill="#ADA194"/>
        <path fill-rule="evenodd" clip-rule="evenodd" d="M345.151 70.7788L351 76.2335H339.302L345.151 70.7788Z" fill="#F5C38D"/>
        <path fill-rule="evenodd" clip-rule="evenodd" d="M345.151 70.7786L339.302 76.2333V65.324L345.151 70.7786Z" fill="#FE9C15"/>
        <path fill-rule="evenodd" clip-rule="evenodd" d="M345.151 70.7786L351 65.324V76.2333L345.151 70.7786Z" fill="#BD8242"/>
        <path fill-rule="evenodd" clip-rule="evenodd" d="M315.905 54.4147H327.603V43.5054C321.142 43.5054 315.905 48.3895 315.905 54.4147Z" fill="#ADA194"/>
        <path fill-rule="evenodd" clip-rule="evenodd" d="M315.905 54.4148C315.905 60.44 321.142 65.3241 327.603 65.3241V54.4148H315.905Z" fill="#BD8242"/>
        <path fill-rule="evenodd" clip-rule="evenodd" d="M321.884 54.4148H322.89C322.89 51.9913 325.004 50.0199 327.603 50.0199V49.0815C324.449 49.0815 321.884 51.474 321.884 54.4148ZM319.743 54.4148H320.75C320.75 50.8908 323.824 48.0236 327.603 48.0236V47.0852C323.269 47.0852 319.743 50.3732 319.743 54.4148ZM327.603 45.0891V46.0275C322.644 46.0275 318.609 49.79 318.609 54.4148H317.603C317.603 49.2724 322.089 45.0891 327.603 45.0891Z" fill="#FFECC7"/>
        <path fill-rule="evenodd" clip-rule="evenodd" d="M327.603 49.0812V50.0197C330.202 50.0197 332.316 51.9913 332.316 54.4148H333.322C333.322 51.4738 330.757 49.0812 327.603 49.0812ZM327.603 47.0852V48.0236C331.382 48.0236 334.457 50.8908 334.457 54.4148H335.463C335.463 50.3735 331.937 47.0852 327.603 47.0852ZM337.604 54.4148H336.597C336.597 49.79 332.562 46.0275 327.603 46.0275V45.0891C333.117 45.0891 337.604 49.2727 337.604 54.4148Z" fill="#FFECC7"/>
        <path fill-rule="evenodd" clip-rule="evenodd" d="M327.603 59.7482V58.8097C325.004 58.8097 322.89 56.8381 322.89 54.4148H321.884C321.884 57.3556 324.449 59.7482 327.603 59.7482ZM327.603 61.7442V60.8058C323.824 60.8058 320.75 57.9386 320.75 54.4148H319.743C319.743 58.4562 323.269 61.7442 327.603 61.7442ZM317.603 54.4148H318.609C318.609 59.0394 322.644 62.8021 327.603 62.8021V63.7405C322.089 63.7405 317.603 59.557 317.603 54.4148Z" fill="#F5C38D"/>
        <path fill-rule="evenodd" clip-rule="evenodd" d="M309.762 55.8909C308.923 55.8909 308.244 55.2572 308.244 54.4755C308.244 53.6937 308.923 53.0603 309.762 53.0603C310.6 53.0603 311.279 53.6937 311.279 54.4755C311.279 55.2572 310.6 55.8909 309.762 55.8909Z" fill="#FFECC7"/>
        <path fill-rule="evenodd" clip-rule="evenodd" d="M327.603 52.1567V56.7431C326.245 56.7431 325.144 55.7162 325.144 54.4498C325.144 53.1834 326.245 52.1567 327.603 52.1567Z" fill="#F5C38D"/>
        <path fill-rule="evenodd" clip-rule="evenodd" d="M310.05 70.7788V67.9131L313.123 70.7788H310.05Z" fill="#FFECC7"/>
        <path fill-rule="evenodd" clip-rule="evenodd" d="M310.049 70.7788V73.6446L306.976 70.7788H310.049Z" fill="#BD8242"/>
        <path fill-rule="evenodd" clip-rule="evenodd" d="M310.049 70.7788H306.976L310.049 67.9131V70.7788Z" fill="#ADA194"/>
        <path fill-rule="evenodd" clip-rule="evenodd" d="M310.05 70.7788H313.123L310.05 73.6446V70.7788Z" fill="#F5C38D"/>
        <path fill-rule="evenodd" clip-rule="evenodd" d="M339.295 59.9221V57.0564L342.368 59.9221H339.295Z" fill="#F5C38D"/>
        <path fill-rule="evenodd" clip-rule="evenodd" d="M339.295 59.9221H336.222L339.295 57.0564V59.9221Z" fill="#FFECC7"/>
        <path fill-rule="evenodd" clip-rule="evenodd" d="M339.295 59.8867V62.7527L336.222 59.8867H339.295Z" fill="#F5C38D"/>
        <path fill-rule="evenodd" clip-rule="evenodd" d="M339.295 59.8867H342.368L339.295 62.7527V59.8867Z" fill="#FFECC7"/>
        <path fill-rule="evenodd" clip-rule="evenodd" d="M345.132 70.658H348.205L345.132 73.5237V70.658Z" fill="#F5C38D"/>
        <path fill-rule="evenodd" clip-rule="evenodd" d="M345.132 70.6577V67.7917L348.205 70.6577H345.132Z" fill="#FFECC7"/>
        <path fill-rule="evenodd" clip-rule="evenodd" d="M345.17 70.6577H342.097L345.17 67.7917V70.6577Z" fill="#F5C38D"/>
        <path fill-rule="evenodd" clip-rule="evenodd" d="M345.17 70.658V73.5237L342.097 70.658H345.17Z" fill="#FFECC7"/>
        <path fill-rule="evenodd" clip-rule="evenodd" d="M17.5501 28.2769L11.7001 22.8215H15.1271C18.1799 22.8215 19.7089 26.2637 17.5501 28.2769Z" fill="#FE9C15"/>
        <path fill-rule="evenodd" clip-rule="evenodd" d="M5.85009 17.3662L11.7001 22.8216H9.68724e-05L5.85009 17.3662Z" fill="#FE9C15"/>
        <path fill-rule="evenodd" clip-rule="evenodd" d="M17.5503 28.2769C15.3915 30.2902 11.7003 28.8643 11.7003 26.0173V22.8215L17.5503 28.2769Z" fill="#BD8242"/>
        <path fill-rule="evenodd" clip-rule="evenodd" d="M5.85009 28.2769L11.7001 22.8215V26.0173C11.7001 28.8643 8.00892 30.2902 5.85009 28.2769Z" fill="#BDB4A9"/>
        <path fill-rule="evenodd" clip-rule="evenodd" d="M5.85008 28.2769C3.69125 26.2637 5.2203 22.8215 8.27311 22.8215H11.7001L5.85008 28.2769Z" fill="#ADA194"/>
        <path fill-rule="evenodd" clip-rule="evenodd" d="M5.85009 17.3663L11.7001 11.9109L11.7001 22.8217L5.85009 17.3663Z" fill="#BD8242"/>
        <path fill-rule="evenodd" clip-rule="evenodd" d="M35.1005 11.9108V1C38.3314 4.01303 38.3314 8.89779 35.1005 11.9108Z" fill="#FFECC7"/>
        <path fill-rule="evenodd" clip-rule="evenodd" d="M35.1006 1.00024L46.8005 1.00024C43.5696 4.01327 38.3315 4.01327 35.1006 1.00024Z" fill="#FE9C15"/>
        <path fill-rule="evenodd" clip-rule="evenodd" d="M29.2509 6.45541L23.4009 11.9108L23.4009 1L29.2509 6.45541Z" fill="#F5C38D"/>
        <path fill-rule="evenodd" clip-rule="evenodd" d="M35.1001 1V11.9108C31.8694 8.89779 31.8694 4.01303 35.1001 1Z" fill="#F5C38D"/>
        <path fill-rule="evenodd" clip-rule="evenodd" d="M29.2501 6.45557L35.1001 11.911L23.4001 11.911L29.2501 6.45557Z" fill="#FE9C15"/>
        <path fill-rule="evenodd" clip-rule="evenodd" d="M23.4001 1L35.1001 1C31.8694 4.01303 26.6311 4.01303 23.4001 1Z" fill="#ADA194"/>
        <path fill-rule="evenodd" clip-rule="evenodd" d="M11.7074 1L11.7074 11.9108C8.47644 8.89779 8.47644 4.01303 11.7074 1Z" fill="#BD8242"/>
        <path fill-rule="evenodd" clip-rule="evenodd" d="M5.85693 6.45541L0.00694541 11.9108L0.00694541 1L5.85693 6.45541Z" fill="#F5C38D"/>
        <path fill-rule="evenodd" clip-rule="evenodd" d="M0.00742109 1L11.7074 1C8.47644 4.01303 3.23838 4.01303 0.00742109 1Z" fill="#BD8242"/>
        <path fill-rule="evenodd" clip-rule="evenodd" d="M5.85741 6.45557L11.7074 11.911L0.00742109 11.911L5.85741 6.45557Z" fill="#FFECC7"/>
        <path fill-rule="evenodd" clip-rule="evenodd" d="M17.5569 6.45541L23.4069 1L23.4069 11.9108L17.5569 6.45541Z" fill="#BD8242"/>
        <path fill-rule="evenodd" clip-rule="evenodd" d="M12.0139 11.6241L11.7064 11.9108L11.7064 1L12.0139 1.28673C15.075 4.14138 15.075 8.76944 12.0139 11.6241Z" fill="#FFECC7"/>
        <path fill-rule="evenodd" clip-rule="evenodd" d="M11.7069 1L23.4069 1C20.1759 4.01303 14.9376 4.01303 11.7069 1Z" fill="#BDB4A9"/>
        <path fill-rule="evenodd" clip-rule="evenodd" d="M17.5569 6.45557L23.4069 11.911L11.7069 11.911L17.5569 6.45557Z" fill="#F5C38D"/>
        <path fill-rule="evenodd" clip-rule="evenodd" d="M5.85083 17.3663L0.000841893 22.8217L0.000841893 11.9109L5.85083 17.3663Z" fill="#BDB4A9"/>
        <path fill-rule="evenodd" clip-rule="evenodd" d="M5.85009 17.3663L9.68724e-05 11.9109L11.7001 11.9109L5.85009 17.3663Z" fill="#FE9C15"/>
        <path fill-rule="evenodd" clip-rule="evenodd" d="M29.2509 17.2366L23.4009 22.692L23.4009 11.7812L29.2509 17.2366Z" fill="#FE9C15"/>
        <path fill-rule="evenodd" clip-rule="evenodd" d="M29.2501 17.2366L23.4001 11.7812L35.1001 11.7812L29.2501 17.2366Z" fill="#BD8242"/>
        <path fill-rule="evenodd" clip-rule="evenodd" d="M29.2501 18.652C28.4117 18.652 27.7321 18.0182 27.7321 17.2364C27.7321 16.4546 28.4117 15.8208 29.2501 15.8208C30.0885 15.8208 30.7681 16.4546 30.7681 17.2364C30.7681 18.0182 30.0885 18.652 29.2501 18.652Z" fill="#F5C38D"/>
        <path fill-rule="evenodd" clip-rule="evenodd" d="M17.5621 17.3663L11.7121 11.9109L23.4121 11.9109L17.5621 17.3663Z" fill="#FFECC7"/>
        <path fill-rule="evenodd" clip-rule="evenodd" d="M5.85709 17.384V14.5178L8.93054 17.384H5.85709Z" fill="#F5C38D"/>
        <path fill-rule="evenodd" clip-rule="evenodd" d="M5.85706 17.384H2.78361L5.85706 14.5178L5.85706 17.384Z" fill="#FFECC7"/>
        <path fill-rule="evenodd" clip-rule="evenodd" d="M5.85706 17.3489L5.85706 20.215L2.78361 17.3489H5.85706Z" fill="#F5C38D"/>
        <path fill-rule="evenodd" clip-rule="evenodd" d="M5.85709 17.3489H8.93054L5.85709 20.215V17.3489Z" fill="#FFECC7"/>
        <path fill-rule="evenodd" clip-rule="evenodd" d="M18.9876 11.7812C18.9876 9.46013 21.0053 7.57854 23.494 7.57854C25.9829 7.57854 28.0006 9.46013 28.0006 11.7812C28.0006 14.1023 25.9829 15.9836 23.494 15.9836C21.0053 15.9836 18.9876 14.1023 18.9876 11.7812ZM29.2509 11.7812C29.2509 8.81627 26.6733 6.41284 23.494 6.41284C20.3146 6.41284 17.7373 8.81627 17.7373 11.7812C17.7373 14.7461 20.3146 17.1495 23.494 17.1495C26.6733 17.1495 29.2509 14.7461 29.2509 11.7812Z" fill="#FFECC7"/>
    </g>
    <path d="M109.384 45.04C110.992 45.04 112.864 43.336 114.496 41.272C114.4 41.632 114.376 42.016 114.376 42.424C114.376 43.744 114.856 45.184 116.584 44.776C117.328 44.584 118.192 43.936 118.816 42.88L121.864 37.744L121.144 37.336L118.12 42.52V42.496C117.472 43.456 116.992 43.84 116.632 43.84C116.296 43.84 116.128 43.408 116.128 42.688C116.128 42.232 116.2 41.656 116.392 41.008C116.392 40.984 116.416 40.888 116.44 40.84V40.888C116.944 39.448 117.592 38.32 117.76 38.056L122.776 29.584L121.168 29.056C119.632 31.648 117.88 34.624 116.32 37.216C114.352 40.312 111.232 44.536 109.168 44.224C108.496 44.128 108.28 43.552 108.28 42.952C108.28 42.424 108.472 41.704 108.688 41.224C109.168 40.168 109.816 39.112 110.368 38.224C111.64 36.16 112.864 34.12 112.696 31.936C112.408 28.888 109.672 29.224 109.672 29.224C107.416 29.632 105.424 33.136 105.424 35.32C105.424 35.68 105.472 36.04 105.592 36.424C105.808 37 106.168 37.456 106.768 37.72C106.792 37.648 107.176 36.4 107.152 36.16C106.552 36.088 106.336 35.656 106.336 35.08C106.336 34.168 106.768 33.088 107.08 32.584C107.512 31.816 108.832 29.968 110.032 29.968C110.296 29.968 110.536 30.064 110.824 30.352C111.016 30.52 111.16 30.808 111.16 31.36C111.16 32.392 110.56 34.216 108.664 37.624L108.688 37.576C108.472 37.792 107.008 40.456 107.008 42.52C107.008 43.744 107.512 44.776 109.048 45.016H109.024C109.12 45.04 109.264 45.04 109.384 45.04ZM131.426 37.432C131.426 37.432 130.922 38.248 130.37 39.232C129.866 40.072 129.002 41.104 128.546 41.2C128.138 41.296 127.826 41.296 127.466 41.128C127.586 41.008 127.586 40.984 127.706 40.792L127.778 40.696H127.754C128.666 39.16 129.626 37.192 129.626 35.776C129.626 34.48 128.858 33.76 127.538 33.76C126.458 33.76 125.546 34.12 124.754 34.624L125.066 34.168L123.29 33.88L113.786 49.648L115.538 49.936L123.026 37.504V37.528C123.578 36.712 125.138 34.912 127.106 34.6C127.298 34.624 127.61 34.744 127.754 34.936C127.85 35.104 127.898 35.368 127.898 35.68C127.898 36.712 127.298 38.296 126.146 40.216V40.192L126.098 40.264C125.45 39.736 124.37 39.04 123.53 39.04C122.45 39.04 121.754 40 121.754 41.008C121.754 41.056 121.754 41.152 121.802 41.272C121.874 41.848 122.258 42.304 122.834 42.64H122.81C122.858 42.688 122.906 42.712 122.93 42.712C123.002 42.736 123.002 42.736 123.05 42.736C123.434 42.928 123.818 42.976 124.226 42.976C124.322 42.976 124.442 42.976 124.49 42.952C124.658 42.952 124.73 42.928 124.85 42.904C125.186 42.856 125.498 42.76 125.786 42.616V42.64C126.218 42.424 126.626 42.16 126.962 41.8C127.322 41.968 127.706 42.064 128.114 42.064C128.33 42.064 128.546 42.04 128.762 41.992C129.602 41.776 130.634 40.456 131.09 39.592H131.066C131.666 38.584 132.146 37.816 132.146 37.816L131.426 37.432ZM122.594 41.104C122.546 40.816 122.642 40.48 122.834 40.216C123.05 39.952 123.266 39.832 123.554 39.832C123.866 39.832 124.25 39.976 124.73 40.312C125.042 40.504 125.33 40.72 125.594 40.936L125.642 40.96C125.018 41.728 124.466 41.944 123.65 41.896C123.578 41.896 123.458 41.872 123.362 41.848C122.978 41.776 122.642 41.488 122.594 41.128V41.104ZM132.501 43.048C134.589 43.048 135.645 41.632 136.653 39.976L136.725 39.88C137.373 38.776 137.949 37.816 137.949 37.816L137.229 37.432C137.229 37.432 136.653 38.416 135.981 39.52L135.933 39.616C135.141 40.912 134.229 42.232 132.573 42.232C132.261 42.232 131.925 42.16 131.685 41.968H131.709C131.541 41.8 131.445 41.584 131.445 41.368C131.445 40.48 132.261 39.16 132.813 38.248C132.813 38.248 137.805 29.872 139.437 27.16L137.685 26.896C137.685 26.896 130.845 38.272 130.821 38.32H130.845C130.149 39.472 129.837 40.36 129.837 41.032C129.837 41.752 130.149 42.28 130.701 42.688C131.229 43.024 131.997 43.048 132.501 43.048ZM139.417 43.288C140.737 43.288 142.273 42.424 143.161 41.512H143.377C144.505 41.512 145.585 40.936 146.353 39.88C146.353 39.88 146.473 39.688 146.545 39.592L146.617 39.496H146.593C147.337 38.248 147.529 37.936 147.529 37.72L146.881 37.432C146.881 37.432 146.593 37.912 145.897 39.112V39.088L145.681 39.4C145.057 40.216 144.433 40.552 143.857 40.648C144.217 40.144 144.529 39.496 144.793 38.752C145.033 37.936 145.129 37.24 145.129 36.664C145.129 34.6 143.713 33.664 141.793 33.664C139.753 33.664 138.673 34.936 137.665 36.592C136.777 38.128 136.297 39.4 136.297 40.432C136.297 42.136 137.809 43.288 139.417 43.288ZM141.697 34.456C142.897 34.456 143.665 35.152 143.665 36.352C143.665 37.6 142.849 39.448 142.201 40.432C141.049 39.784 140.377 38.176 140.377 36.88C140.377 35.824 140.665 34.456 141.697 34.456ZM139.153 38.032C139.513 39.376 140.521 40.528 141.721 41.104C141.313 41.608 140.833 42.04 140.305 42.28H140.329C140.017 42.4 139.681 42.472 139.345 42.472C138.361 42.472 137.761 41.968 137.761 40.936C137.761 40.024 138.169 39.064 139.033 37.576L139.153 38.032ZM148.521 43.024C149.889 43.024 151.041 42.16 151.857 41.296C151.953 42.304 152.913 43 153.897 43C154.041 43 154.233 43 154.377 42.952H154.353C155.025 42.784 156.009 42.28 156.921 40.816C157.881 39.232 158.721 37.816 158.721 37.816L158.001 37.432C158.001 37.432 157.161 38.824 156.201 40.432C155.457 41.632 154.689 42.112 154.185 42.184C153.513 42.256 153.225 42.016 153.225 41.656C153.225 40.792 154.161 39.352 154.353 39.04L157.281 34.192L155.529 33.904C155.121 34.6 154.665 35.32 154.233 36.016C154.065 34.48 152.793 33.808 151.353 33.808C148.953 33.808 146.457 37.096 146.049 39.832C145.809 41.464 146.409 42.592 147.633 42.904C147.921 42.976 148.233 43.024 148.521 43.024ZM152.457 39.016H152.481C152.073 39.76 150.561 42.16 148.545 42.16C147.969 42.16 147.537 42.136 147.537 41.416C147.537 41.032 147.681 40.504 147.825 40.144C148.641 37.912 150.177 35.32 152.097 34.888C152.529 34.816 152.793 34.864 153.081 35.272C153.345 35.632 153.417 36.112 153.417 36.544C153.417 36.976 153.369 37.408 153.321 37.576L152.457 39.016ZM159.63 43.024C161.046 43.024 162.222 42.16 163.062 41.2C163.158 42.304 163.878 43 164.982 43C165.126 43 165.318 43 165.462 42.952H165.438C166.11 42.784 167.094 42.28 168.006 40.816C168.966 39.232 169.806 37.816 169.806 37.816L169.086 37.432C169.086 37.432 168.246 38.824 167.286 40.432C166.542 41.632 165.774 42.112 165.27 42.184C164.598 42.256 164.31 42.016 164.31 41.656C164.31 40.792 165.246 39.352 165.438 39.04L172.542 27.16L170.79 26.896L165.342 35.968C165.174 34.456 163.878 33.808 162.462 33.808C160.062 33.808 157.566 37.096 157.158 39.832C156.918 41.464 157.518 42.592 158.742 42.904C159.03 42.976 159.342 43.024 159.63 43.024ZM163.59 38.968C163.206 39.64 161.646 42.16 159.63 42.16C159.054 42.16 158.646 42.112 158.646 41.416C158.646 41.032 158.79 40.504 158.934 40.144C159.75 37.912 161.286 35.32 163.206 34.888C163.638 34.816 163.902 34.864 164.19 35.272C164.454 35.608 164.526 36.064 164.526 36.496C164.526 36.952 164.502 37.312 164.454 37.504L163.59 38.968ZM187.192 37.336L186.544 38.464C186.28 38.92 185.344 40.192 183.784 40.192C183.52 40.192 183.28 40.192 182.992 40.096L189.016 29.944C187.84 29.56 186.568 29.272 185.44 29.272C183.208 29.272 181.024 30.328 179.944 33.352C179.656 34.192 179.44 35.2 179.44 36.112C179.44 37.528 179.944 38.968 181.12 40L180.52 41.032C180.28 41.464 178.624 44.296 176.512 44.08L176.464 44.848C176.68 44.92 176.824 44.92 176.92 44.92C179.632 45.088 181.648 42.256 182.536 40.84C182.944 41.008 183.352 41.032 183.808 41.032C185.752 41.032 186.904 39.448 187.264 38.848L187.888 37.744L187.192 37.336ZM185.512 30.04C185.896 30.04 186.4 30.136 186.88 30.352L181.624 39.184C181 38.416 180.76 37.408 180.76 36.328C180.76 33.784 182.704 30.04 185.512 30.04ZM199.753 43C201.649 43 203.497 39.904 203.569 39.76L203.713 39.472L203.689 39.496C204.433 38.248 204.625 37.936 204.625 37.72L203.953 37.432C203.953 37.432 203.713 37.912 202.993 39.112V39.088L202.801 39.352C202.777 39.4 201.169 42.184 199.753 42.184C199.297 42.184 198.961 42.088 198.817 41.8C198.721 41.632 198.673 41.416 198.673 41.2C198.673 40.72 199.009 39.904 199.249 39.424C200.257 37.792 200.761 36.76 200.761 35.992C200.761 34.648 199.897 33.808 198.577 33.808C197.257 33.808 196.033 34.792 195.121 35.776C195.001 34.504 194.185 33.808 192.937 33.808C192.265 33.808 191.449 34.168 190.849 34.552L191.137 34.24L189.313 33.928L184.057 42.664L185.809 42.928L188.785 37.984C188.809 37.936 190.873 34.624 192.913 34.624C193.393 34.624 193.873 34.744 193.873 35.32C193.873 35.632 193.729 35.992 193.585 36.256H193.609C193.297 36.784 193.105 37.12 192.841 37.552L192.097 38.752C191.641 39.496 191.353 40.312 191.353 40.984C191.353 41.944 191.905 42.688 193.345 42.952L193.705 42.208C193.225 41.944 193.033 41.56 193.033 41.176C193.033 40.576 193.345 39.904 193.609 39.424L194.497 37.912C194.833 37.408 196.705 34.624 198.553 34.624C199.033 34.624 199.513 34.744 199.513 35.32C199.513 35.632 199.369 35.992 199.225 36.256H199.249L197.761 38.752C197.305 39.52 196.993 40.312 196.993 40.984C196.993 42.136 197.737 43 199.753 43ZM205.615 43.024C206.983 43.024 208.135 42.16 208.951 41.296C209.047 42.304 210.007 43 210.991 43C211.135 43 211.327 43 211.471 42.952H211.447C212.119 42.784 213.103 42.28 214.015 40.816C214.975 39.232 215.815 37.816 215.815 37.816L215.095 37.432C215.095 37.432 214.255 38.824 213.295 40.432C212.551 41.632 211.783 42.112 211.279 42.184C210.607 42.256 210.319 42.016 210.319 41.656C210.319 40.792 211.255 39.352 211.447 39.04L214.375 34.192L212.623 33.904C212.215 34.6 211.759 35.32 211.327 36.016C211.159 34.48 209.887 33.808 208.447 33.808C206.047 33.808 203.551 37.096 203.143 39.832C202.903 41.464 203.503 42.592 204.727 42.904C205.015 42.976 205.327 43.024 205.615 43.024ZM209.551 39.016H209.575C209.167 39.76 207.655 42.16 205.639 42.16C205.063 42.16 204.631 42.136 204.631 41.416C204.631 41.032 204.775 40.504 204.919 40.144C205.735 37.912 207.271 35.32 209.191 34.888C209.623 34.816 209.887 34.864 210.175 35.272C210.439 35.632 210.511 36.112 210.511 36.544C210.511 36.976 210.463 37.408 210.415 37.576L209.551 39.016ZM225.772 37.408C225.772 37.408 225.532 37.912 224.812 39.112V39.088L224.668 39.328C223.228 41.656 221.692 42.64 219.964 43.312L225.508 34.192L223.756 33.904L222.46 36.04C222.292 34.504 221.044 33.808 219.58 33.808C217.18 33.808 214.684 37.096 214.276 39.832V39.808C214.204 40.144 214.204 40.36 214.204 40.528C214.204 42.16 215.212 43.024 216.748 43.024C217.396 43.024 218.044 42.832 218.572 42.544C218.116 43.312 217.972 43.456 217.564 44.176C216.34 44.608 215.116 45.088 213.988 46C213.028 46.744 212.62 47.656 212.836 48.424C213.052 49.072 213.7 49.528 214.492 49.528C215.428 49.528 216.7 48.736 217.564 47.296C218.116 46.36 218.74 45.376 219.292 44.416C221.38 43.672 223.492 42.688 225.412 39.664C225.412 39.64 225.436 39.64 225.436 39.616L225.508 39.52C225.508 39.496 225.532 39.496 225.532 39.472L225.508 39.496C226.252 38.248 226.444 37.936 226.444 37.72L225.772 37.408ZM221.284 35.272C221.548 35.632 221.644 36.088 221.644 36.52C221.644 37.048 221.596 37.408 221.548 37.576L220.276 39.688V39.664C219.604 40.648 218.332 42.16 216.772 42.16C216.196 42.16 215.764 42.112 215.764 41.416C215.764 41.032 215.908 40.504 216.052 40.144C216.868 37.888 218.38 35.272 220.324 34.888C220.78 34.816 220.972 34.84 221.284 35.272ZM216.94 45.28L216.268 46.312H216.292C215.86 47.032 214.948 48.568 214.156 48.568C214.06 48.568 213.94 48.544 213.844 48.472C213.7 48.352 213.604 48.16 213.604 48.016C213.604 46.84 216.028 45.616 216.94 45.28ZM233.627 37.408C233.627 37.408 233.387 37.912 232.667 39.112V39.088L232.379 39.544C231.083 41.656 229.595 42.16 228.563 42.16C228.083 42.16 227.723 42.064 227.555 41.968V41.992C227.075 41.728 226.739 41.104 226.739 40.24C226.739 39.856 226.811 39.328 227.003 38.8C227.459 38.992 228.059 39.112 228.539 39.112C230.147 39.112 231.923 37.912 231.923 36.184C231.923 35.824 231.827 35.44 231.635 35.128L231.611 35.032C230.795 34.072 229.931 33.88 229.331 33.904C228.275 34 227.411 34.744 227.003 35.368C226.907 35.536 226.787 35.728 226.691 35.896L226.067 36.952C225.491 37.912 224.987 38.92 224.987 40.096C224.987 41.416 225.683 42.352 226.883 42.88C227.099 42.976 227.555 43.072 228.179 43.072C229.523 43.072 231.539 42.496 233.099 39.928C233.171 39.808 233.315 39.64 233.387 39.496H233.363C234.107 38.248 234.299 37.936 234.299 37.72L233.627 37.408ZM227.435 37.912H227.411L228.707 35.776C228.995 35.32 229.619 34.6 230.219 34.864C230.291 34.888 230.435 35.224 230.435 35.68C230.435 37.12 229.163 38.128 227.795 38.128C227.627 38.128 227.459 38.104 227.339 38.08L227.435 37.912Z" fill="black" fill-opacity="0.4"/>

</svg>
