<svg width="390" height="84" viewBox="0 0 390 84" fill="none" xmlns="http://www.w3.org/2000/svg">
<g opacity="0.6">
<path fill-rule="evenodd" clip-rule="evenodd" d="M364.003 47.3393V59.4608H377.001C377.001 52.7661 371.182 47.3393 364.003 47.3393Z" fill="#FE9C15"/>
<path fill-rule="evenodd" clip-rule="evenodd" d="M370.503 65.5217C372.901 67.7583 371.202 71.5824 367.811 71.5824H364.004L370.503 65.5217Z" fill="#ADA194"/>
<path fill-rule="evenodd" clip-rule="evenodd" d="M370.503 65.5215L364.004 59.4608H377.002L370.503 65.5215Z" fill="#FFECC7"/>
<path fill-rule="evenodd" clip-rule="evenodd" d="M370.503 65.5215L377.002 59.4608V71.5822L370.503 65.5215Z" fill="#FE9C15"/>
<path fill-rule="evenodd" clip-rule="evenodd" d="M370.502 65.5216L364.003 71.5823V68.0319C364.003 64.8691 368.104 63.285 370.502 65.5216Z" fill="#BD8242"/>
<path fill-rule="evenodd" clip-rule="evenodd" d="M344.5 77.643L338 83.7037V71.5823L344.5 77.643Z" fill="#FFECC7"/>
<path fill-rule="evenodd" clip-rule="evenodd" d="M344.499 77.643L350.999 71.5823V83.7037L344.499 77.643Z" fill="#BD8242"/>
<path fill-rule="evenodd" clip-rule="evenodd" d="M344.499 77.6432L350.999 83.7039H338L344.499 77.6432Z" fill="#ADA194"/>
<path fill-rule="evenodd" clip-rule="evenodd" d="M344.499 77.643L338 71.5823H350.999L344.499 77.643Z" fill="#F5C38D"/>
<path fill-rule="evenodd" clip-rule="evenodd" d="M370.503 77.6432L377.002 83.7039H364.004L370.503 77.6432Z" fill="#FFECC7"/>
<path fill-rule="evenodd" clip-rule="evenodd" d="M370.503 77.643L364.004 71.5823H367.811C371.202 71.5823 372.901 75.4064 370.503 77.643Z" fill="#BD8242"/>
<path fill-rule="evenodd" clip-rule="evenodd" d="M370.503 77.643L377.002 71.5823V83.7037L370.503 77.643Z" fill="#F5C38D"/>
<path fill-rule="evenodd" clip-rule="evenodd" d="M370.502 77.643C368.104 79.8796 364.003 78.2955 364.003 75.1324V71.5823L370.502 77.643Z" fill="#FE9C15"/>
<path fill-rule="evenodd" clip-rule="evenodd" d="M383.494 65.5604L376.995 71.6211V59.4997L383.494 65.5604Z" fill="#BD8242"/>
<path fill-rule="evenodd" clip-rule="evenodd" d="M357.51 77.643C355.112 75.4064 356.811 71.5823 360.202 71.5823H364.009L357.51 77.643Z" fill="#ADA194"/>
<path fill-rule="evenodd" clip-rule="evenodd" d="M357.51 77.643L364.009 71.5823V75.1324C364.009 78.2955 359.909 79.8796 357.51 77.643Z" fill="#F5C38D"/>
<path fill-rule="evenodd" clip-rule="evenodd" d="M383.494 65.5604L376.995 59.4997H389.993L383.494 65.5604Z" fill="#FFECC7"/>
<path fill-rule="evenodd" clip-rule="evenodd" d="M344.499 53.4674L350.999 59.5281H338L344.499 53.4674Z" fill="#BD8242"/>
<path fill-rule="evenodd" clip-rule="evenodd" d="M344.499 65.5604L350.999 59.4997V71.6211L344.499 65.5604Z" fill="#BD8242"/>
<path fill-rule="evenodd" clip-rule="evenodd" d="M383.494 53.4388L389.993 59.4995H376.995L383.494 53.4388Z" fill="#F5C38D"/>
<path fill-rule="evenodd" clip-rule="evenodd" d="M344.499 65.5604L338 59.4997H350.999L344.499 65.5604Z" fill="#ADA194"/>
<path fill-rule="evenodd" clip-rule="evenodd" d="M383.501 77.643L377.002 71.5823H390L383.501 77.643Z" fill="#ADA194"/>
<path fill-rule="evenodd" clip-rule="evenodd" d="M383.501 77.6432L390 83.7039H377.002L383.501 77.6432Z" fill="#F5C38D"/>
<path fill-rule="evenodd" clip-rule="evenodd" d="M383.501 77.643L377.002 83.7037V71.5823L383.501 77.643Z" fill="#FE9C15"/>
<path fill-rule="evenodd" clip-rule="evenodd" d="M383.501 77.643L390 71.5823V83.7037L383.501 77.643Z" fill="#BD8242"/>
<path fill-rule="evenodd" clip-rule="evenodd" d="M351.006 59.4608H364.004V47.3393C356.825 47.3393 351.006 52.7661 351.006 59.4608Z" fill="#ADA194"/>
<path fill-rule="evenodd" clip-rule="evenodd" d="M351.005 59.4608C351.005 66.1555 356.825 71.5822 364.003 71.5822V59.4608H351.005Z" fill="#BD8242"/>
<path fill-rule="evenodd" clip-rule="evenodd" d="M357.649 59.461H358.767C358.767 56.7682 361.116 54.5777 364.003 54.5777V53.535C360.499 53.535 357.649 56.1934 357.649 59.461ZM355.27 59.461H356.388C356.388 55.5454 359.805 52.3596 364.003 52.3596V51.3169C359.188 51.3169 355.27 54.9703 355.27 59.461ZM364.003 49.0991V50.1418C358.493 50.1418 354.01 54.3223 354.01 59.461H352.892C352.892 53.7472 357.877 49.0991 364.003 49.0991Z" fill="#FFECC7"/>
<path fill-rule="evenodd" clip-rule="evenodd" d="M364.004 53.5348V54.5775C366.891 54.5775 369.24 56.7682 369.24 59.461H370.358C370.358 56.1931 367.508 53.5348 364.004 53.5348ZM364.004 51.3169V52.3596C368.203 52.3596 371.619 55.5454 371.619 59.461H372.737C372.737 54.9706 368.819 51.3169 364.004 51.3169ZM375.115 59.461H373.997C373.997 54.3223 369.514 50.1418 364.004 50.1418V49.0991C370.131 49.0991 375.115 53.7475 375.115 59.461Z" fill="#FFECC7"/>
<path fill-rule="evenodd" clip-rule="evenodd" d="M364.003 65.3867V64.344C361.116 64.344 358.767 62.1533 358.767 59.4608H357.649C357.649 62.7283 360.499 65.3867 364.003 65.3867ZM364.003 67.6046V66.5619C359.805 66.5619 356.388 63.3761 356.388 59.4608H355.27C355.27 63.9512 359.188 67.6046 364.003 67.6046ZM352.892 59.4608H354.01C354.01 64.5992 358.493 68.78 364.003 68.78V69.8227C357.877 69.8227 352.892 65.1743 352.892 59.4608Z" fill="#F5C38D"/>
<path fill-rule="evenodd" clip-rule="evenodd" d="M344.179 61.101C343.248 61.101 342.493 60.3969 342.493 59.5283C342.493 58.6598 343.248 57.9559 344.179 57.9559C345.111 57.9559 345.866 58.6598 345.866 59.5283C345.866 60.3969 345.111 61.101 344.179 61.101Z" fill="#FFECC7"/>
<path fill-rule="evenodd" clip-rule="evenodd" d="M364.003 56.9519V62.0479C362.495 62.0479 361.271 60.9069 361.271 59.4998C361.271 58.0926 362.495 56.9519 364.003 56.9519Z" fill="#F5C38D"/>
<path fill-rule="evenodd" clip-rule="evenodd" d="M344.5 77.6432V74.459L347.914 77.6432H344.5Z" fill="#FFECC7"/>
<path fill-rule="evenodd" clip-rule="evenodd" d="M344.5 77.6432V80.8273L341.085 77.6432H344.5Z" fill="#BD8242"/>
<path fill-rule="evenodd" clip-rule="evenodd" d="M344.5 77.6432H341.085L344.5 74.459V77.6432Z" fill="#ADA194"/>
<path fill-rule="evenodd" clip-rule="evenodd" d="M344.5 77.6432H347.914L344.5 80.8273V77.6432Z" fill="#F5C38D"/>
<path fill-rule="evenodd" clip-rule="evenodd" d="M376.994 65.58V62.3959L380.409 65.58H376.994Z" fill="#F5C38D"/>
<path fill-rule="evenodd" clip-rule="evenodd" d="M376.995 65.58H373.581L376.995 62.3959V65.58Z" fill="#FFECC7"/>
<path fill-rule="evenodd" clip-rule="evenodd" d="M376.995 65.5408V68.7253L373.581 65.5408H376.995Z" fill="#F5C38D"/>
<path fill-rule="evenodd" clip-rule="evenodd" d="M376.994 65.5408H380.409L376.994 68.7253V65.5408Z" fill="#FFECC7"/>
<path fill-rule="evenodd" clip-rule="evenodd" d="M383.48 77.5087H386.895L383.48 80.6929V77.5087Z" fill="#F5C38D"/>
<path fill-rule="evenodd" clip-rule="evenodd" d="M383.48 77.5087V74.3243L386.895 77.5087H383.48Z" fill="#FFECC7"/>
<path fill-rule="evenodd" clip-rule="evenodd" d="M383.522 77.5087H380.107L383.522 74.3243V77.5087Z" fill="#F5C38D"/>
<path fill-rule="evenodd" clip-rule="evenodd" d="M383.522 77.5087V80.6929L380.107 77.5087H383.522Z" fill="#FFECC7"/>
<path fill-rule="evenodd" clip-rule="evenodd" d="M19.5002 30.4189L13.0002 24.3573H16.8079C20.1999 24.3573 21.8989 28.182 19.5002 30.4189Z" fill="#FE9C15"/>
<path fill-rule="evenodd" clip-rule="evenodd" d="M6.5005 18.2958L13.0005 24.3574H0.000512123L6.5005 18.2958Z" fill="#FE9C15"/>
<path fill-rule="evenodd" clip-rule="evenodd" d="M19.5005 30.4189C17.1018 32.6558 13.0005 31.0715 13.0005 27.9082V24.3573L19.5005 30.4189Z" fill="#BD8242"/>
<path fill-rule="evenodd" clip-rule="evenodd" d="M6.5005 30.4189L13.0005 24.3573V27.9082C13.0005 31.0715 8.89921 32.6558 6.5005 30.4189Z" fill="#BDB4A9"/>
<path fill-rule="evenodd" clip-rule="evenodd" d="M6.5005 30.4189C4.10179 28.182 5.80074 24.3573 9.19275 24.3573H13.0005L6.5005 30.4189Z" fill="#ADA194"/>
<path fill-rule="evenodd" clip-rule="evenodd" d="M6.5005 18.2959L13.0005 12.2344L13.0005 24.3575L6.5005 18.2959Z" fill="#BD8242"/>
<path fill-rule="evenodd" clip-rule="evenodd" d="M39.0007 12.2342V0.111099C42.5906 3.45891 42.5906 8.88642 39.0007 12.2342Z" fill="#FFECC7"/>
<path fill-rule="evenodd" clip-rule="evenodd" d="M39.0008 0.111389L52.0007 0.111389C48.4108 3.4592 42.5907 3.4592 39.0008 0.111389Z" fill="#FE9C15"/>
<path fill-rule="evenodd" clip-rule="evenodd" d="M32.501 6.17267L26.001 12.2342L26.001 0.111099L32.501 6.17267Z" fill="#F5C38D"/>
<path fill-rule="evenodd" clip-rule="evenodd" d="M39.0002 0.111099V12.2342C35.4106 8.88642 35.4106 3.45891 39.0002 0.111099Z" fill="#F5C38D"/>
<path fill-rule="evenodd" clip-rule="evenodd" d="M32.5003 6.17288L39.0002 12.2344L26.0003 12.2344L32.5003 6.17288Z" fill="#FE9C15"/>
<path fill-rule="evenodd" clip-rule="evenodd" d="M26.0003 0.111099L39.0002 0.111099C35.4106 3.45891 29.5902 3.45891 26.0003 0.111099Z" fill="#ADA194"/>
<path fill-rule="evenodd" clip-rule="evenodd" d="M13.0083 0.111099L13.0083 12.2342C9.41835 8.88642 9.41835 3.45891 13.0083 0.111099Z" fill="#BD8242"/>
<path fill-rule="evenodd" clip-rule="evenodd" d="M6.50806 6.17267L0.00806856 12.2342L0.00806856 0.111099L6.50806 6.17267Z" fill="#F5C38D"/>
<path fill-rule="evenodd" clip-rule="evenodd" d="M0.00832462 0.111099L13.0083 0.111099C9.41835 3.45891 3.59827 3.45891 0.00832462 0.111099Z" fill="#BD8242"/>
<path fill-rule="evenodd" clip-rule="evenodd" d="M6.50856 6.17288L13.0085 12.2344L0.00856876 12.2344L6.50856 6.17288Z" fill="#FFECC7"/>
<path fill-rule="evenodd" clip-rule="evenodd" d="M19.5081 6.17267L26.0081 0.111099L26.0081 12.2342L19.5081 6.17267Z" fill="#BD8242"/>
<path fill-rule="evenodd" clip-rule="evenodd" d="M13.3492 11.9156L13.0076 12.2342L13.0076 0.111099L13.3492 0.42969C16.7505 3.60152 16.7505 8.74381 13.3492 11.9156Z" fill="#FFECC7"/>
<path fill-rule="evenodd" clip-rule="evenodd" d="M13.0081 0.111099L26.0081 0.111099C22.4181 3.45891 16.5978 3.45891 13.0081 0.111099Z" fill="#BDB4A9"/>
<path fill-rule="evenodd" clip-rule="evenodd" d="M19.5078 6.17288L26.0078 12.2344L13.0078 12.2344L19.5078 6.17288Z" fill="#F5C38D"/>
<path fill-rule="evenodd" clip-rule="evenodd" d="M6.50122 18.2959L0.00123262 24.3575L0.00123262 12.2344L6.50122 18.2959Z" fill="#BDB4A9"/>
<path fill-rule="evenodd" clip-rule="evenodd" d="M6.5005 18.2959L0.000512123 12.2344L13.0005 12.2344L6.5005 18.2959Z" fill="#FE9C15"/>
<path fill-rule="evenodd" clip-rule="evenodd" d="M32.5012 18.1517L26.0012 24.2133L26.0012 12.0902L32.5012 18.1517Z" fill="#FE9C15"/>
<path fill-rule="evenodd" clip-rule="evenodd" d="M32.5003 18.1517L26.0003 12.0902L39.0002 12.0902L32.5003 18.1517Z" fill="#BD8242"/>
<path fill-rule="evenodd" clip-rule="evenodd" d="M32.5004 19.7245C31.5688 19.7245 30.8137 19.0203 30.8137 18.1517C30.8137 17.283 31.5688 16.5788 32.5004 16.5788C33.4319 16.5788 34.187 17.283 34.187 18.1517C34.187 19.0203 33.4319 19.7245 32.5004 19.7245Z" fill="#F5C38D"/>
<path fill-rule="evenodd" clip-rule="evenodd" d="M19.5137 18.2959L13.0137 12.2344L26.0137 12.2344L19.5137 18.2959Z" fill="#FFECC7"/>
<path fill-rule="evenodd" clip-rule="evenodd" d="M6.50815 18.3155L6.50815 15.1308L9.9231 18.3155H6.50815Z" fill="#F5C38D"/>
<path fill-rule="evenodd" clip-rule="evenodd" d="M6.50806 18.3155H3.09312L6.50806 15.1308L6.50806 18.3155Z" fill="#FFECC7"/>
<path fill-rule="evenodd" clip-rule="evenodd" d="M6.50806 18.2764L6.50806 21.461L3.09312 18.2764H6.50806Z" fill="#F5C38D"/>
<path fill-rule="evenodd" clip-rule="evenodd" d="M6.50815 18.2764H9.9231L6.50815 21.461L6.50815 18.2764Z" fill="#FFECC7"/>
<path fill-rule="evenodd" clip-rule="evenodd" d="M21.0976 12.0903C21.0976 9.5113 23.3395 7.42064 26.1047 7.42064C28.8702 7.42064 31.112 9.5113 31.112 12.0903C31.112 14.6692 28.8702 16.7595 26.1047 16.7595C23.3395 16.7595 21.0976 14.6692 21.0976 12.0903ZM32.5012 12.0903C32.5012 8.7959 29.6373 6.12542 26.1047 6.12542C22.572 6.12542 19.7084 8.7959 19.7084 12.0903C19.7084 15.3846 22.572 18.055 26.1047 18.055C29.6373 18.055 32.5012 15.3846 32.5012 12.0903Z" fill="#FFECC7"/>
</g>
<path d="M134.683 48.4844C136.291 48.4844 138.163 46.7804 139.795 44.7164C139.699 45.0764 139.675 45.4604 139.675 45.8684C139.675 47.1884 140.155 48.6284 141.883 48.2204C142.627 48.0284 143.491 47.3804 144.115 46.3244L147.163 41.1884L146.443 40.7804L143.419 45.9644V45.9404C142.771 46.9004 142.291 47.2844 141.931 47.2844C141.595 47.2844 141.427 46.8524 141.427 46.1324C141.427 45.6764 141.499 45.1004 141.691 44.4524C141.691 44.4284 141.715 44.3324 141.739 44.2844V44.3324C142.243 42.8924 142.891 41.7644 143.059 41.5004L148.075 33.0284L146.467 32.5004C144.931 35.0924 143.179 38.0684 141.619 40.6604C139.651 43.7564 136.531 47.9804 134.467 47.6684C133.795 47.5724 133.579 46.9964 133.579 46.3964C133.579 45.8684 133.771 45.1484 133.987 44.6684C134.467 43.6124 135.115 42.5564 135.667 41.6684C136.939 39.6044 138.163 37.5644 137.995 35.3804C137.707 32.3324 134.971 32.6684 134.971 32.6684C132.715 33.0764 130.723 36.5804 130.723 38.7644C130.723 39.1244 130.771 39.4844 130.891 39.8684C131.107 40.4444 131.467 40.9004 132.067 41.1644C132.091 41.0924 132.475 39.8444 132.451 39.6044C131.851 39.5324 131.635 39.1004 131.635 38.5244C131.635 37.6124 132.067 36.5324 132.379 36.0284C132.811 35.2604 134.131 33.4124 135.331 33.4124C135.595 33.4124 135.835 33.5084 136.123 33.7964C136.315 33.9644 136.459 34.2524 136.459 34.8044C136.459 35.8364 135.859 37.6604 133.963 41.0684L133.987 41.0204C133.771 41.2364 132.307 43.9004 132.307 45.9644C132.307 47.1884 132.811 48.2204 134.347 48.4604H134.323C134.419 48.4844 134.563 48.4844 134.683 48.4844ZM156.725 40.8764C156.725 40.8764 156.221 41.6924 155.669 42.6764C155.165 43.5164 154.301 44.5484 153.845 44.6444C153.437 44.7404 153.125 44.7404 152.765 44.5724C152.885 44.4524 152.885 44.4284 153.005 44.2364L153.077 44.1404H153.053C153.965 42.6044 154.925 40.6364 154.925 39.2204C154.925 37.9244 154.157 37.2044 152.837 37.2044C151.757 37.2044 150.845 37.5644 150.053 38.0684L150.365 37.6124L148.589 37.3244L139.085 53.0924L140.837 53.3804L148.325 40.9484V40.9724C148.877 40.1564 150.437 38.3564 152.405 38.0444C152.597 38.0684 152.909 38.1884 153.053 38.3804C153.149 38.5484 153.197 38.8124 153.197 39.1244C153.197 40.1564 152.597 41.7404 151.445 43.6604V43.6364L151.397 43.7084C150.749 43.1804 149.669 42.4844 148.829 42.4844C147.749 42.4844 147.053 43.4444 147.053 44.4524C147.053 44.5004 147.053 44.5964 147.101 44.7164C147.173 45.2924 147.557 45.7484 148.133 46.0844H148.109C148.157 46.1324 148.205 46.1564 148.229 46.1564C148.301 46.1804 148.301 46.1804 148.349 46.1804C148.733 46.3724 149.117 46.4204 149.525 46.4204C149.621 46.4204 149.741 46.4204 149.789 46.3964C149.957 46.3964 150.029 46.3724 150.149 46.3484C150.485 46.3004 150.797 46.2044 151.085 46.0604V46.0844C151.517 45.8684 151.925 45.6044 152.261 45.2444C152.621 45.4124 153.005 45.5084 153.413 45.5084C153.629 45.5084 153.845 45.4844 154.061 45.4364C154.901 45.2204 155.933 43.9004 156.389 43.0364H156.365C156.965 42.0284 157.445 41.2604 157.445 41.2604L156.725 40.8764ZM147.893 44.5484C147.845 44.2604 147.941 43.9244 148.133 43.6604C148.349 43.3964 148.565 43.2764 148.853 43.2764C149.165 43.2764 149.549 43.4204 150.029 43.7564C150.341 43.9484 150.629 44.1644 150.893 44.3804L150.941 44.4044C150.317 45.1724 149.765 45.3884 148.949 45.3404C148.877 45.3404 148.757 45.3164 148.661 45.2924C148.277 45.2204 147.941 44.9324 147.893 44.5724V44.5484ZM157.799 46.4924C159.887 46.4924 160.943 45.0764 161.951 43.4204L162.023 43.3244C162.671 42.2204 163.247 41.2604 163.247 41.2604L162.527 40.8764C162.527 40.8764 161.951 41.8604 161.279 42.9644L161.231 43.0604C160.439 44.3564 159.527 45.6764 157.871 45.6764C157.559 45.6764 157.223 45.6044 156.983 45.4124H157.007C156.839 45.2444 156.743 45.0284 156.743 44.8124C156.743 43.9244 157.559 42.6044 158.111 41.6924C158.111 41.6924 163.103 33.3164 164.735 30.6044L162.983 30.3404C162.983 30.3404 156.143 41.7164 156.119 41.7644H156.143C155.447 42.9164 155.135 43.8044 155.135 44.4764C155.135 45.1964 155.447 45.7244 155.999 46.1324C156.527 46.4684 157.295 46.4924 157.799 46.4924ZM164.715 46.7324C166.035 46.7324 167.571 45.8684 168.459 44.9564H168.675C169.803 44.9564 170.883 44.3804 171.651 43.3244C171.651 43.3244 171.771 43.1324 171.843 43.0364L171.915 42.9404H171.891C172.635 41.6924 172.827 41.3804 172.827 41.1644L172.179 40.8764C172.179 40.8764 171.891 41.3564 171.195 42.5564V42.5324L170.979 42.8444C170.355 43.6604 169.731 43.9964 169.155 44.0924C169.515 43.5884 169.827 42.9404 170.091 42.1964C170.331 41.3804 170.427 40.6844 170.427 40.1084C170.427 38.0444 169.011 37.1084 167.091 37.1084C165.051 37.1084 163.971 38.3804 162.963 40.0364C162.075 41.5724 161.595 42.8444 161.595 43.8764C161.595 45.5804 163.107 46.7324 164.715 46.7324ZM166.995 37.9004C168.195 37.9004 168.963 38.5964 168.963 39.7964C168.963 41.0444 168.147 42.8924 167.499 43.8764C166.347 43.2284 165.675 41.6204 165.675 40.3244C165.675 39.2684 165.963 37.9004 166.995 37.9004ZM164.451 41.4764C164.811 42.8204 165.819 43.9724 167.019 44.5484C166.611 45.0524 166.131 45.4844 165.603 45.7244H165.627C165.315 45.8444 164.979 45.9164 164.643 45.9164C163.659 45.9164 163.059 45.4124 163.059 44.3804C163.059 43.4684 163.467 42.5084 164.331 41.0204L164.451 41.4764ZM173.819 46.4684C175.187 46.4684 176.339 45.6044 177.155 44.7404C177.251 45.7484 178.211 46.4444 179.195 46.4444C179.339 46.4444 179.531 46.4444 179.675 46.3964H179.651C180.323 46.2284 181.307 45.7244 182.219 44.2604C183.179 42.6764 184.019 41.2604 184.019 41.2604L183.299 40.8764C183.299 40.8764 182.459 42.2684 181.499 43.8764C180.755 45.0764 179.987 45.5564 179.483 45.6284C178.811 45.7004 178.523 45.4604 178.523 45.1004C178.523 44.2364 179.459 42.7964 179.651 42.4844L182.579 37.6364L180.827 37.3484C180.419 38.0444 179.963 38.7644 179.531 39.4604C179.363 37.9244 178.091 37.2524 176.651 37.2524C174.251 37.2524 171.755 40.5404 171.347 43.2764C171.107 44.9084 171.707 46.0364 172.931 46.3484C173.219 46.4204 173.531 46.4684 173.819 46.4684ZM177.755 42.4604H177.779C177.371 43.2044 175.859 45.6044 173.843 45.6044C173.267 45.6044 172.835 45.5804 172.835 44.8604C172.835 44.4764 172.979 43.9484 173.123 43.5884C173.939 41.3564 175.475 38.7644 177.395 38.3324C177.827 38.2604 178.091 38.3084 178.379 38.7164C178.643 39.0764 178.715 39.5564 178.715 39.9884C178.715 40.4204 178.667 40.8524 178.619 41.0204L177.755 42.4604ZM184.928 46.4684C186.344 46.4684 187.52 45.6044 188.36 44.6444C188.456 45.7484 189.176 46.4444 190.28 46.4444C190.424 46.4444 190.616 46.4444 190.76 46.3964H190.736C191.408 46.2284 192.392 45.7244 193.304 44.2604C194.264 42.6764 195.104 41.2604 195.104 41.2604L194.384 40.8764C194.384 40.8764 193.544 42.2684 192.584 43.8764C191.84 45.0764 191.072 45.5564 190.568 45.6284C189.896 45.7004 189.608 45.4604 189.608 45.1004C189.608 44.2364 190.544 42.7964 190.736 42.4844L197.84 30.6044L196.088 30.3404L190.64 39.4124C190.472 37.9004 189.176 37.2524 187.76 37.2524C185.36 37.2524 182.864 40.5404 182.456 43.2764C182.216 44.9084 182.816 46.0364 184.04 46.3484C184.328 46.4204 184.64 46.4684 184.928 46.4684ZM188.888 42.4124C188.504 43.0844 186.944 45.6044 184.928 45.6044C184.352 45.6044 183.944 45.5564 183.944 44.8604C183.944 44.4764 184.088 43.9484 184.232 43.5884C185.048 41.3564 186.584 38.7644 188.504 38.3324C188.936 38.2604 189.2 38.3084 189.488 38.7164C189.752 39.0524 189.824 39.5084 189.824 39.9404C189.824 40.3964 189.8 40.7564 189.752 40.9484L188.888 42.4124ZM212.49 40.7804L211.842 41.9084C211.578 42.3644 210.642 43.6364 209.082 43.6364C208.818 43.6364 208.578 43.6364 208.29 43.5404L214.314 33.3884C213.138 33.0044 211.866 32.7164 210.738 32.7164C208.506 32.7164 206.322 33.7724 205.242 36.7964C204.954 37.6364 204.738 38.6444 204.738 39.5564C204.738 40.9724 205.242 42.4124 206.418 43.4444L205.818 44.4764C205.578 44.9084 203.922 47.7404 201.81 47.5244L201.762 48.2924C201.978 48.3644 202.122 48.3644 202.218 48.3644C204.93 48.5324 206.946 45.7004 207.834 44.2844C208.242 44.4524 208.65 44.4764 209.106 44.4764C211.05 44.4764 212.202 42.8924 212.562 42.2924L213.186 41.1884L212.49 40.7804ZM210.81 33.4844C211.194 33.4844 211.698 33.5804 212.178 33.7964L206.922 42.6284C206.298 41.8604 206.058 40.8524 206.058 39.7724C206.058 37.2284 208.002 33.4844 210.81 33.4844ZM225.051 46.4444C226.947 46.4444 228.795 43.3484 228.867 43.2044L229.011 42.9164L228.987 42.9404C229.731 41.6924 229.923 41.3804 229.923 41.1644L229.251 40.8764C229.251 40.8764 229.011 41.3564 228.291 42.5564V42.5324L228.099 42.7964C228.075 42.8444 226.467 45.6284 225.051 45.6284C224.595 45.6284 224.259 45.5324 224.115 45.2444C224.019 45.0764 223.971 44.8604 223.971 44.6444C223.971 44.1644 224.307 43.3484 224.547 42.8684C225.555 41.2364 226.059 40.2044 226.059 39.4364C226.059 38.0924 225.195 37.2524 223.875 37.2524C222.555 37.2524 221.331 38.2364 220.419 39.2204C220.299 37.9484 219.483 37.2524 218.235 37.2524C217.563 37.2524 216.747 37.6124 216.147 37.9964L216.435 37.6844L214.611 37.3724L209.355 46.1084L211.107 46.3724L214.083 41.4284C214.107 41.3804 216.171 38.0684 218.211 38.0684C218.691 38.0684 219.171 38.1884 219.171 38.7644C219.171 39.0764 219.027 39.4364 218.883 39.7004H218.907C218.595 40.2284 218.403 40.5644 218.139 40.9964L217.395 42.1964C216.939 42.9404 216.651 43.7564 216.651 44.4284C216.651 45.3884 217.203 46.1324 218.643 46.3964L219.003 45.6524C218.523 45.3884 218.331 45.0044 218.331 44.6204C218.331 44.0204 218.643 43.3484 218.907 42.8684L219.795 41.3564C220.131 40.8524 222.003 38.0684 223.851 38.0684C224.331 38.0684 224.811 38.1884 224.811 38.7644C224.811 39.0764 224.667 39.4364 224.523 39.7004H224.547L223.059 42.1964C222.603 42.9644 222.291 43.7564 222.291 44.4284C222.291 45.5804 223.035 46.4444 225.051 46.4444ZM230.913 46.4684C232.281 46.4684 233.433 45.6044 234.249 44.7404C234.345 45.7484 235.305 46.4444 236.289 46.4444C236.433 46.4444 236.625 46.4444 236.769 46.3964H236.745C237.417 46.2284 238.401 45.7244 239.313 44.2604C240.273 42.6764 241.113 41.2604 241.113 41.2604L240.393 40.8764C240.393 40.8764 239.553 42.2684 238.593 43.8764C237.849 45.0764 237.081 45.5564 236.577 45.6284C235.905 45.7004 235.617 45.4604 235.617 45.1004C235.617 44.2364 236.553 42.7964 236.745 42.4844L239.673 37.6364L237.921 37.3484C237.513 38.0444 237.057 38.7644 236.625 39.4604C236.457 37.9244 235.185 37.2524 233.745 37.2524C231.345 37.2524 228.849 40.5404 228.441 43.2764C228.201 44.9084 228.801 46.0364 230.025 46.3484C230.313 46.4204 230.625 46.4684 230.913 46.4684ZM234.849 42.4604H234.873C234.465 43.2044 232.953 45.6044 230.937 45.6044C230.361 45.6044 229.929 45.5804 229.929 44.8604C229.929 44.4764 230.073 43.9484 230.217 43.5884C231.033 41.3564 232.569 38.7644 234.489 38.3324C234.921 38.2604 235.185 38.3084 235.473 38.7164C235.737 39.0764 235.809 39.5564 235.809 39.9884C235.809 40.4204 235.761 40.8524 235.713 41.0204L234.849 42.4604ZM251.07 40.8524C251.07 40.8524 250.83 41.3564 250.11 42.5564V42.5324L249.966 42.7724C248.526 45.1004 246.99 46.0844 245.262 46.7564L250.806 37.6364L249.054 37.3484L247.758 39.4844C247.59 37.9484 246.342 37.2524 244.878 37.2524C242.478 37.2524 239.982 40.5404 239.574 43.2764V43.2524C239.502 43.5884 239.502 43.8044 239.502 43.9724C239.502 45.6044 240.51 46.4684 242.046 46.4684C242.694 46.4684 243.342 46.2764 243.87 45.9884C243.414 46.7564 243.27 46.9004 242.862 47.6204C241.638 48.0524 240.414 48.5324 239.286 49.4444C238.326 50.1884 237.918 51.1004 238.134 51.8684C238.35 52.5164 238.998 52.9724 239.79 52.9724C240.726 52.9724 241.998 52.1804 242.862 50.7404C243.414 49.8044 244.038 48.8204 244.59 47.8604C246.678 47.1164 248.79 46.1324 250.71 43.1084C250.71 43.0844 250.734 43.0844 250.734 43.0604L250.806 42.9644C250.806 42.9404 250.83 42.9404 250.83 42.9164L250.806 42.9404C251.55 41.6924 251.742 41.3804 251.742 41.1644L251.07 40.8524ZM246.582 38.7164C246.846 39.0764 246.942 39.5324 246.942 39.9644C246.942 40.4924 246.894 40.8524 246.846 41.0204L245.574 43.1324V43.1084C244.902 44.0924 243.63 45.6044 242.07 45.6044C241.494 45.6044 241.062 45.5564 241.062 44.8604C241.062 44.4764 241.206 43.9484 241.35 43.5884C242.166 41.3324 243.678 38.7164 245.622 38.3324C246.078 38.2604 246.27 38.2844 246.582 38.7164ZM242.238 48.7244L241.566 49.7564H241.59C241.158 50.4764 240.246 52.0124 239.454 52.0124C239.358 52.0124 239.238 51.9884 239.142 51.9164C238.998 51.7964 238.902 51.6044 238.902 51.4604C238.902 50.2844 241.326 49.0604 242.238 48.7244ZM258.925 40.8524C258.925 40.8524 258.685 41.3564 257.965 42.5564V42.5324L257.677 42.9884C256.381 45.1004 254.893 45.6044 253.861 45.6044C253.381 45.6044 253.021 45.5084 252.853 45.4124V45.4364C252.373 45.1724 252.037 44.5484 252.037 43.6844C252.037 43.3004 252.109 42.7724 252.301 42.2444C252.757 42.4364 253.357 42.5564 253.837 42.5564C255.445 42.5564 257.221 41.3564 257.221 39.6284C257.221 39.2684 257.125 38.8844 256.933 38.5724L256.909 38.4764C256.093 37.5164 255.229 37.3244 254.629 37.3484C253.573 37.4444 252.709 38.1884 252.301 38.8124C252.205 38.9804 252.085 39.1724 251.989 39.3404L251.365 40.3964C250.789 41.3564 250.285 42.3644 250.285 43.5404C250.285 44.8604 250.981 45.7964 252.181 46.3244C252.397 46.4204 252.853 46.5164 253.477 46.5164C254.821 46.5164 256.837 45.9404 258.397 43.3724C258.469 43.2524 258.613 43.0844 258.685 42.9404H258.661C259.405 41.6924 259.597 41.3804 259.597 41.1644L258.925 40.8524ZM252.733 41.3564H252.709L254.005 39.2204C254.293 38.7644 254.917 38.0444 255.517 38.3084C255.589 38.3324 255.733 38.6684 255.733 39.1244C255.733 40.5644 254.461 41.5724 253.093 41.5724C252.925 41.5724 252.757 41.5484 252.637 41.5244L252.733 41.3564Z" fill="black" fill-opacity="0.4"/>
</svg>
