<svg width="390" height="84" viewBox="0 0 390 84" fill="none" xmlns="http://www.w3.org/2000/svg">
<g opacity="0.6">
<path fill-rule="evenodd" clip-rule="evenodd" d="M364.003 47.2282V59.3497H377.001C377.001 52.655 371.182 47.2282 364.003 47.2282Z" fill="#FE9C15"/>
<path fill-rule="evenodd" clip-rule="evenodd" d="M370.502 65.4106C372.901 67.6472 371.202 71.4713 367.81 71.4713H364.003L370.502 65.4106Z" fill="#ADA194"/>
<path fill-rule="evenodd" clip-rule="evenodd" d="M370.502 65.4104L364.003 59.3497H377.001L370.502 65.4104Z" fill="#FFECC7"/>
<path fill-rule="evenodd" clip-rule="evenodd" d="M370.502 65.4104L377.001 59.3497V71.4712L370.502 65.4104Z" fill="#FE9C15"/>
<path fill-rule="evenodd" clip-rule="evenodd" d="M370.502 65.4105L364.003 71.4713V67.9208C364.003 64.758 368.104 63.1739 370.502 65.4105Z" fill="#BD8242"/>
<path fill-rule="evenodd" clip-rule="evenodd" d="M344.499 77.5319L338 83.5926V71.4712L344.499 77.5319Z" fill="#FFECC7"/>
<path fill-rule="evenodd" clip-rule="evenodd" d="M344.499 77.5319L350.998 71.4712V83.5926L344.499 77.5319Z" fill="#BD8242"/>
<path fill-rule="evenodd" clip-rule="evenodd" d="M344.499 77.532L350.998 83.5928H338L344.499 77.532Z" fill="#ADA194"/>
<path fill-rule="evenodd" clip-rule="evenodd" d="M344.499 77.5319L338 71.4712H350.998L344.499 77.5319Z" fill="#F5C38D"/>
<path fill-rule="evenodd" clip-rule="evenodd" d="M370.502 77.532L377.001 83.5928H364.003L370.502 77.532Z" fill="#FFECC7"/>
<path fill-rule="evenodd" clip-rule="evenodd" d="M370.502 77.5319L364.003 71.4712H367.81C371.202 71.4712 372.901 75.2953 370.502 77.5319Z" fill="#BD8242"/>
<path fill-rule="evenodd" clip-rule="evenodd" d="M370.502 77.5319L377.001 71.4712V83.5926L370.502 77.5319Z" fill="#F5C38D"/>
<path fill-rule="evenodd" clip-rule="evenodd" d="M370.502 77.5319C368.104 79.7685 364.003 78.1844 364.003 75.0213V71.4712L370.502 77.5319Z" fill="#FE9C15"/>
<path fill-rule="evenodd" clip-rule="evenodd" d="M383.494 65.4493L376.995 71.5101V59.3886L383.494 65.4493Z" fill="#BD8242"/>
<path fill-rule="evenodd" clip-rule="evenodd" d="M357.51 77.5319C355.111 75.2953 356.81 71.4712 360.202 71.4712H364.009L357.51 77.5319Z" fill="#ADA194"/>
<path fill-rule="evenodd" clip-rule="evenodd" d="M357.51 77.5319L364.009 71.4712V75.0213C364.009 78.1844 359.908 79.7685 357.51 77.5319Z" fill="#F5C38D"/>
<path fill-rule="evenodd" clip-rule="evenodd" d="M383.494 65.4493L376.994 59.3886H389.993L383.494 65.4493Z" fill="#FFECC7"/>
<path fill-rule="evenodd" clip-rule="evenodd" d="M344.499 53.3563L350.998 59.417H338L344.499 53.3563Z" fill="#BD8242"/>
<path fill-rule="evenodd" clip-rule="evenodd" d="M344.499 65.4493L350.998 59.3886V71.5101L344.499 65.4493Z" fill="#BD8242"/>
<path fill-rule="evenodd" clip-rule="evenodd" d="M383.494 53.3277L389.993 59.3884H376.994L383.494 53.3277Z" fill="#F5C38D"/>
<path fill-rule="evenodd" clip-rule="evenodd" d="M344.499 65.4493L338 59.3886H350.998L344.499 65.4493Z" fill="#ADA194"/>
<path fill-rule="evenodd" clip-rule="evenodd" d="M383.5 77.5319L377.001 71.4712H390L383.5 77.5319Z" fill="#ADA194"/>
<path fill-rule="evenodd" clip-rule="evenodd" d="M383.5 77.532L390 83.5928H377.001L383.5 77.532Z" fill="#F5C38D"/>
<path fill-rule="evenodd" clip-rule="evenodd" d="M383.5 77.5319L377.001 83.5926V71.4712L383.5 77.5319Z" fill="#FE9C15"/>
<path fill-rule="evenodd" clip-rule="evenodd" d="M383.5 77.5319L390 71.4712V83.5926L383.5 77.5319Z" fill="#BD8242"/>
<path fill-rule="evenodd" clip-rule="evenodd" d="M351.005 59.3497H364.003V47.2282C356.825 47.2282 351.005 52.655 351.005 59.3497Z" fill="#ADA194"/>
<path fill-rule="evenodd" clip-rule="evenodd" d="M351.005 59.3497C351.005 66.0444 356.824 71.4712 364.003 71.4712V59.3497H351.005Z" fill="#BD8242"/>
<path fill-rule="evenodd" clip-rule="evenodd" d="M357.648 59.3499H358.766C358.766 56.6571 361.115 54.4666 364.003 54.4666V53.4239C360.499 53.4239 357.648 56.0823 357.648 59.3499ZM355.27 59.3499H356.388C356.388 55.4343 359.804 52.2485 364.003 52.2485V51.2058C359.188 51.2058 355.27 54.8592 355.27 59.3499ZM364.003 48.988V50.0307C358.493 50.0307 354.01 54.2112 354.01 59.3499H352.892C352.892 53.6361 357.876 48.988 364.003 48.988Z" fill="#FFECC7"/>
<path fill-rule="evenodd" clip-rule="evenodd" d="M364.003 53.4237V54.4664C366.891 54.4664 369.24 56.6571 369.24 59.3499H370.358C370.358 56.082 367.507 53.4237 364.003 53.4237ZM364.003 51.2058V52.2485C368.202 52.2485 371.618 55.4343 371.618 59.3499H372.736C372.736 54.8595 368.819 51.2058 364.003 51.2058ZM375.115 59.3499H373.997C373.997 54.2112 369.513 50.0307 364.003 50.0307V48.988C370.13 48.988 375.115 53.6364 375.115 59.3499Z" fill="#FFECC7"/>
<path fill-rule="evenodd" clip-rule="evenodd" d="M364.003 65.2756V64.2329C361.115 64.2329 358.766 62.0422 358.766 59.3497H357.648C357.648 62.6173 360.499 65.2756 364.003 65.2756ZM364.003 67.4935V66.4508C359.804 66.4508 356.388 63.265 356.388 59.3497H355.27C355.27 63.8401 359.187 67.4935 364.003 67.4935ZM352.892 59.3497H354.01C354.01 64.4881 358.493 68.6689 364.003 68.6689V69.7116C357.876 69.7116 352.892 65.0632 352.892 59.3497Z" fill="#F5C38D"/>
<path fill-rule="evenodd" clip-rule="evenodd" d="M344.179 60.9899C343.247 60.9899 342.492 60.2858 342.492 59.4172C342.492 58.5487 343.247 57.8448 344.179 57.8448C345.11 57.8448 345.865 58.5487 345.865 59.4172C345.865 60.2858 345.11 60.9899 344.179 60.9899Z" fill="#FFECC7"/>
<path fill-rule="evenodd" clip-rule="evenodd" d="M364.003 56.8408V61.9368C362.494 61.9368 361.271 60.7958 361.271 59.3887C361.271 57.9815 362.494 56.8408 364.003 56.8408Z" fill="#F5C38D"/>
<path fill-rule="evenodd" clip-rule="evenodd" d="M344.499 77.532V74.3479L347.914 77.532H344.499Z" fill="#FFECC7"/>
<path fill-rule="evenodd" clip-rule="evenodd" d="M344.499 77.532V80.7162L341.085 77.532H344.499Z" fill="#BD8242"/>
<path fill-rule="evenodd" clip-rule="evenodd" d="M344.499 77.532H341.085L344.499 74.3479V77.532Z" fill="#ADA194"/>
<path fill-rule="evenodd" clip-rule="evenodd" d="M344.499 77.532H347.914L344.499 80.7162V77.532Z" fill="#F5C38D"/>
<path fill-rule="evenodd" clip-rule="evenodd" d="M376.994 65.4689V62.2848L380.408 65.4689H376.994Z" fill="#F5C38D"/>
<path fill-rule="evenodd" clip-rule="evenodd" d="M376.995 65.4689H373.58L376.995 62.2848V65.4689Z" fill="#FFECC7"/>
<path fill-rule="evenodd" clip-rule="evenodd" d="M376.995 65.4297V68.6141L373.58 65.4297H376.995Z" fill="#F5C38D"/>
<path fill-rule="evenodd" clip-rule="evenodd" d="M376.994 65.4297H380.408L376.994 68.6141V65.4297Z" fill="#FFECC7"/>
<path fill-rule="evenodd" clip-rule="evenodd" d="M383.48 77.3976H386.894L383.48 80.5818V77.3976Z" fill="#F5C38D"/>
<path fill-rule="evenodd" clip-rule="evenodd" d="M383.48 77.3976V74.2132L386.894 77.3976H383.48Z" fill="#FFECC7"/>
<path fill-rule="evenodd" clip-rule="evenodd" d="M383.521 77.3976H380.107L383.521 74.2132V77.3976Z" fill="#F5C38D"/>
<path fill-rule="evenodd" clip-rule="evenodd" d="M383.521 77.3976V80.5818L380.107 77.3976H383.521Z" fill="#FFECC7"/>
<path fill-rule="evenodd" clip-rule="evenodd" d="M19.4997 30.3078L12.9997 24.2462H16.8074C20.1995 24.2462 21.8984 28.0709 19.4997 30.3078Z" fill="#FE9C15"/>
<path fill-rule="evenodd" clip-rule="evenodd" d="M6.50001 18.1848L13 24.2463H2.34842e-05L6.50001 18.1848Z" fill="#FE9C15"/>
<path fill-rule="evenodd" clip-rule="evenodd" d="M19.5 30.3078C17.1013 32.5447 13 30.9604 13 27.7971V24.2462L19.5 30.3078Z" fill="#BD8242"/>
<path fill-rule="evenodd" clip-rule="evenodd" d="M6.50001 30.3078L13 24.2462V27.7971C13 30.9604 8.89872 32.5447 6.50001 30.3078Z" fill="#BDB4A9"/>
<path fill-rule="evenodd" clip-rule="evenodd" d="M6.50001 30.3078C4.10131 28.0709 5.80025 24.2462 9.19227 24.2462H13L6.50001 30.3078Z" fill="#ADA194"/>
<path fill-rule="evenodd" clip-rule="evenodd" d="M6.50001 18.1848L13 12.1233L13 24.2464L6.50001 18.1848Z" fill="#BD8242"/>
<path fill-rule="evenodd" clip-rule="evenodd" d="M39.0002 12.1231V0C42.5901 3.34781 42.5901 8.77533 39.0002 12.1231Z" fill="#FFECC7"/>
<path fill-rule="evenodd" clip-rule="evenodd" d="M39.0003 0.000289917L52.0002 0.000289917C48.4103 3.3481 42.5902 3.3481 39.0003 0.000289917Z" fill="#FE9C15"/>
<path fill-rule="evenodd" clip-rule="evenodd" d="M32.5005 6.06157L26.0005 12.1231L26.0005 0L32.5005 6.06157Z" fill="#F5C38D"/>
<path fill-rule="evenodd" clip-rule="evenodd" d="M38.9998 0V12.1231C35.4101 8.77533 35.4101 3.34781 38.9998 0Z" fill="#F5C38D"/>
<path fill-rule="evenodd" clip-rule="evenodd" d="M32.4998 6.06178L38.9998 12.1234L25.9998 12.1234L32.4998 6.06178Z" fill="#FE9C15"/>
<path fill-rule="evenodd" clip-rule="evenodd" d="M25.9998 0L38.9998 0C35.4101 3.34781 29.5897 3.34781 25.9998 0Z" fill="#ADA194"/>
<path fill-rule="evenodd" clip-rule="evenodd" d="M13.0078 0L13.0078 12.1231C9.41786 8.77533 9.41786 3.34781 13.0078 0Z" fill="#BD8242"/>
<path fill-rule="evenodd" clip-rule="evenodd" d="M6.50757 6.06157L0.0075801 12.1231L0.0075801 0L6.50757 6.06157Z" fill="#F5C38D"/>
<path fill-rule="evenodd" clip-rule="evenodd" d="M0.00783598 0L13.0078 0C9.41786 3.34781 3.59779 3.34781 0.00783598 0Z" fill="#BD8242"/>
<path fill-rule="evenodd" clip-rule="evenodd" d="M6.50807 6.06178L13.0081 12.1234L0.00808012 12.1234L6.50807 6.06178Z" fill="#FFECC7"/>
<path fill-rule="evenodd" clip-rule="evenodd" d="M19.5076 6.06157L26.0076 0L26.0076 12.1231L19.5076 6.06157Z" fill="#BD8242"/>
<path fill-rule="evenodd" clip-rule="evenodd" d="M13.3487 11.8045L13.0071 12.1231L13.0071 0L13.3487 0.318591C16.75 3.49042 16.75 8.63272 13.3487 11.8045Z" fill="#FFECC7"/>
<path fill-rule="evenodd" clip-rule="evenodd" d="M13.0076 0L26.0076 0C22.4176 3.34781 16.5973 3.34781 13.0076 0Z" fill="#BDB4A9"/>
<path fill-rule="evenodd" clip-rule="evenodd" d="M19.5073 6.06178L26.0073 12.1234L13.0073 12.1234L19.5073 6.06178Z" fill="#F5C38D"/>
<path fill-rule="evenodd" clip-rule="evenodd" d="M6.50073 18.1848L0.000744164 24.2464L0.000744164 12.1233L6.50073 18.1848Z" fill="#BDB4A9"/>
<path fill-rule="evenodd" clip-rule="evenodd" d="M6.50001 18.1848L2.34842e-05 12.1233L13 12.1233L6.50001 18.1848Z" fill="#FE9C15"/>
<path fill-rule="evenodd" clip-rule="evenodd" d="M32.5007 18.0406L26.0007 24.1022L26.0007 11.9791L32.5007 18.0406Z" fill="#FE9C15"/>
<path fill-rule="evenodd" clip-rule="evenodd" d="M32.4998 18.0406L25.9998 11.9791L38.9998 11.9791L32.4998 18.0406Z" fill="#BD8242"/>
<path fill-rule="evenodd" clip-rule="evenodd" d="M32.4999 19.6134C31.5684 19.6134 30.8132 18.9093 30.8132 18.0406C30.8132 17.1719 31.5684 16.4677 32.4999 16.4677C33.4314 16.4677 34.1865 17.1719 34.1865 18.0406C34.1865 18.9093 33.4314 19.6134 32.4999 19.6134Z" fill="#F5C38D"/>
<path fill-rule="evenodd" clip-rule="evenodd" d="M19.5132 18.1848L13.0132 12.1233L26.0132 12.1233L19.5132 18.1848Z" fill="#FFECC7"/>
<path fill-rule="evenodd" clip-rule="evenodd" d="M6.50766 18.2044L6.50766 15.0197L9.92261 18.2044H6.50766Z" fill="#F5C38D"/>
<path fill-rule="evenodd" clip-rule="evenodd" d="M6.50757 18.2044H3.09263L6.50757 15.0197L6.50757 18.2044Z" fill="#FFECC7"/>
<path fill-rule="evenodd" clip-rule="evenodd" d="M6.50757 18.1653L6.50757 21.3499L3.09263 18.1653H6.50757Z" fill="#F5C38D"/>
<path fill-rule="evenodd" clip-rule="evenodd" d="M6.50766 18.1653H9.92261L6.50766 21.3499L6.50766 18.1653Z" fill="#FFECC7"/>
<path fill-rule="evenodd" clip-rule="evenodd" d="M21.0971 11.9792C21.0971 9.40019 23.339 7.30953 26.1042 7.30953C28.8697 7.30953 31.1116 9.40019 31.1116 11.9792C31.1116 14.5581 28.8697 16.6484 26.1042 16.6484C23.339 16.6484 21.0971 14.5581 21.0971 11.9792ZM32.5007 11.9792C32.5007 8.68479 29.6368 6.01431 26.1042 6.01431C22.5715 6.01431 19.7079 8.68479 19.7079 11.9792C19.7079 15.2735 22.5715 17.9439 26.1042 17.9439C29.6368 17.9439 32.5007 15.2735 32.5007 11.9792Z" fill="#FFECC7"/>
</g>
<path d="M146.261 48.3733C147.869 48.3733 149.741 46.6693 151.373 44.6053C151.277 44.9653 151.253 45.3493 151.253 45.7573C151.253 47.0773 151.733 48.5173 153.461 48.1093C154.205 47.9173 155.069 47.2693 155.693 46.2133L158.741 41.0773L158.021 40.6693L154.997 45.8533V45.8293C154.349 46.7893 153.869 47.1733 153.509 47.1733C153.173 47.1733 153.005 46.7413 153.005 46.0213C153.005 45.5653 153.077 44.9893 153.269 44.3413C153.269 44.3173 153.293 44.2213 153.317 44.1733V44.2213C153.821 42.7813 154.469 41.6533 154.637 41.3893L159.653 32.9173L158.045 32.3893C156.509 34.9813 154.757 37.9573 153.197 40.5493C151.229 43.6453 148.109 47.8693 146.045 47.5573C145.373 47.4613 145.157 46.8853 145.157 46.2853C145.157 45.7573 145.349 45.0373 145.565 44.5573C146.045 43.5013 146.693 42.4453 147.245 41.5573C148.517 39.4933 149.741 37.4533 149.573 35.2693C149.285 32.2213 146.549 32.5573 146.549 32.5573C144.293 32.9653 142.301 36.4693 142.301 38.6533C142.301 39.0133 142.349 39.3733 142.469 39.7573C142.685 40.3333 143.045 40.7893 143.645 41.0533C143.669 40.9813 144.053 39.7333 144.029 39.4933C143.429 39.4213 143.213 38.9893 143.213 38.4133C143.213 37.5013 143.645 36.4213 143.957 35.9173C144.389 35.1493 145.709 33.3013 146.909 33.3013C147.173 33.3013 147.413 33.3973 147.701 33.6853C147.893 33.8533 148.037 34.1413 148.037 34.6933C148.037 35.7253 147.437 37.5493 145.541 40.9573L145.565 40.9093C145.349 41.1253 143.885 43.7893 143.885 45.8533C143.885 47.0773 144.389 48.1093 145.925 48.3493H145.901C145.997 48.3733 146.141 48.3733 146.261 48.3733ZM168.303 40.7653C168.303 40.7653 167.799 41.5813 167.247 42.5653C166.743 43.4053 165.879 44.4373 165.423 44.5333C165.015 44.6293 164.703 44.6293 164.343 44.4613C164.463 44.3413 164.463 44.3173 164.583 44.1253L164.655 44.0293H164.631C165.543 42.4933 166.503 40.5253 166.503 39.1093C166.503 37.8133 165.735 37.0933 164.415 37.0933C163.335 37.0933 162.423 37.4533 161.631 37.9573L161.943 37.5013L160.167 37.2133L150.663 52.9813L152.415 53.2693L159.903 40.8373V40.8613C160.455 40.0453 162.015 38.2453 163.983 37.9333C164.175 37.9573 164.487 38.0773 164.631 38.2693C164.727 38.4373 164.775 38.7013 164.775 39.0133C164.775 40.0453 164.175 41.6293 163.023 43.5493V43.5253L162.975 43.5973C162.327 43.0693 161.247 42.3733 160.407 42.3733C159.327 42.3733 158.631 43.3333 158.631 44.3413C158.631 44.3893 158.631 44.4853 158.679 44.6053C158.751 45.1813 159.135 45.6373 159.711 45.9733H159.687C159.735 46.0213 159.783 46.0453 159.807 46.0453C159.879 46.0693 159.879 46.0693 159.927 46.0693C160.311 46.2613 160.695 46.3093 161.103 46.3093C161.199 46.3093 161.319 46.3093 161.367 46.2853C161.535 46.2853 161.607 46.2613 161.727 46.2373C162.063 46.1893 162.375 46.0933 162.663 45.9493V45.9733C163.095 45.7573 163.503 45.4933 163.839 45.1333C164.199 45.3013 164.583 45.3973 164.991 45.3973C165.207 45.3973 165.423 45.3733 165.639 45.3253C166.479 45.1093 167.511 43.7893 167.967 42.9253H167.943C168.543 41.9173 169.023 41.1493 169.023 41.1493L168.303 40.7653ZM159.471 44.4373C159.423 44.1493 159.519 43.8133 159.711 43.5493C159.927 43.2853 160.143 43.1653 160.431 43.1653C160.743 43.1653 161.127 43.3093 161.607 43.6453C161.919 43.8373 162.207 44.0533 162.471 44.2693L162.519 44.2933C161.895 45.0613 161.343 45.2773 160.527 45.2293C160.455 45.2293 160.335 45.2053 160.239 45.1813C159.855 45.1093 159.519 44.8213 159.471 44.4613V44.4373ZM169.377 46.3813C171.465 46.3813 172.521 44.9653 173.529 43.3093L173.601 43.2133C174.249 42.1093 174.825 41.1493 174.825 41.1493L174.105 40.7653C174.105 40.7653 173.529 41.7493 172.857 42.8533L172.809 42.9493C172.017 44.2453 171.105 45.5653 169.449 45.5653C169.137 45.5653 168.801 45.4933 168.561 45.3013H168.585C168.417 45.1333 168.321 44.9173 168.321 44.7013C168.321 43.8133 169.137 42.4933 169.689 41.5813C169.689 41.5813 174.681 33.2053 176.313 30.4933L174.561 30.2293C174.561 30.2293 167.721 41.6053 167.697 41.6533H167.721C167.025 42.8053 166.713 43.6933 166.713 44.3653C166.713 45.0853 167.025 45.6133 167.577 46.0213C168.105 46.3573 168.873 46.3813 169.377 46.3813ZM176.293 46.6213C177.613 46.6213 179.149 45.7573 180.037 44.8453H180.253C181.381 44.8453 182.461 44.2693 183.229 43.2133C183.229 43.2133 183.349 43.0213 183.421 42.9253L183.493 42.8293H183.469C184.213 41.5813 184.405 41.2693 184.405 41.0533L183.757 40.7653C183.757 40.7653 183.469 41.2453 182.773 42.4453V42.4213L182.557 42.7333C181.933 43.5493 181.309 43.8853 180.733 43.9813C181.093 43.4773 181.405 42.8293 181.669 42.0853C181.909 41.2693 182.005 40.5733 182.005 39.9973C182.005 37.9333 180.589 36.9973 178.669 36.9973C176.629 36.9973 175.549 38.2693 174.541 39.9253C173.653 41.4613 173.173 42.7333 173.173 43.7653C173.173 45.4693 174.685 46.6213 176.293 46.6213ZM178.573 37.7893C179.773 37.7893 180.541 38.4853 180.541 39.6853C180.541 40.9333 179.725 42.7813 179.077 43.7653C177.925 43.1173 177.253 41.5093 177.253 40.2133C177.253 39.1573 177.541 37.7893 178.573 37.7893ZM176.029 41.3653C176.389 42.7093 177.397 43.8613 178.597 44.4373C178.189 44.9413 177.709 45.3733 177.181 45.6133H177.205C176.893 45.7333 176.557 45.8053 176.221 45.8053C175.237 45.8053 174.637 45.3013 174.637 44.2693C174.637 43.3573 175.045 42.3973 175.909 40.9093L176.029 41.3653ZM185.397 46.3573C186.765 46.3573 187.917 45.4933 188.733 44.6293C188.829 45.6373 189.789 46.3333 190.773 46.3333C190.917 46.3333 191.109 46.3333 191.253 46.2853H191.229C191.901 46.1173 192.885 45.6133 193.797 44.1493C194.757 42.5653 195.597 41.1493 195.597 41.1493L194.877 40.7653C194.877 40.7653 194.037 42.1573 193.077 43.7653C192.333 44.9653 191.565 45.4453 191.061 45.5173C190.389 45.5893 190.101 45.3493 190.101 44.9893C190.101 44.1253 191.037 42.6853 191.229 42.3733L194.157 37.5253L192.405 37.2373C191.997 37.9333 191.541 38.6533 191.109 39.3493C190.941 37.8133 189.669 37.1413 188.229 37.1413C185.829 37.1413 183.333 40.4293 182.925 43.1653C182.685 44.7973 183.285 45.9253 184.509 46.2373C184.797 46.3093 185.109 46.3573 185.397 46.3573ZM189.333 42.3493H189.357C188.949 43.0933 187.437 45.4933 185.421 45.4933C184.845 45.4933 184.413 45.4693 184.413 44.7493C184.413 44.3653 184.557 43.8373 184.701 43.4773C185.517 41.2453 187.053 38.6533 188.973 38.2213C189.405 38.1493 189.669 38.1973 189.957 38.6053C190.221 38.9653 190.293 39.4453 190.293 39.8773C190.293 40.3093 190.245 40.7413 190.197 40.9093L189.333 42.3493ZM196.506 46.3573C197.922 46.3573 199.098 45.4933 199.938 44.5333C200.034 45.6373 200.754 46.3333 201.858 46.3333C202.002 46.3333 202.194 46.3333 202.338 46.2853H202.314C202.986 46.1173 203.97 45.6133 204.882 44.1493C205.842 42.5653 206.682 41.1493 206.682 41.1493L205.962 40.7653C205.962 40.7653 205.122 42.1573 204.162 43.7653C203.418 44.9653 202.65 45.4453 202.146 45.5173C201.474 45.5893 201.186 45.3493 201.186 44.9893C201.186 44.1253 202.122 42.6853 202.314 42.3733L209.418 30.4933L207.666 30.2293L202.218 39.3013C202.05 37.7893 200.754 37.1413 199.338 37.1413C196.938 37.1413 194.442 40.4293 194.034 43.1653C193.794 44.7973 194.394 45.9253 195.618 46.2373C195.906 46.3093 196.218 46.3573 196.506 46.3573ZM200.466 42.3013C200.082 42.9733 198.522 45.4933 196.506 45.4933C195.93 45.4933 195.522 45.4453 195.522 44.7493C195.522 44.3653 195.666 43.8373 195.81 43.4773C196.626 41.2453 198.162 38.6533 200.082 38.2213C200.514 38.1493 200.778 38.1973 201.066 38.6053C201.33 38.9413 201.402 39.3973 201.402 39.8293C201.402 40.2853 201.378 40.6453 201.33 40.8373L200.466 42.3013ZM228.052 31.1173C227.572 30.9973 227.116 30.9733 226.732 30.9733C223.324 30.9733 220.228 33.4933 220.228 36.8773C220.228 37.4533 220.444 37.9093 220.828 38.2933L221.788 37.3573C221.404 36.9253 221.236 36.4933 221.236 36.1093C221.236 35.0053 222.1 33.7573 222.868 33.1093C223.852 32.2453 225.22 31.8133 226.612 31.7893C229.036 31.8613 230.596 33.5413 230.596 35.9173C230.596 38.8453 227.572 42.4213 224.452 42.4213C223.876 42.4213 223.348 42.3253 222.892 41.9893L226.684 35.6053L224.884 35.3893L223.588 37.5493C219.316 44.8453 217.636 47.6293 215.764 47.4373C214.852 47.3413 214.18 46.6933 214.18 45.7573C214.18 44.9653 214.636 44.0053 215.548 44.0053C215.788 44.0053 216.22 44.1253 216.7 44.3413L217.036 43.1413C216.58 43.0453 216.268 42.9973 216.052 42.9973C214.492 42.9973 213.34 44.2213 213.34 45.7573C213.34 47.2213 214.564 48.4453 216.028 48.4453C217.396 48.4453 219.004 47.5813 220.396 45.9013C220.756 45.4933 221.308 44.7253 222.484 42.7093C223.132 43.0933 223.924 43.2613 224.692 43.2613C228.244 43.2613 232.468 39.7333 232.468 36.1093C232.468 33.3973 230.668 31.6213 228.052 31.1173ZM233.35 46.3573C234.766 46.3573 235.942 45.4933 236.782 44.5333C236.878 45.6373 237.598 46.3333 238.702 46.3333C238.846 46.3333 239.038 46.3333 239.182 46.2853H239.158C239.83 46.1173 240.814 45.6133 241.726 44.1493C242.686 42.5653 243.526 41.1493 243.526 41.1493L242.806 40.7653C242.806 40.7653 241.966 42.1573 241.006 43.7653C240.262 44.9653 239.494 45.4453 238.99 45.5173C238.318 45.5893 238.03 45.3493 238.03 44.9893C238.03 44.1253 238.966 42.6853 239.158 42.3733L246.262 30.4933L244.51 30.2293L239.062 39.3013C238.894 37.7893 237.598 37.1413 236.182 37.1413C233.782 37.1413 231.286 40.4293 230.878 43.1653C230.638 44.7973 231.238 45.9253 232.462 46.2373C232.75 46.3093 233.062 46.3573 233.35 46.3573ZM237.31 42.3013C236.926 42.9733 235.366 45.4933 233.35 45.4933C232.774 45.4933 232.366 45.4453 232.366 44.7493C232.366 44.3653 232.51 43.8373 232.654 43.4773C233.47 41.2453 235.006 38.6533 236.926 38.2213C237.358 38.1493 237.622 38.1973 237.91 38.6053C238.174 38.9413 238.246 39.3973 238.246 39.8293C238.246 40.2853 238.222 40.6453 238.174 40.8373L237.31 42.3013ZM244.7 44.3653C245.516 44.3653 246.356 43.9333 246.98 42.9973C246.98 42.9733 247.004 42.9733 247.004 42.9493L247.076 42.8533C247.076 42.8293 247.1 42.8293 247.1 42.8053L247.076 42.8293L248.108 41.0773L247.364 40.7653C247.364 40.7653 247.028 41.3173 246.308 42.5173C246.284 42.5893 246.236 42.6133 246.212 42.6613H246.236C245.852 43.2853 245.276 43.5493 244.724 43.5493C244.412 43.5493 244.124 43.4773 243.86 43.3333L243.74 43.2373C243.74 43.0933 243.716 42.9973 243.716 42.8293V42.4693L244.172 41.7013C244.244 41.5573 244.412 41.3413 244.508 41.1733L248.972 33.7573L247.172 33.4933L240.044 45.3493C239.228 46.6693 238.724 48.0133 238.484 49.4533C238.268 50.7733 238.964 51.4693 239.66 51.6613H239.636C239.732 51.7093 239.9 51.7093 240.116 51.7093C243.164 51.7093 243.668 46.3333 243.74 44.1733C244.028 44.3173 244.364 44.3653 244.7 44.3653ZM241.82 49.5493C241.556 50.1493 240.98 50.6533 240.572 50.6533C240.308 50.6533 240.14 50.3653 240.284 49.5733C240.5 48.1573 240.956 47.0293 241.748 45.7333L242.9 43.8133C242.9 45.4933 242.708 47.6533 241.82 49.5493Z" fill="black" fill-opacity="0.4"/>
</svg>
