<svg width="390" height="84" viewBox="0 0 390 84" fill="none" xmlns="http://www.w3.org/2000/svg">
<g opacity="0.6">
<path fill-rule="evenodd" clip-rule="evenodd" d="M364.003 47.2282V59.3497H377.001C377.001 52.655 371.182 47.2282 364.003 47.2282Z" fill="#FE9C15"/>
<path fill-rule="evenodd" clip-rule="evenodd" d="M370.502 65.4106C372.901 67.6472 371.202 71.4713 367.81 71.4713H364.003L370.502 65.4106Z" fill="#ADA194"/>
<path fill-rule="evenodd" clip-rule="evenodd" d="M370.502 65.4104L364.003 59.3497H377.001L370.502 65.4104Z" fill="#FFECC7"/>
<path fill-rule="evenodd" clip-rule="evenodd" d="M370.502 65.4104L377.001 59.3497V71.4711L370.502 65.4104Z" fill="#FE9C15"/>
<path fill-rule="evenodd" clip-rule="evenodd" d="M370.502 65.4105L364.003 71.4712V67.9208C364.003 64.758 368.104 63.1739 370.502 65.4105Z" fill="#BD8242"/>
<path fill-rule="evenodd" clip-rule="evenodd" d="M344.499 77.5319L338 83.5926V71.4712L344.499 77.5319Z" fill="#FFECC7"/>
<path fill-rule="evenodd" clip-rule="evenodd" d="M344.499 77.5319L350.998 71.4712V83.5926L344.499 77.5319Z" fill="#BD8242"/>
<path fill-rule="evenodd" clip-rule="evenodd" d="M344.499 77.5321L350.998 83.5928H338L344.499 77.5321Z" fill="#ADA194"/>
<path fill-rule="evenodd" clip-rule="evenodd" d="M344.499 77.5319L338 71.4712H350.998L344.499 77.5319Z" fill="#F5C38D"/>
<path fill-rule="evenodd" clip-rule="evenodd" d="M370.502 77.5321L377.001 83.5928H364.003L370.502 77.5321Z" fill="#FFECC7"/>
<path fill-rule="evenodd" clip-rule="evenodd" d="M370.502 77.5319L364.003 71.4712H367.81C371.202 71.4712 372.901 75.2953 370.502 77.5319Z" fill="#BD8242"/>
<path fill-rule="evenodd" clip-rule="evenodd" d="M370.502 77.5319L377.001 71.4712V83.5926L370.502 77.5319Z" fill="#F5C38D"/>
<path fill-rule="evenodd" clip-rule="evenodd" d="M370.502 77.5319C368.104 79.7685 364.003 78.1844 364.003 75.0213V71.4712L370.502 77.5319Z" fill="#FE9C15"/>
<path fill-rule="evenodd" clip-rule="evenodd" d="M383.494 65.4493L376.995 71.5101V59.3886L383.494 65.4493Z" fill="#BD8242"/>
<path fill-rule="evenodd" clip-rule="evenodd" d="M357.51 77.5319C355.111 75.2953 356.81 71.4712 360.202 71.4712H364.009L357.51 77.5319Z" fill="#ADA194"/>
<path fill-rule="evenodd" clip-rule="evenodd" d="M357.51 77.5319L364.009 71.4712V75.0213C364.009 78.1844 359.908 79.7685 357.51 77.5319Z" fill="#F5C38D"/>
<path fill-rule="evenodd" clip-rule="evenodd" d="M383.494 65.4493L376.994 59.3886H389.993L383.494 65.4493Z" fill="#FFECC7"/>
<path fill-rule="evenodd" clip-rule="evenodd" d="M344.499 53.3563L350.998 59.417H338L344.499 53.3563Z" fill="#BD8242"/>
<path fill-rule="evenodd" clip-rule="evenodd" d="M344.499 65.4493L350.998 59.3886V71.5101L344.499 65.4493Z" fill="#BD8242"/>
<path fill-rule="evenodd" clip-rule="evenodd" d="M383.494 53.3277L389.993 59.3884H376.994L383.494 53.3277Z" fill="#F5C38D"/>
<path fill-rule="evenodd" clip-rule="evenodd" d="M344.499 65.4493L338 59.3886H350.998L344.499 65.4493Z" fill="#ADA194"/>
<path fill-rule="evenodd" clip-rule="evenodd" d="M383.5 77.5319L377.001 71.4712H390L383.5 77.5319Z" fill="#ADA194"/>
<path fill-rule="evenodd" clip-rule="evenodd" d="M383.5 77.5321L390 83.5928H377.001L383.5 77.5321Z" fill="#F5C38D"/>
<path fill-rule="evenodd" clip-rule="evenodd" d="M383.5 77.5319L377.001 83.5926V71.4712L383.5 77.5319Z" fill="#FE9C15"/>
<path fill-rule="evenodd" clip-rule="evenodd" d="M383.5 77.5319L390 71.4712V83.5926L383.5 77.5319Z" fill="#BD8242"/>
<path fill-rule="evenodd" clip-rule="evenodd" d="M351.005 59.3497H364.003V47.2282C356.825 47.2282 351.005 52.655 351.005 59.3497Z" fill="#ADA194"/>
<path fill-rule="evenodd" clip-rule="evenodd" d="M351.005 59.3497C351.005 66.0444 356.824 71.4711 364.003 71.4711V59.3497H351.005Z" fill="#BD8242"/>
<path fill-rule="evenodd" clip-rule="evenodd" d="M357.648 59.3499H358.766C358.766 56.6571 361.115 54.4666 364.003 54.4666V53.4239C360.499 53.4239 357.648 56.0823 357.648 59.3499ZM355.27 59.3499H356.388C356.388 55.4343 359.804 52.2485 364.003 52.2485V51.2058C359.188 51.2058 355.27 54.8592 355.27 59.3499ZM364.003 48.988V50.0307C358.493 50.0307 354.01 54.2112 354.01 59.3499H352.892C352.892 53.6361 357.876 48.988 364.003 48.988Z" fill="#FFECC7"/>
<path fill-rule="evenodd" clip-rule="evenodd" d="M364.003 53.4237V54.4664C366.891 54.4664 369.24 56.6571 369.24 59.3499H370.358C370.358 56.082 367.507 53.4237 364.003 53.4237ZM364.003 51.2058V52.2485C368.202 52.2485 371.618 55.4343 371.618 59.3499H372.736C372.736 54.8595 368.819 51.2058 364.003 51.2058ZM375.115 59.3499H373.997C373.997 54.2112 369.513 50.0307 364.003 50.0307V48.988C370.13 48.988 375.115 53.6364 375.115 59.3499Z" fill="#FFECC7"/>
<path fill-rule="evenodd" clip-rule="evenodd" d="M364.003 65.2756V64.2329C361.115 64.2329 358.766 62.0422 358.766 59.3497H357.648C357.648 62.6173 360.499 65.2756 364.003 65.2756ZM364.003 67.4935V66.4508C359.804 66.4508 356.388 63.265 356.388 59.3497H355.27C355.27 63.8401 359.187 67.4935 364.003 67.4935ZM352.892 59.3497H354.01C354.01 64.4881 358.493 68.6689 364.003 68.6689V69.7116C357.876 69.7116 352.892 65.0632 352.892 59.3497Z" fill="#F5C38D"/>
<path fill-rule="evenodd" clip-rule="evenodd" d="M344.179 60.9899C343.247 60.9899 342.492 60.2858 342.492 59.4172C342.492 58.5487 343.247 57.8448 344.179 57.8448C345.11 57.8448 345.865 58.5487 345.865 59.4172C345.865 60.2858 345.11 60.9899 344.179 60.9899Z" fill="#FFECC7"/>
<path fill-rule="evenodd" clip-rule="evenodd" d="M364.003 56.8408V61.9368C362.494 61.9368 361.271 60.7958 361.271 59.3887C361.271 57.9816 362.494 56.8408 364.003 56.8408Z" fill="#F5C38D"/>
<path fill-rule="evenodd" clip-rule="evenodd" d="M344.499 77.5321V74.3479L347.914 77.5321H344.499Z" fill="#FFECC7"/>
<path fill-rule="evenodd" clip-rule="evenodd" d="M344.499 77.5321V80.7162L341.085 77.5321H344.499Z" fill="#BD8242"/>
<path fill-rule="evenodd" clip-rule="evenodd" d="M344.499 77.5321H341.085L344.499 74.3479V77.5321Z" fill="#ADA194"/>
<path fill-rule="evenodd" clip-rule="evenodd" d="M344.499 77.5321H347.914L344.499 80.7162V77.5321Z" fill="#F5C38D"/>
<path fill-rule="evenodd" clip-rule="evenodd" d="M376.994 65.4689V62.2848L380.408 65.4689H376.994Z" fill="#F5C38D"/>
<path fill-rule="evenodd" clip-rule="evenodd" d="M376.995 65.4689H373.58L376.995 62.2848V65.4689Z" fill="#FFECC7"/>
<path fill-rule="evenodd" clip-rule="evenodd" d="M376.995 65.4297V68.6142L373.58 65.4297H376.995Z" fill="#F5C38D"/>
<path fill-rule="evenodd" clip-rule="evenodd" d="M376.994 65.4297H380.408L376.994 68.6142V65.4297Z" fill="#FFECC7"/>
<path fill-rule="evenodd" clip-rule="evenodd" d="M383.48 77.3976H386.894L383.48 80.5818V77.3976Z" fill="#F5C38D"/>
<path fill-rule="evenodd" clip-rule="evenodd" d="M383.48 77.3976V74.2132L386.894 77.3976H383.48Z" fill="#FFECC7"/>
<path fill-rule="evenodd" clip-rule="evenodd" d="M383.521 77.3976H380.107L383.521 74.2132V77.3976Z" fill="#F5C38D"/>
<path fill-rule="evenodd" clip-rule="evenodd" d="M383.521 77.3976V80.5818L380.107 77.3976H383.521Z" fill="#FFECC7"/>
<path fill-rule="evenodd" clip-rule="evenodd" d="M19.4997 30.3078L12.9997 24.2462H16.8074C20.1995 24.2462 21.8984 28.0709 19.4997 30.3078Z" fill="#FE9C15"/>
<path fill-rule="evenodd" clip-rule="evenodd" d="M6.50001 18.1847L13 24.2463H2.34842e-05L6.50001 18.1847Z" fill="#FE9C15"/>
<path fill-rule="evenodd" clip-rule="evenodd" d="M19.5 30.3078C17.1013 32.5447 13 30.9604 13 27.7971V24.2462L19.5 30.3078Z" fill="#BD8242"/>
<path fill-rule="evenodd" clip-rule="evenodd" d="M6.50001 30.3078L13 24.2462V27.7971C13 30.9604 8.89872 32.5447 6.50001 30.3078Z" fill="#BDB4A9"/>
<path fill-rule="evenodd" clip-rule="evenodd" d="M6.50001 30.3078C4.10131 28.0709 5.80025 24.2462 9.19227 24.2462H13L6.50001 30.3078Z" fill="#ADA194"/>
<path fill-rule="evenodd" clip-rule="evenodd" d="M6.50001 18.1848L13 12.1233L13 24.2464L6.50001 18.1848Z" fill="#BD8242"/>
<path fill-rule="evenodd" clip-rule="evenodd" d="M39.0002 12.1231V0C42.5901 3.34781 42.5901 8.77533 39.0002 12.1231Z" fill="#FFECC7"/>
<path fill-rule="evenodd" clip-rule="evenodd" d="M39.0003 0.000289917L52.0002 0.000289917C48.4103 3.3481 42.5902 3.3481 39.0003 0.000289917Z" fill="#FE9C15"/>
<path fill-rule="evenodd" clip-rule="evenodd" d="M32.5005 6.06157L26.0005 12.1231L26.0005 0L32.5005 6.06157Z" fill="#F5C38D"/>
<path fill-rule="evenodd" clip-rule="evenodd" d="M38.9998 0V12.1231C35.4101 8.77533 35.4101 3.34781 38.9998 0Z" fill="#F5C38D"/>
<path fill-rule="evenodd" clip-rule="evenodd" d="M32.4998 6.06178L38.9998 12.1234L25.9998 12.1234L32.4998 6.06178Z" fill="#FE9C15"/>
<path fill-rule="evenodd" clip-rule="evenodd" d="M25.9998 0L38.9998 0C35.4101 3.34781 29.5897 3.34781 25.9998 0Z" fill="#ADA194"/>
<path fill-rule="evenodd" clip-rule="evenodd" d="M13.0078 0L13.0078 12.1231C9.41786 8.77533 9.41786 3.34781 13.0078 0Z" fill="#BD8242"/>
<path fill-rule="evenodd" clip-rule="evenodd" d="M6.50757 6.06157L0.0075801 12.1231L0.0075801 0L6.50757 6.06157Z" fill="#F5C38D"/>
<path fill-rule="evenodd" clip-rule="evenodd" d="M0.00783598 0L13.0078 0C9.41786 3.34781 3.59779 3.34781 0.00783598 0Z" fill="#BD8242"/>
<path fill-rule="evenodd" clip-rule="evenodd" d="M6.50807 6.06178L13.0081 12.1233L0.00808012 12.1233L6.50807 6.06178Z" fill="#FFECC7"/>
<path fill-rule="evenodd" clip-rule="evenodd" d="M19.5076 6.06157L26.0076 0L26.0076 12.1231L19.5076 6.06157Z" fill="#BD8242"/>
<path fill-rule="evenodd" clip-rule="evenodd" d="M13.3487 11.8045L13.0071 12.1231L13.0071 0L13.3487 0.318591C16.75 3.49042 16.75 8.63272 13.3487 11.8045Z" fill="#FFECC7"/>
<path fill-rule="evenodd" clip-rule="evenodd" d="M13.0076 0L26.0076 0C22.4176 3.34781 16.5973 3.34781 13.0076 0Z" fill="#BDB4A9"/>
<path fill-rule="evenodd" clip-rule="evenodd" d="M19.5073 6.06178L26.0073 12.1234L13.0073 12.1234L19.5073 6.06178Z" fill="#F5C38D"/>
<path fill-rule="evenodd" clip-rule="evenodd" d="M6.50073 18.1848L0.000744164 24.2464L0.000744164 12.1233L6.50073 18.1848Z" fill="#BDB4A9"/>
<path fill-rule="evenodd" clip-rule="evenodd" d="M6.50001 18.1848L2.34842e-05 12.1233L13 12.1233L6.50001 18.1848Z" fill="#FE9C15"/>
<path fill-rule="evenodd" clip-rule="evenodd" d="M32.5007 18.0406L26.0007 24.1022L26.0007 11.9791L32.5007 18.0406Z" fill="#FE9C15"/>
<path fill-rule="evenodd" clip-rule="evenodd" d="M32.4998 18.0406L25.9998 11.9791L38.9998 11.9791L32.4998 18.0406Z" fill="#BD8242"/>
<path fill-rule="evenodd" clip-rule="evenodd" d="M32.4999 19.6134C31.5684 19.6134 30.8132 18.9092 30.8132 18.0406C30.8132 17.1719 31.5684 16.4677 32.4999 16.4677C33.4314 16.4677 34.1865 17.1719 34.1865 18.0406C34.1865 18.9092 33.4314 19.6134 32.4999 19.6134Z" fill="#F5C38D"/>
<path fill-rule="evenodd" clip-rule="evenodd" d="M19.5132 18.1848L13.0132 12.1233L26.0132 12.1233L19.5132 18.1848Z" fill="#FFECC7"/>
<path fill-rule="evenodd" clip-rule="evenodd" d="M6.50766 18.2044L6.50766 15.0197L9.92261 18.2044H6.50766Z" fill="#F5C38D"/>
<path fill-rule="evenodd" clip-rule="evenodd" d="M6.50757 18.2044H3.09263L6.50757 15.0197L6.50757 18.2044Z" fill="#FFECC7"/>
<path fill-rule="evenodd" clip-rule="evenodd" d="M6.50757 18.1653L6.50757 21.3499L3.09263 18.1653H6.50757Z" fill="#F5C38D"/>
<path fill-rule="evenodd" clip-rule="evenodd" d="M6.50766 18.1653H9.92261L6.50766 21.3499L6.50766 18.1653Z" fill="#FFECC7"/>
<path fill-rule="evenodd" clip-rule="evenodd" d="M21.0971 11.9792C21.0971 9.40019 23.339 7.30954 26.1042 7.30954C28.8697 7.30954 31.1116 9.40019 31.1116 11.9792C31.1116 14.5581 28.8697 16.6484 26.1042 16.6484C23.339 16.6484 21.0971 14.5581 21.0971 11.9792ZM32.5007 11.9792C32.5007 8.6848 29.6368 6.01432 26.1042 6.01432C22.5715 6.01432 19.7079 8.6848 19.7079 11.9792C19.7079 15.2735 22.5715 17.9439 26.1042 17.9439C29.6368 17.9439 32.5007 15.2735 32.5007 11.9792Z" fill="#FFECC7"/>
</g>
<path d="M115.452 48.3733C117.06 48.3733 118.932 46.6693 120.564 44.6053C120.468 44.9653 120.444 45.3493 120.444 45.7573C120.444 47.0773 120.924 48.5173 122.652 48.1093C123.396 47.9173 124.26 47.2693 124.884 46.2133L127.932 41.0773L127.212 40.6693L124.188 45.8533V45.8293C123.54 46.7893 123.06 47.1733 122.7 47.1733C122.364 47.1733 122.196 46.7413 122.196 46.0213C122.196 45.5653 122.268 44.9893 122.46 44.3413C122.46 44.3173 122.484 44.2213 122.508 44.1733V44.2213C123.012 42.7813 123.66 41.6533 123.828 41.3893L128.844 32.9173L127.236 32.3893C125.7 34.9813 123.948 37.9573 122.388 40.5493C120.42 43.6453 117.3 47.8693 115.236 47.5573C114.564 47.4613 114.348 46.8853 114.348 46.2853C114.348 45.7573 114.54 45.0373 114.756 44.5573C115.236 43.5013 115.884 42.4453 116.436 41.5573C117.708 39.4933 118.932 37.4533 118.764 35.2693C118.476 32.2213 115.74 32.5573 115.74 32.5573C113.484 32.9653 111.492 36.4693 111.492 38.6533C111.492 39.0133 111.54 39.3733 111.66 39.7573C111.876 40.3333 112.236 40.7893 112.836 41.0533C112.86 40.9813 113.244 39.7333 113.22 39.4933C112.62 39.4213 112.404 38.9893 112.404 38.4133C112.404 37.5013 112.836 36.4213 113.148 35.9173C113.58 35.1493 114.9 33.3013 116.1 33.3013C116.364 33.3013 116.604 33.3973 116.892 33.6853C117.084 33.8533 117.228 34.1413 117.228 34.6933C117.228 35.7253 116.628 37.5493 114.732 40.9573L114.756 40.9093C114.54 41.1253 113.076 43.7893 113.076 45.8533C113.076 47.0773 113.58 48.1093 115.116 48.3493H115.092C115.188 48.3733 115.332 48.3733 115.452 48.3733ZM137.494 40.7653C137.494 40.7653 136.99 41.5813 136.438 42.5653C135.934 43.4053 135.07 44.4373 134.614 44.5333C134.206 44.6293 133.894 44.6293 133.534 44.4613C133.654 44.3413 133.654 44.3173 133.774 44.1253L133.846 44.0293H133.822C134.734 42.4933 135.694 40.5253 135.694 39.1093C135.694 37.8133 134.926 37.0933 133.606 37.0933C132.526 37.0933 131.614 37.4533 130.822 37.9573L131.134 37.5013L129.358 37.2133L119.854 52.9813L121.606 53.2693L129.094 40.8373V40.8613C129.646 40.0453 131.206 38.2453 133.174 37.9333C133.366 37.9573 133.678 38.0773 133.822 38.2693C133.918 38.4373 133.966 38.7013 133.966 39.0133C133.966 40.0453 133.366 41.6293 132.214 43.5493V43.5253L132.166 43.5973C131.518 43.0693 130.438 42.3733 129.598 42.3733C128.518 42.3733 127.822 43.3333 127.822 44.3413C127.822 44.3893 127.822 44.4853 127.87 44.6053C127.942 45.1813 128.326 45.6373 128.902 45.9733H128.878C128.926 46.0213 128.974 46.0453 128.998 46.0453C129.07 46.0693 129.07 46.0693 129.118 46.0693C129.502 46.2613 129.886 46.3093 130.294 46.3093C130.39 46.3093 130.51 46.3093 130.558 46.2853C130.726 46.2853 130.798 46.2613 130.918 46.2373C131.254 46.1893 131.566 46.0933 131.854 45.9493V45.9733C132.286 45.7573 132.694 45.4933 133.03 45.1333C133.39 45.3013 133.774 45.3973 134.182 45.3973C134.398 45.3973 134.614 45.3733 134.83 45.3253C135.67 45.1093 136.702 43.7893 137.158 42.9253H137.134C137.734 41.9173 138.214 41.1493 138.214 41.1493L137.494 40.7653ZM128.662 44.4373C128.614 44.1493 128.71 43.8133 128.902 43.5493C129.118 43.2853 129.334 43.1653 129.622 43.1653C129.934 43.1653 130.318 43.3093 130.798 43.6453C131.11 43.8373 131.398 44.0533 131.662 44.2693L131.71 44.2933C131.086 45.0613 130.534 45.2773 129.718 45.2293C129.646 45.2293 129.526 45.2053 129.43 45.1813C129.046 45.1093 128.71 44.8213 128.662 44.4613V44.4373ZM138.568 46.3813C140.656 46.3813 141.712 44.9653 142.72 43.3093L142.792 43.2133C143.44 42.1093 144.016 41.1493 144.016 41.1493L143.296 40.7653C143.296 40.7653 142.72 41.7493 142.048 42.8533L142 42.9493C141.208 44.2453 140.296 45.5653 138.64 45.5653C138.328 45.5653 137.992 45.4933 137.752 45.3013H137.776C137.608 45.1333 137.512 44.9173 137.512 44.7013C137.512 43.8133 138.328 42.4933 138.88 41.5813C138.88 41.5813 143.872 33.2053 145.504 30.4933L143.752 30.2293C143.752 30.2293 136.912 41.6053 136.888 41.6533H136.912C136.216 42.8053 135.904 43.6933 135.904 44.3653C135.904 45.0853 136.216 45.6133 136.768 46.0213C137.296 46.3573 138.064 46.3813 138.568 46.3813ZM145.484 46.6213C146.804 46.6213 148.34 45.7573 149.228 44.8453H149.444C150.572 44.8453 151.652 44.2693 152.42 43.2133C152.42 43.2133 152.54 43.0213 152.612 42.9253L152.684 42.8293H152.66C153.404 41.5813 153.596 41.2693 153.596 41.0533L152.948 40.7653C152.948 40.7653 152.66 41.2453 151.964 42.4453V42.4213L151.748 42.7333C151.124 43.5493 150.5 43.8853 149.924 43.9813C150.284 43.4773 150.596 42.8293 150.86 42.0853C151.1 41.2693 151.196 40.5733 151.196 39.9973C151.196 37.9333 149.78 36.9973 147.86 36.9973C145.82 36.9973 144.74 38.2693 143.732 39.9253C142.844 41.4613 142.364 42.7333 142.364 43.7653C142.364 45.4693 143.876 46.6213 145.484 46.6213ZM147.764 37.7893C148.964 37.7893 149.732 38.4853 149.732 39.6853C149.732 40.9333 148.916 42.7813 148.268 43.7653C147.116 43.1173 146.444 41.5093 146.444 40.2133C146.444 39.1573 146.732 37.7893 147.764 37.7893ZM145.22 41.3653C145.58 42.7093 146.588 43.8613 147.788 44.4373C147.38 44.9413 146.9 45.3733 146.372 45.6133H146.396C146.084 45.7333 145.748 45.8053 145.412 45.8053C144.428 45.8053 143.828 45.3013 143.828 44.2693C143.828 43.3573 144.236 42.3973 145.1 40.9093L145.22 41.3653ZM154.588 46.3573C155.956 46.3573 157.108 45.4933 157.924 44.6293C158.02 45.6373 158.98 46.3333 159.964 46.3333C160.108 46.3333 160.3 46.3333 160.444 46.2853H160.42C161.092 46.1173 162.076 45.6133 162.988 44.1493C163.948 42.5653 164.788 41.1493 164.788 41.1493L164.068 40.7653C164.068 40.7653 163.228 42.1573 162.268 43.7653C161.524 44.9653 160.756 45.4453 160.252 45.5173C159.58 45.5893 159.292 45.3493 159.292 44.9893C159.292 44.1253 160.228 42.6853 160.42 42.3733L163.348 37.5253L161.596 37.2373C161.188 37.9333 160.732 38.6533 160.3 39.3493C160.132 37.8133 158.86 37.1413 157.42 37.1413C155.02 37.1413 152.524 40.4293 152.116 43.1653C151.876 44.7973 152.476 45.9253 153.7 46.2373C153.988 46.3093 154.3 46.3573 154.588 46.3573ZM158.524 42.3493H158.548C158.14 43.0933 156.628 45.4933 154.612 45.4933C154.036 45.4933 153.604 45.4693 153.604 44.7493C153.604 44.3653 153.748 43.8373 153.892 43.4773C154.708 41.2453 156.244 38.6533 158.164 38.2213C158.596 38.1493 158.86 38.1973 159.148 38.6053C159.412 38.9653 159.484 39.4453 159.484 39.8773C159.484 40.3093 159.436 40.7413 159.388 40.9093L158.524 42.3493ZM165.698 46.3573C167.114 46.3573 168.29 45.4933 169.13 44.5333C169.226 45.6373 169.946 46.3333 171.05 46.3333C171.194 46.3333 171.386 46.3333 171.53 46.2853H171.506C172.178 46.1173 173.162 45.6133 174.074 44.1493C175.034 42.5653 175.874 41.1493 175.874 41.1493L175.154 40.7653C175.154 40.7653 174.314 42.1573 173.354 43.7653C172.61 44.9653 171.842 45.4453 171.338 45.5173C170.666 45.5893 170.378 45.3493 170.378 44.9893C170.378 44.1253 171.314 42.6853 171.506 42.3733L178.61 30.4933L176.858 30.2293L171.41 39.3013C171.242 37.7893 169.946 37.1413 168.53 37.1413C166.13 37.1413 163.634 40.4293 163.226 43.1653C162.986 44.7973 163.586 45.9253 164.81 46.2373C165.098 46.3093 165.41 46.3573 165.698 46.3573ZM169.658 42.3013C169.274 42.9733 167.714 45.4933 165.698 45.4933C165.122 45.4933 164.714 45.4453 164.714 44.7493C164.714 44.3653 164.858 43.8373 165.002 43.4773C165.818 41.2453 167.354 38.6533 169.274 38.2213C169.706 38.1493 169.97 38.1973 170.258 38.6053C170.522 38.9413 170.594 39.3973 170.594 39.8293C170.594 40.2853 170.57 40.6453 170.522 40.8373L169.658 42.3013ZM201.347 46.3333C203.243 46.3333 205.091 43.1653 205.163 43.0453L205.307 42.7573L205.283 42.7813C206.027 41.5093 206.219 41.1973 206.219 40.9813L205.547 40.6693C205.547 40.6693 205.307 41.1733 204.587 42.3733V42.3493L204.395 42.6373C204.371 42.6853 202.763 45.5173 201.347 45.5173C200.891 45.5173 200.555 45.3973 200.411 45.1093C200.315 44.9413 200.267 44.7253 200.267 44.5093C200.267 44.0053 200.603 43.1893 200.843 42.7093C201.851 41.0533 202.355 39.9973 202.355 39.2293C202.355 37.8853 201.539 36.9973 200.195 36.9973C199.451 36.9973 198.755 37.2853 198.083 37.7413C199.091 36.0133 199.667 35.1493 200.651 33.4693C202.787 33.2293 206.723 32.7013 206.723 29.7973C206.723 28.5013 205.643 27.7573 204.347 27.7573C202.763 27.7573 201.587 28.8373 200.771 30.0853L199.163 32.7493C197.771 32.8693 196.451 33.1573 195.227 33.4213C193.811 33.7333 192.515 33.9733 191.315 33.9733C189.947 33.9733 188.843 33.5413 188.027 32.1973L187.307 32.7973L186.803 33.1573C187.835 34.5013 189.155 34.9093 190.595 34.9093C191.867 34.9093 193.283 34.6213 194.699 34.2853L194.819 34.2613L193.187 37.0213C188.507 44.9653 186.851 47.7493 184.955 47.5573C184.043 47.4613 183.371 46.7893 183.371 45.8773C183.371 45.4213 183.587 44.8693 183.875 44.5093C184.067 44.3413 184.379 44.1733 184.643 44.1733C184.979 44.1733 185.507 44.4133 185.987 44.7973L186.203 43.2613C185.747 43.1413 185.435 43.0933 185.219 43.0933C183.683 43.0933 182.531 44.3653 182.531 45.8773C182.531 47.3653 183.899 48.7333 185.387 48.7333C186.971 48.7333 188.891 47.5333 190.331 45.0853L196.955 33.8533C197.147 33.8533 198.035 33.7573 198.635 33.6613L191.315 45.9733L193.067 46.2613L196.043 41.2213C196.067 41.1973 198.131 37.8133 200.147 37.8133C200.339 37.8133 200.531 37.8373 200.723 37.9093C201.011 38.0293 201.107 38.2693 201.107 38.5093C201.107 38.8453 200.963 39.2293 200.819 39.4693H200.843L199.955 41.0293L199.355 42.0133C198.899 42.8053 198.587 43.5973 198.587 44.2693C198.587 45.4453 199.331 46.3333 201.347 46.3333ZM201.923 31.3573C202.307 30.7573 202.667 30.2053 203.003 29.7733C203.603 29.0053 204.251 28.6453 204.755 28.6453C205.475 28.6453 205.955 29.2933 205.691 30.4213C205.451 31.5013 203.507 32.3653 201.179 32.5813L201.923 31.3573ZM217.238 40.7653C217.238 40.7653 216.662 41.7493 215.99 42.8533L215.942 42.9493C215.294 44.0293 214.718 44.9413 213.542 45.3973C213.398 45.4693 213.038 45.5173 212.654 45.5173C212.102 45.5173 211.406 45.3493 211.406 44.6773C211.406 43.9093 212.078 42.7573 212.63 41.8933C212.654 41.8693 212.654 41.8453 212.678 41.8213L212.798 41.6533C212.822 41.6293 212.846 41.6053 212.846 41.5813H212.822L215.27 37.5253L213.518 37.2373L212.198 39.4213C211.334 40.8613 210.278 42.5893 210.134 42.8773H210.158C209.51 43.9573 208.91 44.9413 207.71 45.3973C207.566 45.4693 207.206 45.5173 206.822 45.5173C206.462 45.5173 206.126 45.4933 205.814 45.2293C205.646 45.0613 205.574 44.8933 205.574 44.6773C205.574 43.9093 206.246 42.7573 206.798 41.8933C206.822 41.8693 206.822 41.8453 206.846 41.8213L206.966 41.6533C206.99 41.6293 207.014 41.6053 207.014 41.5813H206.99L209.438 37.5253L207.686 37.2373C207.686 37.2373 205.022 41.6053 204.998 41.6533H205.022C204.326 42.8053 204.014 43.6933 204.014 44.3653C204.014 45.0853 204.326 45.6133 204.878 46.0213C205.406 46.3573 206.174 46.3813 206.678 46.3813C207.974 46.3813 209.078 45.7333 209.894 44.7493C209.966 45.3253 210.254 45.6853 210.71 46.0213C211.238 46.3573 212.006 46.3813 212.51 46.3813C214.598 46.3813 215.654 44.9653 216.662 43.3093L216.734 43.2133C217.382 42.1093 217.958 41.1493 217.958 41.1493L217.238 40.7653ZM229.798 46.3333C231.694 46.3333 233.542 43.2373 233.614 43.0933L233.758 42.8053L233.734 42.8293C234.478 41.5813 234.67 41.2693 234.67 41.0533L233.998 40.7653C233.998 40.7653 233.758 41.2453 233.038 42.4453V42.4213L232.846 42.6853C232.822 42.7333 231.214 45.5173 229.798 45.5173C229.342 45.5173 229.006 45.4213 228.862 45.1333C228.766 44.9653 228.718 44.7493 228.718 44.5333C228.718 44.0533 229.054 43.2373 229.294 42.7573C230.302 41.1253 230.806 40.0933 230.806 39.3253C230.806 37.9813 229.942 37.1413 228.622 37.1413C227.302 37.1413 226.078 38.1253 225.166 39.1093C225.046 37.8373 224.23 37.1413 222.982 37.1413C222.31 37.1413 221.494 37.5013 220.894 37.8853L221.182 37.5733L219.358 37.2613L214.102 45.9973L215.854 46.2613L218.83 41.3173C218.854 41.2693 220.918 37.9573 222.958 37.9573C223.438 37.9573 223.918 38.0773 223.918 38.6533C223.918 38.9653 223.774 39.3253 223.63 39.5893H223.654C223.342 40.1173 223.15 40.4533 222.886 40.8853L222.142 42.0853C221.686 42.8293 221.398 43.6453 221.398 44.3173C221.398 45.2773 221.95 46.0213 223.39 46.2853L223.75 45.5413C223.27 45.2773 223.078 44.8933 223.078 44.5093C223.078 43.9093 223.39 43.2373 223.654 42.7573L224.542 41.2453C224.878 40.7413 226.75 37.9573 228.598 37.9573C229.078 37.9573 229.558 38.0773 229.558 38.6533C229.558 38.9653 229.414 39.3253 229.27 39.5893H229.294L227.806 42.0853C227.35 42.8533 227.038 43.6453 227.038 44.3173C227.038 45.4693 227.782 46.3333 229.798 46.3333ZM244.299 40.7653C244.299 40.7653 243.771 41.6293 243.219 42.6133C242.715 43.4533 241.851 44.4853 241.395 44.5813C240.987 44.6773 240.675 44.6773 240.315 44.5093C240.435 44.3653 240.435 44.3653 240.555 44.1733L240.627 44.0773H240.603C241.515 42.5413 242.475 40.5733 242.475 39.1573C242.475 37.8613 241.707 37.1413 240.387 37.1413C239.379 37.1413 238.347 37.5733 237.603 38.0293L242.115 30.4933L240.363 30.2293L230.859 45.9973L232.611 46.2613L235.611 41.2933V41.3173C235.851 40.9573 237.531 38.3173 239.955 37.9813C240.147 38.0053 240.459 38.1253 240.603 38.3173C240.699 38.4853 240.747 38.7493 240.747 39.0613C240.747 40.0933 240.147 41.6773 238.995 43.5973V43.5733L238.947 43.6453C238.299 43.1173 237.219 42.4213 236.379 42.4213C235.323 42.4213 234.603 43.3573 234.603 44.3653C234.603 44.4373 234.603 44.5333 234.651 44.6533C234.723 45.2293 235.107 45.6853 235.683 46.0213H235.659C235.707 46.0453 235.755 46.0693 235.779 46.0693C235.851 46.1173 235.851 46.1173 235.899 46.1173L236.163 46.2373V46.2133C236.187 46.2133 236.283 46.2373 236.331 46.2613H236.259C236.283 46.2853 236.259 46.3093 236.427 46.3093C236.475 46.3333 236.571 46.3333 236.667 46.3333H236.715C236.811 46.3573 236.955 46.3573 237.075 46.3573C237.147 46.3573 237.267 46.3573 237.315 46.3333C237.483 46.3333 237.627 46.3093 237.723 46.2853C238.059 46.2373 238.347 46.1413 238.635 45.9973V46.0213C239.067 45.8053 239.475 45.5173 239.811 45.1813C240.339 45.4213 240.915 45.5173 241.611 45.3733C242.451 45.1573 243.483 43.8133 243.939 42.9733H243.915C244.515 41.9653 245.019 41.1493 245.019 41.1493L244.299 40.7653ZM235.443 44.4853C235.395 44.1973 235.491 43.8613 235.683 43.5973C235.899 43.3333 236.115 43.2133 236.403 43.2133C236.715 43.2133 237.099 43.3573 237.579 43.6933C237.891 43.8853 238.179 44.1013 238.443 44.3173L238.491 44.3413C237.867 45.1093 237.315 45.3253 236.499 45.2773C236.427 45.2773 236.307 45.2533 236.211 45.2293C235.827 45.1573 235.491 44.8693 235.443 44.5093V44.4853ZM236.595 45.9493C236.715 45.9493 236.715 46.1173 236.715 46.1173L236.523 46.2373L236.595 45.9493ZM251.18 46.3333C253.1 46.3333 254.924 43.2373 254.996 43.0933L255.14 42.8053L255.116 42.8293C255.884 41.6053 256.052 41.1493 256.052 41.0533L255.38 40.7653C255.38 40.7653 255.14 41.2453 254.42 42.4453V42.4213L254.228 42.6853C254.228 42.7333 252.62 45.5173 251.18 45.5173C250.724 45.5173 250.388 45.4213 250.244 45.1333C250.148 44.9653 250.1 44.7733 250.1 44.5573C250.1 44.0533 250.412 43.2853 250.7 42.7573C251.684 41.1253 252.212 40.0933 252.212 39.3253C252.212 38.0293 251.3 37.1413 250.028 37.1413C249.308 37.1413 248.588 37.4533 247.94 37.8853L248.012 37.5253L246.404 37.2613L241.148 45.9973L242.9 46.2613L245.876 41.3173C245.9 41.2693 247.964 37.9573 249.98 37.9573C250.46 37.9573 250.964 38.0773 250.964 38.6533C250.964 38.9893 250.82 39.3733 250.676 39.5893L249.188 42.0853C248.732 42.8533 248.42 43.6453 248.42 44.3173C248.42 45.4693 249.164 46.3333 251.18 46.3333ZM257.034 46.3573C258.402 46.3573 259.554 45.4933 260.37 44.6293C260.466 45.6373 261.426 46.3333 262.41 46.3333C262.554 46.3333 262.746 46.3333 262.89 46.2853H262.866C263.538 46.1173 264.522 45.6133 265.434 44.1493C266.394 42.5653 267.234 41.1493 267.234 41.1493L266.514 40.7653C266.514 40.7653 265.674 42.1573 264.714 43.7653C263.97 44.9653 263.202 45.4453 262.698 45.5173C262.026 45.5893 261.738 45.3493 261.738 44.9893C261.738 44.1253 262.674 42.6853 262.866 42.3733L265.794 37.5253L264.042 37.2373C263.634 37.9333 263.178 38.6533 262.746 39.3493C262.578 37.8133 261.306 37.1413 259.866 37.1413C257.466 37.1413 254.97 40.4293 254.562 43.1653C254.322 44.7973 254.922 45.9253 256.146 46.2373C256.434 46.3093 256.746 46.3573 257.034 46.3573ZM260.97 42.3493H260.994C260.586 43.0933 259.074 45.4933 257.058 45.4933C256.482 45.4933 256.05 45.4693 256.05 44.7493C256.05 44.3653 256.194 43.8373 256.338 43.4773C257.154 41.2453 258.69 38.6533 260.61 38.2213C261.042 38.1493 261.306 38.1973 261.594 38.6053C261.858 38.9653 261.93 39.4453 261.93 39.8773C261.93 40.3093 261.882 40.7413 261.834 40.9093L260.97 42.3493ZM271.287 35.8213C271.287 35.2213 270.783 34.7413 270.183 34.7413C269.559 34.7413 269.079 35.2213 269.079 35.8213C269.079 36.3973 269.559 36.8773 270.183 36.8773C270.783 36.8773 271.287 36.3973 271.287 35.8213ZM267.615 46.3813C269.703 46.3813 270.759 44.9653 271.767 43.3093L271.839 43.2133C272.487 42.1093 273.063 41.1493 273.063 41.1493L272.343 40.7653C272.343 40.7653 271.767 41.7493 271.095 42.8533L271.047 42.9493C270.399 44.0293 269.823 44.9413 268.647 45.3973C268.503 45.4693 268.143 45.5173 267.759 45.5173C267.399 45.5173 267.039 45.4693 266.727 45.2053C266.583 45.0613 266.511 44.8933 266.511 44.6773C266.511 43.9093 267.183 42.7573 267.735 41.8933C267.759 41.8693 267.759 41.8453 267.783 41.8213L267.903 41.6533C267.927 41.6293 267.951 41.6053 267.951 41.5813H267.927L270.375 37.5253L268.623 37.2373C268.623 37.2373 265.959 41.6053 265.935 41.6533H265.959C265.263 42.8053 264.951 43.6933 264.951 44.3653C264.951 45.0853 265.263 45.6133 265.815 46.0213C266.343 46.3573 267.111 46.3813 267.615 46.3813ZM273.451 46.3813C275.539 46.3813 276.595 44.9653 277.603 43.3093L277.675 43.2133C278.323 42.1093 278.899 41.1493 278.899 41.1493L278.179 40.7653C278.179 40.7653 277.603 41.7493 276.931 42.8533L276.883 42.9493C276.091 44.2453 275.179 45.5653 273.523 45.5653C273.211 45.5653 272.875 45.4933 272.635 45.3013H272.659C272.491 45.1333 272.395 44.9173 272.395 44.7013C272.395 43.8133 273.211 42.4933 273.763 41.5813C273.763 41.5813 278.755 33.2053 280.387 30.4933L278.635 30.2293C278.635 30.2293 271.795 41.6053 271.771 41.6533H271.795C271.099 42.8053 270.787 43.6933 270.787 44.3653C270.787 45.0853 271.099 45.6133 271.651 46.0213C272.179 46.3573 272.947 46.3813 273.451 46.3813Z" fill="black" fill-opacity="0.4"/>
</svg>
