<svg width="390" height="84" viewBox="0 0 390 84" fill="none" xmlns="http://www.w3.org/2000/svg">
<g opacity="0.6">
<path fill-rule="evenodd" clip-rule="evenodd" d="M364.003 47.2282V59.3497H377.001C377.001 52.655 371.182 47.2282 364.003 47.2282Z" fill="#FE9C15"/>
<path fill-rule="evenodd" clip-rule="evenodd" d="M370.502 65.4106C372.901 67.6472 371.202 71.4713 367.81 71.4713H364.003L370.502 65.4106Z" fill="#ADA194"/>
<path fill-rule="evenodd" clip-rule="evenodd" d="M370.502 65.4104L364.003 59.3497H377.001L370.502 65.4104Z" fill="#FFECC7"/>
<path fill-rule="evenodd" clip-rule="evenodd" d="M370.502 65.4104L377.001 59.3497V71.4711L370.502 65.4104Z" fill="#FE9C15"/>
<path fill-rule="evenodd" clip-rule="evenodd" d="M370.502 65.4105L364.003 71.4712V67.9208C364.003 64.758 368.104 63.1739 370.502 65.4105Z" fill="#BD8242"/>
<path fill-rule="evenodd" clip-rule="evenodd" d="M344.499 77.5319L338 83.5926V71.4712L344.499 77.5319Z" fill="#FFECC7"/>
<path fill-rule="evenodd" clip-rule="evenodd" d="M344.499 77.5319L350.998 71.4712V83.5926L344.499 77.5319Z" fill="#BD8242"/>
<path fill-rule="evenodd" clip-rule="evenodd" d="M344.499 77.5321L350.998 83.5928H338L344.499 77.5321Z" fill="#ADA194"/>
<path fill-rule="evenodd" clip-rule="evenodd" d="M344.499 77.5319L338 71.4712H350.998L344.499 77.5319Z" fill="#F5C38D"/>
<path fill-rule="evenodd" clip-rule="evenodd" d="M370.502 77.5321L377.001 83.5928H364.003L370.502 77.5321Z" fill="#FFECC7"/>
<path fill-rule="evenodd" clip-rule="evenodd" d="M370.502 77.5319L364.003 71.4712H367.81C371.202 71.4712 372.901 75.2953 370.502 77.5319Z" fill="#BD8242"/>
<path fill-rule="evenodd" clip-rule="evenodd" d="M370.502 77.5319L377.001 71.4712V83.5926L370.502 77.5319Z" fill="#F5C38D"/>
<path fill-rule="evenodd" clip-rule="evenodd" d="M370.502 77.5319C368.104 79.7685 364.003 78.1844 364.003 75.0213V71.4712L370.502 77.5319Z" fill="#FE9C15"/>
<path fill-rule="evenodd" clip-rule="evenodd" d="M383.494 65.4493L376.995 71.51V59.3886L383.494 65.4493Z" fill="#BD8242"/>
<path fill-rule="evenodd" clip-rule="evenodd" d="M357.51 77.5319C355.111 75.2953 356.81 71.4712 360.202 71.4712H364.009L357.51 77.5319Z" fill="#ADA194"/>
<path fill-rule="evenodd" clip-rule="evenodd" d="M357.51 77.5319L364.009 71.4712V75.0213C364.009 78.1844 359.908 79.7685 357.51 77.5319Z" fill="#F5C38D"/>
<path fill-rule="evenodd" clip-rule="evenodd" d="M383.494 65.4493L376.994 59.3886H389.993L383.494 65.4493Z" fill="#FFECC7"/>
<path fill-rule="evenodd" clip-rule="evenodd" d="M344.499 53.3563L350.998 59.417H338L344.499 53.3563Z" fill="#BD8242"/>
<path fill-rule="evenodd" clip-rule="evenodd" d="M344.499 65.4493L350.998 59.3886V71.51L344.499 65.4493Z" fill="#BD8242"/>
<path fill-rule="evenodd" clip-rule="evenodd" d="M383.494 53.3277L389.993 59.3884H376.994L383.494 53.3277Z" fill="#F5C38D"/>
<path fill-rule="evenodd" clip-rule="evenodd" d="M344.499 65.4493L338 59.3886H350.998L344.499 65.4493Z" fill="#ADA194"/>
<path fill-rule="evenodd" clip-rule="evenodd" d="M383.5 77.5319L377.001 71.4712H390L383.5 77.5319Z" fill="#ADA194"/>
<path fill-rule="evenodd" clip-rule="evenodd" d="M383.5 77.5321L390 83.5928H377.001L383.5 77.5321Z" fill="#F5C38D"/>
<path fill-rule="evenodd" clip-rule="evenodd" d="M383.5 77.5319L377.001 83.5926V71.4712L383.5 77.5319Z" fill="#FE9C15"/>
<path fill-rule="evenodd" clip-rule="evenodd" d="M383.5 77.5319L390 71.4712V83.5926L383.5 77.5319Z" fill="#BD8242"/>
<path fill-rule="evenodd" clip-rule="evenodd" d="M351.005 59.3497H364.003V47.2282C356.825 47.2282 351.005 52.655 351.005 59.3497Z" fill="#ADA194"/>
<path fill-rule="evenodd" clip-rule="evenodd" d="M351.005 59.3497C351.005 66.0444 356.824 71.4711 364.003 71.4711V59.3497H351.005Z" fill="#BD8242"/>
<path fill-rule="evenodd" clip-rule="evenodd" d="M357.648 59.3499H358.766C358.766 56.6571 361.115 54.4666 364.003 54.4666V53.4239C360.499 53.4239 357.648 56.0823 357.648 59.3499ZM355.27 59.3499H356.388C356.388 55.4343 359.804 52.2485 364.003 52.2485V51.2058C359.188 51.2058 355.27 54.8592 355.27 59.3499ZM364.003 48.988V50.0307C358.493 50.0307 354.01 54.2112 354.01 59.3499H352.892C352.892 53.6361 357.876 48.988 364.003 48.988Z" fill="#FFECC7"/>
<path fill-rule="evenodd" clip-rule="evenodd" d="M364.003 53.4237V54.4664C366.891 54.4664 369.24 56.6571 369.24 59.3499H370.358C370.358 56.082 367.507 53.4237 364.003 53.4237ZM364.003 51.2058V52.2485C368.202 52.2485 371.618 55.4343 371.618 59.3499H372.736C372.736 54.8595 368.819 51.2058 364.003 51.2058ZM375.115 59.3499H373.997C373.997 54.2112 369.513 50.0307 364.003 50.0307V48.988C370.13 48.988 375.115 53.6364 375.115 59.3499Z" fill="#FFECC7"/>
<path fill-rule="evenodd" clip-rule="evenodd" d="M364.003 65.2756V64.2329C361.115 64.2329 358.766 62.0422 358.766 59.3497H357.648C357.648 62.6172 360.499 65.2756 364.003 65.2756ZM364.003 67.4935V66.4508C359.804 66.4508 356.388 63.265 356.388 59.3497H355.27C355.27 63.8401 359.187 67.4935 364.003 67.4935ZM352.892 59.3497H354.01C354.01 64.4881 358.493 68.6689 364.003 68.6689V69.7116C357.876 69.7116 352.892 65.0632 352.892 59.3497Z" fill="#F5C38D"/>
<path fill-rule="evenodd" clip-rule="evenodd" d="M344.179 60.9899C343.247 60.9899 342.492 60.2858 342.492 59.4172C342.492 58.5487 343.247 57.8448 344.179 57.8448C345.11 57.8448 345.865 58.5487 345.865 59.4172C345.865 60.2858 345.11 60.9899 344.179 60.9899Z" fill="#FFECC7"/>
<path fill-rule="evenodd" clip-rule="evenodd" d="M364.003 56.8408V61.9368C362.494 61.9368 361.271 60.7958 361.271 59.3887C361.271 57.9815 362.494 56.8408 364.003 56.8408Z" fill="#F5C38D"/>
<path fill-rule="evenodd" clip-rule="evenodd" d="M344.499 77.5321V74.3479L347.914 77.5321H344.499Z" fill="#FFECC7"/>
<path fill-rule="evenodd" clip-rule="evenodd" d="M344.499 77.5321V80.7162L341.085 77.5321H344.499Z" fill="#BD8242"/>
<path fill-rule="evenodd" clip-rule="evenodd" d="M344.499 77.5321H341.085L344.499 74.3479V77.5321Z" fill="#ADA194"/>
<path fill-rule="evenodd" clip-rule="evenodd" d="M344.499 77.5321H347.914L344.499 80.7162V77.5321Z" fill="#F5C38D"/>
<path fill-rule="evenodd" clip-rule="evenodd" d="M376.994 65.4689V62.2848L380.408 65.4689H376.994Z" fill="#F5C38D"/>
<path fill-rule="evenodd" clip-rule="evenodd" d="M376.995 65.4689H373.58L376.995 62.2848V65.4689Z" fill="#FFECC7"/>
<path fill-rule="evenodd" clip-rule="evenodd" d="M376.995 65.4297V68.6142L373.58 65.4297H376.995Z" fill="#F5C38D"/>
<path fill-rule="evenodd" clip-rule="evenodd" d="M376.994 65.4297H380.408L376.994 68.6142V65.4297Z" fill="#FFECC7"/>
<path fill-rule="evenodd" clip-rule="evenodd" d="M383.48 77.3976H386.894L383.48 80.5818V77.3976Z" fill="#F5C38D"/>
<path fill-rule="evenodd" clip-rule="evenodd" d="M383.48 77.3976V74.2132L386.894 77.3976H383.48Z" fill="#FFECC7"/>
<path fill-rule="evenodd" clip-rule="evenodd" d="M383.521 77.3976H380.107L383.521 74.2132V77.3976Z" fill="#F5C38D"/>
<path fill-rule="evenodd" clip-rule="evenodd" d="M383.521 77.3976V80.5818L380.107 77.3976H383.521Z" fill="#FFECC7"/>
<path fill-rule="evenodd" clip-rule="evenodd" d="M19.5002 30.3078L13.0002 24.2462H16.8079C20.1999 24.2462 21.8989 28.0709 19.5002 30.3078Z" fill="#FE9C15"/>
<path fill-rule="evenodd" clip-rule="evenodd" d="M6.50001 18.1847L13 24.2463H2.34842e-05L6.50001 18.1847Z" fill="#FE9C15"/>
<path fill-rule="evenodd" clip-rule="evenodd" d="M19.5005 30.3078C17.1018 32.5447 13.0005 30.9604 13.0005 27.7971V24.2462L19.5005 30.3078Z" fill="#BD8242"/>
<path fill-rule="evenodd" clip-rule="evenodd" d="M6.50001 30.3078L13 24.2462V27.7971C13 30.9604 8.89872 32.5447 6.50001 30.3078Z" fill="#BDB4A9"/>
<path fill-rule="evenodd" clip-rule="evenodd" d="M6.50001 30.3078C4.10131 28.0709 5.80025 24.2462 9.19227 24.2462H13L6.50001 30.3078Z" fill="#ADA194"/>
<path fill-rule="evenodd" clip-rule="evenodd" d="M6.50001 18.1848L13 12.1233L13 24.2464L6.50001 18.1848Z" fill="#BD8242"/>
<path fill-rule="evenodd" clip-rule="evenodd" d="M39.0004 12.1231V0C42.5904 3.34781 42.5904 8.77533 39.0004 12.1231Z" fill="#FFECC7"/>
<path fill-rule="evenodd" clip-rule="evenodd" d="M39.0005 0.000289917L52.0005 0.000289917C48.4105 3.3481 42.5905 3.3481 39.0005 0.000289917Z" fill="#FE9C15"/>
<path fill-rule="evenodd" clip-rule="evenodd" d="M32.501 6.06157L26.001 12.1231L26.001 0L32.501 6.06157Z" fill="#F5C38D"/>
<path fill-rule="evenodd" clip-rule="evenodd" d="M39 0V12.1231C35.4103 8.77533 35.4103 3.34781 39 0Z" fill="#F5C38D"/>
<path fill-rule="evenodd" clip-rule="evenodd" d="M32.5 6.06178L39 12.1234L26 12.1234L32.5 6.06178Z" fill="#FE9C15"/>
<path fill-rule="evenodd" clip-rule="evenodd" d="M26 0L39 0C35.4103 3.34781 29.59 3.34781 26 0Z" fill="#ADA194"/>
<path fill-rule="evenodd" clip-rule="evenodd" d="M13.0083 0L13.0083 12.1231C9.41835 8.77533 9.41835 3.34781 13.0083 0Z" fill="#BD8242"/>
<path fill-rule="evenodd" clip-rule="evenodd" d="M6.50781 6.06157L0.00782424 12.1231L0.00782424 0L6.50781 6.06157Z" fill="#F5C38D"/>
<path fill-rule="evenodd" clip-rule="evenodd" d="M0.00832427 0L13.0083 0C9.41835 3.34781 3.59827 3.34781 0.00832427 0Z" fill="#BD8242"/>
<path fill-rule="evenodd" clip-rule="evenodd" d="M6.50831 6.06178L13.0083 12.1234L0.00832427 12.1234L6.50831 6.06178Z" fill="#FFECC7"/>
<path fill-rule="evenodd" clip-rule="evenodd" d="M19.5078 6.06157L26.0078 0L26.0078 12.1231L19.5078 6.06157Z" fill="#BD8242"/>
<path fill-rule="evenodd" clip-rule="evenodd" d="M13.349 11.8045L13.0073 12.1231L13.0073 0L13.349 0.318591C16.7502 3.49042 16.7502 8.63272 13.349 11.8045Z" fill="#FFECC7"/>
<path fill-rule="evenodd" clip-rule="evenodd" d="M13.0078 0L26.0078 0C22.4179 3.34781 16.5975 3.34781 13.0078 0Z" fill="#BDB4A9"/>
<path fill-rule="evenodd" clip-rule="evenodd" d="M19.5073 6.06178L26.0073 12.1234L13.0073 12.1234L19.5073 6.06178Z" fill="#F5C38D"/>
<path fill-rule="evenodd" clip-rule="evenodd" d="M6.50098 18.1848L0.000988305 24.2464L0.000988305 12.1233L6.50098 18.1848Z" fill="#BDB4A9"/>
<path fill-rule="evenodd" clip-rule="evenodd" d="M6.50001 18.1848L2.34842e-05 12.1233L13 12.1233L6.50001 18.1848Z" fill="#FE9C15"/>
<path fill-rule="evenodd" clip-rule="evenodd" d="M32.501 18.0406L26.001 24.1022L26.001 11.9791L32.501 18.0406Z" fill="#FE9C15"/>
<path fill-rule="evenodd" clip-rule="evenodd" d="M32.5 18.0406L26 11.9791L39 11.9791L32.5 18.0406Z" fill="#BD8242"/>
<path fill-rule="evenodd" clip-rule="evenodd" d="M32.4999 19.6134C31.5684 19.6134 30.8132 18.9092 30.8132 18.0406C30.8132 17.1719 31.5684 16.4677 32.4999 16.4677C33.4314 16.4677 34.1865 17.1719 34.1865 18.0406C34.1865 18.9092 33.4314 19.6134 32.4999 19.6134Z" fill="#F5C38D"/>
<path fill-rule="evenodd" clip-rule="evenodd" d="M19.5137 18.1848L13.0137 12.1233L26.0137 12.1233L19.5137 18.1848Z" fill="#FFECC7"/>
<path fill-rule="evenodd" clip-rule="evenodd" d="M6.50791 18.2044L6.50791 15.0197L9.92285 18.2044H6.50791Z" fill="#F5C38D"/>
<path fill-rule="evenodd" clip-rule="evenodd" d="M6.50781 18.2044H3.09287L6.50781 15.0197L6.50781 18.2044Z" fill="#FFECC7"/>
<path fill-rule="evenodd" clip-rule="evenodd" d="M6.50781 18.1653L6.50781 21.3499L3.09287 18.1653H6.50781Z" fill="#F5C38D"/>
<path fill-rule="evenodd" clip-rule="evenodd" d="M6.50791 18.1653H9.92285L6.50791 21.3499L6.50791 18.1653Z" fill="#FFECC7"/>
<path fill-rule="evenodd" clip-rule="evenodd" d="M21.0973 11.9792C21.0973 9.4002 23.3392 7.30954 26.1044 7.30954C28.8699 7.30954 31.1118 9.4002 31.1118 11.9792C31.1118 14.5581 28.8699 16.6484 26.1044 16.6484C23.3392 16.6484 21.0973 14.5581 21.0973 11.9792ZM32.501 11.9792C32.501 8.6848 29.6371 6.01432 26.1044 6.01432C22.5718 6.01432 19.7082 8.6848 19.7082 11.9792C19.7082 15.2735 22.5718 17.9439 26.1044 17.9439C29.6371 17.9439 32.501 15.2735 32.501 11.9792Z" fill="#FFECC7"/>
</g>
<path d="M139.206 48.3733C140.814 48.3733 142.686 46.6693 144.318 44.6053C144.222 44.9653 144.198 45.3493 144.198 45.7573C144.198 47.0773 144.678 48.5173 146.406 48.1093C147.15 47.9173 148.014 47.2693 148.638 46.2133L151.686 41.0773L150.966 40.6693L147.942 45.8533V45.8293C147.294 46.7893 146.814 47.1733 146.454 47.1733C146.118 47.1733 145.95 46.7413 145.95 46.0213C145.95 45.5653 146.022 44.9893 146.214 44.3413C146.214 44.3173 146.238 44.2213 146.262 44.1733V44.2213C146.766 42.7813 147.414 41.6533 147.582 41.3893L152.598 32.9173L150.99 32.3893C149.454 34.9813 147.702 37.9573 146.142 40.5493C144.174 43.6453 141.054 47.8693 138.99 47.5573C138.318 47.4613 138.102 46.8853 138.102 46.2853C138.102 45.7573 138.294 45.0373 138.51 44.5573C138.99 43.5013 139.638 42.4453 140.19 41.5573C141.462 39.4933 142.686 37.4533 142.518 35.2693C142.23 32.2213 139.494 32.5573 139.494 32.5573C137.238 32.9653 135.246 36.4693 135.246 38.6533C135.246 39.0133 135.294 39.3733 135.414 39.7573C135.63 40.3333 135.99 40.7893 136.59 41.0533C136.614 40.9813 136.998 39.7333 136.974 39.4933C136.374 39.4213 136.158 38.9893 136.158 38.4133C136.158 37.5013 136.59 36.4213 136.902 35.9173C137.334 35.1493 138.654 33.3013 139.854 33.3013C140.118 33.3013 140.358 33.3973 140.646 33.6853C140.838 33.8533 140.982 34.1413 140.982 34.6933C140.982 35.7253 140.382 37.5493 138.486 40.9573L138.51 40.9093C138.294 41.1253 136.83 43.7893 136.83 45.8533C136.83 47.0773 137.334 48.1093 138.87 48.3493H138.846C138.942 48.3733 139.086 48.3733 139.206 48.3733ZM161.248 40.7653C161.248 40.7653 160.744 41.5813 160.192 42.5653C159.688 43.4053 158.824 44.4373 158.368 44.5333C157.96 44.6293 157.648 44.6293 157.288 44.4613C157.408 44.3413 157.408 44.3173 157.528 44.1253L157.6 44.0293H157.576C158.488 42.4933 159.448 40.5253 159.448 39.1093C159.448 37.8133 158.68 37.0933 157.36 37.0933C156.28 37.0933 155.368 37.4533 154.576 37.9573L154.888 37.5013L153.112 37.2133L143.608 52.9813L145.36 53.2693L152.848 40.8373V40.8613C153.4 40.0453 154.96 38.2453 156.928 37.9333C157.12 37.9573 157.432 38.0773 157.576 38.2693C157.672 38.4373 157.72 38.7013 157.72 39.0133C157.72 40.0453 157.12 41.6293 155.968 43.5493V43.5253L155.92 43.5973C155.272 43.0693 154.192 42.3733 153.352 42.3733C152.272 42.3733 151.576 43.3333 151.576 44.3413C151.576 44.3893 151.576 44.4853 151.624 44.6053C151.696 45.1813 152.08 45.6373 152.656 45.9733H152.632C152.68 46.0213 152.728 46.0453 152.752 46.0453C152.824 46.0693 152.824 46.0693 152.872 46.0693C153.256 46.2613 153.64 46.3093 154.048 46.3093C154.144 46.3093 154.264 46.3093 154.312 46.2853C154.48 46.2853 154.552 46.2613 154.672 46.2373C155.008 46.1893 155.32 46.0933 155.608 45.9493V45.9733C156.04 45.7573 156.448 45.4933 156.784 45.1333C157.144 45.3013 157.528 45.3973 157.936 45.3973C158.152 45.3973 158.368 45.3733 158.584 45.3253C159.424 45.1093 160.456 43.7893 160.912 42.9253H160.888C161.488 41.9173 161.968 41.1493 161.968 41.1493L161.248 40.7653ZM152.416 44.4373C152.368 44.1493 152.464 43.8133 152.656 43.5493C152.872 43.2853 153.088 43.1653 153.376 43.1653C153.688 43.1653 154.072 43.3093 154.552 43.6453C154.864 43.8373 155.152 44.0533 155.416 44.2693L155.464 44.2933C154.84 45.0613 154.288 45.2773 153.472 45.2293C153.4 45.2293 153.28 45.2053 153.184 45.1813C152.8 45.1093 152.464 44.8213 152.416 44.4613V44.4373ZM162.322 46.3813C164.41 46.3813 165.466 44.9653 166.474 43.3093L166.546 43.2133C167.194 42.1093 167.77 41.1493 167.77 41.1493L167.05 40.7653C167.05 40.7653 166.474 41.7493 165.802 42.8533L165.754 42.9493C164.962 44.2453 164.05 45.5653 162.394 45.5653C162.082 45.5653 161.746 45.4933 161.506 45.3013H161.53C161.362 45.1333 161.266 44.9173 161.266 44.7013C161.266 43.8133 162.082 42.4933 162.634 41.5813C162.634 41.5813 167.626 33.2053 169.258 30.4933L167.506 30.2293C167.506 30.2293 160.666 41.6053 160.642 41.6533H160.666C159.97 42.8053 159.658 43.6933 159.658 44.3653C159.658 45.0853 159.97 45.6133 160.522 46.0213C161.05 46.3573 161.818 46.3813 162.322 46.3813ZM169.238 46.6213C170.558 46.6213 172.094 45.7573 172.982 44.8453H173.198C174.326 44.8453 175.406 44.2693 176.174 43.2133C176.174 43.2133 176.294 43.0213 176.366 42.9253L176.438 42.8293H176.414C177.158 41.5813 177.35 41.2693 177.35 41.0533L176.702 40.7653C176.702 40.7653 176.414 41.2453 175.718 42.4453V42.4213L175.502 42.7333C174.878 43.5493 174.254 43.8853 173.678 43.9813C174.038 43.4773 174.35 42.8293 174.614 42.0853C174.854 41.2693 174.95 40.5733 174.95 39.9973C174.95 37.9333 173.534 36.9973 171.614 36.9973C169.574 36.9973 168.494 38.2693 167.486 39.9253C166.598 41.4613 166.118 42.7333 166.118 43.7653C166.118 45.4693 167.63 46.6213 169.238 46.6213ZM171.518 37.7893C172.718 37.7893 173.486 38.4853 173.486 39.6853C173.486 40.9333 172.67 42.7813 172.022 43.7653C170.87 43.1173 170.198 41.5093 170.198 40.2133C170.198 39.1573 170.486 37.7893 171.518 37.7893ZM168.974 41.3653C169.334 42.7093 170.342 43.8613 171.542 44.4373C171.134 44.9413 170.654 45.3733 170.126 45.6133H170.15C169.838 45.7333 169.502 45.8053 169.166 45.8053C168.182 45.8053 167.582 45.3013 167.582 44.2693C167.582 43.3573 167.99 42.3973 168.854 40.9093L168.974 41.3653ZM178.342 46.3573C179.71 46.3573 180.862 45.4933 181.678 44.6293C181.774 45.6373 182.734 46.3333 183.718 46.3333C183.862 46.3333 184.054 46.3333 184.198 46.2853H184.174C184.846 46.1173 185.83 45.6133 186.742 44.1493C187.702 42.5653 188.542 41.1493 188.542 41.1493L187.822 40.7653C187.822 40.7653 186.982 42.1573 186.022 43.7653C185.278 44.9653 184.51 45.4453 184.006 45.5173C183.334 45.5893 183.046 45.3493 183.046 44.9893C183.046 44.1253 183.982 42.6853 184.174 42.3733L187.102 37.5253L185.35 37.2373C184.942 37.9333 184.486 38.6533 184.054 39.3493C183.886 37.8133 182.614 37.1413 181.174 37.1413C178.774 37.1413 176.278 40.4293 175.87 43.1653C175.63 44.7973 176.23 45.9253 177.454 46.2373C177.742 46.3093 178.054 46.3573 178.342 46.3573ZM182.278 42.3493H182.302C181.894 43.0933 180.382 45.4933 178.366 45.4933C177.79 45.4933 177.358 45.4693 177.358 44.7493C177.358 44.3653 177.502 43.8373 177.646 43.4773C178.462 41.2453 179.998 38.6533 181.918 38.2213C182.35 38.1493 182.614 38.1973 182.902 38.6053C183.166 38.9653 183.238 39.4453 183.238 39.8773C183.238 40.3093 183.19 40.7413 183.142 40.9093L182.278 42.3493ZM189.452 46.3573C190.868 46.3573 192.044 45.4933 192.884 44.5333C192.98 45.6373 193.7 46.3333 194.804 46.3333C194.948 46.3333 195.14 46.3333 195.284 46.2853H195.26C195.932 46.1173 196.916 45.6133 197.828 44.1493C198.788 42.5653 199.628 41.1493 199.628 41.1493L198.908 40.7653C198.908 40.7653 198.068 42.1573 197.108 43.7653C196.364 44.9653 195.596 45.4453 195.092 45.5173C194.42 45.5893 194.132 45.3493 194.132 44.9893C194.132 44.1253 195.068 42.6853 195.26 42.3733L202.364 30.4933L200.612 30.2293L195.164 39.3013C194.996 37.7893 193.7 37.1413 192.284 37.1413C189.884 37.1413 187.388 40.4293 186.98 43.1653C186.74 44.7973 187.34 45.9253 188.564 46.2373C188.852 46.3093 189.164 46.3573 189.452 46.3573ZM193.412 42.3013C193.028 42.9733 191.468 45.4933 189.452 45.4933C188.876 45.4933 188.468 45.4453 188.468 44.7493C188.468 44.3653 188.612 43.8373 188.756 43.4773C189.572 41.2453 191.108 38.6533 193.028 38.2213C193.46 38.1493 193.724 38.1973 194.012 38.6053C194.276 38.9413 194.348 39.3973 194.348 39.8293C194.348 40.2853 194.324 40.6453 194.276 40.8373L193.412 42.3013ZM211.325 48.3493C213.101 48.3493 215.357 45.2293 217.709 41.2693C219.797 37.7413 222.077 34.4053 223.757 33.8533C224.021 33.7813 224.357 33.8773 224.789 34.1413L224.837 32.6053C224.501 32.5333 224.165 32.4613 223.973 32.4613C221.549 32.4613 219.629 35.7493 217.589 39.2053L216.797 40.5493C214.781 43.9573 212.645 47.5333 211.325 47.5333L211.349 47.5573C211.037 47.5093 210.965 47.1013 210.965 46.6933C210.965 46.1893 211.085 45.5893 211.157 45.3013C211.349 44.3893 211.829 43.2133 212.285 42.0373C213.029 40.0933 213.869 38.0293 213.869 36.1093C213.869 35.5093 213.773 34.9333 213.605 34.4293C213.245 33.3253 212.069 32.5333 210.869 32.5333C208.445 32.5333 206.285 36.4453 206.285 38.6533C206.285 39.0133 206.333 39.3733 206.453 39.7573C206.669 40.3093 207.029 40.7653 207.605 41.0293L208.445 39.4933C207.509 39.4693 207.149 39.0133 207.149 38.3653C207.149 36.7573 208.733 34.2853 210.125 33.5413C210.365 33.4453 210.749 33.3253 210.917 33.3253C211.181 33.3253 211.445 33.4213 211.661 33.6133C212.093 33.9493 212.309 34.5493 212.309 35.3653C212.309 36.6613 211.853 37.8853 211.397 39.0613C210.701 40.8853 209.597 43.8133 209.597 45.8053C209.597 46.5013 209.765 47.1973 210.077 47.7253C210.341 48.1093 210.773 48.3493 211.301 48.3493H211.325ZM224.775 35.8213C224.775 35.2213 224.271 34.7413 223.671 34.7413C223.047 34.7413 222.567 35.2213 222.567 35.8213C222.567 36.3973 223.047 36.8773 223.671 36.8773C224.271 36.8773 224.775 36.3973 224.775 35.8213ZM221.103 46.3813C223.191 46.3813 224.247 44.9653 225.255 43.3093L225.327 43.2133C225.975 42.1093 226.551 41.1493 226.551 41.1493L225.831 40.7653C225.831 40.7653 225.255 41.7493 224.583 42.8533L224.535 42.9493C223.887 44.0293 223.311 44.9413 222.135 45.3973C221.991 45.4693 221.631 45.5173 221.247 45.5173C220.887 45.5173 220.527 45.4693 220.215 45.2053C220.071 45.0613 219.999 44.8933 219.999 44.6773C219.999 43.9093 220.671 42.7573 221.223 41.8933C221.247 41.8693 221.247 41.8453 221.271 41.8213L221.391 41.6533C221.415 41.6293 221.439 41.6053 221.439 41.5813H221.415L223.863 37.5253L222.111 37.2373C222.111 37.2373 219.447 41.6053 219.423 41.6533H219.447C218.751 42.8053 218.439 43.6933 218.439 44.3653C218.439 45.0853 218.751 45.6133 219.303 46.0213C219.831 46.3573 220.599 46.3813 221.103 46.3813ZM227.467 46.3573C228.883 46.3573 230.059 45.4933 230.899 44.5333C230.995 45.6373 231.715 46.3333 232.819 46.3333C232.963 46.3333 233.155 46.3333 233.299 46.2853H233.275C233.947 46.1173 234.931 45.6133 235.843 44.1493C236.803 42.5653 237.643 41.1493 237.643 41.1493L236.923 40.7653C236.923 40.7653 236.083 42.1573 235.123 43.7653C234.379 44.9653 233.611 45.4453 233.107 45.5173C232.435 45.5893 232.147 45.3493 232.147 44.9893C232.147 44.1253 233.083 42.6853 233.275 42.3733L240.379 30.4933L238.627 30.2293L233.179 39.3013C233.011 37.7893 231.715 37.1413 230.299 37.1413C227.899 37.1413 225.403 40.4293 224.995 43.1653C224.755 44.7973 225.355 45.9253 226.579 46.2373C226.867 46.3093 227.179 46.3573 227.467 46.3573ZM231.427 42.3013C231.043 42.9733 229.483 45.4933 227.467 45.4933C226.891 45.4933 226.483 45.4453 226.483 44.7493C226.483 44.3653 226.627 43.8373 226.771 43.4773C227.587 41.2453 229.123 38.6533 231.043 38.2213C231.475 38.1493 231.739 38.1973 232.027 38.6053C232.291 38.9413 232.363 39.3973 232.363 39.8293C232.363 40.2853 232.339 40.6453 232.291 40.8373L231.427 42.3013ZM244.745 40.7413C244.745 40.7413 244.505 41.2453 243.785 42.4453V42.4213L243.497 42.8773C242.201 44.9893 240.713 45.4933 239.681 45.4933C239.201 45.4933 238.841 45.3973 238.673 45.3013V45.3253C238.193 45.0613 237.857 44.4373 237.857 43.5733C237.857 43.1893 237.929 42.6613 238.121 42.1333C238.577 42.3253 239.177 42.4453 239.657 42.4453C241.265 42.4453 243.041 41.2453 243.041 39.5173C243.041 39.1573 242.945 38.7733 242.753 38.4613L242.729 38.3653C241.913 37.4053 241.049 37.2133 240.449 37.2373C239.393 37.3333 238.529 38.0773 238.121 38.7013C238.025 38.8693 237.905 39.0613 237.809 39.2293L237.185 40.2853C236.609 41.2453 236.105 42.2533 236.105 43.4293C236.105 44.7493 236.801 45.6853 238.001 46.2133C238.217 46.3093 238.673 46.4053 239.297 46.4053C240.641 46.4053 242.657 45.8293 244.217 43.2613C244.289 43.1413 244.433 42.9733 244.505 42.8293H244.481C245.225 41.5813 245.417 41.2693 245.417 41.0533L244.745 40.7413ZM238.553 41.2453H238.529L239.825 39.1093C240.113 38.6533 240.737 37.9333 241.337 38.1973C241.409 38.2213 241.553 38.5573 241.553 39.0133C241.553 40.4533 240.281 41.4613 238.913 41.4613C238.745 41.4613 238.577 41.4373 238.457 41.4133L238.553 41.2453ZM246.957 46.6213C248.277 46.6213 249.813 45.7573 250.701 44.8453H250.917C252.045 44.8453 253.125 44.2693 253.893 43.2133C253.893 43.2133 254.013 43.0213 254.085 42.9253L254.157 42.8293H254.133C254.877 41.5813 255.069 41.2693 255.069 41.0533L254.421 40.7653C254.421 40.7653 254.133 41.2453 253.437 42.4453V42.4213L253.221 42.7333C252.597 43.5493 251.973 43.8853 251.397 43.9813C251.757 43.4773 252.069 42.8293 252.333 42.0853C252.573 41.2693 252.669 40.5733 252.669 39.9973C252.669 37.9333 251.253 36.9973 249.333 36.9973C247.293 36.9973 246.213 38.2693 245.205 39.9253C244.317 41.4613 243.837 42.7333 243.837 43.7653C243.837 45.4693 245.349 46.6213 246.957 46.6213ZM249.237 37.7893C250.437 37.7893 251.205 38.4853 251.205 39.6853C251.205 40.9333 250.389 42.7813 249.741 43.7653C248.589 43.1173 247.917 41.5093 247.917 40.2133C247.917 39.1573 248.205 37.7893 249.237 37.7893ZM246.693 41.3653C247.053 42.7093 248.061 43.8613 249.261 44.4373C248.853 44.9413 248.373 45.3733 247.845 45.6133H247.869C247.557 45.7333 247.221 45.8053 246.885 45.8053C245.901 45.8053 245.301 45.3013 245.301 44.2693C245.301 43.3573 245.709 42.3973 246.573 40.9093L246.693 41.3653Z" fill="black" fill-opacity="0.4"/>
</svg>
