<svg width="24" height="24" viewBox="0 0 24 24" fill="none" xmlns="http://www.w3.org/2000/svg">
<path fill-rule="evenodd" clip-rule="evenodd" d="M16.3066 4.41098H20.8032C21.2457 4.41098 21.6032 4.7681 21.6032 5.21012V21.7923C21.6032 22.2344 21.2457 22.5915 20.8032 22.5915H2.40318C1.96068 22.5915 1.60318 22.2344 1.60318 21.7923V5.21012C1.60318 4.7681 1.96068 4.41098 2.40318 4.41098H6.60318V2.8127C6.60318 2.70282 6.69318 2.61292 6.80318 2.61292H7.89326C8.00326 2.61292 8.09326 2.70282 8.09326 2.8127V3.88066V4.41098H14.8032V2.8127C14.8032 2.70282 14.8932 2.61292 15.0032 2.61292H16.1066C16.2166 2.61292 16.3066 2.70282 16.3066 2.8127V3.93354V4.41098ZM3.10145 21.1249H20.1436V5.90367H16.3052V6.88426V7.15473C16.3052 7.21379 16.2804 7.26733 16.2407 7.30536C16.2033 7.34118 16.1528 7.36324 16.0973 7.36324H15.0139C14.8996 7.36324 14.806 7.2694 14.806 7.15473V6.57713V5.90367H8.09809V7.1385C8.09809 7.25318 8.02873 7.33908 7.91442 7.33908L6.80433 7.36324C6.69002 7.36324 6.5965 7.2694 6.5965 7.15473V5.90367H3.10145V21.1249Z" fill="#E9962A"/>
<path d="M10.9606 20C10.7717 20 10.6133 19.936 10.4853 19.808C10.3577 19.6804 10.2939 19.5222 10.2939 19.3333V18.5667C9.79392 18.4556 9.35503 18.2611 8.97725 17.9833C8.59947 17.7056 8.29392 17.3167 8.06058 16.8167C7.98281 16.6611 7.97992 16.4973 8.05192 16.3253C8.12436 16.1529 8.25503 16.0278 8.44392 15.95C8.59947 15.8833 8.76058 15.8862 8.92725 15.9587C9.09392 16.0307 9.22169 16.15 9.31058 16.3167C9.49947 16.65 9.73836 16.9029 10.0273 17.0753C10.3161 17.2473 10.6717 17.3333 11.0939 17.3333C11.5495 17.3333 11.9357 17.2307 12.2526 17.0253C12.569 16.8196 12.7273 16.5 12.7273 16.0667C12.7273 15.6778 12.605 15.3693 12.3606 15.1413C12.1161 14.9138 11.5495 14.6556 10.6606 14.3667C9.70503 14.0667 9.04947 13.7084 8.69392 13.292C8.33836 12.8751 8.16058 12.3667 8.16058 11.7667C8.16058 11.0444 8.39392 10.4833 8.86058 10.0833C9.32725 9.68333 9.80503 9.45556 10.2939 9.4V8.66667C10.2939 8.47778 10.3577 8.31933 10.4853 8.19133C10.6133 8.06378 10.7717 8 10.9606 8C11.1495 8 11.3079 8.06378 11.4359 8.19133C11.5635 8.31933 11.6272 8.47778 11.6272 8.66667V9.4C12.0495 9.46667 12.4161 9.60289 12.7273 9.80867C13.0384 10.014 13.2939 10.2667 13.4939 10.5667C13.5939 10.7111 13.6135 10.8722 13.5526 11.05C13.4913 11.2278 13.3661 11.3556 13.1773 11.4333C13.0217 11.5 12.8606 11.5027 12.6939 11.4413C12.5273 11.3804 12.3717 11.2722 12.2273 11.1167C12.0828 10.9611 11.9135 10.8416 11.7193 10.758C11.5246 10.6749 11.2828 10.6333 10.9939 10.6333C10.505 10.6333 10.1328 10.7418 9.87725 10.9587C9.62169 11.1751 9.49392 11.4444 9.49392 11.7667C9.49392 12.1333 9.66058 12.4222 9.99392 12.6333C10.3273 12.8444 10.905 13.0667 11.7273 13.3C12.4939 13.5222 13.0746 13.8749 13.4693 14.358C13.8635 14.8416 14.0606 15.4 14.0606 16.0333C14.0606 16.8222 13.8273 17.4222 13.3606 17.8333C12.8939 18.2444 12.3161 18.5 11.6272 18.6V19.3333C11.6272 19.5222 11.5635 19.6804 11.4359 19.808C11.3079 19.936 11.1495 20 10.9606 20V20Z" fill="#F09631"/>
</svg>
