<svg width="22" height="22" viewBox="0 0 22 22" fill="none" xmlns="http://www.w3.org/2000/svg">
<path fill-rule="evenodd" clip-rule="evenodd" d="M16.1888 3.1951H20.6902C21.1332 3.1951 21.4911 3.55261 21.4911 3.9951V20.5951C21.4911 21.0376 21.1332 21.3951 20.6902 21.3951H2.27046C1.82749 21.3951 1.4696 21.0376 1.4696 20.5951V3.9951C1.4696 3.55261 1.82749 3.1951 2.27046 3.1951H6.47498V1.59511C6.47498 1.48511 6.56507 1.39511 6.67519 1.39511H7.76644C7.87656 1.39511 7.96666 1.48511 7.96666 1.59511V2.66421V3.1951H14.6838V1.59511C14.6838 1.48511 14.7739 1.39511 14.884 1.39511H15.9886C16.0987 1.39511 16.1888 1.48511 16.1888 1.59511V2.71715V3.1951ZM2.96948 19.9269H20.0299V4.68941H16.1874V5.67104V5.94181C16.1874 6.00093 16.1626 6.05452 16.1228 6.09259C16.0854 6.12845 16.0349 6.15053 15.9793 6.15053H14.8947C14.7803 6.15053 14.6866 6.0566 14.6866 5.94181V5.36358V4.68941H7.97149V5.92555C7.97149 6.04036 7.90206 6.12636 7.78762 6.12636L6.67634 6.15053C6.56191 6.15053 6.46829 6.0566 6.46829 5.94181V4.68941H2.96948V19.9269Z" fill="#E9962A"/>
<path d="M10.8371 18.8009C10.648 18.8009 10.4893 18.7368 10.3612 18.6087C10.2335 18.481 10.1697 18.3226 10.1697 18.1335V17.366C9.66913 17.2548 9.22977 17.0601 8.85159 16.7821C8.47341 16.504 8.16752 16.1147 7.93394 15.6141C7.85608 15.4584 7.85319 15.2945 7.92526 15.1223C7.99779 14.9496 8.12859 14.8244 8.31768 14.7465C8.47341 14.6798 8.63469 14.6827 8.80154 14.7552C8.96838 14.8273 9.0963 14.9467 9.18528 15.1136C9.37437 15.4473 9.61352 15.7004 9.90272 15.8731C10.1919 16.0453 10.5479 16.1314 10.9705 16.1314C11.4266 16.1314 11.8132 16.0286 12.1304 15.823C12.4472 15.617 12.6056 15.2971 12.6056 14.8633C12.6056 14.474 12.4833 14.1652 12.2386 13.937C11.9939 13.7092 11.4266 13.4507 10.5367 13.1615C9.58015 12.8612 8.92389 12.5026 8.56795 12.0857C8.21202 11.6683 8.03405 11.1594 8.03405 10.5587C8.03405 9.83571 8.26763 9.274 8.7348 8.87357C9.20197 8.47314 9.68026 8.24511 10.1697 8.1895V7.45538C10.1697 7.26629 10.2335 7.10767 10.3612 6.97953C10.4893 6.85184 10.648 6.78799 10.8371 6.78799C11.0261 6.78799 11.1848 6.85184 11.3129 6.97953C11.4406 7.10767 11.5044 7.26629 11.5044 7.45538V8.1895C11.9271 8.25624 12.2942 8.3926 12.6056 8.5986C12.9171 8.80416 13.1729 9.0571 13.3731 9.35742C13.4732 9.50202 13.4928 9.6633 13.4318 9.84127C13.3704 10.0192 13.2452 10.1472 13.0561 10.225C12.9004 10.2918 12.7391 10.2944 12.5722 10.233C12.4054 10.1721 12.2497 10.0637 12.1051 9.90801C11.9605 9.75229 11.791 9.6326 11.5965 9.54896C11.4017 9.46576 11.1596 9.42416 10.8704 9.42416C10.381 9.42416 10.0084 9.53272 9.75256 9.74984C9.49673 9.96652 9.36881 10.2361 9.36881 10.5587C9.36881 10.9258 9.53566 11.215 9.86935 11.4263C10.203 11.6376 10.7814 11.8601 11.6045 12.0937C12.372 12.3161 12.9533 12.6692 13.3484 13.1528C13.7431 13.6369 13.9404 14.1959 13.9404 14.83C13.9404 15.6197 13.7068 16.2203 13.2396 16.6319C12.7725 17.0434 12.1941 17.2993 11.5044 17.3994V18.1335C11.5044 18.3226 11.4406 18.481 11.3129 18.6087C11.1848 18.7368 11.0261 18.8009 10.8371 18.8009V18.8009Z" fill="#F09631"/>
</svg>
