<svg width="22" height="22" viewBox="0 0 22 22" fill="none"
    xmlns="http://www.w3.org/2000/svg">
    <path d="M10.8333 15.8333C11.1166 15.8333 11.3543 15.7373 11.5463 15.5453C11.7376 15.354 11.8333 15.1167 11.8333 14.8333V11.8333H14.8583C15.1416 11.8333 15.375 11.7373 15.5583 11.5453C15.7416 11.354 15.8333 11.1167 15.8333 10.8333C15.8333 10.55 15.7373 10.3123 15.5453 10.1203C15.354 9.92901 15.1166 9.83334 14.8333 9.83334H11.8333V6.80834C11.8333 6.52501 11.7376 6.29168 11.5463 6.10834C11.3543 5.92501 11.1166 5.83334 10.8333 5.83334C10.55 5.83334 10.3126 5.92901 10.1213 6.12034C9.92931 6.31234 9.83331 6.55001 9.83331 6.83334V9.83334H6.80831C6.52498 9.83334 6.29165 9.92901 6.10831 10.1203C5.92498 10.3123 5.83331 10.55 5.83331 10.8333C5.83331 11.1167 5.92898 11.354 6.12031 11.5453C6.31231 11.7373 6.54998 11.8333 6.83331 11.8333H9.83331V14.8583C9.83331 15.1417 9.92931 15.375 10.1213 15.5583C10.3126 15.7417 10.55 15.8333 10.8333 15.8333V15.8333ZM10.8333 20.8333C9.44998 20.8333 8.14998 20.5707 6.93331 20.0453C5.71665 19.5207 4.65831 18.8083 3.75831 17.9083C2.85831 17.0083 2.14598 15.95 1.62131 14.7333C1.09598 13.5167 0.833313 12.2167 0.833313 10.8333C0.833313 9.45001 1.09598 8.15001 1.62131 6.93334C2.14598 5.71668 2.85831 4.65834 3.75831 3.75834C4.65831 2.85834 5.71665 2.14568 6.93331 1.62034C8.14998 1.09568 9.44998 0.833344 10.8333 0.833344C12.2166 0.833344 13.5166 1.09568 14.7333 1.62034C15.95 2.14568 17.0083 2.85834 17.9083 3.75834C18.8083 4.65834 19.5206 5.71668 20.0453 6.93334C20.5706 8.15001 20.8333 9.45001 20.8333 10.8333C20.8333 12.2167 20.5706 13.5167 20.0453 14.7333C19.5206 15.95 18.8083 17.0083 17.9083 17.9083C17.0083 18.8083 15.95 19.5207 14.7333 20.0453C13.5166 20.5707 12.2166 20.8333 10.8333 20.8333ZM10.8333 18.8333C13.05 18.8333 14.9376 18.0543 16.4963 16.4963C18.0543 14.9377 18.8333 13.05 18.8333 10.8333C18.8333 8.61668 18.0543 6.72901 16.4963 5.17034C14.9376 3.61234 13.05 2.83334 10.8333 2.83334C8.61665 2.83334 6.72931 3.61234 5.17131 5.17034C3.61265 6.72901 2.83331 8.61668 2.83331 10.8333C2.83331 13.05 3.61265 14.9377 5.17131 16.4963C6.72931 18.0543 8.61665 18.8333 10.8333 18.8333Z" fill="#FFBA55"/>
</svg>
