<svg width="22" height="22" viewBox="0 0 22 22" fill="none" xmlns="http://www.w3.org/2000/svg">
<path fill-rule="evenodd" clip-rule="evenodd" d="M10.6245 1.83334C7.03449 1.83334 4.1245 4.74333 4.1245 8.33331C4.1245 11.0353 5.77349 13.3528 8.11998 14.3333H8.12498V14.3353C8.91712 14.6652 9.76689 14.8345 10.625 14.8333C11.4831 14.8343 12.3329 14.6649 13.125 14.3348V14.3333H13.129C15.4755 13.3528 17.1244 11.0353 17.1244 8.33331C17.1244 4.74333 14.2145 1.83334 10.6245 1.83334ZM14.125 14.9683C16.5034 13.7098 18.1249 11.2108 18.1249 8.33331C18.1249 4.19133 14.767 0.833344 10.625 0.833344C6.48299 0.833344 3.125 4.19133 3.125 8.33331C3.125 11.2113 4.74649 13.7113 7.12548 14.9683V20.3333C7.12547 20.4238 7.15003 20.5126 7.19655 20.5903C7.24306 20.6679 7.30979 20.7315 7.3896 20.7742C7.46942 20.8169 7.55933 20.8371 7.64974 20.8328C7.74016 20.8284 7.82768 20.7995 7.90298 20.7493L10.625 18.9343L13.3475 20.7493C13.4228 20.7995 13.5103 20.8284 13.6007 20.8328C13.6911 20.8371 13.781 20.8169 13.8608 20.7742C13.9407 20.7315 14.0074 20.6679 14.0539 20.5903C14.1004 20.5126 14.125 20.4238 14.125 20.3333V14.9683ZM13.125 15.4063C12.322 15.6897 11.4765 15.8341 10.625 15.8333C9.74848 15.8333 8.90748 15.6833 8.12548 15.4068V19.3993L10.348 17.9173C10.4301 17.8625 10.5267 17.8332 10.6255 17.8332C10.7242 17.8332 10.8208 17.8625 10.903 17.9173L13.125 19.3993V15.4063ZM10.625 4.83333C10.1653 4.83333 9.71022 4.92386 9.28558 5.09975C8.86095 5.27564 8.47511 5.53345 8.15011 5.85845C7.8251 6.18345 7.5673 6.56929 7.39141 6.99393C7.21551 7.41857 7.12498 7.87369 7.12498 8.33331C7.12498 8.79294 7.21551 9.24806 7.39141 9.6727C7.5673 10.0973 7.8251 10.4832 8.15011 10.8082C8.47511 11.1332 8.86095 11.391 9.28558 11.5669C9.71022 11.7428 10.1653 11.8333 10.625 11.8333C11.5532 11.8333 12.4435 11.4646 13.0998 10.8082C13.7562 10.1518 14.125 9.26157 14.125 8.33331C14.125 7.40506 13.7562 6.51483 13.0998 5.85845C12.4435 5.20208 11.5532 4.83333 10.625 4.83333ZM6.12499 8.33331C6.12499 7.13985 6.59909 5.99526 7.443 5.15135C8.28691 4.30744 9.4315 3.83333 10.625 3.83333C11.8184 3.83333 12.963 4.30744 13.8069 5.15135C14.6509 5.99526 15.125 7.13985 15.125 8.33331C15.125 9.52678 14.6509 10.6714 13.8069 11.5153C12.963 12.3592 11.8184 12.8333 10.625 12.8333C9.4315 12.8333 8.28691 12.3592 7.443 11.5153C6.59909 10.6714 6.12499 9.52678 6.12499 8.33331Z" fill="black"/>
</svg>
