<svg width="22" height="22" viewBox="0 0 22 22" fill="none" xmlns="http://www.w3.org/2000/svg">
<g clip-path="url(#clip0_151_162)">
<path d="M0.900898 5.70552H20.7021M3.20215 0.702393H18.2021C18.8652 0.702393 19.5011 0.965949 19.9699 1.43508C20.4388 1.90422 20.7021 2.5405 20.7021 3.20396V18.2008C20.7021 18.8643 20.4388 19.5006 19.9699 19.9697C19.5011 20.4388 18.8652 20.7024 18.2021 20.7024H3.20215C2.53911 20.7024 1.90322 20.4388 1.43438 19.9697C0.96554 19.5006 0.702148 18.8643 0.702148 18.2008V3.20396C0.702148 2.5405 0.96554 1.90422 1.43438 1.43508C1.90322 0.965949 2.53911 0.702393 3.20215 0.702393V0.702393Z" stroke="#E9962A" stroke-width="1.3" stroke-linecap="round" stroke-linejoin="round"/>
<path fill-rule="evenodd" clip-rule="evenodd" d="M6.0969 14.0295V12.6799H7.1969C8.0319 12.6799 8.5994 12.1858 8.5994 11.4641C8.5994 10.8049 8.08065 10.3046 7.22065 10.3046C6.3294 10.3046 5.78065 10.7624 5.7194 11.5504H4.0144C4.07815 9.92564 5.32815 8.83246 7.3119 8.83246C9.26565 8.83246 10.3519 9.91313 10.3457 11.2027C10.3394 12.2709 9.66815 12.9738 8.7219 13.2052V13.3215C9.94815 13.4979 10.6932 14.2796 10.6932 15.4591C10.6932 17.0038 9.24065 18.0983 7.25065 18.0983C5.26065 18.0983 3.90565 17.0088 3.8269 15.3415H5.59065C5.64565 16.087 6.28065 16.5635 7.2269 16.5635C8.16065 16.5635 8.8144 16.0557 8.8144 15.2927C8.8144 14.511 8.20315 14.0295 7.2144 14.0295H6.0969ZM14.4719 17.8719V10.8537H14.3632L12.2019 12.3447V10.6286L14.4782 9.05885H16.3157V17.8719H14.4719Z" fill="#E9962A"/>
</g>
<defs>
<clipPath id="clip0_151_162">
<rect width="22" height="22" fill="white"/>
</clipPath>
</defs>
</svg>
