<svg width="24" height="24" viewBox="0 0 24 24" fill="none" xmlns="http://www.w3.org/2000/svg">
<path d="M2.05568 6.85718H21.8569M4.35693 1.85718H19.3569C20.02 1.85718 20.6559 2.12057 21.1247 2.58941C21.5935 3.05825 21.8569 3.69414 21.8569 4.35718V19.3447C21.8569 20.0077 21.5935 20.6436 21.1247 21.1124C20.6559 21.5813 20.02 21.8447 19.3569 21.8447H4.35693C3.69389 21.8447 3.05801 21.5813 2.58917 21.1124C2.12033 20.6436 1.85693 20.0077 1.85693 19.3447V4.35718C1.85693 3.69414 2.12033 3.05825 2.58917 2.58941C3.05801 2.12057 3.69389 1.85718 4.35693 1.85718V1.85718Z" stroke="#E9962A" stroke-width="1.5" stroke-linecap="round" stroke-linejoin="round"/>
<path fill-rule="evenodd" clip-rule="evenodd" d="M7.25169 15.1759V13.8272H8.35169C9.18669 13.8272 9.75419 13.3334 9.75419 12.6122C9.75419 11.9534 9.23544 11.4534 8.37544 11.4534C7.48419 11.4534 6.93544 11.9109 6.87419 12.6984H5.16919C5.23294 11.0747 6.48294 9.98218 8.46669 9.98218C10.4204 9.98218 11.5067 11.0622 11.5004 12.3509C11.4942 13.4184 10.8229 14.1209 9.87669 14.3522V14.4684C11.1029 14.6447 11.8479 15.4259 11.8479 16.6047C11.8479 18.1484 10.3954 19.2422 8.40544 19.2422C6.41544 19.2422 5.06044 18.1534 4.98169 16.4872H6.74544C6.80044 17.2322 7.43544 17.7084 8.38169 17.7084C9.31544 17.7084 9.96919 17.2009 9.96919 16.4384C9.96919 15.6572 9.35794 15.1759 8.36919 15.1759H7.25169ZM15.6267 19.0159V12.0022H15.5179L13.3567 13.4922V11.7772L15.6329 10.2084H17.4704V19.0159H15.6267Z" fill="#E9962A"/>
</svg>
