<svg width="22" height="22" viewBox="0 0 22 22" fill="none" xmlns="http://www.w3.org/2000/svg">
<path d="M14.3875 15.2706L16.1097 13.5484C16.3417 13.3193 16.6352 13.1625 16.9545 13.097C17.2739 13.0315 17.6054 13.0601 17.9088 13.1794L20.0077 14.0174C20.3143 14.1419 20.5773 14.3543 20.7633 14.6279C20.9494 14.9016 21.0503 15.2242 21.0533 15.5551V19.3993C21.0516 19.6244 21.0042 19.8468 20.9142 20.0531C20.8242 20.2594 20.6934 20.4454 20.5296 20.5999C20.3659 20.7543 20.1725 20.874 19.9613 20.9517C19.75 21.0295 19.5252 21.0637 19.3004 21.0523C4.59255 20.1373 1.62483 7.68219 1.06358 2.9154C1.03753 2.68132 1.06133 2.44437 1.13343 2.22015C1.20553 1.99592 1.32428 1.78951 1.48188 1.61448C1.63948 1.43945 1.83236 1.29977 2.04782 1.20463C2.26328 1.10949 2.49644 1.06106 2.73196 1.0625H6.44544C6.77682 1.06348 7.10032 1.16358 7.37435 1.34991C7.64837 1.53625 7.86039 1.80031 7.98312 2.10812L8.82115 4.20704C8.94436 4.50925 8.97579 4.84106 8.91152 5.16103C8.84726 5.48099 8.69014 5.77493 8.4598 6.00612L6.7376 7.72832C6.7376 7.72832 7.7294 14.4403 14.3875 15.2706Z" fill="#565656"/>
</svg>
