<svg width="22" height="22" viewBox="0 0 22 22" fill="none" xmlns="http://www.w3.org/2000/svg">
<path d="M13.9769 14.7675L15.5169 13.2275C15.7243 13.0227 15.9867 12.8824 16.2723 12.8238C16.5579 12.7653 16.8543 12.7909 17.1256 12.8975L19.0025 13.6469C19.2767 13.7582 19.5118 13.9481 19.6782 14.1928C19.8446 14.4375 19.9348 14.726 19.9375 15.0219V18.4594C19.9359 18.6607 19.8936 18.8595 19.8131 19.044C19.7326 19.2285 19.6156 19.3948 19.4692 19.5329C19.3227 19.671 19.1499 19.7781 18.961 19.8476C18.7721 19.9171 18.571 19.9477 18.37 19.9375C5.21813 19.1194 2.56438 7.98187 2.0625 3.71937C2.0392 3.51005 2.06049 3.29817 2.12496 3.09767C2.18943 2.89717 2.29562 2.71259 2.43655 2.55608C2.57747 2.39956 2.74994 2.27466 2.94261 2.18959C3.13527 2.10452 3.34377 2.06121 3.55438 2.0625H6.875C7.17132 2.06337 7.4606 2.15288 7.70563 2.31951C7.95067 2.48613 8.14025 2.72225 8.25 2.9975L8.99937 4.87437C9.10955 5.14461 9.13766 5.44131 9.08019 5.72743C9.02272 6.01355 8.88223 6.27639 8.67625 6.48312L7.13625 8.02312C7.13625 8.02312 8.02312 14.025 13.9769 14.7675Z" fill="#565656"/>
</svg>
