<svg width="24" height="24" viewBox="0 0 24 24" fill="none"
    xmlns="http://www.w3.org/2000/svg">
    <path d="M10.4285 11.4999C10.4285 11.784 10.5413 12.0566 10.7423 12.2575C10.9432 12.4584 11.2157 12.5713 11.4999 12.5713C11.784 12.5713 12.0566 12.4584 12.2575 12.2575C12.4584 12.0566 12.5713 11.784 12.5713 11.4999C12.5713 11.2157 12.4584 10.9432 12.2575 10.7423C12.0566 10.5413 11.784 10.4285 11.4999 10.4285C11.2157 10.4285 10.9432 10.5413 10.7423 10.7423C10.5413 10.9432 10.4285 11.2157 10.4285 11.4999V11.4999ZM14.8927 11.4999C14.8927 11.784 15.0056 12.0566 15.2065 12.2575C15.4074 12.4584 15.68 12.5713 15.9641 12.5713C16.2483 12.5713 16.5208 12.4584 16.7217 12.2575C16.9226 12.0566 17.0355 11.784 17.0355 11.4999C17.0355 11.2157 16.9226 10.9432 16.7217 10.7423C16.5208 10.5413 16.2483 10.4285 15.9641 10.4285C15.68 10.4285 15.4074 10.5413 15.2065 10.7423C15.0056 10.9432 14.8927 11.2157 14.8927 11.4999ZM5.96423 11.4999C5.96423 11.784 6.07712 12.0566 6.27804 12.2575C6.47897 12.4584 6.75149 12.5713 7.03565 12.5713C7.31981 12.5713 7.59233 12.4584 7.79325 12.2575C7.99418 12.0566 8.10706 11.784 8.10706 11.4999C8.10706 11.2157 7.99418 10.9432 7.79325 10.7423C7.59233 10.5413 7.31981 10.4285 7.03565 10.4285C6.75149 10.4285 6.47897 10.5413 6.27804 10.7423C6.07712 10.9432 5.96423 11.2157 5.96423 11.4999V11.4999ZM20.723 7.62492C20.2185 6.42628 19.4953 5.3504 18.5735 4.4263C17.658 3.50756 16.5713 2.77726 15.3748 2.27678C14.1472 1.76116 12.8436 1.5 11.4999 1.5H11.4552C10.1026 1.5067 8.79232 1.77455 7.5602 2.30133C6.37396 2.80695 5.29742 3.53854 4.39059 4.45532C3.47766 5.37718 2.76115 6.4486 2.26562 7.64278C1.75223 8.87937 1.49331 10.1941 1.5 11.5467C1.50758 13.0969 1.87431 14.6242 2.57142 16.0087V19.4016C2.57142 19.6739 2.6796 19.935 2.87215 20.1276C3.06471 20.3202 3.32588 20.4283 3.59819 20.4283H6.99324C8.37781 21.1254 9.9051 21.4922 11.4552 21.4998H11.5021C12.8391 21.4998 14.136 21.2408 15.357 20.7341C16.5474 20.2396 17.6301 19.5178 18.5444 18.6092C19.4663 17.6962 20.1917 16.6293 20.6984 15.4396C21.2252 14.2074 21.4931 12.8972 21.4998 11.5445C21.5065 10.1852 21.2431 8.86598 20.723 7.62492V7.62492ZM17.3503 17.4016C15.7855 18.9507 13.7097 19.8033 11.4999 19.8033H11.4619C10.116 19.7966 8.77893 19.4618 7.59814 18.8324L7.41064 18.7319H4.26783V15.5891L4.16738 15.4016C3.53793 14.2208 3.20311 12.8838 3.19641 11.5378C3.18748 9.3124 4.03792 7.22314 5.59817 5.6495C7.15618 4.07586 9.23875 3.20534 11.4642 3.19641H11.5021C12.6182 3.19641 13.7007 3.41292 14.7208 3.84149C15.7163 4.25889 16.6092 4.85933 17.377 5.62718C18.1427 6.3928 18.7453 7.28787 19.1627 8.2834C19.5958 9.31463 19.8123 10.4084 19.8078 11.5378C19.7944 13.761 18.9217 15.8436 17.3503 17.4016V17.4016Z" fill="#F1AE4A"/>
</svg>
