<svg width="22" height="22" viewBox="0 0 22 22" fill="none" xmlns="http://www.w3.org/2000/svg">
<path d="M10.3036 11.375C10.3036 11.6592 10.4165 11.9317 10.6174 12.1326C10.8183 12.3335 11.0908 12.4464 11.375 12.4464C11.6592 12.4464 11.9317 12.3335 12.1326 12.1326C12.3335 11.9317 12.4464 11.6592 12.4464 11.375C12.4464 11.0908 12.3335 10.8183 12.1326 10.6174C11.9317 10.4165 11.6592 10.3036 11.375 10.3036C11.0908 10.3036 10.8183 10.4165 10.6174 10.6174C10.4165 10.8183 10.3036 11.0908 10.3036 11.375V11.375ZM14.7679 11.375C14.7679 11.6592 14.8807 11.9317 15.0817 12.1326C15.2826 12.3335 15.5551 12.4464 15.8393 12.4464C16.1234 12.4464 16.396 12.3335 16.5969 12.1326C16.7978 11.9317 16.9107 11.6592 16.9107 11.375C16.9107 11.0908 16.7978 10.8183 16.5969 10.6174C16.396 10.4165 16.1234 10.3036 15.8393 10.3036C15.5551 10.3036 15.2826 10.4165 15.0817 10.6174C14.8807 10.8183 14.7679 11.0908 14.7679 11.375ZM5.83929 11.375C5.83929 11.6592 5.95217 11.9317 6.1531 12.1326C6.35404 12.3335 6.62656 12.4464 6.91072 12.4464C7.19488 12.4464 7.4674 12.3335 7.66833 12.1326C7.86926 11.9317 7.98215 11.6592 7.98215 11.375C7.98215 11.0908 7.86926 10.8183 7.66833 10.6174C7.4674 10.4165 7.19488 10.3036 6.91072 10.3036C6.62656 10.3036 6.35404 10.4165 6.1531 10.6174C5.95217 10.8183 5.83929 11.0908 5.83929 11.375V11.375ZM20.5982 7.5C20.0938 6.30134 19.3705 5.22545 18.4487 4.30134C17.5332 3.38258 16.4465 2.65228 15.25 2.15179C14.0223 1.63616 12.7188 1.375 11.375 1.375H11.3304C9.97768 1.3817 8.66741 1.64955 7.43527 2.17634C6.24902 2.68197 5.17247 3.41357 4.26563 4.33036C3.35268 5.25223 2.63617 6.32366 2.14063 7.51786C1.62724 8.75446 1.36831 10.0692 1.375 11.4219C1.38258 12.972 1.74932 14.4993 2.44643 15.8839V19.2768C2.44643 19.5491 2.55461 19.8103 2.74717 20.0028C2.93973 20.1954 3.2009 20.3036 3.47322 20.3036H6.86831C8.25289 21.0007 9.7802 21.3674 11.3304 21.375H11.3772C12.7143 21.375 14.0112 21.1161 15.2321 20.6094C16.4226 20.1148 17.5053 19.3931 18.4196 18.4844C19.3415 17.5714 20.067 16.5045 20.5737 15.3147C21.1004 14.0826 21.3683 12.7723 21.375 11.4196C21.3817 10.0603 21.1183 8.74107 20.5982 7.5V7.5ZM17.2254 17.2768C15.6607 18.8259 13.5848 19.6786 11.375 19.6786H11.3371C9.99108 19.6719 8.65402 19.3371 7.47322 18.7076L7.28572 18.6071H4.14286V15.4643L4.04242 15.2768C3.41295 14.096 3.07813 12.7589 3.07143 11.4129C3.0625 9.1875 3.91295 7.09821 5.47322 5.52455C7.03125 3.95089 9.11384 3.08036 11.3393 3.07143H11.3772C12.4933 3.07143 13.5759 3.28795 14.596 3.71652C15.5915 4.13393 16.4844 4.73437 17.2522 5.50223C18.0179 6.26786 18.6205 7.16295 19.0379 8.15848C19.471 9.18973 19.6875 10.2835 19.683 11.4129C19.6696 13.6362 18.7969 15.7188 17.2254 17.2768V17.2768Z" fill="#E38B29"/>
</svg>
