<svg width="24" height="24" viewBox="0 0 24 24" fill="none" xmlns="http://www.w3.org/2000/svg">
<path d="M6 16.4729C6.21143 18.8543 8.16143 20.5443 11.13 20.7629V22.5H12.62V20.7629C15.8629 20.5071 17.8743 18.7086 17.8743 16.0486C17.8743 13.7771 16.5214 12.4629 13.6514 11.7229L12.62 11.4557V6.02429C14.2229 6.18143 15.3043 7.04429 15.5771 8.33286H17.6771C17.44 6.04714 15.4771 4.40714 12.62 4.22571V2.5H11.13V4.26143C8.36 4.59 6.45857 6.36429 6.45857 8.77C6.45857 10.8471 7.83857 12.3171 10.26 12.9371L11.1314 13.1686V18.9271C9.49 18.6843 8.36 17.7843 8.08714 16.4729H6V16.4729ZM10.8443 10.9929C9.35429 10.6171 8.55857 9.81429 8.55857 8.68429C8.55857 7.33571 9.56429 6.34 11.13 6.07286V11.0657L10.8443 10.9943V10.9929ZM13.1171 13.6671C14.9557 14.1286 15.7629 14.8943 15.7629 16.1943C15.7629 17.7614 14.5829 18.8057 12.62 18.9643V13.5429L13.1171 13.6657V13.6671Z" fill="#E9962A"/>
</svg>
