<svg width="22" height="22" viewBox="0 0 22 22" fill="none" xmlns="http://www.w3.org/2000/svg">
<path d="M5.5 15.2645C5.71143 17.6459 7.66143 19.3359 10.63 19.5545V21.2917H12.12V19.5545C15.3629 19.2988 17.3743 17.5002 17.3743 14.8402C17.3743 12.5688 16.0214 11.2545 13.1514 10.5145L12.12 10.2474V4.81594C13.7229 4.97309 14.8043 5.83594 15.0771 7.12451H17.1771C16.94 4.8388 14.9771 3.1988 12.12 3.01737V1.29166H10.63V3.05309C7.86 3.38166 5.95857 5.15594 5.95857 7.56166C5.95857 9.6388 7.33857 11.1088 9.76 11.7288L10.6314 11.9602V17.7188C8.99 17.4759 7.86 16.5759 7.58714 15.2645H5.5V15.2645ZM10.3443 9.78451C8.85428 9.4088 8.05857 8.60594 8.05857 7.47594C8.05857 6.12737 9.06429 5.13166 10.63 4.86451V9.85737L10.3443 9.78594V9.78451ZM12.6171 12.4588C14.4557 12.9202 15.2629 13.6859 15.2629 14.9859C15.2629 16.5531 14.0829 17.5974 12.12 17.7559V12.3345L12.6171 12.4574V12.4588Z" fill="#E9962A"/>
</svg>
