<svg width="22" height="22" viewBox="0 0 22 22" fill="none" xmlns="http://www.w3.org/2000/svg">
<path d="M2.69884 20.9104C2.16291 20.9104 1.70396 20.7194 1.32199 20.3375C0.940662 19.9561 0.75 19.4975 0.75 18.9616V5.31969C0.75 4.78376 0.940662 4.3248 1.32199 3.94283C1.70396 3.56151 2.16291 3.37084 2.69884 3.37084H11.3956L9.44671 5.31969H2.69884V18.9616H16.3407V12.1894L18.2896 10.2405V18.9616C18.2896 19.4975 18.0989 19.9561 17.7176 20.3375C17.3356 20.7194 16.8767 20.9104 16.3407 20.9104H2.69884ZM13.588 3.93114L14.9766 5.29533L8.54537 11.7265V13.1151H9.90956L16.3651 6.65952L17.7537 8.02371L10.7378 15.0639H6.59653V10.9226L13.588 3.93114ZM17.7537 8.02371L13.588 3.93114L16.0241 1.49508C16.4138 1.10532 16.8809 0.910431 17.4253 0.910431C17.969 0.910431 18.4276 1.10532 18.8012 1.49508L20.1653 2.88363C20.5389 3.25716 20.7256 3.71189 20.7256 4.24782C20.7256 4.78376 20.5389 5.23849 20.1653 5.61201L17.7537 8.02371Z" fill="black"/>
</svg>
