<svg width="22" height="24" viewBox="0 0 22 24" fill="none" xmlns="http://www.w3.org/2000/svg">
<path d="M10.4499 3.64999C9.99403 3.64999 9.55686 3.84754 9.23453 4.19917C8.9122 4.5508 8.73112 5.02771 8.73112 5.52499C8.73112 6.02227 8.9122 6.49919 9.23453 6.85082C9.55686 7.20245 9.99403 7.39999 10.4499 7.39999C10.9057 7.39999 11.3429 7.20245 11.6652 6.85082C11.9875 6.49919 12.1686 6.02227 12.1686 5.52499C12.1686 5.02771 11.9875 4.5508 11.6652 4.19917C11.3429 3.84754 10.9057 3.64999 10.4499 3.64999ZM7.58529 5.52499C7.58529 4.69619 7.88709 3.90134 8.4243 3.31529C8.96152 2.72923 9.69014 2.39999 10.4499 2.39999C11.2096 2.39999 11.9382 2.72923 12.4754 3.31529C13.0127 3.90134 13.3145 4.69619 13.3145 5.52499C13.3145 6.3538 13.0127 7.14865 12.4754 7.7347C11.9382 8.32075 11.2096 8.64999 10.4499 8.64999C9.69014 8.64999 8.96152 8.32075 8.4243 7.7347C7.88709 7.14865 7.58529 6.3538 7.58529 5.52499ZM16.752 4.89999C16.4481 4.89999 16.1566 5.03169 15.9417 5.26611C15.7268 5.50053 15.6061 5.81847 15.6061 6.14999C15.6061 6.48151 15.7268 6.79946 15.9417 7.03388C16.1566 7.2683 16.4481 7.39999 16.752 7.39999C17.0558 7.39999 17.3473 7.2683 17.5622 7.03388C17.7771 6.79946 17.8978 6.48151 17.8978 6.14999C17.8978 5.81847 17.7771 5.50053 17.5622 5.26611C17.3473 5.03169 17.0558 4.89999 16.752 4.89999ZM14.4603 6.14999C14.4603 5.48695 14.7017 4.85107 15.1315 4.38223C15.5613 3.91339 16.1442 3.64999 16.752 3.64999C17.3597 3.64999 17.9426 3.91339 18.3724 4.38223C18.8022 4.85107 19.0436 5.48695 19.0436 6.14999C19.0436 6.81304 18.8022 7.44892 18.3724 7.91776C17.9426 8.3866 17.3597 8.64999 16.752 8.64999C16.1442 8.64999 15.5613 8.3866 15.1315 7.91776C14.7017 7.44892 14.4603 6.81304 14.4603 6.14999ZM3.00195 6.14999C3.00195 5.81847 3.12267 5.50053 3.33756 5.26611C3.55245 5.03169 3.84389 4.89999 4.14779 4.89999C4.45168 4.89999 4.74313 5.03169 4.95801 5.26611C5.1729 5.50053 5.29362 5.81847 5.29362 6.14999C5.29362 6.48151 5.1729 6.79946 4.95801 7.03388C4.74313 7.2683 4.45168 7.39999 4.14779 7.39999C3.84389 7.39999 3.55245 7.2683 3.33756 7.03388C3.12267 6.79946 3.00195 6.48151 3.00195 6.14999ZM4.14779 3.64999C3.54 3.64999 2.9571 3.91339 2.52733 4.38223C2.09756 4.85107 1.85612 5.48695 1.85612 6.14999C1.85612 6.81304 2.09756 7.44892 2.52733 7.91776C2.9571 8.3866 3.54 8.64999 4.14779 8.64999C4.75557 8.64999 5.33847 8.3866 5.76824 7.91776C6.19801 7.44892 6.43945 6.81304 6.43945 6.14999C6.43945 5.48695 6.19801 4.85107 5.76824 4.38223C5.33847 3.91339 4.75557 3.64999 4.14779 3.64999ZM4.83529 18.6475C4.52503 18.6644 4.21486 18.6124 3.92361 18.4945C3.63237 18.3767 3.36613 18.1954 3.14107 17.9618C2.91602 17.7282 2.73685 17.4472 2.61444 17.1357C2.49204 16.8242 2.42896 16.4889 2.42904 16.15V11.4625C2.42904 11.3796 2.45922 11.3001 2.51294 11.2415C2.56666 11.1829 2.63952 11.15 2.71549 11.15H4.73674C4.78258 10.6912 4.93154 10.265 5.15497 9.89999H2.71549C1.92487 9.89999 1.2832 10.6 1.2832 11.4625V16.15C1.28315 16.6851 1.38809 17.2141 1.59098 17.7013C1.79386 18.1886 2.08999 18.6228 2.45946 18.9748C2.82894 19.3269 3.2632 19.5885 3.73307 19.7423C4.20294 19.896 4.69753 19.9383 5.18362 19.8662C5.0294 19.4741 4.91267 19.0657 4.83529 18.6475ZM15.7161 19.8662C16.2022 19.9383 16.6968 19.896 17.1667 19.7423C17.6365 19.5885 18.0708 19.3269 18.4403 18.9748C18.8098 18.6228 19.1059 18.1886 19.3088 17.7013C19.5116 17.2141 19.6166 16.6851 19.6165 16.15V11.4625C19.6165 10.6 18.9749 9.89999 18.1842 9.89999H15.7448C15.9693 10.265 16.1172 10.6912 16.163 11.15H18.1842C18.2602 11.15 18.3331 11.1829 18.3868 11.2415C18.4405 11.3001 18.4707 11.3796 18.4707 11.4625V16.15C18.4708 16.4889 18.4077 16.8242 18.2853 17.1357C18.1629 17.4472 17.9837 17.7282 17.7587 17.9618C17.5336 18.1954 17.2674 18.3767 16.9761 18.4945C16.6849 18.6124 16.3747 18.6644 16.0645 18.6475C15.987 19.0657 15.8703 19.4741 15.7161 19.8662ZM7.29883 9.89999C6.5082 9.89999 5.86654 10.6 5.86654 11.4625V17.4C5.86654 18.7261 6.34942 19.9978 7.20896 20.9355C8.06851 21.8732 9.23429 22.4 10.4499 22.4C11.6654 22.4 12.8312 21.8732 13.6908 20.9355C14.5503 19.9978 15.0332 18.7261 15.0332 17.4V11.4625C15.0332 10.6 14.3915 9.89999 13.6009 9.89999H7.29883ZM7.01237 11.4625C7.01237 11.3796 7.04255 11.3001 7.09627 11.2415C7.14999 11.1829 7.22286 11.15 7.29883 11.15H13.6009C13.6769 11.15 13.7497 11.1829 13.8035 11.2415C13.8572 11.3001 13.8874 11.3796 13.8874 11.4625V17.4C13.8874 18.3946 13.5252 19.3484 12.8806 20.0516C12.2359 20.7549 11.3616 21.15 10.4499 21.15C9.53819 21.15 8.66385 20.7549 8.01919 20.0516C7.37453 19.3484 7.01237 18.3946 7.01237 17.4V11.4625Z" fill="#E9962A"/>
</svg>
