<svg width="24" height="24" viewBox="0 0 24 24" fill="none" xmlns="http://www.w3.org/2000/svg">
<path d="M11.3999 3.65002C10.9026 3.65002 10.4257 3.84757 10.0741 4.1992C9.72245 4.55083 9.5249 5.02774 9.5249 5.52502C9.5249 6.02231 9.72245 6.49922 10.0741 6.85085C10.4257 7.20248 10.9026 7.40002 11.3999 7.40002C11.8972 7.40002 12.3741 7.20248 12.7257 6.85085C13.0774 6.49922 13.2749 6.02231 13.2749 5.52502C13.2749 5.02774 13.0774 4.55083 12.7257 4.1992C12.3741 3.84757 11.8972 3.65002 11.3999 3.65002ZM8.2749 5.52502C8.2749 4.69622 8.60414 3.90137 9.19019 3.31532C9.77624 2.72926 10.5711 2.40002 11.3999 2.40002C12.2287 2.40002 13.0236 2.72926 13.6096 3.31532C14.1957 3.90137 14.5249 4.69622 14.5249 5.52502C14.5249 6.35383 14.1957 7.14868 13.6096 7.73473C13.0236 8.32078 12.2287 8.65002 11.3999 8.65002C10.5711 8.65002 9.77624 8.32078 9.19019 7.73473C8.60414 7.14868 8.2749 6.35383 8.2749 5.52502ZM18.2749 4.90002C17.9434 4.90002 17.6254 5.03172 17.391 5.26614C17.1566 5.50056 17.0249 5.8185 17.0249 6.15002C17.0249 6.48155 17.1566 6.79949 17.391 7.03391C17.6254 7.26833 17.9434 7.40002 18.2749 7.40002C18.6064 7.40002 18.9244 7.26833 19.1588 7.03391C19.3932 6.79949 19.5249 6.48155 19.5249 6.15002C19.5249 5.8185 19.3932 5.50056 19.1588 5.26614C18.9244 5.03172 18.6064 4.90002 18.2749 4.90002V4.90002ZM15.7749 6.15002C15.7749 5.48698 16.0383 4.8511 16.5071 4.38226C16.976 3.91342 17.6119 3.65002 18.2749 3.65002C18.9379 3.65002 19.5738 3.91342 20.0427 4.38226C20.5115 4.8511 20.7749 5.48698 20.7749 6.15002C20.7749 6.81307 20.5115 7.44895 20.0427 7.91779C19.5738 8.38663 18.9379 8.65002 18.2749 8.65002C17.6119 8.65002 16.976 8.38663 16.5071 7.91779C16.0383 7.44895 15.7749 6.81307 15.7749 6.15002ZM3.2749 6.15002C3.2749 5.8185 3.4066 5.50056 3.64102 5.26614C3.87544 5.03172 4.19338 4.90002 4.5249 4.90002C4.85642 4.90002 5.17437 5.03172 5.40879 5.26614C5.64321 5.50056 5.7749 5.8185 5.7749 6.15002C5.7749 6.48155 5.64321 6.79949 5.40879 7.03391C5.17437 7.26833 4.85642 7.40002 4.5249 7.40002C4.19338 7.40002 3.87544 7.26833 3.64102 7.03391C3.4066 6.79949 3.2749 6.48155 3.2749 6.15002ZM4.5249 3.65002C3.86186 3.65002 3.22598 3.91342 2.75714 4.38226C2.28829 4.8511 2.0249 5.48698 2.0249 6.15002C2.0249 6.81307 2.28829 7.44895 2.75714 7.91779C3.22598 8.38663 3.86186 8.65002 4.5249 8.65002C5.18794 8.65002 5.82383 8.38663 6.29267 7.91779C6.76151 7.44895 7.0249 6.81307 7.0249 6.15002C7.0249 5.48698 6.76151 4.8511 6.29267 4.38226C5.82383 3.91342 5.18794 3.65002 4.5249 3.65002ZM5.2749 18.6475C4.93644 18.6645 4.59807 18.6124 4.28035 18.4946C3.96263 18.3767 3.67218 18.1954 3.42667 17.9619C3.18115 17.7283 2.98569 17.4472 2.85216 17.1357C2.71863 16.8243 2.64982 16.4889 2.6499 16.15V11.4625C2.6499 11.3796 2.68283 11.3002 2.74143 11.2416C2.80004 11.1829 2.87952 11.15 2.9624 11.15H5.1674C5.2174 10.6913 5.3799 10.265 5.62365 9.90002H2.9624C2.0999 9.90002 1.3999 10.6 1.3999 11.4625V16.15C1.39984 16.6852 1.51433 17.2141 1.73565 17.7014C1.95698 18.1886 2.28003 18.6228 2.6831 18.9749C3.08616 19.3269 3.5599 19.5886 4.07249 19.7423C4.58507 19.8961 5.12463 19.9383 5.6549 19.8663C5.48666 19.4742 5.35932 19.0658 5.2749 18.6475V18.6475ZM17.1449 19.8663C17.6752 19.9383 18.2147 19.8961 18.7273 19.7423C19.2399 19.5886 19.7136 19.3269 20.1167 18.9749C20.5198 18.6228 20.8428 18.1886 21.0641 17.7014C21.2855 17.2141 21.4 16.6852 21.3999 16.15V11.4625C21.3999 10.6 20.6999 9.90002 19.8374 9.90002H17.1762C17.4212 10.265 17.5824 10.6913 17.6324 11.15H19.8374C19.9203 11.15 19.9998 11.1829 20.0584 11.2416C20.117 11.3002 20.1499 11.3796 20.1499 11.4625V16.15C20.15 16.4889 20.0812 16.8243 19.9476 17.1357C19.8141 17.4472 19.6186 17.7283 19.3731 17.9619C19.1276 18.1954 18.8372 18.3767 18.5195 18.4946C18.2017 18.6124 17.8634 18.6645 17.5249 18.6475C17.4405 19.0658 17.3131 19.4742 17.1449 19.8663V19.8663ZM7.9624 9.90002C7.0999 9.90002 6.3999 10.6 6.3999 11.4625V17.4C6.3999 18.7261 6.92669 19.9979 7.86437 20.9356C8.80205 21.8732 10.0738 22.4 11.3999 22.4C12.726 22.4 13.9978 21.8732 14.9354 20.9356C15.8731 19.9979 16.3999 18.7261 16.3999 17.4V11.4625C16.3999 10.6 15.6999 9.90002 14.8374 9.90002H7.9624ZM7.6499 11.4625C7.6499 11.3796 7.68283 11.3002 7.74143 11.2416C7.80004 11.1829 7.87952 11.15 7.9624 11.15H14.8374C14.9203 11.15 14.9998 11.1829 15.0584 11.2416C15.117 11.3002 15.1499 11.3796 15.1499 11.4625V17.4C15.1499 18.3946 14.7548 19.3484 14.0516 20.0517C13.3483 20.7549 12.3945 21.15 11.3999 21.15C10.4053 21.15 9.45151 20.7549 8.74825 20.0517C8.04499 19.3484 7.6499 18.3946 7.6499 17.4V11.4625Z" fill="#E9962A"/>
</svg>
