<svg width="22" height="22" viewBox="0 0 22 22" fill="none" xmlns="http://www.w3.org/2000/svg">
<path d="M18.7876 4.82084C18.5209 4.45417 18.2542 4.12084 17.9542 3.78751L14.0209 6.65417V7.32084H15.3542L18.7876 4.82084M6.18757 7.35417L2.65424 4.75417C2.52091 4.92084 2.42091 5.08751 2.28757 5.25417C2.25424 5.28751 2.25424 5.32084 2.22091 5.32084C2.12091 5.48751 1.98757 5.68751 1.88757 5.85417L3.92091 7.35417H6.18757Z" fill="#ED4C5C"/>
<path d="M20.4875 8.6875H12.6875V0.8875C12.0542 0.754167 11.3875 0.6875 10.6875 0.6875C9.9875 0.6875 9.32083 0.754167 8.6875 0.8875V8.6875H0.8875C0.754167 9.32083 0.6875 9.9875 0.6875 10.6875C0.6875 11.3875 0.754167 12.0542 0.8875 12.6875H8.6875V20.4875C9.32083 20.6208 9.9875 20.6875 10.6875 20.6875C11.3875 20.6875 12.0542 20.6208 12.6875 20.4875V12.6875H20.4875C20.6208 12.0542 20.6875 11.3875 20.6875 10.6875C20.6875 9.9875 20.6208 9.32083 20.4875 8.6875Z" fill="#ED4C5C"/>
<path d="M7.35415 20.1208V15.5208L3.92082 18.0542C4.88748 18.9542 6.05415 19.6542 7.35415 20.1208M14.0208 20.1208C15.3208 19.6542 16.4875 18.9542 17.4542 18.0542L14.0208 15.4875V20.1208M1.25415 14.0208C1.35415 14.3542 1.48748 14.6542 1.65415 14.9875L2.95415 14.0208H1.25415ZM18.4208 14.0208L19.7208 14.9875C19.8542 14.6875 19.9875 14.3542 20.1208 14.0208H18.4208Z" fill="#2A5F9E"/>
<path d="M7.85424 12.6875H0.887573C0.987573 13.1542 1.12091 13.5875 1.25424 14.0208H2.95424L1.65424 14.9875C1.92091 15.5542 2.22091 16.0542 2.58757 16.5542L6.02091 14.0208H7.35424V14.6875L3.45424 17.5542L3.92091 18.0208L7.35424 15.5208V20.1208C7.78757 20.2875 8.22091 20.3875 8.68757 20.4875V12.6875H7.85424ZM20.4876 12.6875H12.6876V20.4875C13.1542 20.3875 13.5876 20.2542 14.0209 20.1208V15.5208L17.4542 18.0208C17.9209 17.5875 18.3209 17.1208 18.7209 16.6208L15.1542 14.0208H17.4209L19.4542 15.5208C19.5542 15.3542 19.6542 15.1542 19.7209 14.9875L18.4209 14.0208H20.1209C20.2542 13.5875 20.3876 13.1542 20.4876 12.6875" fill="white"/>
<path d="M2.58752 16.5542C2.85419 16.9208 3.12086 17.2542 3.42086 17.5875L7.35419 14.7208V14.0542H6.02086L2.58752 16.5542ZM15.1875 14.0208L18.7542 16.6208C18.8875 16.4542 18.9875 16.2875 19.1209 16.1208C19.1542 16.0875 19.1542 16.0542 19.1875 16.0542C19.2875 15.8875 19.4209 15.6875 19.5209 15.5208L17.4209 14.0208H15.1875Z" fill="#ED4C5C"/>
<path d="M14.0208 1.25418V5.85418L17.4542 3.32085C16.4875 2.42085 15.3208 1.72085 14.0208 1.25418ZM7.35415 1.25418C6.05415 1.72085 4.88748 2.42085 3.92082 3.32085L7.35415 5.88751V1.25418ZM20.1208 7.35418C20.0208 7.02085 19.8875 6.72085 19.7208 6.38751L18.4208 7.35418H20.1208M2.95415 7.35418L1.65415 6.38751C1.52082 6.72085 1.38748 7.02085 1.25415 7.35418H2.95415Z" fill="#2A5F9E"/>
<path d="M13.5209 8.68748H20.4542C20.3542 8.22081 20.2209 7.78748 20.0876 7.35415H18.3876L19.6876 6.38748C19.4209 5.82081 19.1209 5.32081 18.7542 4.82081L15.3542 7.35415H14.0209V6.68748L17.9209 3.82081L17.4542 3.35415L14.0209 5.85415V1.25415C13.5876 1.08748 13.1542 0.987482 12.6876 0.887482V8.68748H13.5209ZM0.887573 8.68748H8.68757V0.887482C8.22091 0.987482 7.78757 1.12082 7.35424 1.25415V5.85415L3.92091 3.35415C3.45424 3.78748 3.05424 4.25415 2.65424 4.75415L6.22091 7.35415H3.95424L1.92091 5.85415C1.82091 6.02081 1.72091 6.22081 1.65424 6.38748L2.95424 7.35415H1.25424C1.12091 7.78748 0.987573 8.22081 0.887573 8.68748Z" fill="white"/>
</svg>
