<svg width="22" height="22" viewBox="0 0 22 22" fill="none" xmlns="http://www.w3.org/2000/svg">
<g clip-path="url(#clip0_481_248)">
<path d="M7.56248 20.7281V15.9844L4.02185 18.5969C5.01873 19.525 6.22185 20.2469 7.56248 20.7281M14.4375 20.7281C15.7781 20.2469 16.9812 19.525 17.9781 18.5969L14.4375 15.95V20.7281M1.27185 14.4375C1.37498 14.7812 1.51248 15.0906 1.68435 15.4344L3.02498 14.4375H1.27185ZM18.975 14.4375L20.3156 15.4344C20.4531 15.125 20.5906 14.7812 20.7281 14.4375H18.975Z" fill="#2A5F9E"/>
<path d="M8.07817 13.0625H0.893799C0.996924 13.5437 1.13442 13.9906 1.27192 14.4375H3.02505L1.68442 15.4344C1.95942 16.0188 2.2688 16.5344 2.64692 17.05L6.18755 14.4375H7.56255V15.125L3.54067 18.0812L4.02192 18.5625L7.56255 15.9844V20.7281C8.00942 20.9 8.4563 21.0031 8.93755 21.1063V13.0625H8.07817ZM21.1063 13.0625H13.0625V21.1063C13.5438 21.0031 13.9907 20.8656 14.4375 20.7281V15.9844L17.9782 18.5625C18.4594 18.1156 18.8719 17.6344 19.2844 17.1187L15.6063 14.4375H17.9438L20.0407 15.9844C20.1438 15.8125 20.2469 15.6063 20.3157 15.4344L18.975 14.4375H20.7282C20.8657 13.9906 21.0032 13.5437 21.1063 13.0625" fill="white"/>
<path d="M2.64685 17.05C2.92185 17.4281 3.19685 17.7719 3.50623 18.1156L7.56248 15.1594V14.4719H6.18748L2.64685 17.05ZM15.6406 14.4375L19.3187 17.1187C19.4562 16.9469 19.5594 16.775 19.6969 16.6031C19.7312 16.5687 19.7312 16.5344 19.7656 16.5344C19.8687 16.3625 20.0062 16.1562 20.1094 15.9844L17.9437 14.4375H15.6406Z" fill="#ED4C5C"/>
<path d="M14.4375 1.27188V6.01563L17.9781 3.40313C16.9812 2.47501 15.7781 1.75313 14.4375 1.27188ZM7.56248 1.27188C6.22185 1.75313 5.01873 2.47501 4.02185 3.40313L7.56248 6.05001V1.27188ZM20.7281 7.56251C20.625 7.21876 20.4875 6.90938 20.3156 6.56563L18.975 7.56251H20.7281M3.02498 7.56251L1.68435 6.56563C1.54685 6.90938 1.40935 7.21876 1.27185 7.56251H3.02498Z" fill="#2A5F9E"/>
<path d="M13.9219 8.93749H21.0719C20.9688 8.45624 20.8313 8.00936 20.6938 7.56249H18.9407L20.2813 6.56561C20.0063 5.98124 19.6969 5.46561 19.3188 4.94999L15.8125 7.56249H14.4375V6.87499L18.4594 3.91874L17.9782 3.43749L14.4375 6.01561V1.27186C13.9907 1.09999 13.5438 0.996863 13.0625 0.893738V8.93749H13.9219ZM0.893799 8.93749H8.93755V0.893738C8.4563 0.996863 8.00942 1.13436 7.56255 1.27186V6.01561L4.02192 3.43749C3.54067 3.88436 3.12817 4.36561 2.71567 4.88124L6.3938 7.56249H4.0563L1.95942 6.01561C1.8563 6.18749 1.75317 6.39374 1.68442 6.56561L3.02505 7.56249H1.27192C1.13442 8.00936 0.996924 8.45624 0.893799 8.93749Z" fill="white"/>
<path d="M19.3532 4.94999C19.0782 4.57187 18.8032 4.22812 18.4938 3.88437L14.4375 6.84062V7.52812H15.8125L19.3532 4.94999M6.35942 7.56249L2.71567 4.88124C2.57817 5.05312 2.47505 5.22499 2.33755 5.39687C2.30317 5.43124 2.30317 5.46562 2.2688 5.46562C2.16567 5.63749 2.02817 5.84374 1.92505 6.01562L4.02192 7.56249H6.35942Z" fill="#ED4C5C"/>
<path d="M21.1063 8.9375H13.0625V0.89375C12.4094 0.75625 11.7219 0.6875 11 0.6875C10.2781 0.6875 9.59062 0.75625 8.9375 0.89375V8.9375H0.89375C0.75625 9.59062 0.6875 10.2781 0.6875 11C0.6875 11.7219 0.75625 12.4094 0.89375 13.0625H8.9375V21.1063C9.59062 21.2438 10.2781 21.3125 11 21.3125C11.7219 21.3125 12.4094 21.2438 13.0625 21.1063V13.0625H21.1063C21.2438 12.4094 21.3125 11.7219 21.3125 11C21.3125 10.2781 21.2438 9.59062 21.1063 8.9375Z" fill="#ED4C5C"/>
</g>
<defs>
<clipPath id="clip0_481_248">
<rect width="22" height="22" fill="white"/>
</clipPath>
</defs>
</svg>
