<svg width="22" height="22" viewBox="0 0 22 22" fill="none" xmlns="http://www.w3.org/2000/svg">
<path d="M6.27493 13.1606L9.52339 16.4091L15.6142 10.3183C15.7134 10.2024 15.7654 10.0532 15.7595 9.90072C15.7536 9.7481 15.6903 9.60345 15.5824 9.49556C15.4744 9.38759 15.3298 9.32437 15.1773 9.31848C15.0248 9.31258 14.8756 9.36447 14.7597 9.46371L9.52339 14.6758L7.13552 12.2879C7.01958 12.1887 6.87044 12.1368 6.71792 12.1427C6.56539 12.1486 6.4207 12.2118 6.31277 12.3198C6.20484 12.4277 6.1416 12.5723 6.13571 12.7249C6.12981 12.8774 6.1817 13.0266 6.28099 13.1425L6.27493 13.1606Z" fill="#E9962A"/>
<path d="M5.99579 6.79706C6.21278 6.79706 6.42089 6.73321 6.57432 6.61955C6.72775 6.50589 6.81395 6.35175 6.81395 6.19101V2.5547C6.81395 2.39396 6.72775 2.23981 6.57432 2.12615C6.42089 2.0125 6.21278 1.94864 5.99579 1.94864C5.77878 1.94864 5.57069 2.0125 5.41725 2.12615C5.26381 2.23981 5.17761 2.39396 5.17761 2.5547V6.19101C5.17761 6.35175 5.26381 6.50589 5.41725 6.61955C5.57069 6.73321 5.77878 6.79706 5.99579 6.79706Z" fill="#E9962A"/>
<path d="M18.7032 8.74863V18.525L2.56122 18.48V15.5399C2.56122 15.5399 2.56122 13.5083 2.56122 12.2066C2.56122 10.9048 2.56122 8.87327 2.56122 8.87327V6.01174L3.96523 6.01241V4.37292H1.99556C1.85389 4.37529 1.71408 4.40555 1.5841 4.46196C1.45412 4.51837 1.33653 4.59984 1.23803 4.70171C1.13955 4.80358 1.06209 4.92384 1.01009 5.05565C0.958086 5.18745 0.93256 5.32821 0.934971 5.46988V19.0334C0.93256 19.175 0.958086 19.3158 1.01009 19.4476C1.06209 19.5794 1.13955 19.6997 1.23803 19.8015C1.33653 19.9034 1.45412 19.9849 1.5841 20.0413C1.71408 20.0977 1.85389 20.1279 1.99556 20.1303H19.268C19.4097 20.1279 19.5496 20.0977 19.6795 20.0413C19.8096 19.9849 19.927 19.9034 20.0256 19.8015C20.1241 19.6997 20.2015 19.5794 20.2536 19.4476C20.3055 19.3158 20.331 19.175 20.3286 19.0334V8.21531C19.953 8.45168 19.1312 8.63139 18.7032 8.74863Z" fill="#E9962A"/>
<path d="M13.3589 4.37292H7.60144V6.00927H13.5287C13.4176 5.47666 13.3606 4.92623 13.3589 4.37292Z" fill="#E9962A"/>
<path d="M17.9047 7.40312C19.5782 7.40312 20.9349 6.04642 20.9349 4.37285C20.9349 2.69929 19.5782 1.34259 17.9047 1.34259C16.231 1.34259 14.8744 2.69929 14.8744 4.37285C14.8744 6.04642 16.231 7.40312 17.9047 7.40312Z" fill="#E9962A"/>
</svg>
