<svg width="24" height="24" viewBox="0 0 24 24" fill="none" xmlns="http://www.w3.org/2000/svg">
<path d="M7.45083 14.3736L10.6993 17.6221L16.7901 11.5313C16.8894 11.4153 16.9413 11.2662 16.9354 11.1137C16.9295 10.9611 16.8662 10.8164 16.7583 10.7085C16.6503 10.6006 16.5057 10.5373 16.3532 10.5315C16.2007 10.5256 16.0515 10.5774 15.9356 10.6767L10.6993 15.8888L8.31142 13.5009C8.19548 13.4016 8.04635 13.3498 7.89382 13.3557C7.74129 13.3616 7.59661 13.4248 7.48867 13.5328C7.38074 13.6406 7.3175 13.7853 7.31161 13.9379C7.30572 14.0904 7.3576 14.2395 7.45689 14.3555L7.45083 14.3736Z" fill="#E9962A"/>
<path d="M7.1717 8.01005C7.38869 8.01005 7.5968 7.9462 7.75022 7.83254C7.90365 7.71888 7.98986 7.56473 7.98986 7.40399V3.76768C7.98986 3.60695 7.90365 3.45279 7.75022 3.33913C7.5968 3.22548 7.38869 3.16162 7.1717 3.16162C6.95469 3.16162 6.7466 3.22548 6.59315 3.33913C6.43972 3.45279 6.35352 3.60695 6.35352 3.76768V7.40399C6.35352 7.56473 6.43972 7.71888 6.59315 7.83254C6.7466 7.9462 6.95469 8.01005 7.1717 8.01005Z" fill="#E9962A"/>
<path d="M19.8791 9.96152V19.7379L3.73712 19.6929V16.7528C3.73712 16.7528 3.73712 14.7212 3.73712 13.4195C3.73712 12.1177 3.73712 10.0862 3.73712 10.0862V7.22463L5.14114 7.2253V5.58582H3.17146C3.02979 5.58818 2.88998 5.61844 2.76 5.67485C2.63002 5.73126 2.51243 5.81273 2.41394 5.9146C2.31545 6.01647 2.238 6.13673 2.18599 6.26854C2.13399 6.40034 2.10846 6.5411 2.11087 6.68278V20.2463C2.10846 20.3879 2.13399 20.5287 2.18599 20.6605C2.238 20.7923 2.31545 20.9126 2.41394 21.0144C2.51243 21.1163 2.63002 21.1977 2.76 21.2541C2.88998 21.3105 3.02979 21.3408 3.17146 21.3432H20.4439C20.5856 21.3408 20.7255 21.3105 20.8554 21.2541C20.9855 21.1977 21.103 21.1163 21.2015 21.0144C21.3 20.9126 21.3774 20.7923 21.4295 20.6605C21.4814 20.5287 21.5069 20.3879 21.5045 20.2463V9.4282C21.1289 9.66457 20.3071 9.84428 19.8791 9.96152Z" fill="#E9962A"/>
<path d="M14.5349 5.58582H8.7774V7.22216H14.7046C14.5936 6.68955 14.5365 6.13912 14.5349 5.58582Z" fill="#E9962A"/>
<path d="M19.0805 8.61607C20.7541 8.61607 22.1107 7.25937 22.1107 5.58581C22.1107 3.91224 20.7541 2.55554 19.0805 2.55554C17.4069 2.55554 16.0502 3.91224 16.0502 5.58581C16.0502 7.25937 17.4069 8.61607 19.0805 8.61607Z" fill="#E9962A"/>
</svg>
