<svg width="24" height="24" viewBox="0 0 24 24" fill="none" xmlns="http://www.w3.org/2000/svg">
<path d="M15.6579 18.7632L18.2895 16.1316L15.6581 13.5" stroke="#E9962A" stroke-width="1.5" stroke-linecap="round" stroke-linejoin="round"/>
<path d="M19.8684 18.7632L22.5 16.1316L19.8686 13.5" stroke="#E9962A" stroke-width="1.5" stroke-linecap="round" stroke-linejoin="round"/>
<path d="M22.5 11.3947V4.55263C22.5 3.97128 22.0287 3.5 21.4474 3.5H3.55263C2.97128 3.5 2.5 3.97128 2.5 4.55263V20.3421C2.5 20.9235 2.97128 21.3947 3.55263 21.3947H14.8529" stroke="#E9962A" stroke-width="1.5" stroke-linecap="round" stroke-linejoin="round"/>
<path fill-rule="evenodd" clip-rule="evenodd" d="M8.56971 11.1365C8.83476 11.406 9.18817 11.5856 9.54158 11.6754C10.0717 11.8551 10.5135 12.1246 10.9552 12.5737C11.397 12.933 11.5737 13.5617 11.5737 14.1007C11.5737 14.7295 11.3086 15.4481 10.8669 15.8972C10.5135 16.2565 10.0717 16.526 9.54158 16.6158V17.9632H8.56971V16.7954C8.0396 16.7954 7.50949 16.526 7.06772 16.2565C6.71432 15.987 6.44926 15.7175 6.1842 15.3582L7.06772 14.3702C7.24443 14.6396 7.50948 14.9091 7.77454 15.0888C8.0396 15.3582 8.48136 15.4481 8.83477 15.4481C9.09982 15.4481 9.45323 15.3582 9.71828 15.0888C9.89499 14.8193 9.98334 14.5498 9.98334 14.2803C9.98334 14.0109 9.89499 13.7414 9.71828 13.5617C9.45323 13.3821 9.09982 13.2025 8.83477 13.1126C8.76004 13.0746 8.68356 13.0367 8.60606 12.9982C8.1338 12.7636 7.62392 12.5104 7.24443 12.1246C6.89102 11.7653 6.71432 11.2263 6.71432 10.6874C6.62597 10.1484 6.89102 9.60947 7.24443 9.16034C7.59784 8.80105 8.0396 8.53157 8.48136 8.44175V7.1842H9.54158V8.44175C9.89499 8.44175 10.2484 8.53157 10.5135 8.71122C10.7785 8.89087 11.0436 9.07052 11.3086 9.33999L10.5135 10.4179C10.2484 10.0586 9.80664 9.78912 9.27653 9.78912C9.01147 9.69929 8.74641 9.87894 8.48136 10.0586C8.30465 10.1484 8.2163 10.4179 8.2163 10.5975C8.2163 10.7772 8.30465 11.0467 8.56971 11.1365Z" fill="#E9962A"/>
</svg>
