<svg width="22" height="22" viewBox="0 0 22 22" fill="none" xmlns="http://www.w3.org/2000/svg">
<g clip-path="url(#clip0_151_166)">
<path d="M14.4495 17.4715L17.081 14.8399L14.4497 12.2083" stroke="#E9962A" stroke-width="1.5" stroke-linecap="round" stroke-linejoin="round"/>
<path d="M18.66 17.4715L21.2916 14.8399L18.6602 12.2083" stroke="#E9962A" stroke-width="1.5" stroke-linecap="round" stroke-linejoin="round"/>
<path d="M21.2916 10.1031V3.26098C21.2916 2.67962 20.8204 2.20834 20.239 2.20834H2.34426C1.7629 2.20834 1.29163 2.67962 1.29163 3.26098V19.0504C1.29163 19.6318 1.7629 20.1031 2.34426 20.1031H13.6446" stroke="#E9962A" stroke-width="1.5" stroke-linecap="round" stroke-linejoin="round"/>
<path fill-rule="evenodd" clip-rule="evenodd" d="M8.14045 10.8573C8.42961 11.1512 8.81514 11.3472 9.20068 11.4452C9.77898 11.6412 10.2609 11.9352 10.7428 12.4251C11.2247 12.8171 11.4175 13.503 11.4175 14.0909C11.4175 14.7769 11.1284 15.5608 10.6464 16.0508C10.2609 16.4427 9.77898 16.7367 9.20068 16.8347V18.3045H8.14045V17.0307C7.56215 17.0307 6.98385 16.7367 6.50193 16.4427C6.11639 16.1487 5.82724 15.8548 5.53809 15.4628L6.50193 14.3849C6.69469 14.6789 6.98385 14.9729 7.273 15.1688C7.56215 15.4628 8.04407 15.5608 8.42961 15.5608C8.71876 15.5608 9.10429 15.4628 9.39345 15.1688C9.58621 14.8749 9.6826 14.5809 9.6826 14.2869C9.6826 13.993 9.58621 13.699 9.39345 13.503C9.10429 13.307 8.71876 13.111 8.42961 13.0131C8.34809 12.9716 8.26465 12.9302 8.18011 12.8882C7.66492 12.6323 7.10868 12.356 6.69469 11.9352C6.30916 11.5432 6.11639 10.9553 6.11639 10.3673C6.02001 9.77937 6.30916 9.19143 6.69469 8.70147C7.08023 8.30951 7.56215 8.01554 8.04407 7.91755V6.54568H9.20068V7.91755C9.58622 7.91755 9.97175 8.01554 10.2609 8.21152C10.5501 8.4075 10.8392 8.60348 11.1284 8.89746L10.2609 10.0733C9.97175 9.68138 9.48983 9.38741 8.91153 9.38741C8.62238 9.28942 8.33322 9.4854 8.04407 9.68138C7.8513 9.77937 7.75492 10.0733 7.75492 10.2693C7.75492 10.4653 7.8513 10.7593 8.14045 10.8573Z" fill="#E9962A"/>
</g>
<defs>
<clipPath id="clip0_151_166">
<rect width="22" height="22" fill="white"/>
</clipPath>
</defs>
</svg>
