<svg width="22" height="22" viewBox="0 0 22 22" fill="none" xmlns="http://www.w3.org/2000/svg">
<path d="M11.2992 5.20358H10.1806C10.0783 5.20358 9.99453 5.2873 9.99453 5.38963V11.792C9.99453 11.8524 10.0224 11.9082 10.0713 11.9431L13.9155 14.7501C13.9992 14.8106 14.1155 14.7943 14.1759 14.7106L14.841 13.8036C14.9038 13.7175 14.8852 13.6013 14.8015 13.5431L11.4852 11.1454V5.38963C11.4852 5.2873 11.4015 5.20358 11.2992 5.20358ZM16.4108 6.95242L20.0573 7.84312C20.1736 7.87102 20.2876 7.78265 20.2876 7.66405L20.3062 3.90823C20.3062 3.75242 20.1271 3.66405 20.0062 3.76172L16.341 6.62451C16.3133 6.64594 16.2923 6.67475 16.2802 6.70763C16.2681 6.74051 16.2656 6.77613 16.2729 6.81038C16.2802 6.84464 16.297 6.87614 16.3214 6.90127C16.3458 6.92639 16.3768 6.94412 16.4108 6.95242V6.95242ZM20.3108 13.9547L18.9922 13.5013C18.9462 13.4855 18.8959 13.4884 18.852 13.5092C18.8081 13.5301 18.7741 13.5673 18.7573 13.6129C18.7131 13.7315 18.6666 13.8478 18.6178 13.964C18.2038 14.9431 17.6108 15.8245 16.8527 16.5803C16.1029 17.3324 15.2144 17.9318 14.2364 18.3454C13.2232 18.7738 12.1341 18.9937 11.0341 18.992C9.92244 18.992 8.84569 18.7757 7.83174 18.3454C6.85369 17.9318 5.96518 17.3324 5.21546 16.5803C4.45965 15.8245 3.86663 14.9431 3.45035 13.964C3.02434 12.9503 2.80608 11.8614 2.80849 10.7617C2.80849 9.65009 3.02476 8.57102 3.455 7.55707C3.86895 6.578 4.46197 5.6966 5.22011 4.94079C5.96984 4.18874 6.85834 3.58929 7.83639 3.17567C8.84569 2.74544 9.92476 2.52916 11.0364 2.52916C12.148 2.52916 13.2248 2.74544 14.2387 3.17567C15.2168 3.58929 16.1053 4.18874 16.855 4.94079C17.0922 5.18033 17.3155 5.42916 17.5201 5.69195L18.9108 4.60358C17.0806 2.26405 14.2317 0.759396 11.0317 0.761721C5.45965 0.764047 0.98523 5.28963 1.04104 10.864C1.09686 16.3408 5.55035 20.7617 11.0364 20.7617C15.3503 20.7617 19.0248 18.0268 20.4248 14.1966C20.4596 14.0989 20.4085 13.9896 20.3108 13.9547V13.9547Z" fill="black"/>
</svg>
