<svg width="22" height="22" viewBox="0 0 22 22" fill="none" xmlns="http://www.w3.org/2000/svg">
<path d="M11.5178 5.86524H10.4844C10.3898 5.86524 10.3125 5.94258 10.3125 6.03711V11.9518C10.3125 12.0076 10.3383 12.0592 10.3834 12.0914L13.9348 14.6846C14.0121 14.7404 14.1195 14.7254 14.1754 14.648L14.7898 13.8102C14.8478 13.7307 14.8307 13.6232 14.7533 13.5695L11.6896 11.3545V6.03711C11.6896 5.94258 11.6123 5.86524 11.5178 5.86524ZM16.24 7.48086L19.6088 8.30371C19.7162 8.32949 19.8215 8.24785 19.8215 8.13828L19.8387 4.66856C19.8387 4.52461 19.6732 4.44297 19.5615 4.53321L16.1756 7.17793C16.15 7.19773 16.1305 7.22435 16.1194 7.25472C16.1082 7.2851 16.1059 7.318 16.1126 7.34965C16.1194 7.38129 16.1349 7.41039 16.1574 7.43361C16.18 7.45682 16.2086 7.4732 16.24 7.48086ZM19.843 13.9498L18.6248 13.5309C18.5823 13.5163 18.5358 13.5189 18.4953 13.5382C18.4547 13.5575 18.4233 13.5919 18.4078 13.634C18.367 13.7436 18.324 13.851 18.2789 13.9584C17.8965 14.8629 17.3486 15.6772 16.6482 16.3754C15.9556 17.0702 15.1348 17.6239 14.2312 18.0061C13.2952 18.4018 12.2891 18.6049 11.2728 18.6033C10.2459 18.6033 9.25116 18.4035 8.31444 18.0061C7.41089 17.6239 6.59006 17.0702 5.89745 16.3754C5.19921 15.6772 4.65136 14.8629 4.26679 13.9584C3.87323 13.0219 3.67159 12.0159 3.67382 11C3.67382 9.97305 3.87362 8.97617 4.27108 8.03946C4.6535 7.13496 5.20136 6.32071 5.90175 5.62246C6.59436 4.9277 7.41519 4.37391 8.31874 3.9918C9.25116 3.59434 10.248 3.39453 11.275 3.39453C12.3019 3.39453 13.2967 3.59434 14.2334 3.9918C15.1369 4.37391 15.9578 4.9277 16.6504 5.62246C16.8695 5.84375 17.0758 6.07364 17.2648 6.31641L18.5496 5.31094C16.8588 3.14961 14.2269 1.75957 11.2707 1.76172C6.12304 1.76387 1.98944 5.94473 2.041 11.0945C2.09257 16.1541 6.20682 20.2383 11.275 20.2383C15.2603 20.2383 18.6549 17.7117 19.9482 14.1732C19.9805 14.083 19.9332 13.982 19.843 13.9498Z" fill="#F1AE4A"/>
</svg>
