<svg width="22" height="22" viewBox="0 0 22 22" fill="none" xmlns="http://www.w3.org/2000/svg">
<path d="M19.8196 9.09543L15.6161 5.2283L11.4127 1.36113C11.1394 1.1097 10.7795 0.973621 10.4082 0.981362C10.0369 0.989092 9.68296 1.14002 9.42043 1.40263L1.68854 9.13453L1.29175 9.53131V20.9806L8.87204 20.9803V13.9867L12.6501 13.9741L12.6551 20.981L20.257 20.9297V9.498L19.8196 9.09543ZM10.4373 2.33574C10.4493 2.33574 10.4419 2.33832 10.4368 2.34336C10.4315 2.33832 10.4254 2.33574 10.4373 2.33574ZM18.7493 19.5245H14.1747V13.7672C14.1747 13.4078 14.032 13.0633 13.7779 12.8093C13.5239 12.5552 13.0551 12.5367 12.6958 12.5367H8.63175C8.27247 12.5367 8.05219 12.5552 7.79814 12.8093C7.54409 13.0633 7.40137 13.4078 7.40137 13.7672L7.39057 19.4794L2.78165 19.4028V10.1436L10.451 2.53336L10.452 2.5184L18.7493 10.0418V15.3813V19.5245Z" fill="#E38B29"/>
</svg>
