<svg width="24" height="24" viewBox="0 0 24 24" fill="none" xmlns="http://www.w3.org/2000/svg">
<path d="M21.0755 10.2964L16.8612 6.41932L12.647 2.5422C12.373 2.29012 12.0122 2.15369 11.6399 2.16145C11.2677 2.1692 10.9128 2.32052 10.6496 2.5838L2.89781 10.3356L2.5 10.7334V22.2122L10.0998 22.2118V15.2003L13.8876 15.1876L13.8926 22.2126L21.5141 22.1611V10.7L21.0755 10.2964ZM11.6691 3.51931C11.6811 3.51931 11.6737 3.5219 11.6686 3.52695C11.6633 3.5219 11.6572 3.51931 11.6691 3.51931ZM20.0025 20.7523H15.4161V14.9802C15.4161 14.6199 15.273 14.2745 15.0183 14.0198C14.7636 13.7651 14.2936 13.7465 13.9334 13.7465H9.85889C9.49869 13.7465 9.27784 13.7651 9.02313 14.0198C8.76843 14.2745 8.62534 14.6199 8.62534 14.9802L8.61452 20.7071L3.99374 20.6303V11.3473L11.6828 3.71744L11.6838 3.70244L20.0025 11.2452V16.5984V20.7523Z" fill="#E38B29"/>
</svg>
