<svg width="22" height="22" viewBox="0 0 22 22" fill="none" xmlns="http://www.w3.org/2000/svg">
<path d="M2.125 19.2404V7.68268H20.625V19.2404C20.625 19.9361 20.0319 20.5416 19.2697 20.5416H3.48026C2.7181 20.5416 2.125 19.9361 2.125 19.2404Z" stroke="#E9962A" stroke-width="1.5"/>
<path d="M20.625 4.88142V7.20834H2.125V4.88142C2.125 4.18568 2.7181 3.58014 3.48026 3.58014H19.2697C20.0319 3.58014 20.625 4.18568 20.625 4.88142Z" stroke="#E9962A" stroke-width="1.5"/>
<path d="M16.1118 1.29166C15.5328 1.29166 15.0591 1.75319 15.0591 2.3173V4.8814C15.0591 5.4455 15.5328 5.90704 16.1118 5.90704C16.6907 5.90704 17.1644 5.4455 17.1644 4.8814V2.3173C17.1644 1.75319 16.6907 1.29166 16.1118 1.29166ZM6.63808 1.29166C6.05913 1.29166 5.58545 1.75319 5.58545 2.3173V4.8814C5.58545 5.4455 6.05913 5.90704 6.63808 5.90704C7.21703 5.90704 7.69071 5.4455 7.69071 4.8814V2.3173C7.69071 1.75319 7.21703 1.29166 6.63808 1.29166Z" fill="#E9962A"/>
<path d="M10.4277 17.8558C10.4277 17.7532 10.4277 17.5994 10.4804 17.4968C10.533 17.3942 10.5856 17.2917 10.6909 17.2404C10.7962 17.1891 10.8488 17.0865 10.9541 17.0865C11.0593 17.0353 11.2172 17.0353 11.3225 17.0353C11.4277 17.0353 11.5856 17.0353 11.6909 17.0865L12.0067 17.2404C12.1119 17.2917 12.1646 17.3942 12.2172 17.4968C12.2698 17.5994 12.2698 17.7019 12.2698 17.8558C12.2698 17.9583 12.2698 18.1122 12.2172 18.2147C12.1646 18.3173 12.1119 18.4199 12.0067 18.4712C11.9014 18.5224 11.8488 18.625 11.6909 18.625C11.533 18.625 11.533 18.7276 11.3751 18.7276C11.2172 18.7276 11.1119 18.7276 11.0067 18.6763C10.9014 18.625 10.7962 18.5737 10.7435 18.5224C10.6383 18.4711 10.5856 18.3686 10.533 18.266C10.4804 18.1122 10.4277 18.0096 10.4277 17.8558V17.8558ZM12.0593 15.6506H10.6909L10.4804 10.0096H12.2172L12.0593 15.6506Z" fill="#E9962A"/>
</svg>
