<svg width="24" height="24" viewBox="0 0 24 24" fill="none" xmlns="http://www.w3.org/2000/svg">
<path d="M2.25 20.4487V8.89099H20.75V20.4487C20.75 21.1444 20.1569 21.75 19.3947 21.75H3.60526C2.8431 21.75 2.25 21.1444 2.25 20.4487Z" stroke="#E9962A" stroke-width="1.5"/>
<path d="M20.75 6.08973V8.41666H2.25V6.08973C2.25 5.39399 2.8431 4.78845 3.60526 4.78845H19.3947C20.1569 4.78845 20.75 5.39399 20.75 6.08973Z" stroke="#E9962A" stroke-width="1.5"/>
<path d="M16.2369 2.5C15.6579 2.5 15.1842 2.96154 15.1842 3.52564V6.08974C15.1842 6.65385 15.6579 7.11538 16.2369 7.11538C16.8158 7.11538 17.2895 6.65385 17.2895 6.08974V3.52564C17.2895 2.96154 16.8158 2.5 16.2369 2.5ZM6.76317 2.5C6.18422 2.5 5.71054 2.96154 5.71054 3.52564V6.08974C5.71054 6.65385 6.18422 7.11538 6.76317 7.11538C7.34212 7.11538 7.8158 6.65385 7.8158 6.08974V3.52564C7.8158 2.96154 7.34212 2.5 6.76317 2.5Z" fill="#E9962A"/>
<path d="M10.5527 19.064C10.5527 18.9615 10.5527 18.8076 10.6054 18.7051C10.658 18.6025 10.7106 18.4999 10.8159 18.4487C10.9212 18.3974 10.9738 18.2948 11.0791 18.2948C11.1843 18.2435 11.3422 18.2435 11.4475 18.2435C11.5527 18.2435 11.7106 18.2435 11.8159 18.2948L12.1317 18.4487C12.2369 18.4999 12.2896 18.6025 12.3422 18.7051C12.3948 18.8076 12.3948 18.9102 12.3948 19.064C12.3948 19.1666 12.3948 19.3205 12.3422 19.423C12.2896 19.5256 12.2369 19.6282 12.1317 19.6794C12.0264 19.7307 11.9738 19.8333 11.8159 19.8333C11.658 19.8333 11.658 19.9358 11.5001 19.9358C11.3422 19.9358 11.2369 19.9358 11.1317 19.8846C11.0264 19.8333 10.9212 19.782 10.8685 19.7307C10.7633 19.6794 10.7106 19.5769 10.658 19.4743C10.6054 19.3205 10.5527 19.2179 10.5527 19.064V19.064ZM12.1843 16.8589H10.8159L10.6054 11.2179H12.3422L12.1843 16.8589Z" fill="#E9962A"/>
</svg>
