<svg width="22" height="22" viewBox="0 0 22 22" fill="none" xmlns="http://www.w3.org/2000/svg">
<path d="M12.8887 0.794537C12.1783 0.596046 11.619 1.09991 11.4261 1.5885L11.2172 2.11888C9.60517 6.20922 8.13377 9.94598 4.29656 11.8883C3.41179 12.3367 2.79543 13.3067 2.97222 14.3682L3.30652 16.374C3.40013 16.9364 3.65135 17.4607 4.031 17.886C4.41065 18.3113 4.90316 18.6202 5.45134 18.7768L11.6311 20.5415C12.3501 20.7469 13.1039 20.8015 13.8451 20.7017C14.5862 20.6018 15.2988 20.3498 15.9379 19.9615C16.577 19.5732 17.1289 19.0569 17.5589 18.445C17.989 17.8332 18.2878 17.139 18.4368 16.4062L19.4236 11.5476C19.5126 11.1099 19.5031 10.6578 19.396 10.2242C19.2888 9.7906 19.0866 9.38622 18.8039 9.04036C18.5213 8.69449 18.1653 8.41579 17.7617 8.2244C17.3581 8.03301 16.917 7.93374 16.4704 7.93376H14.729C15.0062 6.72594 15.134 5.34856 15.0078 4.13271C14.8591 2.71033 14.3175 1.19232 12.8887 0.794537V0.794537Z" fill="#898989"/>
</svg>
