<svg width="24" height="24" viewBox="0 0 24 24" fill="none" xmlns="http://www.w3.org/2000/svg">
<path d="M13.1562 1.95366C12.4458 1.75516 11.8865 2.25902 11.6936 2.74762L11.4847 3.278C9.87263 7.36834 8.40123 11.1051 4.56402 13.0474C3.67925 13.4958 3.06288 14.4658 3.23968 15.5273L3.57397 17.5331C3.66759 18.0955 3.9188 18.6198 4.29845 19.0451C4.67811 19.4704 5.17062 19.7793 5.7188 19.9359L11.8985 21.7006C12.6176 21.9061 13.3714 21.9606 14.1125 21.8608C14.8537 21.761 15.5662 21.509 16.2053 21.1206C16.8444 20.7323 17.3963 20.216 17.8264 19.6041C18.2564 18.9923 18.5553 18.2981 18.7042 17.5653L19.6911 12.7067C19.78 12.269 19.7706 11.817 19.6634 11.3833C19.5563 10.9497 19.354 10.5453 19.0714 10.1995C18.7887 9.85361 18.4327 9.5749 18.0292 9.38352C17.6256 9.19213 17.1845 9.09286 16.7378 9.09288H14.9964C15.2737 7.88506 15.4014 6.50768 15.2753 5.29183C15.1266 3.86945 14.585 2.35144 13.1562 1.95366V1.95366Z" fill="#898989"/>
</svg>
