<svg width="22" height="22" viewBox="0 0 22 22" fill="none" xmlns="http://www.w3.org/2000/svg">
<path d="M4.17499 1.20001C3.67771 1.20001 3.20079 1.39756 2.84916 1.74919C2.49753 2.10082 2.29999 2.57773 2.29999 3.07501V19.325C2.29999 19.8223 2.49753 20.2992 2.84916 20.6508C3.20079 21.0025 3.67771 21.2 4.17499 21.2H12.925C13.4223 21.2 13.8992 21.0025 14.2508 20.6508C14.6024 20.2992 14.8 19.8223 14.8 19.325V17.45C14.8 17.2843 14.7341 17.1253 14.6169 17.0081C14.4997 16.8909 14.3407 16.825 14.175 16.825C13.6587 16.825 13.3287 16.6975 13.105 16.53C12.8762 16.3588 12.7025 16.1025 12.575 15.7513C12.3075 15.0163 12.3 14.0425 12.3 13.075C12.3 12.9928 12.2837 12.9114 12.2522 12.8355C12.2207 12.7595 12.1745 12.6906 12.1162 12.6325L11.7587 12.2738L10.2425 10.7575C9.65874 10.1738 9.48749 9.78251 9.45499 9.56376C9.42999 9.38876 9.48249 9.27126 9.60749 9.15126C9.87499 8.89501 10.0662 8.72126 10.2825 8.66876C10.4112 8.63626 10.705 8.61376 11.2325 9.14126L14.9825 12.8913C15.0997 13.0086 15.2587 13.0746 15.4245 13.0747C15.5067 13.0748 15.588 13.0587 15.6639 13.0273C15.7398 12.9959 15.8088 12.9499 15.8669 12.8919C15.925 12.8339 15.9711 12.765 16.0026 12.6891C16.034 12.6133 16.0503 12.532 16.0503 12.4498C16.0504 12.3677 16.0343 12.2864 16.0029 12.2105C15.9715 12.1346 15.9255 12.0656 15.8675 12.0075L14.8 10.9413V7.08376L18 10.2838C18.1743 10.4579 18.3126 10.6646 18.407 10.8922C18.5013 11.1197 18.5499 11.3637 18.55 11.61V20.575C18.55 20.7408 18.6158 20.8997 18.733 21.017C18.8503 21.1342 19.0092 21.2 19.175 21.2C19.3407 21.2 19.4997 21.1342 19.6169 21.017C19.7341 20.8997 19.8 20.7408 19.8 20.575V11.61C19.7998 10.7816 19.4707 9.98713 18.885 9.40126L14.8 5.31626V3.07501C14.8 2.57773 14.6024 2.10082 14.2508 1.74919C13.8992 1.39756 13.4223 1.20001 12.925 1.20001H4.17499ZM13.55 5.57501V9.69126L12.1175 8.25751C11.3937 7.53501 10.675 7.28626 9.98624 7.45376C9.85094 7.48716 9.71973 7.53536 9.59499 7.59751C9.03623 7.43565 8.44748 7.40596 7.87527 7.51079C7.30307 7.61561 6.76308 7.85208 6.29799 8.20151C5.83289 8.55093 5.45544 9.00374 5.19546 9.52414C4.93547 10.0445 4.80008 10.6183 4.79999 11.2C4.79994 11.9249 5.01001 12.6344 5.40477 13.2424C5.79954 13.8504 6.36208 14.3309 7.0243 14.6259C7.68652 14.9208 8.42004 15.0175 9.13606 14.9042C9.85209 14.7909 10.5199 14.4725 11.0587 13.9875C11.08 14.71 11.1525 15.5 11.4 16.1788C11.585 16.6875 11.88 17.1738 12.355 17.5288L12.3625 17.5363C11.9819 17.656 11.6493 17.894 11.4133 18.2157C11.1772 18.5374 11.05 18.926 11.05 19.325V19.95H6.04999V19.325C6.04999 18.8277 5.85244 18.3508 5.50081 17.9992C5.14918 17.6476 4.67227 17.45 4.17499 17.45H3.54999V4.95001H4.17499C4.67227 4.95001 5.14918 4.75247 5.50081 4.40084C5.85244 4.04921 6.04999 3.57229 6.04999 3.07501V2.45001H11.05V3.07501C11.05 3.57229 11.2475 4.04921 11.5992 4.40084C11.9508 4.75247 12.4277 4.95001 12.925 4.95001H13.55V5.57501ZM13.55 19.325V19.3363C13.547 19.5001 13.4799 19.6562 13.363 19.771C13.2461 19.8857 13.0888 19.95 12.925 19.95H12.3V19.325C12.3 19.1593 12.3658 19.0003 12.483 18.8831C12.6003 18.7659 12.7592 18.7 12.925 18.7H13.55V19.325ZM6.04999 11.2C6.05 10.5642 6.29223 9.95236 6.7274 9.48886C7.16257 9.02536 7.75798 8.74507 8.39249 8.70501C8.23749 8.99251 8.15874 9.34251 8.21874 9.74626C8.30749 10.3488 8.69124 10.975 9.35749 11.6413L10.4912 12.775C10.1658 13.1761 9.72405 13.4665 9.22681 13.6064C8.72957 13.7462 8.20122 13.7286 7.7144 13.5559C7.22758 13.3833 6.80618 13.0641 6.50814 12.6422C6.2101 12.2204 6.05005 11.7165 6.04999 11.2V11.2ZM4.79999 2.45001V3.07501C4.79999 3.24077 4.73414 3.39974 4.61693 3.51695C4.49972 3.63416 4.34075 3.70001 4.17499 3.70001H3.54999V3.07501C3.54999 2.90925 3.61584 2.75028 3.73305 2.63307C3.85026 2.51586 4.00923 2.45001 4.17499 2.45001H4.79999ZM3.54999 18.7H4.17499C4.34075 18.7 4.49972 18.7659 4.61693 18.8831C4.73414 19.0003 4.79999 19.1593 4.79999 19.325V19.95H4.17499C4.00923 19.95 3.85026 19.8842 3.73305 19.767C3.61584 19.6497 3.54999 19.4908 3.54999 19.325V18.7ZM13.55 3.70001H12.925C12.7592 3.70001 12.6003 3.63416 12.483 3.51695C12.3658 3.39974 12.3 3.24077 12.3 3.07501V2.45001H12.925C13.0907 2.45001 13.2497 2.51586 13.3669 2.63307C13.4841 2.75028 13.55 2.90925 13.55 3.07501V3.70001Z" fill="#FFBA55"/>
</svg>
