<svg width="22" height="22" viewBox="0 0 22 22" fill="none" xmlns="http://www.w3.org/2000/svg">
<path d="M10.625 5.125C11.7296 5.125 12.625 4.22957 12.625 3.125C12.625 2.02043 11.7296 1.125 10.625 1.125C9.52043 1.125 8.625 2.02043 8.625 3.125C8.625 4.22957 9.52043 5.125 10.625 5.125Z" fill="black"/>
<path d="M10.625 13.125C11.7296 13.125 12.625 12.2296 12.625 11.125C12.625 10.0204 11.7296 9.125 10.625 9.125C9.52043 9.125 8.625 10.0204 8.625 11.125C8.625 12.2296 9.52043 13.125 10.625 13.125Z" fill="black"/>
<path d="M10.625 21.125C11.7296 21.125 12.625 20.2296 12.625 19.125C12.625 18.0204 11.7296 17.125 10.625 17.125C9.52043 17.125 8.625 18.0204 8.625 19.125C8.625 20.2296 9.52043 21.125 10.625 21.125Z" fill="black"/>
</svg>
