<svg width="24" height="24" viewBox="0 0 24 24" fill="none" xmlns="http://www.w3.org/2000/svg">
<path d="M15.3535 11.7134L14.1855 13.7323L12.669 13.1222L12.349 12.9935L12.0767 13.2052C11.7641 13.4483 11.4131 13.6509 11.0399 13.8108L10.7291 13.944L10.6821 14.2788L10.4554 15.8919H8.11392L7.88861 14.2887L7.84109 13.9506L7.52613 13.8187C7.15008 13.6613 6.80961 13.4606 6.49403 13.2151L6.22174 13.0034L5.90172 13.1321L4.38521 13.7422L3.21724 11.7233L4.50489 10.714L4.77393 10.5032L4.72972 10.1642C4.70211 9.95256 4.68523 9.7521 4.68523 9.55837C4.68523 9.36441 4.70217 9.16457 4.72926 8.9659L4.77576 8.6249L4.50489 8.4126L3.21724 7.40336L4.38521 5.38445L5.90172 5.99454L6.22174 6.12328L6.49403 5.91151C6.80657 5.66841 7.15764 5.46586 7.5308 5.30594L7.84156 5.17276L7.88861 4.83795L8.11531 3.22488H10.4568L10.6821 4.82805L10.7296 5.16617L11.0446 5.29801C11.4206 5.45543 11.7611 5.65615 12.0767 5.9016L12.349 6.11338L12.669 5.98463L14.1855 5.37454L15.3535 7.39346L14.0658 8.40269L13.7968 8.61356L13.841 8.95253C13.8686 9.16418 13.8855 9.36464 13.8855 9.55837C13.8855 9.75232 13.8685 9.95217 13.8414 10.1508L13.795 10.4918L14.0658 10.7041L15.3535 11.7134ZM6.70436 9.55837C6.70436 10.9793 7.86443 12.1394 9.28535 12.1394C10.7063 12.1394 11.8664 10.9793 11.8664 9.55837C11.8664 8.13745 10.7063 6.97737 9.28535 6.97737C7.86443 6.97737 6.70436 8.13745 6.70436 9.55837Z" stroke="#E38B29" stroke-width="1.2"/>
<path d="M18.2115 18.226C17.9761 18.2259 17.7503 18.1323 17.5839 17.9657C17.4175 17.7992 17.3241 17.5734 17.3242 17.338C17.3243 17.1026 17.4179 16.8768 17.5844 16.7104C17.7509 16.544 17.9767 16.4506 18.2122 16.4506C18.4476 16.4507 18.6733 16.5443 18.8398 16.7109C19.0062 16.8774 19.0996 17.1032 19.0995 17.3386C19.0994 17.5741 19.0058 17.7998 18.8393 17.9662C18.6728 18.1326 18.4469 18.2261 18.2115 18.226ZM16.9473 18.6019C17.2824 18.9373 17.7371 19.1258 18.2112 19.126C18.6853 19.1262 19.1401 18.938 19.4754 18.6028C19.8108 18.2677 19.9993 17.8131 19.9995 17.339C19.9997 16.8648 19.8115 16.4101 19.4764 16.0747C19.1413 15.7393 18.6866 15.5508 18.2125 15.5506C17.7384 15.5505 17.2836 15.7386 16.9482 16.0738C16.6129 16.4089 16.4244 16.8635 16.4242 17.3376C16.424 17.8118 16.6122 18.2665 16.9473 18.6019ZM21.0642 17.7209L21.0271 17.9807L21.235 18.1409L22.0187 18.745L21.326 19.938L20.3997 19.5659L20.1529 19.4667L19.947 19.6352C19.7729 19.7776 19.556 19.8971 19.3063 20.008L19.0791 20.109L19.0437 20.3551L18.9038 21.3262H17.5288L17.3889 20.3551L17.3516 20.0961L17.1081 20.0004C16.8764 19.9094 16.6663 19.7842 16.4681 19.6291L16.263 19.4686L16.0217 19.5664L15.1063 19.9375L14.4094 18.7373L15.1895 18.1296L15.395 17.9696L15.3586 17.7117C15.3236 17.4643 15.3236 17.2133 15.3586 16.9659L15.395 16.708L15.1895 16.548L14.4094 15.9403L15.1063 14.7401L16.0217 15.1112L16.263 15.209L16.4681 15.0485C16.6565 14.9011 16.878 14.7799 17.1263 14.6696L17.3535 14.5686L17.3889 14.3225L17.5288 13.3514H18.8924L19.0338 14.3324L19.0711 14.5914L19.3146 14.6871C19.5463 14.7781 19.7564 14.9033 19.9546 15.0585L20.1597 15.2189L20.401 15.1211L21.3164 14.75L22.0133 15.9502L21.2332 16.5579L21.0106 16.7313L21.0697 17.0072C21.0904 17.1037 21.0993 17.2179 21.0993 17.3487C21.0993 17.4616 21.0842 17.5813 21.0642 17.7209Z" stroke="#E38B29" stroke-width="0.9"/>
</svg>
