<svg width="22" height="22" viewBox="0 0 22 22" fill="none" xmlns="http://www.w3.org/2000/svg">
<path d="M14.1417 10.4946L12.9737 12.5135L11.4572 11.9035L11.1372 11.7747L10.8649 11.9865C10.5523 12.2296 10.2013 12.4321 9.82811 12.5921L9.51736 12.7252L9.4703 13.06L9.2436 14.6731H6.90213L6.67682 13.0699L6.6293 12.7318L6.31434 12.6C5.93828 12.4426 5.59782 12.2418 5.28223 11.9964L5.00995 11.7846L4.68993 11.9134L3.17342 12.5234L2.00545 10.5045L3.2931 9.4953L3.56214 9.28442L3.51793 8.94546C3.49032 8.73381 3.47344 8.53335 3.47344 8.33962C3.47344 8.14566 3.49037 7.94582 3.51747 7.74715L3.56397 7.40615L3.2931 7.19385L2.00545 6.18461L3.17342 4.1657L4.68993 4.77579L5.00995 4.90453L5.28223 4.69276C5.59478 4.44966 5.94585 4.24711 6.31901 4.08719L6.62977 3.95401L6.67682 3.6192L6.90352 2.00613H9.24499L9.4703 3.6093L9.51782 3.94742L9.83278 4.07926C10.2088 4.23668 10.5493 4.4374 10.8649 4.68285L11.1372 4.89463L11.4572 4.76588L12.9737 4.15579L14.1417 6.17471L12.854 7.18394L12.585 7.39481L12.6292 7.73378C12.6568 7.94543 12.6737 8.14589 12.6737 8.33962C12.6737 8.53357 12.6568 8.73342 12.6297 8.93209L12.5832 9.27309L12.854 9.48539L14.1417 10.4946ZM5.49256 8.33962C5.49256 9.76054 6.65264 10.9206 8.07356 10.9206C9.49448 10.9206 10.6546 9.76054 10.6546 8.33962C10.6546 6.9187 9.49448 5.75862 8.07356 5.75862C6.65264 5.75862 5.49256 6.9187 5.49256 8.33962Z" stroke="#E38B29" stroke-width="1.2"/>
<path d="M16.9997 17.0073C16.7643 17.0072 16.5386 16.9136 16.3721 16.7471C16.2057 16.5805 16.1123 16.3547 16.1124 16.1193C16.1125 15.8839 16.2061 15.6581 16.3726 15.4917C16.5391 15.3253 16.765 15.2319 17.0004 15.2319C17.2358 15.232 17.4616 15.3256 17.628 15.4922C17.7944 15.6587 17.8878 15.8845 17.8877 16.1199C17.8876 16.3554 17.794 16.5811 17.6275 16.7475C17.461 16.9139 17.2351 17.0074 16.9997 17.0073ZM15.7355 17.3832C16.0706 17.7186 16.5253 17.9071 16.9994 17.9073C17.4735 17.9075 17.9283 17.7193 18.2637 17.3842C18.599 17.049 18.7875 16.5944 18.7877 16.1203C18.7879 15.6462 18.5997 15.1914 18.2646 14.856C17.9295 14.5206 17.4748 14.3321 17.0007 14.3319C16.5266 14.3318 16.0718 14.5199 15.7364 14.8551C15.4011 15.1902 15.2126 15.6448 15.2124 16.119C15.2122 16.5931 15.4004 17.0478 15.7355 17.3832ZM19.8524 16.5022L19.8153 16.762L20.0232 16.9222L20.8069 17.5263L20.1142 18.7193L19.1879 18.3472L18.9411 18.248L18.7352 18.4165C18.5612 18.5589 18.3442 18.6784 18.0945 18.7893L17.8674 18.8903L17.8319 19.1364L17.692 20.1075H16.317L16.1771 19.1364L16.1398 18.8774L15.8963 18.7817C15.6646 18.6907 15.4545 18.5655 15.2563 18.4104L15.0512 18.2499L14.8099 18.3477L13.8945 18.7188L13.1976 17.5186L13.9777 16.9109L14.1832 16.7509L14.1468 16.493C14.1118 16.2456 14.1118 15.9946 14.1468 15.7473L14.1832 15.4893L13.9777 15.3293L13.1976 14.7216L13.8945 13.5214L14.8099 13.8925L15.0512 13.9904L15.2563 13.8299C15.4447 13.6824 15.6662 13.5612 15.9145 13.4509L16.1417 13.3499L16.1771 13.1038L16.317 12.1327H17.6807L17.822 13.1137L17.8593 13.3727L18.1029 13.4684C18.3345 13.5594 18.5446 13.6846 18.7428 13.8398L18.9479 14.0003L19.1892 13.9024L20.1046 13.5313L20.8015 14.7315L20.0214 15.3392L19.7988 15.5126L19.8579 15.7885C19.8786 15.885 19.8875 15.9992 19.8875 16.13C19.8875 16.2429 19.8724 16.3626 19.8524 16.5022Z" stroke="#E38B29" stroke-width="0.9"/>
</svg>
