<svg width="22" height="22" viewBox="0 0 22 22" fill="none" xmlns="http://www.w3.org/2000/svg">
<g clip-path="url(#clip0_481_243)">
<path d="M11 21.3125C15.5031 21.3125 19.3187 18.4594 20.7281 14.4375H1.27185C2.68123 18.4594 6.49685 21.3125 11 21.3125Z" fill="#ED4C5C"/>
<path d="M11 0.6875C6.49685 0.6875 2.68123 3.575 1.27185 7.5625H20.7281C19.3187 3.575 15.5031 0.6875 11 0.6875Z" fill="#FFE62E"/>
<path d="M20.7281 14.4375C21.1062 13.3719 21.3125 12.2031 21.3125 11C21.3125 9.79688 21.1062 8.62812 20.7281 7.5625H1.27188C0.89375 8.62812 0.6875 9.79688 0.6875 11C0.6875 12.2031 0.89375 13.3719 1.27188 14.4375H20.7281V14.4375Z" fill="#699635"/>
<path d="M11 14.1281L15.0219 17.1875L13.5094 12.2031L17.5312 9.10938H12.5469L11 4.125L9.45312 9.10938H4.46875L8.49063 12.2031L6.97812 17.1875L11 14.1281Z" fill="white"/>
</g>
<defs>
<clipPath id="clip0_481_243">
<rect width="22" height="22" fill="white"/>
</clipPath>
</defs>
</svg>
