<svg width="22" height="22" viewBox="0 0 22 22" fill="none" xmlns="http://www.w3.org/2000/svg">
<path d="M10.6875 20.6875C15.0542 20.6875 18.7542 17.9208 20.1208 14.0208H1.25415C2.62082 17.9208 6.32082 20.6875 10.6875 20.6875Z" fill="#ED4C5C"/>
<path d="M10.6875 0.6875C6.32082 0.6875 2.62082 3.4875 1.25415 7.35417H20.1208C18.7542 3.4875 15.0542 0.6875 10.6875 0.6875Z" fill="#FFE62E"/>
<path d="M20.1208 14.0208C20.4875 12.9875 20.6875 11.8542 20.6875 10.6875C20.6875 9.52082 20.4875 8.38749 20.1208 7.35416H1.25417C0.8875 8.38749 0.6875 9.52082 0.6875 10.6875C0.6875 11.8542 0.8875 12.9875 1.25417 14.0208H20.1208V14.0208Z" fill="#699635"/>
<path d="M10.6875 13.7208L14.5875 16.6875L13.1208 11.8542L17.0208 8.85418H12.1875L10.6875 4.02084L9.18746 8.85418H4.35413L8.25413 11.8542L6.78746 16.6875L10.6875 13.7208Z" fill="white"/>
</svg>
