<svg width="22" height="22" viewBox="0 0 22 22" fill="none" xmlns="http://www.w3.org/2000/svg">
<path d="M16.8859 9.83449C17.467 15.2102 19.7523 16.8354 19.7523 16.8354H1.75C1.75 16.8354 4.75038 14.7021 4.75038 7.23416C4.75038 5.53694 5.38246 3.90874 6.50761 2.70858C7.63375 1.50843 9.16094 0.833344 10.7511 0.833344C11.0882 0.833344 11.4232 0.863347 11.7513 0.923355M12.4814 19.8358C12.3057 20.1391 12.0534 20.391 11.7497 20.5661C11.4461 20.7412 11.1017 20.8333 10.7511 20.8333C10.4006 20.8333 10.0562 20.7412 9.75254 20.5661C9.44886 20.391 9.19656 20.1391 9.02093 19.8358M17.752 6.83411C18.5478 6.83411 19.3109 6.518 19.8736 5.95532C20.4363 5.39264 20.7524 4.62948 20.7524 3.83373C20.7524 3.03798 20.4363 2.27482 19.8736 1.71214C19.3109 1.14945 18.5478 0.833344 17.752 0.833344C16.9563 0.833344 16.1931 1.14945 15.6304 1.71214C15.0678 2.27482 14.7517 3.03798 14.7517 3.83373C14.7517 4.62948 15.0678 5.39264 15.6304 5.95532C16.1931 6.518 16.9563 6.83411 17.752 6.83411Z" stroke="black" stroke-width="1.5" stroke-linecap="round" stroke-linejoin="round"/>
</svg>
