<svg width="24" height="24" viewBox="0 0 24 24" fill="none" xmlns="http://www.w3.org/2000/svg">
<path d="M18.134 11C18.715 16.375 21 18 21 18H3C3 18 6 15.867 6 8.4C6 6.703 6.632 5.075 7.757 3.875C8.883 2.675 10.41 2 12 2C12.337 2 12.672 2.03 13 2.09M13.73 21C13.5544 21.3033 13.3021 21.5552 12.9985 21.7302C12.6948 21.9053 12.3505 21.9974 12 21.9974C11.6495 21.9974 11.3052 21.9053 11.0015 21.7302C10.6979 21.5552 10.4456 21.3033 10.27 21" stroke="black" stroke-width="1.5" stroke-linecap="round" stroke-linejoin="round"/>
<path d="M18.3333 8.66667C20.1743 8.66667 21.6667 7.17428 21.6667 5.33333C21.6667 3.49238 20.1743 2 18.3333 2C16.4924 2 15 3.49238 15 5.33333C15 7.17428 16.4924 8.66667 18.3333 8.66667Z" fill="black"/>
</svg>
