<svg width="22" height="22" viewBox="0 0 22 22" fill="none" xmlns="http://www.w3.org/2000/svg">
<path d="M17.2396 9.83449C17.831 15.2102 20.1571 16.8354 20.1571 16.8354H1.83337C1.83337 16.8354 4.88733 14.7021 4.88733 7.23416C4.88733 5.53694 5.5307 3.90874 6.67594 2.70858C7.82219 1.50843 9.37666 0.833344 10.9953 0.833344C11.3383 0.833344 11.6793 0.863347 12.0132 0.923355M12.7564 19.8358C12.5776 20.1391 12.3208 20.391 12.0117 20.5661C11.7026 20.7412 11.3521 20.8333 10.9953 20.8333C10.6385 20.8333 10.2879 20.7412 9.97882 20.5661C9.66972 20.391 9.4129 20.1391 9.23414 19.8358" stroke="black" stroke-width="1.5" stroke-linecap="round" stroke-linejoin="round"/>
<path d="M17.4425 7.50086C19.3165 7.50086 20.8358 6.00829 20.8358 4.1671C20.8358 2.32592 19.3165 0.833344 17.4425 0.833344C15.5684 0.833344 14.0492 2.32592 14.0492 4.1671C14.0492 6.00829 15.5684 7.50086 17.4425 7.50086Z" fill="black"/>
</svg>
