<svg width="22" height="22" viewBox="0 0 22 22" fill="none" xmlns="http://www.w3.org/2000/svg">
<path d="M16.6228 10.0833C17.1554 15.0104 19.25 16.5 19.25 16.5H2.75C2.75 16.5 5.5 14.5448 5.5 7.70001C5.5 6.14443 6.07933 4.65209 7.11058 3.55209C8.14275 2.45209 9.5425 1.83334 11 1.83334C11.3089 1.83334 11.616 1.86084 11.9167 1.91584M12.5858 19.25C12.4249 19.5281 12.1936 19.7589 11.9153 19.9194C11.6369 20.0799 11.3213 20.1643 11 20.1643C10.6787 20.1643 10.3631 20.0799 10.0847 19.9194C9.80639 19.7589 9.57514 19.5281 9.41417 19.25M17.4167 7.33334C18.146 7.33334 18.8455 7.04361 19.3612 6.52789C19.8769 6.01216 20.1667 5.31269 20.1667 4.58334C20.1667 3.854 19.8769 3.15453 19.3612 2.6388C18.8455 2.12307 18.146 1.83334 17.4167 1.83334C16.6873 1.83334 15.9878 2.12307 15.4721 2.6388C14.9564 3.15453 14.6667 3.854 14.6667 4.58334C14.6667 5.31269 14.9564 6.01216 15.4721 6.52789C15.9878 7.04361 16.6873 7.33334 17.4167 7.33334Z" stroke="black" stroke-width="1.5" stroke-linecap="round" stroke-linejoin="round"/>
</svg>
