<svg width="22" height="22" viewBox="0 0 22 22" fill="none" xmlns="http://www.w3.org/2000/svg">
<path d="M4.83609 2.37645H14.2479C14.5599 2.37645 14.8591 2.5004 15.0797 2.72103C15.3004 2.94166 15.4243 3.2409 15.4243 3.55292V9.46116C15.8224 9.49722 16.2162 9.57008 16.6008 9.67881V3.55292C16.6008 2.92888 16.3529 2.3304 15.9116 1.88914C15.4704 1.44788 14.8719 1.19998 14.2479 1.19998H4.83609C4.21206 1.19998 3.61358 1.44788 3.17231 1.88914C2.73105 2.3304 2.48315 2.92888 2.48315 3.55292V17.6706C2.48315 18.2946 2.73105 18.8931 3.17231 19.3344C3.61358 19.7756 4.21206 20.0235 4.83609 20.0235H9.84433C9.54469 19.6606 9.28551 19.2661 9.07139 18.847H4.83609C4.52408 18.847 4.22484 18.7231 4.0042 18.5025C3.78357 18.2818 3.65962 17.9826 3.65962 17.6706H8.60903C8.50018 17.286 8.42731 16.8922 8.39139 16.4941H3.65962V3.55292C3.65962 3.2409 3.78357 2.94166 4.0042 2.72103C4.22484 2.5004 4.52408 2.37645 4.83609 2.37645ZM6.01257 3.55292C5.70055 3.55292 5.40131 3.67687 5.18068 3.8975C4.96004 4.11813 4.83609 4.41737 4.83609 4.72939V5.90586C4.83609 6.21788 4.96004 6.51712 5.18068 6.73775C5.40131 6.95839 5.70055 7.08233 6.01257 7.08233H13.0714C13.3834 7.08233 13.6826 6.95839 13.9033 6.73775C14.1239 6.51712 14.2479 6.21788 14.2479 5.90586V4.72939C14.2479 4.41737 14.1239 4.11813 13.9033 3.8975C13.6826 3.67687 13.3834 3.55292 13.0714 3.55292H6.01257ZM13.0714 4.72939V5.90586H6.01257V4.72939H13.0714ZM20.1302 15.9059C20.1302 17.31 19.5724 18.6565 18.5796 19.6494C17.5868 20.6422 16.2402 21.2 14.8361 21.2C13.432 21.2 12.0854 20.6422 11.0926 19.6494C10.0997 18.6565 9.54198 17.31 9.54198 15.9059C9.54198 14.5018 10.0997 13.1552 11.0926 12.1624C12.0854 11.1695 13.432 10.6117 14.8361 10.6117C16.2402 10.6117 17.5868 11.1695 18.5796 12.1624C19.5724 13.1552 20.1302 14.5018 20.1302 15.9059V15.9059ZM14.2714 13.5929C14.1951 13.5405 14.1065 13.509 14.0142 13.5013C13.922 13.4937 13.8294 13.5103 13.7455 13.5494C13.6771 13.5795 13.6151 13.6227 13.5632 13.6765C13.4536 13.7888 13.3923 13.9395 13.3926 14.0965V17.7141C13.3918 17.7921 13.4065 17.8694 13.4358 17.9417C13.4651 18.014 13.5084 18.0798 13.5632 18.1353C13.6169 18.1887 13.6793 18.2324 13.7479 18.2647C13.8672 18.3194 14.0027 18.3278 14.1279 18.2882C14.1821 18.2704 14.2336 18.245 14.2808 18.2129L16.982 16.3694C17.0642 16.3152 17.1304 16.2401 17.1737 16.1517C17.2184 16.0628 17.2414 15.9644 17.2408 15.8649C17.2402 15.7653 17.216 15.6672 17.1702 15.5788C17.1242 15.4917 17.0565 15.418 16.9737 15.3647L14.2714 13.5929V13.5929Z" fill="#E38B29"/>
</svg>
