<svg width="22" height="22" viewBox="0 0 22 22" fill="none" xmlns="http://www.w3.org/2000/svg">
<path d="M5.64002 3.27841H14.2675C14.5535 3.27841 14.8278 3.39203 15.03 3.59428C15.2323 3.79652 15.3459 4.07083 15.3459 4.35684V9.77273C15.7108 9.80578 16.0718 9.87257 16.4243 9.97224V4.35684C16.4243 3.78481 16.1971 3.2362 15.7926 2.83171C15.3881 2.42722 14.8395 2.19998 14.2675 2.19998H5.64002C5.06798 2.19998 4.51937 2.42722 4.11488 2.83171C3.71039 3.2362 3.48315 3.78481 3.48315 4.35684V17.298C3.48315 17.8701 3.71039 18.4187 4.11488 18.8232C4.51937 19.2276 5.06798 19.4549 5.64002 19.4549H10.2309C9.95623 19.1222 9.71865 18.7606 9.52237 18.3765H5.64002C5.354 18.3765 5.0797 18.2628 4.87745 18.0606C4.67521 17.8583 4.56159 17.584 4.56159 17.298H9.09855C8.99876 16.9455 8.93197 16.5845 8.89904 16.2196H4.56159V4.35684C4.56159 4.07083 4.67521 3.79652 4.87745 3.59428C5.0797 3.39203 5.354 3.27841 5.64002 3.27841ZM6.71845 4.35684C6.43243 4.35684 6.15813 4.47046 5.95588 4.67271C5.75364 4.87495 5.64002 5.14926 5.64002 5.43528V6.51371C5.64002 6.79972 5.75364 7.07403 5.95588 7.27627C6.15813 7.47852 6.43243 7.59214 6.71845 7.59214H13.189C13.4751 7.59214 13.7494 7.47852 13.9516 7.27627C14.1538 7.07403 14.2675 6.79972 14.2675 6.51371V5.43528C14.2675 5.14926 14.1538 4.87495 13.9516 4.67271C13.7494 4.47046 13.4751 4.35684 13.189 4.35684H6.71845ZM13.189 5.43528V6.51371H6.71845V5.43528H13.189ZM19.6596 15.6804C19.6596 16.9675 19.1483 18.2018 18.2382 19.1119C17.3281 20.022 16.0938 20.5333 14.8067 20.5333C13.5196 20.5333 12.2852 20.022 11.3751 19.1119C10.465 18.2018 9.95374 16.9675 9.95374 15.6804C9.95374 14.3933 10.465 13.1589 11.3751 12.2488C12.2852 11.3387 13.5196 10.8274 14.8067 10.8274C16.0938 10.8274 17.3281 11.3387 18.2382 12.2488C19.1483 13.1589 19.6596 14.3933 19.6596 15.6804V15.6804ZM14.289 13.5602C14.2191 13.5122 14.1378 13.4832 14.0533 13.4762C13.9688 13.4692 13.8839 13.4844 13.807 13.5203C13.7442 13.5479 13.6875 13.5874 13.6398 13.6367C13.5394 13.7397 13.4832 13.8779 13.4834 14.0217V17.3379C13.4828 17.4094 13.4963 17.4803 13.5231 17.5466C13.5499 17.6128 13.5896 17.6731 13.6398 17.724C13.689 17.7729 13.7463 17.8131 13.8091 17.8426C13.9186 17.8928 14.0427 17.9005 14.1575 17.8642C14.2072 17.8478 14.2544 17.8246 14.2977 17.7952L16.7737 16.1053C16.8491 16.0556 16.9098 15.9868 16.9495 15.9058C16.9905 15.8242 17.0116 15.7341 17.011 15.6428C17.0104 15.5515 16.9883 15.4616 16.9463 15.3806C16.9041 15.3008 16.8421 15.2332 16.7662 15.1843L14.289 13.5602V13.5602Z" fill="#E38B29"/>
</svg>
