<svg width="22" height="22" viewBox="0 0 22 22" fill="none" xmlns="http://www.w3.org/2000/svg">
<path d="M9.68316 4.94998C9.68327 5.75811 9.43275 6.54466 8.96893 7.19246C8.50511 7.84026 7.8528 8.31465 7.10916 8.54497C7.32276 8.82371 7.60836 9.14871 7.97316 9.47496C8.84436 10.2525 10.174 11.04 12.0832 11.1787C12.0892 10.2398 12.4331 9.33732 13.047 8.64977C13.6609 7.96222 14.5001 7.53959 15.3987 7.46541C16.2973 7.39123 17.1899 7.6709 17.9001 8.24914C18.6103 8.82739 19.0864 9.66213 19.2343 10.5884C19.3822 11.5146 19.1911 12.4649 18.6989 13.2515C18.2066 14.0381 17.449 14.6037 16.5757 14.8365C15.7025 15.0694 14.7771 14.9525 13.9826 14.5089C13.1881 14.0654 12.5822 13.3276 12.2848 12.4412C9.93276 12.3437 8.27436 11.39 7.19316 10.425C7.01624 10.267 6.84607 10.101 6.68316 9.92746V13.7524C7.5732 13.9092 8.37424 14.4084 8.92755 15.1514C9.48085 15.8943 9.74604 16.8266 9.67055 17.7636C9.59506 18.7005 9.18442 19.5738 8.51998 20.2103C7.85555 20.8467 6.98583 21.2 6.08316 21.2C5.1805 21.2 4.31077 20.8467 3.64634 20.2103C2.98191 19.5738 2.57126 18.7005 2.49577 17.7636C2.42029 16.8266 2.68547 15.8943 3.23877 15.1514C3.79208 14.4084 4.59312 13.9092 5.48316 13.7524V8.64746C4.8064 8.52831 4.17644 8.2101 3.66753 7.73036C3.15863 7.25061 2.79199 6.62933 2.61083 5.93972C2.42966 5.25012 2.44153 4.52094 2.64503 3.83812C2.84852 3.15531 3.23517 2.54732 3.75939 2.08582C4.28361 1.62432 4.92356 1.32854 5.60382 1.23334C6.28407 1.13815 6.97627 1.2475 7.59884 1.54851C8.22141 1.84952 8.74839 2.32965 9.11768 2.93231C9.48697 3.53496 9.68317 4.23502 9.68316 4.94998V4.94998ZM6.09396 7.44997C6.73048 7.44699 7.33979 7.18074 7.78785 6.70979C8.23592 6.23884 8.48603 5.60177 8.48316 4.93873C8.4803 4.2757 8.22469 3.641 7.77258 3.17427C7.32047 2.70754 6.70888 2.44701 6.07236 2.45C5.75719 2.45147 5.44538 2.5176 5.15474 2.6446C4.8641 2.7716 4.60033 2.95699 4.37847 3.19018C3.93041 3.66113 3.6803 4.2982 3.68316 4.96123C3.68603 5.62427 3.94163 6.25897 4.39374 6.7257C4.84585 7.19243 5.45744 7.45295 6.09396 7.44997V7.44997ZM18.0832 11.2C18.0832 10.5369 17.8303 9.90103 17.3802 9.43219C16.9301 8.96336 16.3197 8.69996 15.6832 8.69996C15.0466 8.69996 14.4362 8.96336 13.9861 9.43219C13.536 9.90103 13.2832 10.5369 13.2832 11.2C13.2832 11.863 13.536 12.4989 13.9861 12.9677C14.4362 13.4365 15.0466 13.6999 15.6832 13.6999C16.3197 13.6999 16.9301 13.4365 17.3802 12.9677C17.8303 12.4989 18.0832 11.863 18.0832 11.2ZM6.08316 19.9499C6.71968 19.9499 7.33013 19.6865 7.78022 19.2177C8.2303 18.7488 8.48316 18.113 8.48316 17.4499C8.48316 16.7869 8.2303 16.151 7.78022 15.6822C7.33013 15.2133 6.71968 14.9499 6.08316 14.9499C5.44664 14.9499 4.83619 15.2133 4.3861 15.6822C3.93602 16.151 3.68316 16.7869 3.68316 17.4499C3.68316 18.113 3.93602 18.7488 4.3861 19.2177C4.83619 19.6865 5.44664 19.9499 6.08316 19.9499V19.9499Z" fill="#E38B29"/>
</svg>
