<svg width="22" height="22" viewBox="0 0 22 22" fill="none" xmlns="http://www.w3.org/2000/svg">
<path d="M10.0832 5.63748C10.0833 6.37827 9.85362 7.09927 9.42845 7.69308C9.00328 8.2869 8.40533 8.72176 7.72366 8.93288C7.91946 9.1884 8.18126 9.48632 8.51566 9.78538C9.31426 10.4981 10.5331 11.22 12.2832 11.3471C12.2887 10.4864 12.6039 9.65921 13.1667 9.02896C13.7294 8.3987 14.4987 8.01129 15.3224 7.94329C16.1461 7.87529 16.9643 8.13165 17.6153 8.66171C18.2664 9.19177 18.7028 9.95695 18.8384 10.806C18.9739 11.655 18.7988 12.5262 18.3476 13.2472C17.8963 13.9683 17.2018 14.4867 16.4013 14.7002C15.6009 14.9136 14.7526 14.8064 14.0243 14.3999C13.296 13.9933 12.7406 13.3169 12.468 12.5044C10.312 12.4151 8.79176 11.5408 7.80066 10.6562C7.63848 10.5114 7.4825 10.3592 7.33316 10.2002V13.7064C8.14903 13.8501 8.88332 14.3077 9.39052 14.9887C9.89771 15.6697 10.1408 16.5244 10.0716 17.3833C10.0024 18.2422 9.62598 19.0426 9.01691 19.6261C8.40785 20.2095 7.6106 20.5333 6.78316 20.5333C5.95572 20.5333 5.15847 20.2095 4.54941 19.6261C3.94034 19.0426 3.56392 18.2422 3.49472 17.3833C3.42552 16.5244 3.66861 15.6697 4.17581 14.9887C4.683 14.3077 5.41729 13.8501 6.23316 13.7064V9.02684C5.61279 8.91761 5.03533 8.62592 4.56883 8.18616C4.10234 7.74639 3.76625 7.17688 3.60019 6.54474C3.43412 5.9126 3.445 5.24419 3.63154 4.61828C3.81808 3.99236 4.1725 3.43504 4.65304 3.012C5.13357 2.58896 5.7202 2.31783 6.34376 2.23056C6.96733 2.1433 7.60184 2.24354 8.17253 2.51946C8.74322 2.79539 9.22629 3.23551 9.5648 3.78794C9.90332 4.34038 10.0832 4.9821 10.0832 5.63748V5.63748ZM6.79306 7.92914C7.37654 7.9264 7.93507 7.68234 8.3458 7.25063C8.75652 6.81893 8.98579 6.23495 8.98316 5.62717C8.98054 5.01938 8.74623 4.43758 8.33179 4.00974C7.91736 3.58191 7.35674 3.34309 6.77326 3.34583C6.48435 3.34718 6.19853 3.4078 5.93211 3.52421C5.66569 3.64063 5.42389 3.81057 5.22053 4.02433C4.8098 4.45603 4.58053 5.04001 4.58316 5.64779C4.58579 6.25558 4.82009 6.83738 5.23453 7.26522C5.64896 7.69305 6.20958 7.93187 6.79306 7.92914V7.92914ZM17.7832 11.3666C17.7832 10.7588 17.5514 10.1759 17.1388 9.74617C16.7262 9.31641 16.1666 9.07496 15.5832 9.07496C14.9997 9.07496 14.4401 9.31641 14.0275 9.74617C13.6149 10.1759 13.3832 10.7588 13.3832 11.3666C13.3832 11.9744 13.6149 12.5573 14.0275 12.9871C14.4401 13.4168 14.9997 13.6583 15.5832 13.6583C16.1666 13.6583 16.7262 13.4168 17.1388 12.9871C17.5514 12.5573 17.7832 11.9744 17.7832 11.3666ZM6.78316 19.3874C7.36664 19.3874 7.92622 19.146 8.3388 18.7162C8.75138 18.2864 8.98316 17.7035 8.98316 17.0958C8.98316 16.488 8.75138 15.9051 8.3388 15.4753C7.92622 15.0455 7.36664 14.8041 6.78316 14.8041C6.19968 14.8041 5.64011 15.0455 5.22753 15.4753C4.81495 15.9051 4.58316 16.488 4.58316 17.0958C4.58316 17.7035 4.81495 18.2864 5.22753 18.7162C5.64011 19.146 6.19968 19.3874 6.78316 19.3874V19.3874Z" fill="#E38B29"/>
</svg>
