<svg width="22" height="22" viewBox="0 0 22 22" fill="none" xmlns="http://www.w3.org/2000/svg">
<path fill-rule="evenodd" clip-rule="evenodd" d="M16.9446 19.6979C17.6813 19.6979 18.3879 19.4053 18.9088 18.8843C19.4297 18.3634 19.7224 17.6569 19.7224 16.9202C19.7224 16.1834 19.4297 15.4769 18.9088 14.956C18.3879 14.435 17.6813 14.1424 16.9446 14.1424C16.2079 14.1424 15.5014 14.435 14.9804 14.956C14.4595 15.4769 14.1668 16.1834 14.1668 16.9202C14.1668 17.6569 14.4595 18.3634 14.9804 18.8843C15.5014 19.4053 16.2079 19.6979 16.9446 19.6979ZM16.9446 20.809C17.976 20.809 18.9652 20.3993 19.6945 19.67C20.4238 18.9407 20.8335 17.9516 20.8335 16.9202C20.8335 15.8888 20.4238 14.8996 19.6945 14.1703C18.9652 13.441 17.976 13.0313 16.9446 13.0313C15.9132 13.0313 14.9241 13.441 14.1948 14.1703C13.4655 14.8996 13.0557 15.8888 13.0557 16.9202C13.0557 17.9516 13.4655 18.9407 14.1948 19.67C14.9241 20.3993 15.9132 20.809 16.9446 20.809Z" fill="#E9962A"/>
<path fill-rule="evenodd" clip-rule="evenodd" d="M16.9444 14.9758C17.0918 14.9758 17.2331 15.0343 17.3373 15.1385C17.4414 15.2427 17.5 15.384 17.5 15.5314V16.6903L17.8928 17.083C17.9939 17.1878 18.0499 17.3281 18.0487 17.4738C18.0474 17.6195 17.989 17.7588 17.886 17.8618C17.783 17.9648 17.6436 18.0233 17.498 18.0245C17.3523 18.0258 17.212 17.9698 17.1072 17.8686L16.3889 17.1503V15.5314C16.3889 15.384 16.4474 15.2427 16.5516 15.1385C16.6558 15.0343 16.7971 14.9758 16.9444 14.9758ZM5.27776 10.2536H4.16665V11.3647H5.27776V10.2536ZM4.16665 9.14255C3.87197 9.14255 3.58935 9.25955 3.38098 9.46795C3.1726 9.67635 3.05554 9.95895 3.05554 10.2536V11.3647C3.05554 11.6594 3.1726 11.942 3.38098 12.1504C3.58935 12.3587 3.87197 12.4758 4.16665 12.4758H5.27776C5.57245 12.4758 5.85506 12.3587 6.06344 12.1504C6.27181 11.942 6.38887 11.6594 6.38887 11.3647V10.2536C6.38887 9.95895 6.27181 9.67635 6.06344 9.46795C5.85506 9.25955 5.57245 9.14255 5.27776 9.14255H4.16665ZM9.72221 10.2536H8.61109V11.3647H9.72221V10.2536ZM8.61109 9.14255C8.31641 9.14255 8.03379 9.25955 7.82542 9.46795C7.61705 9.67635 7.49998 9.95895 7.49998 10.2536V11.3647C7.49998 11.6594 7.61705 11.942 7.82542 12.1504C8.03379 12.3587 8.31641 12.4758 8.61109 12.4758H9.72221C10.0169 12.4758 10.2995 12.3587 10.5079 12.1504C10.7162 11.942 10.8333 11.6594 10.8333 11.3647V10.2536C10.8333 9.95895 10.7162 9.67635 10.5079 9.46795C10.2995 9.25955 10.0169 9.14255 9.72221 9.14255H8.61109ZM14.1666 10.2536H13.0555V11.3647H14.1666V10.2536ZM13.0555 9.14255C12.7608 9.14255 12.4782 9.25955 12.2699 9.46795C12.0615 9.67635 11.9444 9.95895 11.9444 10.2536V11.3647C11.9444 11.6594 12.0615 11.942 12.2699 12.1504C12.4782 12.3587 12.7608 12.4758 13.0555 12.4758H14.1666C14.4613 12.4758 14.7439 12.3587 14.9523 12.1504C15.1607 11.942 15.2778 11.6594 15.2778 11.3647V10.2536C15.2778 9.95895 15.1607 9.67635 14.9523 9.46795C14.7439 9.25955 14.4613 9.14255 14.1666 9.14255H13.0555ZM5.27776 14.698H4.16665V15.8091H5.27776V14.698ZM4.16665 13.5869C3.87197 13.5869 3.58935 13.704 3.38098 13.9124C3.1726 14.1207 3.05554 14.4033 3.05554 14.698V15.8091C3.05554 16.1038 3.1726 16.3864 3.38098 16.5948C3.58935 16.8032 3.87197 16.9203 4.16665 16.9203H5.27776C5.57245 16.9203 5.85506 16.8032 6.06344 16.5948C6.27181 16.3864 6.38887 16.1038 6.38887 15.8091V14.698C6.38887 14.4033 6.27181 14.1207 6.06344 13.9124C5.85506 13.704 5.57245 13.5869 5.27776 13.5869H4.16665ZM9.72221 14.698H8.61109V15.8091H9.72221V14.698ZM8.61109 13.5869C8.31641 13.5869 8.03379 13.704 7.82542 13.9124C7.61705 14.1207 7.49998 14.4033 7.49998 14.698V15.8091C7.49998 16.1038 7.61705 16.3864 7.82542 16.5948C8.03379 16.8032 8.31641 16.9203 8.61109 16.9203H9.72221C10.0169 16.9203 10.2995 16.8032 10.5079 16.5948C10.7162 16.3864 10.8333 16.1038 10.8333 15.8091V14.698C10.8333 14.4033 10.7162 14.1207 10.5079 13.9124C10.2995 13.704 10.0169 13.5869 9.72221 13.5869H8.61109Z" fill="#E9962A"/>
<path fill-rule="evenodd" clip-rule="evenodd" d="M2.3323 4.58866C2.3323 4.44132 2.39083 4.30001 2.49502 4.19583C2.59921 4.09164 2.74051 4.03311 2.88786 4.03311H5.27781V2.47577H2.50004C2.05801 2.47577 1.63409 2.65136 1.32153 2.96392C1.00896 3.27648 0.833374 3.70041 0.833374 4.14243V17.4757C0.833374 17.9178 1.00896 18.3417 1.32153 18.6542C1.63409 18.9668 2.15537 19.2185 2.5974 19.2185H13.8502C13.6133 18.8791 13.3349 18.1067 13.2167 17.7101H2.88786C2.74051 17.7101 2.59921 17.6515 2.49502 17.5474C2.39083 17.4432 2.3323 17.3019 2.3323 17.1545V4.58866ZM16.1386 13.1507C16.1386 13.0697 17.1316 13.0175 17.5001 13.0702V4.14243C17.5001 3.70041 17.3245 3.27648 17.0119 2.96392C16.6993 2.65136 16.2754 2.47577 15.8334 2.47577H14.1667V4.01046H15.583C15.7303 4.01046 15.8716 4.06899 15.9758 4.17318C16.08 4.27736 16.1386 4.41867 16.1386 4.56601C16.1386 4.56601 16.1386 13.2317 16.1386 13.1507ZM6.76229 3.97577H12.2573V2.47577H6.76229C6.76229 2.47577 6.76229 2.85306 6.76229 3.22806C6.76229 3.60306 6.76229 3.97577 6.76229 3.97577Z" fill="#E9962A"/>
<path fill-rule="evenodd" clip-rule="evenodd" d="M17.4999 7.86465H1.94434V6.36465H17.4999V7.86465Z" fill="#E9962A"/>
<path d="M4.60474 1.67492C4.60474 1.52757 4.68375 1.38627 4.82441 1.28208C4.96507 1.17789 5.16606 1.10913 5.36497 1.10913C5.56388 1.10913 5.75465 1.16766 5.89531 1.27185C6.03595 1.37604 6.11497 1.51734 6.11497 1.66469V4.44246C6.11497 4.58981 6.03595 4.73111 5.89531 4.8353C5.75465 4.93949 5.56388 4.99802 5.36497 4.99802C5.16606 4.99802 4.96507 4.94972 4.82441 4.84553C4.68375 4.74134 4.60474 4.60004 4.60474 4.45269V2.21507V1.67492Z" fill="#E9962A"/>
<path d="M11.9326 1.66539C11.9326 1.51804 12.0117 1.37674 12.1523 1.27255C12.293 1.16836 12.494 1.09961 12.6929 1.09961C12.8918 1.09961 13.0826 1.15814 13.2232 1.26233C13.3639 1.36652 13.4429 1.50782 13.4429 1.65517V4.43294C13.4429 4.58029 13.3639 4.72159 13.2232 4.82578C13.0826 4.92997 12.8918 4.9885 12.6929 4.9885C12.494 4.9885 12.293 4.94019 12.1523 4.836C12.0117 4.73181 11.9326 4.59051 11.9326 4.44316V2.20555V1.66539Z" fill="#E9962A"/>
</svg>
