<svg width="24" height="24" viewBox="0 0 24 24" fill="none" xmlns="http://www.w3.org/2000/svg">
<path fill-rule="evenodd" clip-rule="evenodd" d="M18.1111 20.8889C18.8478 20.8889 19.5544 20.5963 20.0753 20.0753C20.5962 19.5544 20.8889 18.8479 20.8889 18.1112C20.8889 17.3744 20.5962 16.6679 20.0753 16.147C19.5544 15.626 18.8478 15.3334 18.1111 15.3334C17.3744 15.3334 16.6679 15.626 16.1469 16.147C15.626 16.6679 15.3333 17.3744 15.3333 18.1112C15.3333 18.8479 15.626 19.5544 16.1469 20.0753C16.6679 20.5963 17.3744 20.8889 18.1111 20.8889ZM18.1111 22C19.1425 22 20.1317 21.5903 20.861 20.861C21.5903 20.1317 22 19.1426 22 18.1112C22 17.0798 21.5903 16.0906 20.861 15.3613C20.1317 14.632 19.1425 14.2223 18.1111 14.2223C17.0797 14.2223 16.0906 14.632 15.3613 15.3613C14.632 16.0906 14.2222 17.0798 14.2222 18.1112C14.2222 19.1426 14.632 20.1317 15.3613 20.861C16.0906 21.5903 17.0797 22 18.1111 22Z" fill="#E9962A"/>
<path fill-rule="evenodd" clip-rule="evenodd" d="M18.1111 16.1668C18.2585 16.1668 18.3998 16.2253 18.504 16.3295C18.6081 16.4337 18.6667 16.575 18.6667 16.7224V17.8813L19.0595 18.274C19.1606 18.3788 19.2166 18.5191 19.2154 18.6648C19.2141 18.8105 19.1557 18.9498 19.0527 19.0528C18.9497 19.1558 18.8103 19.2143 18.6647 19.2155C18.519 19.2168 18.3787 19.1608 18.2739 19.0596L17.5556 18.3413V16.7224C17.5556 16.575 17.6141 16.4337 17.7183 16.3295C17.8225 16.2253 17.9638 16.1668 18.1111 16.1668ZM6.44445 11.4446H5.33334V12.5557H6.44445V11.4446ZM5.33334 10.3335C5.03866 10.3335 4.75604 10.4505 4.54767 10.6589C4.33929 10.8673 4.22223 11.1499 4.22223 11.4446V12.5557C4.22223 12.8504 4.33929 13.133 4.54767 13.3414C4.75604 13.5497 5.03866 13.6668 5.33334 13.6668H6.44445C6.73914 13.6668 7.02175 13.5497 7.23013 13.3414C7.4385 13.133 7.55556 12.8504 7.55556 12.5557V11.4446C7.55556 11.1499 7.4385 10.8673 7.23013 10.6589C7.02175 10.4505 6.73914 10.3335 6.44445 10.3335H5.33334ZM10.8889 11.4446H9.77778V12.5557H10.8889V11.4446ZM9.77778 10.3335C9.4831 10.3335 9.20048 10.4505 8.99211 10.6589C8.78374 10.8673 8.66667 11.1499 8.66667 11.4446V12.5557C8.66667 12.8504 8.78374 13.133 8.99211 13.3414C9.20048 13.5497 9.4831 13.6668 9.77778 13.6668H10.8889C11.1836 13.6668 11.4662 13.5497 11.6746 13.3414C11.8829 13.133 12 12.8504 12 12.5557V11.4446C12 11.1499 11.8829 10.8673 11.6746 10.6589C11.4662 10.4505 11.1836 10.3335 10.8889 10.3335H9.77778ZM15.3333 11.4446H14.2222V12.5557H15.3333V11.4446ZM14.2222 10.3335C13.9275 10.3335 13.6449 10.4505 13.4366 10.6589C13.2282 10.8673 13.1111 11.1499 13.1111 11.4446V12.5557C13.1111 12.8504 13.2282 13.133 13.4366 13.3414C13.6449 13.5497 13.9275 13.6668 14.2222 13.6668H15.3333C15.628 13.6668 15.9106 13.5497 16.119 13.3414C16.3274 13.133 16.4445 12.8504 16.4445 12.5557V11.4446C16.4445 11.1499 16.3274 10.8673 16.119 10.6589C15.9106 10.4505 15.628 10.3335 15.3333 10.3335H14.2222ZM6.44445 15.889H5.33334V17.0001H6.44445V15.889ZM5.33334 14.7779C5.03866 14.7779 4.75604 14.895 4.54767 15.1034C4.33929 15.3117 4.22223 15.5943 4.22223 15.889V17.0001C4.22223 17.2948 4.33929 17.5774 4.54767 17.7858C4.75604 17.9942 5.03866 18.1113 5.33334 18.1113H6.44445C6.73914 18.1113 7.02175 17.9942 7.23013 17.7858C7.4385 17.5774 7.55556 17.2948 7.55556 17.0001V15.889C7.55556 15.5943 7.4385 15.3117 7.23013 15.1034C7.02175 14.895 6.73914 14.7779 6.44445 14.7779H5.33334ZM10.8889 15.889H9.77778V17.0001H10.8889V15.889ZM9.77778 14.7779C9.4831 14.7779 9.20048 14.895 8.99211 15.1034C8.78374 15.3117 8.66667 15.5943 8.66667 15.889V17.0001C8.66667 17.2948 8.78374 17.5774 8.99211 17.7858C9.20048 17.9942 9.4831 18.1113 9.77778 18.1113H10.8889C11.1836 18.1113 11.4662 17.9942 11.6746 17.7858C11.8829 17.5774 12 17.2948 12 17.0001V15.889C12 15.5943 11.8829 15.3117 11.6746 15.1034C11.4662 14.895 11.1836 14.7779 10.8889 14.7779H9.77778Z" fill="#E9962A"/>
<path fill-rule="evenodd" clip-rule="evenodd" d="M3.49893 5.77952C3.49893 5.63218 3.55746 5.49087 3.66165 5.38669C3.76584 5.2825 3.90714 5.22397 4.05449 5.22397H6.44444V3.66663H3.66667C3.22464 3.66663 2.80072 3.84222 2.48816 4.15478C2.17559 4.46734 2 4.89127 2 5.33329V18.6666C2 19.1087 2.17559 19.5326 2.48816 19.8451C2.80072 20.1577 3.322 20.4094 3.76403 20.4094H15.0168C14.7799 20.07 14.5015 19.2976 14.3833 18.901H4.05449C3.90714 18.901 3.76584 18.8424 3.66165 18.7383C3.55746 18.6341 3.49893 18.4928 3.49893 18.3454V5.77952ZM17.3052 14.3416C17.3052 14.2606 18.2982 14.2084 18.6667 14.2611V5.33329C18.6667 4.89127 18.4911 4.46734 18.1785 4.15478C17.8659 3.84222 17.442 3.66663 17 3.66663H15.3333V5.20132H16.7496C16.8969 5.20132 17.0382 5.25985 17.1424 5.36404C17.2466 5.46822 17.3052 5.60953 17.3052 5.75687C17.3052 5.75687 17.3052 14.4226 17.3052 14.3416ZM7.92892 5.16663H13.4239V3.66663H7.92892C7.92892 3.66663 7.92892 4.04392 7.92892 4.41892C7.92892 4.79392 7.92892 5.16663 7.92892 5.16663Z" fill="#E9962A"/>
<path fill-rule="evenodd" clip-rule="evenodd" d="M18.6666 9.05554H3.11108V7.55554H18.6666V9.05554Z" fill="#E9962A"/>
<path d="M5.77136 2.86584C5.77136 2.71849 5.85037 2.57719 5.99103 2.473C6.13169 2.36881 6.33268 2.30005 6.53159 2.30005C6.7305 2.30005 6.92127 2.35858 7.06193 2.46277C7.20257 2.56696 7.28159 2.70826 7.28159 2.85561V5.63338C7.28159 5.78073 7.20257 5.92203 7.06193 6.02622C6.92127 6.13041 6.7305 6.18894 6.53159 6.18894C6.33268 6.18894 6.13169 6.14064 5.99103 6.03645C5.85037 5.93226 5.77136 5.79096 5.77136 5.64361V3.40599V2.86584Z" fill="#E9962A"/>
<path d="M13.0992 2.85631C13.0992 2.70896 13.1783 2.56766 13.3189 2.46347C13.4596 2.35928 13.6606 2.29053 13.8595 2.29053C14.0584 2.29053 14.2492 2.34906 14.3898 2.45325C14.5305 2.55744 14.6095 2.69874 14.6095 2.84609V5.62386C14.6095 5.77121 14.5305 5.91251 14.3898 6.0167C14.2492 6.12089 14.0584 6.17942 13.8595 6.17942C13.6606 6.17942 13.4596 6.13111 13.3189 6.02692C13.1783 5.92273 13.0992 5.78143 13.0992 5.63408V3.39647V2.85631Z" fill="#E9962A"/>
</svg>
