<svg width="22" height="22" viewBox="0 0 22 22" fill="none" xmlns="http://www.w3.org/2000/svg">
<g clip-path="url(#clip0_529_50)">
<path d="M10.8333 20.8333C16.3563 20.8333 20.8333 16.3563 20.8333 10.8333C20.8333 5.31034 16.3563 0.833344 10.8333 0.833344C5.31031 0.833344 0.833313 5.31034 0.833313 10.8333C0.833313 16.3563 5.31031 20.8333 10.8333 20.8333Z" stroke="black" stroke-width="1.5" stroke-linecap="round" stroke-linejoin="round"/>
<path d="M13.8333 7.33334C13.1483 6.64834 11.9423 6.17234 10.8333 6.14234M7.83331 13.8333C8.47731 14.6933 9.67631 15.1833 10.8333 15.2243M10.8333 6.14234C9.51331 6.10634 8.33331 6.70334 8.33331 8.33334C8.33331 11.3333 13.8333 9.83334 13.8333 12.8333C13.8333 14.5443 12.3693 15.2793 10.8333 15.2243M10.8333 6.14234V4.33334M10.8333 15.2243V17.3333" stroke="black" stroke-width="1.5" stroke-linecap="round" stroke-linejoin="round"/>
</g>
<defs>
<clipPath id="clip0_529_50">
<rect width="22" height="22" fill="white"/>
</clipPath>
</defs>
</svg>
