<svg width="22" height="22" viewBox="0 0 22 22" fill="none" xmlns="http://www.w3.org/2000/svg">
<path d="M11.0578 17.4627C10.8624 17.4627 10.6985 17.3961 10.5661 17.2627C10.4341 17.1299 10.3681 16.9651 10.3681 16.7683V15.9698C9.85092 15.854 9.39692 15.6515 9.00614 15.3621C8.61535 15.0728 8.29928 14.6677 8.05791 14.1469C7.97745 13.9849 7.97446 13.8143 8.04894 13.6352C8.12388 13.4556 8.25905 13.3252 8.45444 13.2442C8.61535 13.1748 8.78201 13.1778 8.95442 13.2532C9.12682 13.3282 9.259 13.4525 9.35095 13.6261C9.54634 13.9733 9.79346 14.2368 10.0923 14.4164C10.3911 14.5955 10.7589 14.6851 11.1957 14.6851C11.6669 14.6851 12.0664 14.5782 12.3942 14.3643C12.7216 14.15 12.8853 13.8171 12.8853 13.3657C12.8853 12.9607 12.7588 12.6394 12.506 12.4019C12.2531 12.1649 11.6669 11.8959 10.7474 11.595C9.75897 11.2825 9.08085 10.9094 8.71305 10.4756C8.34525 10.0414 8.16135 9.51181 8.16135 8.88684C8.16135 8.13457 8.40272 7.55012 8.88545 7.13348C9.36819 6.71684 9.86242 6.47958 10.3681 6.42172V5.65787C10.3681 5.46113 10.4341 5.29609 10.5661 5.16276C10.6985 5.0299 10.8624 4.96347 11.0578 4.96347C11.2532 4.96347 11.4171 5.0299 11.5495 5.16276C11.6814 5.29609 11.7474 5.46113 11.7474 5.65787V6.42172C12.1841 6.49116 12.5634 6.63305 12.8853 6.84738C13.2071 7.06126 13.4714 7.32444 13.6783 7.63692C13.7818 7.78737 13.802 7.95519 13.739 8.14036C13.6756 8.32554 13.5461 8.45863 13.3508 8.53964C13.1898 8.60908 13.0232 8.61186 12.8508 8.54798C12.6784 8.48455 12.5175 8.37183 12.368 8.2098C12.2186 8.04778 12.0435 7.92325 11.8426 7.83621C11.6412 7.74964 11.3911 7.70636 11.0922 7.70636C10.5865 7.70636 10.2015 7.81932 9.93713 8.04523C9.67277 8.27068 9.54059 8.55122 9.54059 8.88684C9.54059 9.26877 9.713 9.56967 10.0578 9.78957C10.4026 10.0095 11.0003 10.2409 11.8508 10.484C12.6439 10.7154 13.2446 11.0828 13.6528 11.586C14.0606 12.0897 14.2645 12.6713 14.2645 13.331C14.2645 14.1527 14.0231 14.7777 13.5404 15.2059C13.0577 15.6341 12.46 15.9003 11.7474 16.0045V16.7683C11.7474 16.9651 11.6814 17.1299 11.5495 17.2627C11.4171 17.3961 11.2532 17.4627 11.0578 17.4627V17.4627Z" fill="#F09631"/>
<path fill-rule="evenodd" clip-rule="evenodd" d="M21.3968 16.2509C21.4145 16.2704 21.4282 16.2933 21.437 16.3181C21.4445 16.3406 21.4495 16.3631 21.4495 16.3881V17.3757C21.4495 17.4582 21.3973 17.5332 21.3178 17.5632L11.7764 21.0505C11.5998 21.1155 11.4085 21.1155 11.2319 21.0505L1.69313 17.5607C1.61358 17.5307 1.56137 17.4557 1.56137 17.3732L1.44946 16.3506C1.44946 16.2406 1.53896 16.1506 1.64834 16.1506C1.67072 16.1506 1.6931 16.1556 1.71547 16.1631L3.34464 16.7108L3.3513 2.79917C3.3513 1.85923 4.10706 1.09927 5.0418 1.09927H17.9691C18.9039 1.09927 19.6596 1.85923 19.6596 2.79917V16.7556L20.6256 16.4017L21.181 16.1981C21.2057 16.189 21.2319 16.1848 21.2582 16.1859C21.2843 16.187 21.3102 16.1933 21.334 16.2045C21.3577 16.2156 21.3791 16.2314 21.3968 16.2509ZM4.84552 17.1756L11.5006 19.5943L18.1558 17.1756V2.61656H4.84552V17.1756Z" fill="#E9962A"/>
</svg>
