<svg width="24" height="24" viewBox="0 0 24 24" fill="none" xmlns="http://www.w3.org/2000/svg">
<path d="M11.9606 18C11.7717 18 11.6133 17.936 11.4853 17.808C11.3577 17.6804 11.2939 17.5222 11.2939 17.3333V16.5667C10.7939 16.4556 10.355 16.2611 9.97725 15.9833C9.59947 15.7056 9.29392 15.3167 9.06058 14.8167C8.98281 14.6611 8.97992 14.4973 9.05192 14.3253C9.12436 14.1529 9.25503 14.0278 9.44392 13.95C9.59947 13.8833 9.76058 13.8862 9.92725 13.9587C10.0939 14.0307 10.2217 14.15 10.3106 14.3167C10.4995 14.65 10.7384 14.9029 11.0273 15.0753C11.3161 15.2473 11.6717 15.3333 12.0939 15.3333C12.5495 15.3333 12.9357 15.2307 13.2526 15.0253C13.569 14.8196 13.7273 14.5 13.7273 14.0667C13.7273 13.6778 13.605 13.3693 13.3606 13.1413C13.1161 12.9138 12.5495 12.6556 11.6606 12.3667C10.705 12.0667 10.0495 11.7084 9.69392 11.292C9.33836 10.8751 9.16058 10.3667 9.16058 9.76667C9.16058 9.04444 9.39392 8.48333 9.86058 8.08333C10.3273 7.68333 10.805 7.45556 11.2939 7.4V6.66667C11.2939 6.47778 11.3577 6.31933 11.4853 6.19133C11.6133 6.06378 11.7717 6 11.9606 6C12.1495 6 12.3079 6.06378 12.4359 6.19133C12.5635 6.31933 12.6272 6.47778 12.6272 6.66667V7.4C13.0495 7.46667 13.4161 7.60289 13.7273 7.80867C14.0384 8.014 14.2939 8.26667 14.4939 8.56667C14.5939 8.71111 14.6135 8.87222 14.5526 9.05C14.4913 9.22778 14.3661 9.35556 14.1773 9.43333C14.0217 9.5 13.8606 9.50267 13.6939 9.44133C13.5273 9.38044 13.3717 9.27222 13.2273 9.11667C13.0828 8.96111 12.9135 8.84156 12.7193 8.758C12.5246 8.67489 12.2828 8.63333 11.9939 8.63333C11.505 8.63333 11.1328 8.74178 10.8772 8.95867C10.6217 9.17511 10.4939 9.44444 10.4939 9.76667C10.4939 10.1333 10.6606 10.4222 10.9939 10.6333C11.3273 10.8444 11.905 11.0667 12.7273 11.3C13.4939 11.5222 14.0746 11.8749 14.4693 12.358C14.8635 12.8416 15.0606 13.4 15.0606 14.0333C15.0606 14.8222 14.8273 15.4222 14.3606 15.8333C13.8939 16.2444 13.3161 16.5 12.6272 16.6V17.3333C12.6272 17.5222 12.5635 17.6804 12.4359 17.808C12.3079 17.936 12.1495 18 11.9606 18V18Z" fill="#F09631"/>
<path fill-rule="evenodd" clip-rule="evenodd" d="M21.9556 16.8366C21.9727 16.8553 21.9859 16.8773 21.9945 16.9011C22.0017 16.9227 22.0065 16.9443 22.0065 16.9683V17.9165C22.0065 17.9957 21.9561 18.0677 21.8792 18.0965L12.6554 21.4445C12.4847 21.5069 12.2997 21.5069 12.129 21.4445L2.90774 18.0941C2.83083 18.0653 2.78036 17.9933 2.78036 17.9141L2.67218 16.9323C2.67218 16.8267 2.7587 16.7403 2.86444 16.7403C2.88607 16.7403 2.90771 16.7451 2.92934 16.7523L4.50427 17.2781L4.51071 3.92216C4.51071 3.01976 5.24131 2.29016 6.14494 2.29016H18.6419C19.5456 2.29016 20.2762 3.01976 20.2762 3.92216V17.3211L21.21 16.9814L21.747 16.7859C21.7708 16.7772 21.7961 16.7732 21.8216 16.7742C21.8468 16.7753 21.8719 16.7813 21.8948 16.7921C21.9178 16.8027 21.9384 16.8179 21.9556 16.8366ZM5.9552 17.7243L12.3888 20.0465L18.8224 17.7243V3.74685H5.9552V17.7243Z" fill="#E9962A"/>
</svg>
