<svg width="22" height="22" viewBox="0 0 22 22" fill="none"
    xmlns="http://www.w3.org/2000/svg">
    <path d="M21.1659 13.7272L19.023 11.5844C18.8891 11.4504 18.7074 11.3752 18.518 11.3752C18.3286 11.3752 18.147 11.4504 18.013 11.5844L11.3751 18.2223V21.3751H14.528L21.1659 14.7372C21.2998 14.6033 21.375 14.4216 21.375 14.2322C21.375 14.0428 21.2998 13.8612 21.1659 13.7272ZM13.9365 19.9466H12.8037V18.8137L16.3751 15.2422L17.508 16.3751L13.9365 19.9466ZM18.518 15.3651L17.3851 14.2322L18.518 13.0994L19.6509 14.2322L18.518 15.3651ZM5.66077 11.3751H12.8037V12.8037H5.66077V11.3751ZM5.66077 7.08932H14.2323V8.51791H5.66077V7.08932Z" fill="#FFBA55"/>
    <path d="M18.518 2.80358C18.5176 2.42481 18.367 2.06167 18.0992 1.79384C17.8313 1.52601 17.4682 1.37538 17.0894 1.375H2.80359C2.42482 1.37538 2.06167 1.52601 1.79384 1.79384C1.52602 2.06167 1.37538 2.42481 1.375 2.80358V12.0894C1.37341 13.5139 1.75981 14.912 2.49271 16.1335C3.22562 17.3551 4.27736 18.354 5.53504 19.023L9.23221 20.9944V19.3751L6.2079 17.7623C5.17885 17.2149 4.31828 16.3976 3.71853 15.3982C3.11877 14.3988 2.80248 13.2549 2.80359 12.0894V2.80358H17.0894V9.2322H18.518V2.80358Z" fill="#FFBA55"/>
</svg>
