<svg width="22" height="22" viewBox="0 0 22 22" fill="none" xmlns="http://www.w3.org/2000/svg">
<g clip-path="url(#clip0_391_2)">
<path d="M11 0C4.92486 0 0 4.92486 0 11C0 17.0751 4.92486 22 11 22C17.0751 22 22 17.0751 22 11C22 4.92486 17.0751 0 11 0ZM7.54371 4.8125L11 8.26879L14.4563 4.8125L17.1875 7.54371L13.7312 11L17.1875 14.4563L14.4563 17.1875L11 13.7312L7.54371 17.1875L4.8125 14.4563L8.26879 11L4.8125 7.54371L7.54371 4.8125Z" fill="#565656"/>
<path d="M7.54371 4.8125L11 8.26879L14.4563 4.8125L17.1875 7.54371L13.7312 11L17.1875 14.4563L14.4563 17.1875L11 13.7312L7.54371 17.1875L4.8125 14.4563L8.26879 11L4.8125 7.54371L7.54371 4.8125Z" fill="white"/>
</g>
<defs>
<clipPath id="clip0_391_2">
<rect width="22" height="22" fill="white"/>
</clipPath>
</defs>
</svg>
