<svg width="22" height="22" viewBox="0 0 22 22" fill="none" xmlns="http://www.w3.org/2000/svg">
<path d="M11 1C5.47715 1 1 5.47715 1 11C1 16.5229 5.47715 21 11 21C16.5229 21 21 16.5229 21 11C21 5.47715 16.5229 1 11 1ZM7.85792 5.375L11 8.51708L14.1421 5.375L16.625 7.85792L13.4829 11L16.625 14.1421L14.1421 16.625L11 13.4829L7.85792 16.625L5.375 14.1421L8.51708 11L5.375 7.85792L7.85792 5.375Z" fill="#565656"/>
<path d="M7.85792 5.375L11 8.51708L14.1421 5.375L16.625 7.85792L13.4829 11L16.625 14.1421L14.1421 16.625L11 13.4829L7.85792 16.625L5.375 14.1421L8.51708 11L5.375 7.85792L7.85792 5.375Z" fill="white"/>
</svg>
