<svg width="24" height="24" viewBox="0 0 24 24" fill="none" xmlns="http://www.w3.org/2000/svg">
<path d="M7.32141 13.9286H13.0357V15.3572H7.32141V13.9286ZM7.32141 10.3572H15.8928V11.7857H7.32141V10.3572ZM7.32141 17.5H10.8928V18.9286H7.32141V17.5Z" fill="#E38B29"/>
<path d="M18.0357 4.64286H15.8929V3.92857C15.8929 3.54969 15.7423 3.18633 15.4744 2.91842C15.2065 2.65051 14.8432 2.5 14.4643 2.5H8.75C8.37112 2.5 8.00776 2.65051 7.73985 2.91842C7.47194 3.18633 7.32143 3.54969 7.32143 3.92857V4.64286H5.17857C4.79969 4.64286 4.43633 4.79337 4.16842 5.06128C3.90051 5.32919 3.75 5.69255 3.75 6.07143V21.0714C3.75 21.4503 3.90051 21.8137 4.16842 22.0816C4.43633 22.3495 4.79969 22.5 5.17857 22.5H18.0357C18.4146 22.5 18.778 22.3495 19.0459 22.0816C19.3138 21.8137 19.4643 21.4503 19.4643 21.0714V6.07143C19.4643 5.69255 19.3138 5.32919 19.0459 5.06128C18.778 4.79337 18.4146 4.64286 18.0357 4.64286V4.64286ZM8.75 3.92857H14.4643V6.78571H8.75V3.92857ZM18.0357 21.0714H5.17857V6.07143H7.32143V8.21429H15.8929V6.07143H18.0357V21.0714Z" fill="#E38B29"/>
</svg>
