<svg width="22" height="22" viewBox="0 0 22 22" fill="none" xmlns="http://www.w3.org/2000/svg">
<path d="M7.00891 12.7202H12.7232V14.1488H7.00891V12.7202ZM7.00891 9.1488H15.5803V10.5774H7.00891V9.1488ZM7.00891 16.2917H10.5803V17.7202H7.00891V16.2917Z" fill="#E38B29"/>
<path d="M17.7232 3.43451H15.5804V2.72023C15.5804 2.34135 15.4298 1.97798 15.1619 1.71008C14.894 1.44217 14.5307 1.29166 14.1518 1.29166H8.4375C8.05862 1.29166 7.69526 1.44217 7.42735 1.71008C7.15944 1.97798 7.00893 2.34135 7.00893 2.72023V3.43451H4.86607C4.48719 3.43451 4.12383 3.58502 3.85592 3.85293C3.58801 4.12084 3.4375 4.4842 3.4375 4.86309V19.8631C3.4375 20.242 3.58801 20.6053 3.85592 20.8732C4.12383 21.1411 4.48719 21.2917 4.86607 21.2917H17.7232C18.1021 21.2917 18.4655 21.1411 18.7334 20.8732C19.0013 20.6053 19.1518 20.242 19.1518 19.8631V4.86309C19.1518 4.4842 19.0013 4.12084 18.7334 3.85293C18.4655 3.58502 18.1021 3.43451 17.7232 3.43451V3.43451ZM8.4375 2.72023H14.1518V5.57737H8.4375V2.72023ZM17.7232 19.8631H4.86607V4.86309H7.00893V7.00594H15.5804V4.86309H17.7232V19.8631Z" fill="#E38B29"/>
</svg>
