<svg width="22" height="22" viewBox="0 0 22 22" fill="none" xmlns="http://www.w3.org/2000/svg">
<path d="M11.375 1.375C5.85268 1.375 1.375 5.85268 1.375 11.375C1.375 16.8973 5.85268 21.375 11.375 21.375C16.8973 21.375 21.375 16.8973 21.375 11.375C21.375 5.85268 16.8973 1.375 11.375 1.375ZM11.375 19.6786C6.79018 19.6786 3.07143 15.9598 3.07143 11.375C3.07143 9.38839 3.77009 7.5625 4.93527 6.13393L16.6161 17.8147C15.1875 18.9799 13.3616 19.6786 11.375 19.6786ZM17.8147 16.6161L6.13393 4.93527C7.5625 3.77009 9.38839 3.07143 11.375 3.07143C15.9598 3.07143 19.6786 6.79018 19.6786 11.375C19.6786 13.3616 18.9799 15.1875 17.8147 16.6161Z" fill="black"/>
</svg>
