<svg width="22" height="22" viewBox="0 0 22 22" fill="none" xmlns="http://www.w3.org/2000/svg">
<path d="M11 1.375C5.68477 1.375 1.375 5.68477 1.375 11C1.375 16.3152 5.68477 20.625 11 20.625C16.3152 20.625 20.625 16.3152 20.625 11C20.625 5.68477 16.3152 1.375 11 1.375ZM11 18.9922C6.58711 18.9922 3.00781 15.4129 3.00781 11C3.00781 9.08789 3.68027 7.33047 4.80176 5.95547L16.0445 17.1982C14.6695 18.3197 12.9121 18.9922 11 18.9922ZM17.1982 16.0445L5.95547 4.80176C7.33047 3.68027 9.08789 3.00781 11 3.00781C15.4129 3.00781 18.9922 6.58711 18.9922 11C18.9922 12.9121 18.3197 14.6695 17.1982 16.0445Z" fill="#F1AE4A"/>
</svg>
