<svg width="22" height="22" viewBox="0 0 22 22" fill="none" xmlns="http://www.w3.org/2000/svg">
<path d="M11.4502 18C11.2938 18 11.1627 17.9467 11.0568 17.84C10.9512 17.7337 10.8984 17.6019 10.8984 17.4444V16.8056C10.4846 16.713 10.1214 16.5509 9.80877 16.3194C9.49612 16.088 9.24324 15.7639 9.05014 15.3472C8.98577 15.2176 8.98338 15.0811 9.04297 14.9378C9.10292 14.7941 9.21106 14.6898 9.36738 14.625C9.49612 14.5694 9.62946 14.5719 9.76739 14.6322C9.90532 14.6922 10.0111 14.7917 10.0846 14.9306C10.241 15.2083 10.4387 15.4191 10.6777 15.5628C10.9168 15.7061 11.2111 15.7778 11.5605 15.7778C11.9375 15.7778 12.2572 15.6922 12.5194 15.5211C12.7813 15.3496 12.9123 15.0833 12.9123 14.7222C12.9123 14.3981 12.8111 14.1411 12.6088 13.9511C12.4065 13.7615 11.9375 13.5463 11.2019 13.3056C10.4111 13.0556 9.86854 12.757 9.57428 12.41C9.28003 12.0626 9.1329 11.6389 9.1329 11.1389C9.1329 10.537 9.326 10.0694 9.71222 9.73611C10.0984 9.40278 10.4938 9.21296 10.8984 9.16667V8.55556C10.8984 8.39815 10.9512 8.26611 11.0568 8.15944C11.1627 8.05315 11.2938 8 11.4502 8C11.6065 8 11.7376 8.05315 11.8436 8.15944C11.9491 8.26611 12.0019 8.39815 12.0019 8.55556V9.16667C12.3513 9.22222 12.6548 9.33574 12.9123 9.50722C13.1697 9.67833 13.3812 9.88889 13.5467 10.1389C13.6295 10.2593 13.6457 10.3935 13.5953 10.5417C13.5445 10.6898 13.441 10.7963 13.2847 10.8611C13.1559 10.9167 13.0226 10.9189 12.8847 10.8678C12.7467 10.817 12.618 10.7269 12.4985 10.5972C12.3789 10.4676 12.2388 10.368 12.078 10.2983C11.9169 10.2291 11.7168 10.1944 11.4778 10.1944C11.0732 10.1944 10.7651 10.2848 10.5536 10.4656C10.3421 10.6459 10.2364 10.8704 10.2364 11.1389C10.2364 11.4444 10.3743 11.6852 10.6502 11.8611C10.926 12.037 11.4042 12.2222 12.0847 12.4167C12.7191 12.6019 13.1997 12.8957 13.5263 13.2983C13.8526 13.7013 14.0157 14.1667 14.0157 14.6944C14.0157 15.3519 13.8226 15.8519 13.4364 16.1944C13.0502 16.537 12.572 16.75 12.0019 16.8333V17.4444C12.0019 17.6019 11.9491 17.7337 11.8436 17.84C11.7376 17.9467 11.6065 18 11.4502 18V18Z" fill="#FFBA55"/>
<path d="M17.7232 3.43451H15.5804V2.72023C15.5804 2.34135 15.4298 1.97798 15.1619 1.71008C14.894 1.44217 14.5307 1.29166 14.1518 1.29166H8.4375C8.05862 1.29166 7.69526 1.44217 7.42735 1.71008C7.15944 1.97798 7.00893 2.34135 7.00893 2.72023V3.43451H4.86607C4.48719 3.43451 4.12383 3.58502 3.85592 3.85293C3.58801 4.12084 3.4375 4.4842 3.4375 4.86309V19.8631C3.4375 20.242 3.58801 20.6053 3.85592 20.8732C4.12383 21.1411 4.48719 21.2917 4.86607 21.2917H17.7232C18.1021 21.2917 18.4655 21.1411 18.7334 20.8732C19.0013 20.6053 19.1518 20.242 19.1518 19.8631V4.86309C19.1518 4.4842 19.0013 4.12084 18.7334 3.85293C18.4655 3.58502 18.1021 3.43451 17.7232 3.43451V3.43451ZM8.4375 2.72023H14.1518V5.57737H8.4375V2.72023ZM17.7232 19.8631H4.86607V4.86309H7.00893V7.00594H15.5804V4.86309H17.7232V19.8631Z" fill="#FFBA55"/>
</svg>
