<svg width="22" height="22" viewBox="0 0 22 22" fill="none" xmlns="http://www.w3.org/2000/svg">
<path d="M10.8334 0.833344C12.1466 0.833344 13.447 1.092 14.6602 1.59455C15.8735 2.0971 16.9759 2.83369 17.9044 3.76228C18.833 4.69086 19.5696 5.79325 20.0722 7.00651C20.5747 8.21976 20.8334 9.52012 20.8334 10.8333C20.8334 13.4855 19.7798 16.029 17.9044 17.9044C16.0291 19.7798 13.4855 20.8333 10.8334 20.8333C9.52016 20.8333 8.2198 20.5747 7.00654 20.0721C5.79328 19.5696 4.69089 18.833 3.76231 17.9044C1.88694 16.029 0.833374 13.4855 0.833374 10.8333C0.833374 8.18118 1.88694 5.63764 3.76231 3.76228C5.63767 1.88691 8.18121 0.833344 10.8334 0.833344M6.83337 6.54334V9.88334L13.9734 10.8333L6.83337 11.7833V15.1233L16.8334 10.8333L6.83337 6.54334Z" fill="#E38B29"/>
</svg>
