<svg width="22" height="22" viewBox="0 0 22 22" fill="none" xmlns="http://www.w3.org/2000/svg">
<path d="M6.51958 10.3537C6.62248 10.4565 6.70411 10.5786 6.75981 10.7129C6.81551 10.8473 6.84418 10.9913 6.84418 11.1368C6.84418 11.2822 6.81551 11.4262 6.75981 11.5606C6.70411 11.6949 6.62248 11.817 6.51958 11.9198L4.49751 13.943H15.1446C15.4381 13.943 15.7197 14.0596 15.9272 14.2671C16.1348 14.4747 16.2514 14.7562 16.2514 15.0497C16.2514 15.3433 16.1348 15.6248 15.9272 15.8323C15.7197 16.0399 15.4381 16.1565 15.1446 16.1565H4.49751L6.52068 18.1797C6.62351 18.2824 6.7051 18.4044 6.76078 18.5387C6.81646 18.673 6.84514 18.8169 6.84519 18.9623C6.84524 19.1077 6.81666 19.2516 6.76108 19.386C6.70549 19.5203 6.62399 19.6424 6.52124 19.7452C6.41848 19.848 6.29647 19.9296 6.16219 19.9853C6.0279 20.041 5.88396 20.0696 5.73859 20.0697C5.59322 20.0697 5.44926 20.0412 5.31493 19.9856C5.18061 19.93 5.05854 19.8485 4.95572 19.7457L1.04219 15.8322C0.834699 15.6247 0.71814 15.3432 0.71814 15.0497C0.71814 14.7563 0.834699 14.4748 1.04219 14.2672L4.95572 10.3537C5.16326 10.1462 5.44472 10.0297 5.7382 10.0297C6.03167 10.0297 6.31313 10.1462 6.52068 10.3537H6.51958ZM14.9155 1.49957C15.1061 1.30902 15.3597 1.19454 15.6286 1.17763C15.8976 1.16072 16.1635 1.24253 16.3764 1.40771L16.4805 1.49957L20.394 5.4131C20.5846 5.60368 20.699 5.85724 20.716 6.12621C20.7329 6.39519 20.6511 6.66109 20.4859 6.87404L20.394 6.97807L16.4805 10.8905C16.2813 11.089 16.0141 11.2042 15.733 11.2128C15.4519 11.2214 15.1781 11.1227 14.9672 10.9367C14.7563 10.7507 14.6241 10.4914 14.5974 10.2115C14.5708 9.93159 14.6516 9.65201 14.8237 9.42956L14.9155 9.32553L16.9376 7.30236H6.29048C6.00838 7.30204 5.73706 7.19403 5.53193 7.00038C5.32681 6.80673 5.20337 6.54206 5.18684 6.26045C5.17031 5.97884 5.26193 5.70155 5.44299 5.48523C5.62404 5.26891 5.88087 5.12989 6.16098 5.09657L6.29048 5.08882H16.9387L14.9155 3.06344C14.708 2.85589 14.5915 2.57443 14.5915 2.28095C14.5915 1.98748 14.708 1.70602 14.9155 1.49847V1.49957Z" fill="#FFBA55"/>
</svg>
