<svg width="22" height="22" viewBox="0 0 22 22" fill="none" xmlns="http://www.w3.org/2000/svg">
<path d="M20.8332 4.01332L9.42325 15.4333L5.18325 11.1933L6.59325 9.78332L9.42325 12.6133L19.4232 2.61332L20.8332 4.01332ZM18.6232 9.05332C18.7532 9.62332 18.8332 10.2233 18.8332 10.8333C18.8332 15.2533 15.2532 18.8333 10.8332 18.8333C6.41325 18.8333 2.83325 15.2533 2.83325 10.8333C2.83325 6.41332 6.41325 2.83332 10.8332 2.83332C12.4132 2.83332 13.8732 3.29332 15.1132 4.08332L16.5532 2.64332C14.8797 1.46287 12.8812 0.830492 10.8332 0.833322C5.31325 0.833322 0.833252 5.31332 0.833252 10.8333C0.833252 16.3533 5.31325 20.8333 10.8332 20.8333C16.3532 20.8333 20.8332 16.3533 20.8332 10.8333C20.8332 9.64332 20.6132 8.50332 20.2332 7.44332L18.6232 9.05332Z" fill="#E38B29"/>
</svg>
