<svg width="22" height="22" viewBox="0 0 22 22" fill="none" xmlns="http://www.w3.org/2000/svg">
<path d="M15.4954 4.80204C15.4954 2.49614 14.419 0.836121 12.656 0.836121C11.6872 0.836121 11.3548 1.40457 11.0073 2.72465C10.9365 2.99849 10.9016 3.13069 10.8647 3.26194C10.7694 3.59999 10.6032 4.17788 10.3671 4.98995C10.3607 5.01166 10.3511 5.03233 10.3388 5.05133L7.63345 9.28731C6.99308 10.2893 6.04815 11.0595 4.93757 11.4846L4.49093 11.6555C3.92064 11.874 3.44557 12.2864 3.14923 12.8204C2.85288 13.3544 2.75422 13.9757 2.87057 14.5752L3.25205 16.5449C3.36369 17.1207 3.63799 17.6525 4.04247 18.0772C4.44696 18.502 4.96468 18.8019 5.53434 18.9415L12.7372 20.7073C13.8855 20.9886 15.0985 20.8052 16.1122 20.1969C17.126 19.5886 17.8586 18.6046 18.1507 17.459L19.4868 12.2183C19.6024 11.7652 19.6128 11.2916 19.5174 10.8338C19.422 10.376 19.2232 9.94607 18.9362 9.57684C18.6492 9.2076 18.2817 8.90883 17.8616 8.70334C17.4415 8.49786 16.98 8.39109 16.5124 8.3912H14.7919C15.2603 6.84921 15.4964 5.66038 15.4964 4.80204H15.4954ZM4.25864 14.3051C4.20586 14.0327 4.25077 13.7504 4.38546 13.5078C4.52015 13.2651 4.73603 13.0777 4.99517 12.9785L5.44275 12.8075C6.83618 12.274 8.02172 11.3076 8.82511 10.0503L11.5323 5.8143C11.6173 5.6821 11.6825 5.53668 11.7259 5.3856C11.9639 4.56881 12.13 3.98808 12.2264 3.64532C12.2787 3.45929 12.3288 3.27263 12.3765 3.08536C12.5559 2.4036 12.6437 2.25347 12.6551 2.25347C13.4747 2.25347 14.0781 3.18262 14.0781 4.80204C14.0781 5.63677 13.7702 7.00691 13.1489 8.87655C13.1137 8.98291 13.1041 9.09611 13.1211 9.20686C13.1381 9.31761 13.1812 9.42274 13.2467 9.51362C13.3122 9.6045 13.3984 9.67854 13.4981 9.72964C13.5978 9.78075 13.7082 9.80747 13.8203 9.8076H16.5114C16.7632 9.80758 17.0116 9.86508 17.2378 9.97572C17.4639 10.0864 17.6618 10.2472 17.8163 10.446C17.9708 10.6447 18.0778 10.8762 18.1292 11.1226C18.1807 11.3691 18.1751 11.624 18.1129 11.868L16.7768 17.1087C16.5768 17.8925 16.0754 18.5656 15.3817 18.9817C14.688 19.3978 13.8581 19.5232 13.0724 19.3305L5.86956 17.5648C5.56297 17.4896 5.28435 17.3281 5.06664 17.0995C4.84893 16.8709 4.70125 16.5848 4.64107 16.2749L4.25864 14.3051Z" fill="#898989"/>
</svg>
