<svg width="24" height="24" viewBox="0 0 24 24" fill="none" xmlns="http://www.w3.org/2000/svg">
<path d="M15.7521 5.96897C15.7521 3.66307 14.6756 2.00305 12.9127 2.00305C11.9438 2.00305 11.6115 2.5715 11.264 3.89159C11.1931 4.16542 11.1582 4.29762 11.1214 4.42887C11.026 4.76692 10.8598 5.34481 10.6238 6.15688C10.6173 6.1786 10.6078 6.19927 10.5954 6.21826L7.8901 10.4542C7.24973 11.4563 6.30481 12.2264 5.19422 12.6516L4.74758 12.8225C4.17729 13.0409 3.70223 13.4533 3.40588 13.9873C3.10954 14.5213 3.01087 15.1426 3.12722 15.7421L3.5087 17.7119C3.62034 18.2877 3.89464 18.8194 4.29912 19.2442C4.70361 19.6689 5.22133 19.9688 5.791 20.1084L12.9939 21.8742C14.1422 22.1555 15.3551 21.9721 16.3689 21.3638C17.3827 20.7555 18.1153 19.7715 18.4073 18.6259L19.7435 13.3852C19.859 12.9321 19.8695 12.4585 19.7741 12.0007C19.6786 11.5429 19.4798 11.113 19.1929 10.7438C18.9059 10.3745 18.5383 10.0758 18.1182 9.87027C17.6982 9.66479 17.2367 9.55802 16.769 9.55813H15.0486C15.5169 8.01614 15.753 6.82731 15.753 5.96897H15.7521ZM4.51529 15.4721C4.46252 15.1996 4.50742 14.9173 4.64211 14.6747C4.77681 14.4321 4.99268 14.2447 5.25182 14.1454L5.6994 13.9745C7.09284 13.441 8.27838 12.4745 9.08177 11.2172L11.789 6.98123C11.874 6.84903 11.9391 6.70361 11.9826 6.55253C12.2205 5.73574 12.3867 5.15502 12.483 4.81225C12.5354 4.62623 12.5854 4.43956 12.6332 4.2523C12.8126 3.57054 12.9004 3.4204 12.9117 3.4204C13.7313 3.4204 14.3347 4.34956 14.3347 5.96897C14.3347 6.80371 14.0269 8.17384 13.4056 10.0435C13.3703 10.1498 13.3608 10.263 13.3778 10.3738C13.3948 10.4845 13.4378 10.5897 13.5034 10.6806C13.5689 10.7714 13.6551 10.8455 13.7548 10.8966C13.8545 10.9477 13.9649 10.9744 14.0769 10.9745H16.7681C17.0199 10.9745 17.2683 11.032 17.4944 11.1426C17.7206 11.2533 17.9185 11.4141 18.073 11.6129C18.2275 11.8117 18.3345 12.0431 18.3859 12.2896C18.4373 12.536 18.4317 12.791 18.3696 13.0349L17.0334 18.2756C16.8334 19.0594 16.3321 19.7326 15.6384 20.1486C14.9447 20.5647 14.1147 20.6901 13.3291 20.4975L6.12621 18.7317C5.81963 18.6565 5.541 18.495 5.32329 18.2665C5.10558 18.0379 4.9579 17.7517 4.89772 17.4418L4.51529 15.4721Z" fill="#898989"/>
</svg>
